<svg enable-background="new 0 0 512 512" viewBox="0 0 512 512" xmlns="http://www.w3.org/2000/svg"><path d="m417.016 476.033c33.049-33.049 33.049-86.633 0-119.682s-86.633-33.049-119.682 0c-8.514 8.514-14.815 18.394-18.943 28.93l-153.606-153.606c10.536-4.128 20.417-10.429 28.93-18.943 33.049-33.049 33.049-86.633 0-119.682s-86.632-33.05-119.682 0c-31.029 31.029-32.921 80.158-5.685 113.4l-.298.298 273.773 273.772.185-.185c33.247 28.654 83.47 27.236 115.008-4.302z" fill="#ff7452"/><path d="m153.715 212.732c33.049-33.049 33.049-86.633 0-119.682s-86.632-33.05-119.682 0c-2.267 2.267-4.358 4.64-6.314 7.087l118.914 118.913c2.447-1.954 4.816-4.052 7.082-6.318z" fill="#e24642"/><path d="m417.016 476.033c33.049-33.049 33.049-86.633 0-119.682s-86.633-33.049-119.682 0c-2.266 2.266-4.365 4.635-6.317 7.082l118.913 118.914c2.447-1.956 4.82-4.048 7.086-6.314z" fill="#e24642"/><path d="m437.462 478.027-145.115-145.114c-6.197-6.197-6.197-16.243 0-22.44l37.4-37.4c6.197-6.197 16.243-6.197 22.44 0l145.115 145.115c6.197 6.197 6.197 16.243 0 22.44l-37.4 37.4c-6.197 6.196-16.243 6.196-22.44-.001z" fill="#ffd652"/><path d="m352.88 315.487h48.371v84.627h-48.371z" fill="#f7edbc" transform="matrix(.7071 .7071 -.7071 .7071 363.4434 -161.8279)"/><path d="m497.303 418.187-21.381-21.381-59.842 59.842 21.381 21.381c6.197 6.197 16.243 6.197 22.44 0l37.4-37.4c6.198-6.199 6.198-16.246.002-22.442z" fill="#fb9d46"/><path d="m180.145 220.711-145.114-145.115c-6.197-6.197-6.197-16.243 0-22.44l37.4-37.401c6.197-6.197 16.243-6.197 22.44 0l145.115 145.115c6.197 6.197 6.197 16.243 0 22.44l-37.4 37.4c-6.197 6.198-16.244 6.198-22.441.001z" fill="#ffd652"/><path d="m51.827 92.393 59.842-59.842-16.798-16.796c-6.197-6.197-16.243-6.197-22.44 0l-37.4 37.401c-6.197 6.197-6.197 16.243 0 22.44z" fill="#fb9d46"/><path d="m126.787 88.397h46.377v84.627h-46.377z" fill="#f7edbc" transform="matrix(-.7071 -.7071 .7071 -.7071 163.5979 329.1855)"/><path d="m184.595 324.231-65.431 35.519c-10.238-5.119-21.781-8.015-34.007-8.015-42.064 0-76.165 34.1-76.165 76.165 0 42.064 34.101 76.165 76.165 76.165 42.065 0 76.165-34.101 76.165-76.165 0-12.522-3.041-24.325-8.394-34.746z" fill="#458fde"/><path d="m103.14 486.083c-42.064 0-76.165-34.101-76.165-76.165 0-16.44 5.227-31.651 14.084-44.098-19.4 13.805-32.068 36.457-32.068 62.081 0 42.064 34.101 76.165 76.165 76.165 25.624 0 48.276-12.668 62.081-32.068-12.446 8.858-27.656 14.085-44.097 14.085z" fill="#4f5aa8"/><path d="m475.055 384.718c8.947-14.977 16.371-30.872 22.045-47.322 1.428-4.143-.771-8.659-4.914-10.088-4.144-1.43-8.659.771-10.088 4.914-4.884 14.16-11.141 27.889-18.628 40.911l-105.673-105.672c-9.279-9.279-24.38-9.279-33.66 0l-37.4 37.4c-9.281 9.279-9.281 24.38 0 33.66l8.712 8.712c-1.27 1.139-2.522 2.303-3.726 3.506-6.265 6.264-11.525 13.275-15.719 20.934l-137.613-137.613c7.659-4.193 14.67-9.454 20.935-15.719 1.204-1.204 2.367-2.457 3.505-3.726l11.705 11.705c4.64 4.64 10.735 6.961 16.83 6.961s12.19-2.32 16.83-6.961l37.4-37.4c9.281-9.279 9.281-24.38 0-33.66l-107.79-107.79c33.736-19.39 71.704-30.182 110.788-31.469v14.147c0 4.382 3.552 7.934 7.934 7.934s7.934-3.552 7.934-7.934v-14.134c26.127.859 51.206 5.929 74.572 14.57l-8.205 19.809c-1.677 4.048.245 8.689 4.294 10.366.993.412 2.022.606 3.033.606 3.113 0 6.068-1.845 7.333-4.9l8.234-19.88c23.855 10.686 45.641 25.181 64.593 42.703l-15.066 15.068c-3.098 3.098-3.098 8.122 0 11.22 1.549 1.549 3.58 2.324 5.61 2.324s4.061-.774 5.61-2.324l15.143-15.143c17.763 18.74 32.516 40.356 43.497 64.062l-19.778 8.193c-4.048 1.677-5.971 6.319-4.294 10.366 1.266 3.056 4.22 4.9 7.333 4.9 1.012 0 2.041-.195 3.033-.606l19.889-8.239c9.283 24.159 14.742 50.195 15.635 77.37h-18.365c-4.382 0-7.934 3.552-7.934 7.934s3.552 7.934 7.934 7.934h18.365c-.434 13.197-1.932 26.338-4.501 39.17-.86 4.297 1.925 8.477 6.221 9.338.526.106 1.049.155 1.566.155 3.704 0 7.016-2.607 7.771-6.378 3.29-16.425 4.958-33.321 4.958-50.219 0-52.905-16.559-105.014-47.414-147.991-29.336-40.863-70.634-72.77-117.802-90.397-28.471-10.638-58.811-16.025-89.198-16.025-46.085 0-91.008 12.392-130.317 35.876l-25.731-25.731c-9.281-9.281-24.381-9.279-33.661 0l-37.399 37.4c-9.281 9.281-9.281 24.38 0 33.661l2.719 2.719c-1.269 1.138-2.512 2.311-3.716 3.515-16.342 16.34-25.933 38.044-27.008 61.11-1.027 22.032 5.764 43.546 19.165 60.879.383 1.068 1.003 2.072 1.859 2.929l40.184 40.184c1.549 1.549 3.58 2.324 5.61 2.324s4.061-.774 5.61-2.324c3.098-3.098 3.098-8.122 0-11.22l-38.376-38.376c-.263-.534-.59-1.046-.983-1.525-25.06-30.584-22.842-74.761 5.157-102.762 1.205-1.205 2.467-2.359 3.749-3.482l108.202 108.202c-1.12 1.278-2.284 2.538-3.488 3.743-7.525 7.523-16.345 13.299-26.214 17.166-2.492.976-4.324 3.144-4.872 5.764s.263 5.34 2.156 7.233l153.606 153.606c1.503 1.503 3.528 2.324 5.61 2.324.54 0 1.083-.055 1.623-.168 2.62-.548 4.788-2.38 5.764-4.872 3.866-9.87 9.641-18.689 17.166-26.214 1.204-1.204 2.467-2.359 3.748-3.482l108.208 108.207c-1.124 1.283-2.29 2.534-3.494 3.737-28.227 28.227-74.005 29.941-104.221 3.902-.374-.324-.772-.605-1.186-.847l-124.187-124.187 9.991-21.747c1.426-3.105.706-6.772-1.789-9.106-2.494-2.335-6.204-2.809-9.205-1.178l-20.119 10.922c-.036-.038-.068-.078-.105-.115l-65.585-65.586c-3.098-3.098-8.122-3.098-11.22 0s-3.098 8.122 0 11.22l62.371 62.371-27.25 14.793c-10.654-4.688-21.986-7.063-33.744-7.063-46.372 0-84.099 37.727-84.099 84.099s37.727 84.099 84.099 84.099 84.099-37.727 84.099-84.099c0-12.171-2.54-23.869-7.556-34.837l13.048-28.397 121.463 121.463c.663.663 1.414 1.185 2.217 1.565 16.575 13.648 37.249 21.047 58.75 21.047 1.08 0 2.165-.019 3.249-.056 23.484-.814 45.574-10.417 62.198-27.042 1.204-1.204 2.372-2.449 3.511-3.72l5.715 5.715c4.64 4.64 10.735 6.961 16.83 6.961s12.191-2.32 16.83-6.961l37.4-37.4c9.281-9.281 9.281-24.38 0-33.661zm-434.414-325.952 37.4-37.4c1.547-1.547 3.579-2.32 5.611-2.32 2.031 0 4.063.773 5.61 2.32l145.114 145.114c3.093 3.093 3.093 8.126 0 11.22l-37.4 37.4c-3.094 3.093-8.127 3.093-11.22 0l-145.115-145.114c-3.094-3.094-3.094-8.127 0-11.22zm105.23 338.014c4.988 9.709 7.517 20.18 7.517 31.121 0 37.622-30.609 68.231-68.231 68.231s-68.231-30.609-68.231-68.231 30.609-68.231 68.231-68.231c10.684 0 20.933 2.415 30.459 7.179 2.318 1.159 5.055 1.112 7.333-.124l44.488-24.15-21.718 47.268c-1.018 2.213-.962 4.77.152 6.937zm345.821 38.237-37.4 37.4c-3.093 3.093-8.126 3.094-11.221 0l-145.113-145.115c-3.093-3.093-3.093-8.126 0-11.22l37.4-37.4c1.547-1.547 3.579-2.32 5.61-2.32s4.063.773 5.61 2.32l145.115 145.114c3.094 3.093 3.094 8.128-.001 11.221z"/><path d="m332.694 179.835c4.382 0 7.934-3.552 7.934-7.934v-50.777c0-4.382-3.552-7.934-7.934-7.934h-50.777c-4.382 0-7.934 3.552-7.934 7.934s3.552 7.934 7.934 7.934h42.843v34.909h-42.843c-4.382 0-7.934 3.552-7.934 7.934v50.777c0 4.382 3.552 7.934 7.934 7.934h50.777c4.382 0 7.934-3.552 7.934-7.934s-3.552-7.934-7.934-7.934h-42.843v-34.909z"/><path d="m404.628 230.612c4.382 0 7.934-3.552 7.934-7.934v-25.918h13.223c4.382 0 7.934-3.552 7.934-7.934s-3.552-7.934-7.934-7.934h-13.223v-38.612c0-4.382-3.552-7.934-7.934-7.934s-7.934 3.552-7.934 7.934v38.612h-26.446v-59.769c0-4.382-3.552-7.934-7.934-7.934s-7.934 3.552-7.934 7.934v67.702c0 4.382 3.552 7.934 7.934 7.934h34.38v25.917c0 4.383 3.552 7.936 7.934 7.936z"/><path d="m85.157 375.537c-4.382 0-7.934 3.552-7.934 7.934v8.463c0 4.382 3.552 7.934 7.934 7.934s7.934-3.552 7.934-7.934v-8.463c0-4.382-3.552-7.934-7.934-7.934z"/><path d="m85.157 405.157c-4.382 0-7.934 3.552-7.934 7.934v63.471c0 4.382 3.552 7.934 7.934 7.934s7.934-3.552 7.934-7.934v-63.471c0-4.382-3.552-7.934-7.934-7.934z"/></svg>