<svg height="24" viewBox="0 0 24 24" width="24" xmlns="http://www.w3.org/2000/svg"><path d="m23 12a11 11 0 1 1 -22 0 10.827 10.827 0 0 1 .29-2.5 11 11 0 0 1 21.42 0 10.827 10.827 0 0 1 .29 2.5z" fill="#cfba00"/><ellipse cx="12" cy="9.5" fill="#fc0" rx="10.71" ry="8.5"/><path d="m12 0a12 12 0 1 0 12 12 12 12 0 0 0 -12-12zm0 22a10 10 0 1 1 10-10 10 10 0 0 1 -10 10z" fill="#fff"/><path d="m16.293 8.293-6.293 6.293-2.293-2.293a1 1 0 1 0 -1.414 1.414l3 3a1 1 0 0 0 1.414 0l7-7a1 1 0 1 0 -1.414-1.414z"/></svg>