<svg enable-background="new 0 0 500 500" viewBox="0 0 500 500" xmlns="http://www.w3.org/2000/svg"><path d="m416.8 398.5h33.1v.2h-33.1z" fill="#ebebeb"/><path d="m322.5 401.2h8.7v.2h-8.7z" fill="#ebebeb"/><path d="m396.6 389.2h19.2v.2h-19.2z" fill="#ebebeb"/><path d="m52.5 390.9h43.2v.2h-43.2z" fill="#ebebeb"/><path d="m104.6 390.9h6.3v.2h-6.3z" fill="#ebebeb"/><path d="m131.5 395.1h93.7v.2h-93.7z" fill="#ebebeb"/><path d="m0 382.4h500v.2h-500z" fill="#ebebeb"/><path d="m75.7 148h90.7c11.6 0 14.4-16.3 3.4-20.1l-.4-.1c12.1-10.1-14.5-31.4-43.4-1.9 2.3-9.8-23.5-6.3-31.3 7.2-2.9-8.9-27.4 6.4-19 14.9z" fill="#e6e6e6"/><path d="m318.2 107.4h54.4s12.8-4.8 11.1-17.5-20.9-2.1-20.9-2.1 5.8-17.8-12.8-12.7-20.5 22.6-20.5 22.6-24.4-4.3-11.3 9.7z" fill="#ebebeb"/><path d="m368.2 143.2h35.9s8.4-3.2 7.3-11.6-13.8-1.4-13.8-1.4 3.9-11.7-8.5-8.4c-7.1 1.8-12.4 7.7-13.5 14.9.1.1-16.1-2.7-7.4 6.5z" fill="#ebebeb"/><path d="m361.3 325.2-.1-10.6v-.6l-.1-9.5v-.6l-.1-9v-.6l-.1-8.6v-.6l-.1-8.2v-.5l-.1-7.8v-.5l-.1-7.5v-.5l-.1-6.2c-.3.2-.6.4-1 .5v5.2h-6.5l5.3-4.9c-.6.1-1.1.2-1.7.2l-4.4 4 .1-4.7c-.4-.1-.7-.3-1-.6l-.1 6.5v.5l-.1 7.5v.5l-.1 7.8v.5l-.1 8.2v.6l-.1 8.6v.6l-.2 9v.6l-.2 9.5v.6l-.2 10.6-1 45.8 12.8.1zm-1.3-2-7.7-8.3h7.6zm-.2-9.3h-7.6l7.5-7.9zm.1-11.7-7.3-7.5h7.3zm-.1-8.5h-7.2l7.2-7.2zm0-9.9-7-6.8h6.9zm0-7.9h-6.9l6.9-6.6zm-.1-15.1v6.2l-6.7-6.2zm-7.6 1.4 6.7 6.2h-6.8zm-.1 7.3h6.8l-6.9 6.5zm-.1 9.1 7 6.8h-7.1zm-.1 7.8h7.1l-7.2 7.2zm-.1 10 7.3 7.5h-7.4zm-.1 8.5h7.4l-7.6 7.9zm-.1 10.5 7.7 8.3h-7.8z" fill="#ebebeb"/><path d="m360.5 252.9h-.5l-.4-.3-3 2.8c.6 0 1.1-.1 1.7-.2l1.2-1.1v.8c.4-.1.7-.3 1-.5zm-9.2.1v1.1c.3.2.6.4 1 .6v-1.7z" fill="#ebebeb"/><path d="m362 252.1c.1.6-.1 1.1-.5 1.5l-.4.3c-.2.2-.4.3-.6.4-.3.2-.6.4-1 .5-.4.2-.8.3-1.2.4-.5.1-1.1.2-1.7.2h-.8c-1.2 0-2.4-.2-3.6-.7-.4-.2-.7-.4-1-.6l-.1-.1-.3-.3c-.4-.4-.6-.9-.5-1.5l.8-4.3h-2l7-3.6 7.3 3.3h-2z" fill="#ebebeb"/><path d="m406.7 243v25.3h5.1 29.6 5.1v-25.3z" fill="#ebebeb"/><path d="m406.6 268.3h-8.4v-7.6h8.4z" fill="#fafafa"/><path d="m414.4 260.7h8.4v7.6h-8.4z" fill="#fafafa"/><path d="m430.5 260.7h8.4v7.6h-8.4z" fill="#fafafa"/><path d="m455.1 268.3h-8.4v-7.6h8.4z" fill="#f0f0f0"/><path d="m406.5 282.1h-8.2v-7.4h8.2z" fill="#f0f0f0"/><path d="m414.4 274.8h8.2v7.4h-8.2z" fill="#f0f0f0"/><path d="m430.6 274.8h8.2v7.4h-8.2z" fill="#fafafa"/><path d="m454.9 282.1h-8.2v-7.4h8.2z" fill="#fafafa"/><path d="m406.5 295.6h-8v-7.2h8z" fill="#f0f0f0"/><path d="m414.5 288.4h8v7.2h-8z" fill="#fafafa"/><path d="m430.6 288.4h8v7.2h-8z" fill="#fafafa"/><path d="m414.2 249.7h8.6v7.7h-8.6z" fill="#fafafa"/><path d="m430.3 249.7h8.6v7.7h-8.6z" fill="#f0f0f0"/><path d="m454.8 295.6h-8v-7.2h8z" fill="#f0f0f0"/><path d="m406.4 308.8h-7.9v-7h7.9z" fill="#fafafa"/><path d="m414.7 301.8h7.9v7h-7.9z" fill="#f0f0f0"/><path d="m438.6 308.8h-7.9v-7h7.9z" fill="#f0f0f0"/><path d="m454.7 308.8h-7.9v-7h7.9z" fill="#fafafa"/><path d="m406.8 323.6h-8.8v-7.9h8.8z" fill="#f0f0f0"/><path d="m422.9 323.6h-8.7v-7.9h8.8z" fill="#fafafa"/><path d="m438.9 323.6h-8.8v-7.9h8.8z" fill="#fafafa"/><path d="m455 323.6h-8.8v-7.9h8.8z" fill="#f0f0f0"/><path d="m406.8 336.1h-8.5v-7.7h8.6z" fill="#f0f0f0"/><path d="m414.3 328.4h8.5v7.7h-8.5z" fill="#fafafa"/><path d="m430.4 328.4h8.5v7.7h-8.5z" fill="#f0f0f0"/><path d="m455 336.1h-8.5v-7.7h8.6z" fill="#fafafa"/><path d="m406.7 350.2h-8.3v-7.5h8.3z" fill="#fafafa"/><path d="m414.4 342.7h8.3v7.5h-8.3z" fill="#fafafa"/><path d="m430.4 342.7h8.3v7.5h-8.3z" fill="#f0f0f0"/><path d="m454.7 350.2h-8.3v-7.5h8.3z" fill="#f0f0f0"/><path d="m406.7 363h-8.1v-7.3h8.1z" fill="#f0f0f0"/><path d="m454.7 363h-8.1v-7.3h8.1z" fill="#fafafa"/><path d="m438.8 355.7h-24.3v1.8h.7v13.5h2.4v-13.5h18v13.5h2.4v-13.5h.7z" fill="#f5f5f5"/><path d="m426.7 371h-9v-13.5h9z" fill="#e6e6e6"/><path d="m435.5 371h-9v-13.5h9z" fill="#ebebeb"/><path d="m394.2 293.6.2 77.4h-10.3-60.1-10.3l-.7-77.4z" fill="#f5f5f5"/><path d="m378.8 310.8h10.1v-9h-10.1z" fill="#e6e6e6"/><path d="m358.6 310.8h10.1v-9h-10.1z" fill="#e6e6e6"/><path d="m338.5 310.8h10.1l-.1-9h-10.1z" fill="#e6e6e6"/><path d="m318.4 310.8h10.1l-.1-9h-10.1z" fill="#e6e6e6"/><path d="m378.4 328.4h10.9v-9.7h-10.9z" fill="#e6e6e6"/><path d="m358.3 328.4h10.9v-9.7h-10.9z" fill="#e6e6e6"/><path d="m338.2 328.4h10.9l-.1-9.7h-10.9z" fill="#e6e6e6"/><path d="m318.2 328.4h10.8l-.1-9.7h-10.9z" fill="#e6e6e6"/><path d="m378.7 344.6h10.5v-9.4h-10.5z" fill="#e6e6e6"/><path d="m358.6 344.6h10.5v-9.4h-10.5z" fill="#e6e6e6"/><path d="m338.6 344.6h10.5l-.1-9.4h-10.5z" fill="#e6e6e6"/><path d="m318.5 344.6h10.5l-.1-9.4h-10.5z" fill="#e6e6e6"/><path d="m378.9 361.1h10.2v-9.1h-10.2z" fill="#e6e6e6"/><path d="m318.8 361.1h10.2v-9.1h-10.2z" fill="#e6e6e6"/><path d="m338.1 352h31.6v2.8h-2l.1 16.2h-2.9l-.1-16.2h-21.7l.1 16.2h-2.9l-.1-16.2h-2z" fill="#f5f5f5"/><path d="m354.1 371h10.8l-.1-16.2h-10.8z" fill="#e6e6e6"/><path d="m343.1 371h10.8l-.1-16.2h-10.8z" fill="#ebebeb"/><path d="m152.1 227.3v-3.6c0-.2-.3-.4-.5-.4s-.3.2-.4.4v4c0 .2.2.4.4.4 1 0 1.7.8 1.7 1.8s-.8 1.7-1.8 1.7-1.7-.8-1.7-1.8c0-.6-.9-.6-.9 0 .2 2.2 2.8 3.6 4.5 1.9 1-1 1-2.7-.1-3.7-.2-.4-.7-.6-1.2-.7z" fill="#ebebeb"/><path d="m88 201.1v7.9l-8.3-8.3-.4.4h-.6v75h10.5v-75zm-8.1 57.2 7.3 7.3h-7.3zm0-18.6 7.3 7.3h-7.3zm0-18.6 7.3 7.3h-7.3zm0-18.6 7.3 7.3h-7.3zm7.3 8.5-7.3 7.3v-7.3zm.8.8v7.3h-7.3zm-.8 17.8-7.3 7.3v-7.3zm.8.8v7.3h-7.3zm-.8 17.8-7.3 7.3v-7.3zm.8.8v7.3h-7.3zm-.8 17.8-7.3 7.3v-7.3zm-6.5 8.2 7.3-7.4v7.4zm7.3-10.2-7.3-7.3h7.3zm0-18.6-7.3-7.3h7.3zm0-18.6-7.3-7.3h7.3z" fill="#f0f0f0"/><path d="m79.9 176.4v14.6h1.1v-5.6l6 6 .4-.4h.6v-14.6zm6.1 1.2-5 5v-5zm.8 12-5-5h5zm-5-6.2 5-5v5z" fill="#f0f0f0"/><path d="m46.8 201.1h14v13.9h-14z" fill="#e6e6e6"/><path d="m151.9 221.2h-.8v-26.8l-65-21.6h-4.3l-34.8 21.7-.4-.6 35-21.7h4.7.1l65.6 21.7v27.3z" fill="#e6e6e6"/><path d="m143.9 201.7h.8l8.2-8.2h-106.7v8.1zm1.2-7h5l-5 5zm-97.7 5.8v-5l5 5zm5.8-.8-5-5h5zm1.2-5h5l-5 5zm5.8 5.8h-5l5-5zm1.1 0v-5l5 5zm5.9-.8-5-5h5zm1.1-5h5l-5 5zm5.8 5.8h-5l5-5zm1.2 0v-5l5 5zm5.8-.8-5-5h5zm1.2-5h5l-5 5zm5.8 5.8h-5l5-5zm1.2 0v-5l5 5zm5.8-.8-5-5h5zm1.1-5h5l-5 5zm5.8 5.8h-5l5-5zm1.2 0v-5l5 5zm5.8-.8-5-5h5zm1.2-5h5l-5 5zm5.8 5.8h-5l5-5zm1.2 0v-5l5 5zm5.8-.8-5-5h5zm1.1-5h5l-5 5zm5.9 5.8h-5l5-5zm1.1-5.8h5l-5 5zm5.8 5.8h-5l5-5zm1.2 0v-5l5 5zm.8-5.8h5v5z" fill="#f0f0f0"/><path d="m94.3 204.3h-21.4l.8-9c.2-2.4 2.3-4.3 4.7-4.3h10.2c2.4 0 4.4 1.8 4.7 4.2z" fill="#f0f0f0"/><path d="m76.3 194.7h4.1v4.1h-4.1z" fill="#fafafa"/><path d="m81.5 194.7h4.1v4.1h-4.1z" fill="#fafafa"/><path d="m86.7 194.7h4.1v4.1h-4.1z" fill="#fafafa"/><path d="m86.7 174.2c0 1.6-1.3 2.8-2.8 2.8s-2.8-1.3-2.8-2.8c0-1.6 1.3-2.8 2.8-2.8 1.6 0 2.8 1.2 2.8 2.8z" fill="#e6e6e6"/><path d="m151.7 226.1c-1.3 0-2.4-1.1-2.4-2.4v-2.4h4.8v2.4c0 1.3-1.1 2.4-2.4 2.4z" fill="#e6e6e6"/><path d="m38 257.5 1.9 113.5h8.2 47.9 8.2l-1.2-113.6h-65z" fill="#f5f5f5"/><path d="m42.1 260.7.2 13.8.1 3.8.1 3.8h8.4l-.1-3.8v-3.8l-.2-13.8z" fill="#e6e6e6"/><path d="m58.3 260.7.2 13.8v3.8l.1 3.8h8.4l-.1-3.8-.1-3.8-.2-13.8z" fill="#e6e6e6"/><path d="m74.4 260.7.2 13.8.1 3.8.1 3.8h8.4v-3.8l-.1-3.8-.2-13.8z" fill="#e6e6e6"/><path d="m90.6 260.7.2 13.8.1 5.9v1.7h8.4v-1.7l-.1-5.9-.2-13.8z" fill="#e6e6e6"/><path d="m42.6 288.4.2 13.8.1 3.8.1 3.8h8.4v-3.8l-.1-3.8-.2-13.8z" fill="#e6e6e6"/><path d="m58.7 288.4.2 13.8.1 5.3v2.2h8.4v-2.2l-.1-5.3-.2-13.8z" fill="#e6e6e6"/><path d="m74.8 288.4.2 13.8.1 3.8.1 3.8h8.4l-.1-3.8-.1-3.8-.2-13.8z" fill="#e6e6e6"/><path d="m91 288.4.2 13.8v3.8l.1 3.8h8.4v-3.8-3.8l-.2-13.8z" fill="#e6e6e6"/><path d="m43.1 315.8.2 13.8.1 3.8.1 3.8h8.4l-.1-3.8-.1-3.8-.2-13.8z" fill="#e6e6e6"/><path d="m59.2 315.8.2 13.8v3.8l.1 3.8h8.4l-.1-3.8-.1-3.8-.2-13.8z" fill="#e6e6e6"/><path d="m75.2 315.8.2 13.8.1 3.8.1 3.8h8.4l-.1-3.8-.1-3.8-.2-13.8z" fill="#e6e6e6"/><path d="m91.3 315.8.2 13.8.1 5.2v2.3h8.4v-2.3l-.1-5.2-.2-13.8z" fill="#e6e6e6"/><path d="m96 342.7h-4.2-7.8-8.3-7.8-8.3-16.2l.1 7.5h16.1 8.4 7.8 8.3 7.8 4.2 4.2l-.1-7.5z" fill="#e6e6e6"/><path d="m84 355.7h-24.3v1.8h.7l.2 13.5h2.4l-.2-13.5h18l.2 13.5h2.4l-.2-13.5h.8z" fill="#fafafa"/><path d="m72.2 371h-9l-.2-13.5h9z" fill="#e6e6e6"/><path d="m80.9 371h-9l-.2-13.5h9z" fill="#e6e6e6"/><path d="m164.4 264 .7 107h-7.8-45.1-7.8l-1.3-107z" fill="#e6e6e6"/><path d="m142.7 344.6h3.3 14.9v3.4 3.4l.1 12.4h-7.7l-.1-12.8h-7.5-3-4.3l-.1-6.5h4.4z" fill="#f0f0f0"/><path d="m113.4 344.6h3 14.1l.1 6.5h-14.6l.2 12.8h-7.7l-.1-12.4-.1-5v-1.9z" fill="#f0f0f0"/><path d="m124.2 356.6h20.9v1.8h.2l.1 12.6h-2.3l-.1-12.6h-16.8l.1 12.6h-2.3l-.1-12.6h.2z" fill="#f5f5f5"/><path d="m134.7 371h8.4l-.1-12.6h-8.4z" fill="#ebebeb"/><path d="m126.5 371h8.4l-.1-12.6h-8.4z" fill="#e0e0e0"/><path d="m137.3 268.3h23.3l.1 20.1h-23.3z" fill="#f0f0f0"/><path d="m107.1 268.3h23.3l.2 20.1h-23.3z" fill="#f0f0f0"/><path d="m138 293.6h22.3l.1 19.2h-22.3z" fill="#f0f0f0"/><path d="m107.8 293.6h22.3l.2 19.2h-22.3z" fill="#f0f0f0"/><path d="m138.2 319.7h22.4l.1 19.2h-22.4z" fill="#f0f0f0"/><path d="m108.1 319.7h22.4l.2 19.2h-22.4z" fill="#f0f0f0"/><ellipse cx="250" cy="415.7" fill="#f5f5f5" rx="193.9" ry="11.3"/><path d="m160.8 84.6 3.7 4.8h170.9l3.8-4.8z" fill="#7e57c2"/><path d="m160.8 84.6 3.7 4.8h170.9l3.8-4.8z" opacity=".4"/><path d="m164.2 78.4h171.3v303.6h-171.3z" fill="#7e57c2"/><path d="m164.2 78.4h171.3v303.6h-171.3z" fill="#fff" opacity=".4"/><g fill="#f0f0f0" opacity=".8"><path d="m171.1 85.9c.3 1.7-.9 3.3-2.6 3.5-.1 0-.3 0-.4 0-2-.1-3.6-1.6-3.8-3.6-.3-1.7.9-3.3 2.6-3.6h.5c1.9.2 3.6 1.7 3.7 3.7z"/><path d="m177.5 85.9c.2 1.7-1 3.3-2.7 3.5-.1 0-.3 0-.4 0-2-.1-3.6-1.6-3.8-3.6-.3-1.7.9-3.3 2.6-3.6h.4c2.1.2 3.7 1.7 3.9 3.7z"/><path d="m183.8 85.9c.2 1.7-1 3.3-2.7 3.5-.1 0-.3 0-.4 0-2-.1-3.6-1.6-3.8-3.6-.2-1.7 1-3.3 2.7-3.6h.4c2 .2 3.6 1.7 3.8 3.7z"/><path d="m190.1 85.9c.2 1.8-1.1 3.3-2.8 3.5-.1 0-.2 0-.3 0-2-.1-3.6-1.6-3.7-3.6-.2-1.8 1-3.4 2.8-3.6h.4c1.8.2 3.4 1.7 3.6 3.7z"/><path d="m196.4 85.9c.2 1.8-1.1 3.4-2.9 3.6-.1 0-.2 0-.3 0-2-.1-3.6-1.6-3.7-3.6-.2-1.8 1.1-3.4 2.8-3.6h.3c2 0 3.6 1.6 3.8 3.6z"/><path d="m202.7 85.9c.2 1.8-1.1 3.4-2.9 3.6-.1 0-.2 0-.3 0-2-.1-3.5-1.6-3.7-3.6-.2-1.8 1.1-3.4 2.9-3.6h.3c2 0 3.6 1.6 3.7 3.6z"/><path d="m209 85.9c.2 1.8-1.2 3.4-3 3.6-.1 0-.2 0-.2 0-2-.1-3.5-1.6-3.6-3.6-.2-1.8 1.1-3.4 2.9-3.6h.3c1.9 0 3.5 1.6 3.6 3.6z"/><path d="m215.3 85.9c.1 1.8-1.2 3.4-3.1 3.6-.1 0-.1 0-.2 0-2-.1-3.5-1.6-3.6-3.6-.2-1.8 1.2-3.4 3-3.6h.2c2 0 3.6 1.6 3.7 3.6z"/><path d="m221.6 85.9c.1 1.8-1.3 3.4-3.1 3.6-.1 0-.1 0-.2 0-2-.1-3.5-1.6-3.6-3.6-.1-1.8 1.2-3.5 3.1-3.6h.2c2 0 3.5 1.6 3.6 3.6z"/><path d="m227.9 85.9c.1 1.9-1.3 3.5-3.2 3.6h-.1c-1.9 0-3.5-1.6-3.6-3.6-.1-1.9 1.3-3.5 3.2-3.6h.2c1.9 0 3.5 1.6 3.5 3.6z"/><path d="m234.2 85.9c.1 1.9-1.4 3.5-3.3 3.6h-.1c-1.9-.1-3.5-1.6-3.5-3.6-.1-1.9 1.3-3.5 3.2-3.6h.1c2 0 3.6 1.6 3.6 3.6z"/><path d="m240.5 85.9c.1 1.9-1.4 3.5-3.3 3.6 0 0 0 0-.1 0-1.9-.1-3.5-1.6-3.5-3.6-.1-1.9 1.4-3.5 3.3-3.6h.1c1.9 0 3.5 1.6 3.5 3.6z"/><path d="m246.8 85.9c.1 1.9-1.5 3.5-3.4 3.6-1.9 0-3.5-1.6-3.5-3.6-.1-1.9 1.4-3.5 3.4-3.6h.1c1.9 0 3.4 1.6 3.4 3.6z"/><path d="m253.1 85.9c-.1 1.9-1.7 3.4-3.6 3.3s-3.4-1.7-3.3-3.6c.1-1.8 1.6-3.3 3.4-3.3 2 0 3.5 1.6 3.5 3.6z"/><path d="m259.4 85.9c0 1.9-1.5 3.5-3.5 3.6-1.9 0-3.4-1.6-3.4-3.5 0-1.9 1.5-3.6 3.5-3.6 1.9-.1 3.4 1.5 3.4 3.5 0-.1 0 0 0 0z"/><path d="m265.7 85.9c0 1.9-1.6 3.5-3.5 3.6-1.9 0-3.4-1.6-3.4-3.5 0 0 0 0 0-.1 0-2 1.5-3.6 3.5-3.6 1.9 0 3.4 1.6 3.4 3.6 0-.1 0 0 0 0z"/><path d="m272 85.9c0 1.9-1.6 3.5-3.5 3.6-1.9 0-3.4-1.6-3.4-3.5 0 0 0 0 0-.1 0-2 1.6-3.6 3.5-3.6s3.4 1.6 3.4 3.5z"/><path d="m278.3 85.9c0 1.9-1.6 3.5-3.6 3.6-1.9 0-3.4-1.6-3.3-3.4v-.1c0-2 1.6-3.5 3.5-3.6 1.9 0 3.4 1.6 3.3 3.4.1 0 .1 0 .1.1z"/><path d="m284.6 85.9c-.1 2-1.7 3.5-3.6 3.6-1.9 0-3.3-1.6-3.3-3.4 0-.1 0-.1 0-.2 0-2 1.6-3.5 3.6-3.6 1.9 0 3.3 1.5 3.3 3.4z"/><path d="m290.9 85.9c-.1 2-1.6 3.5-3.6 3.6-1.8 0-3.3-1.5-3.3-3.3 0-.1 0-.2 0-.2.1-2 1.6-3.5 3.6-3.6 1.8 0 3.3 1.5 3.3 3.3z"/><path d="m297.2 85.9c-.1 2-1.7 3.5-3.6 3.6-1.8 0-3.3-1.5-3.3-3.3 0-.1 0-.2 0-.2.1-2 1.7-3.5 3.6-3.6 1.8 0 3.3 1.5 3.3 3.3z"/><path d="m303.5 85.9c-.1 2-1.7 3.5-3.7 3.6-1.8 0-3.3-1.5-3.2-3.3 0-.1 0-.2 0-.3.1-2 1.7-3.5 3.7-3.6 1.8 0 3.2 1.5 3.2 3.3z"/><path d="m309.8 85.9c-.1 2-1.7 3.5-3.7 3.6-1.8 0-3.2-1.5-3.2-3.3 0-.1 0-.2 0-.2.1-2 1.7-3.5 3.7-3.6 1.8 0 3.2 1.5 3.2 3.3z"/><path d="m316.1 85.9c-.2 2-1.8 3.5-3.7 3.6-1.8 0-3.2-1.5-3.2-3.2 0-.1 0-.2 0-.4.1-2 1.7-3.5 3.7-3.6 1.8 0 3.2 1.5 3.2 3.2.1.1.1.3 0 .4z"/><path d="m322.4 85.9c-.2 2-1.8 3.5-3.8 3.6-1.8 0-3.2-1.4-3.2-3.2 0-.1 0-.2 0-.4.2-2 1.8-3.5 3.8-3.6 1.8 0 3.2 1.4 3.2 3.2.1.1.1.2 0 .4z"/><path d="m328.8 85.9c-.2 1.9-1.8 3.5-3.8 3.6-1.7 0-3.1-1.4-3.1-3.2 0-.1 0-.3 0-.4.2-2 1.8-3.5 3.8-3.6 1.7 0 3.1 1.5 3.1 3.2z"/><path d="m335 85.9c-.2 2-1.8 3.5-3.8 3.6-1.7 0-3.1-1.4-3.1-3.1 0-.1 0-.3 0-.4.2-2 1.8-3.5 3.8-3.6 1.7 0 3.1 1.4 3.1 3.1.1.1.1.2 0 .4z"/></g><path d="m160.8 79.7h178.4v4.9h-178.4z" fill="#7e57c2"/><path d="m160.8 74.9 3.7 4.9h170.9l3.8-4.9z" fill="#7e57c2"/><path d="m160.8 74.9 3.7 4.9h170.9l3.8-4.9z" opacity=".4"/><path d="m160.8 70h178.4v4.9h-178.4z" fill="#7e57c2"/><path d="m164.5 74.9h170.9v4.9h-170.9z" fill="#fff" opacity=".8"/><path d="m164.3 175.8h171.2v2.1h-171.2z" fill="#fff" opacity=".7"/><path d="m164.6 282.5h170.9v2.1h-170.9z" fill="#fff" opacity=".8"/><g fill="#7e57c2"><path d="m199.8 98.8h21.2v22.9h-21.2z"/><path d="m240.4 98.8h21.2v22.9h-21.2z"/><path d="m281.1 98.8h21.2v22.9h-21.2z"/><path d="m199.8 133h21.2v22.9h-21.2z"/><path d="m240.4 133h21.2v22.9h-21.2z"/><path d="m281.1 133h21.2v22.9h-21.2z"/><path d="m199.8 299h21.2v22.9h-21.2z"/><path d="m240.4 299h21.2v22.9h-21.2z"/><path d="m281.1 299h21.2v22.9h-21.2z"/><path d="m177.1 347.1h21.2v22.9h-21.2z"/><path d="m301.5 347.1h21.2v22.9h-21.2z"/><path d="m199.8 196h21.2v22.9h-21.2z"/><path d="m240.4 196h21.2v22.9h-21.2z"/><path d="m281.1 196h21.2v22.9h-21.2z"/><path d="m199.8 230.2h21.2v22.9h-21.2z"/><path d="m240.4 230.2h21.2v22.9h-21.2z"/><path d="m281.1 230.2h21.2v22.9h-21.2z"/></g><path d="m225.4 349.8h21.9l-.1 22.8h-22z" fill="#fff" opacity=".8"/><path d="m251.5 349.8h22.8l-1.1 22.8h-22z" fill="#fff" opacity=".8"/><path d="m277.8 377.1h-57.8l-.2-4.6h58.2z" fill="#7e57c2"/><path d="m277.8 377.1h-57.8l-.2-4.6h58.2z" fill="#fff" opacity=".1"/><path d="m280.1 382h-62.2l-.2-4.5h62.7z" fill="#7e57c2"/><path d="m282.2 341.8h-66.5l-.3-5.1h67z" fill="#fff" opacity=".4"/><path d="m215.7 341.8 9.6 8.1h49l7.9-8.1z" fill="#263238"/><path d="m220.2 345.5 3.4 27h2.7l-1.1-27c-1.5-.8-3.4-.8-5 0z" fill="#7e57c2"/><path d="m278.6 345.5-3.3 27h-2.7l1-27c1.5-1 3.5-1 5 0z" fill="#7e57c2"/><path d="m193.4 62.5c0-4.4 3.4-7.5 8-7.5 2.4-.1 4.7.9 6.2 2.7l-2.6 2.4c-.8-1.1-2.1-1.7-3.4-1.7-2.3 0-4.1 1.9-4.1 4.2s1.9 4.1 4.1 4.1c1.3 0 2.6-.6 3.4-1.7l2.6 2.4c-1.5 1.8-3.9 2.9-6.2 2.7-4.6 0-8-3.1-8-7.6z" fill="#263238"/><path d="m208.4 62.5c0-4.3 3.4-7.5 8.1-7.5s8.1 3.2 8.1 7.5-3.4 7.6-8.1 7.6-8.1-3.2-8.1-7.6zm12 0c-.1-2.2-2-3.8-4.1-3.7-2.2.1-3.8 2-3.7 4.1s1.8 3.7 3.9 3.7 3.9-1.7 3.9-3.9c0 0 0-.1 0-.2z" fill="#263238"/><path d="m239.9 69.8v-7.7l-3.7 6.3h-1.8l-3.7-6.1v7.5h-3.8v-14.5h3.4l5.1 8.4 5-8.4h3.4v14.5z" fill="#263238"/><path d="m259.6 60.7c0 3.3-2.5 5.3-6.4 5.3h-2.5v3.8h-4.1v-14.5h6.6c3.9 0 6.4 2 6.4 5.4zm-4.1 0c0-1.3-.9-2.1-2.6-2.1h-2.3v4.2h2.3c1.7 0 2.6-.8 2.6-2.1z" fill="#263238"/><path d="m270.6 67h-6.1l-1.1 2.8h-4.2l6.4-14.5h4l6.4 14.5h-4.3zm-1.2-3-1.9-4.6-1.9 4.6z" fill="#263238"/><path d="m291 55.3v14.5h-3.4l-6.4-7.7v7.7h-4v-14.5h3.4l6.4 7.7v-7.7z" fill="#263238"/><path d="m301.7 64.6v5.2h-4.1v-5.3l-5.5-9.3h4.3l3.5 5.8 3.4-5.8h4z" fill="#263238"/><path d="m164.5 74.9h170.9v4.9h-170.9z" fill="#7e57c2"/><path d="m362.2 231.1c-5.4 7.2-7.5 10.6-9.5 12.6-2.3 2.2-25.5.5-28.2-.6-2.1-.9-.7-3.7.4-3.5 3.8.5 18.2-2 22.4-3.8.7-.3 8-9.2 8-9.2z" fill="#ffb573"/><path d="m353.4 226.3c4.5-8.3 13.5-14.4 16.2-14.8 3.9-.5 5.2.3 4.1 3.4-1.9 5.3-5.5 10.9-10.5 17.7z" fill="#7e57c2"/><path d="m353.4 226.3c4.5-8.3 13.5-14.4 16.2-14.8 3.9-.5 5.2.3 4.1 3.4-1.9 5.3-5.5 10.9-10.5 17.7z" opacity=".1"/><path d="m369.6 211.6c2.2-.8 4.4-1.5 6.7-2 4.1-1 8.4-1.7 12.6-2.1 2.5-.3 5-.4 7.4-.4.3 0 .5 0 .8.1 1.9.5 3.2 2.4 2.8 4.4-4.2 22.1-4.4 31.8-3.8 43.2l-25.4.9c-.7 0-1.2-.5-1.3-1.1-1.1-5.7-4.6-18.4-4.6-18.4-3.2-3.1-3.7-6.8-4-9-.2-1.2 2.5-2.5 5.4-8.8-.2-.1 2.1-6.4 3.4-6.8z" fill="#7e57c2"/><path d="m385.6 255.1-9.2.3c-1.4-11-1.1-20.7-.6-31.6 2.7 10.6 6 21 9.8 31.3z" fill="#263238"/><path d="m388.3 339.7c-.2-.5-.5-1-.7-1.6-10-23.9-17.6-72.1-17.6-72.1l17.8-9s5.1 42.4 12 70c1.1 4.2 2.1 8 3.3 11.3l-12.1 5.6z" fill="#ffb573"/><path d="m388.3 339.7c-.2-.5-.5-1-.7-1.6-10-23.9-17.6-72.1-17.6-72.1l17.8-9s5.1 42.4 12 70c1.1 4.2 2.1 8 3.3 11.3l-12.1 5.6z" fill="#263238" opacity=".8"/><path d="m371.3 259.8s-8.1 57-6.2 80.3c2 24.6 9.3 66.6 9.3 66.6l6-.4c2-21.9 1.5-44.1-1.5-65.9 13.8-35.4 15.3-79.8 15.3-79.8z" fill="#ffb573"/><path d="m371.3 259.8s-8.1 57-6.2 80.3c2 24.6 9.3 66.6 9.3 66.6l6-.4c2-21.9 1.5-44.1-1.5-65.9 13.8-35.4 15.3-79.8 15.3-79.8z" fill="#263238" opacity=".8"/><path d="m381.2 408.2c.4.8.6 1.7.7 2.6.2 3.3.4 12.1.4 12.1h-.7s-.4-4.3-.9-6.5-.8-.3-1.9 2-4.2 4.8-8.9 5.2c-5.5.5-7.8.4-6.2-1.1s5.1-2.7 5.1-2.7 4.8-8.2 4.5-13.8c-.3-5.9 6.5-.4 7.9-1.2.3.2-.3 2.9 0 3.4z" fill="#263238"/><path d="m400.2 329c-3.5.8-6.6 3.3-15.8 4.2h-.5c-.4 0-.8.1-1.2.1-2.5.1-16.5-.5-19.2-2.1 2.3-23.5 6.7-73.3 6.7-73.3l10.8-1.3 13.9-.4s15.3 15.8 11.8 30.1c-5.3 21.6-2.7 24.9-6.5 42.7z" fill="#263238"/><path d="m395.9 243.4c-.7-.7-1.1-1.8-1-2.8 0 0 0-1.6 0-4-.1-7-.1-21 .6-22.9 1.6-4 4.3-6.2 5.8-3.9 1.7 2.7 1.8 23.5 1.8 23.5-.5 13.9-5.6 12.1-7.2 10.1z" fill="#ffb573"/><path d="m392.6 206.6-.8 1.5c-3.2 5.8-10.7 13.4-13.7 14.2-.7-1.6-1.7-3-3.1-4.1-1.6.8-2.8 2.2-3.3 3.9-2.5-4.1-2.3-9.2-1.7-11.8 1.5-.4 3.1-.9 4.6-1.3 4.2-1 8.4-1.6 12.6-2 1.8-.2 3.6-.3 5.4-.4z" fill="#7e57c2"/><path d="m392.6 206.6-.8 1.5c-3.2 5.8-10.7 13.4-13.7 14.2-.6-1.4-1-2.9-1.4-4.3-1.6.8-2.7 3-3.2 4.7-2.5-4.1-4-9.8-3.4-12.4 1.5-.4 3.1-.9 4.6-1.3 4.2-1 8.4-1.6 12.6-2 1.7-.2 3.5-.3 5.3-.4z" fill="#fff" opacity=".8"/><path d="m373.3 235.3-3.5-4.7-3.1 6.2s3.2 1.8 5.8 1.2z" fill="#ffb573"/><path d="m364.3 229.1-1.5 5 3.9 2.6 3.1-6.1z" fill="#ffb573"/><path d="m396 257.6-12.9.4h-1.1l-2.8.1h-1.1l-7.5.2c-.2 0-.4-.1-.5-.3l-.3-2.4c0-.2.2-.3.5-.3l7.5-.3h.9l3.7-.1h.9l12.4-.5c.2 0 .3.1.5.2l.3 2.8s-.2.2-.5.2z" fill="#7e57c2"/><path d="m396 257.6-12.9.4h-1.1l-2.8.1h-1.1l-7.5.2c-.2 0-.4-.1-.5-.3l-.3-2.4c0-.2.2-.3.5-.3l7.5-.3h.9l3.7-.1h.9l12.4-.5c.2 0 .3.1.5.2l.3 2.8s-.2.2-.5.2z" fill="#fff" opacity=".2"/><path d="m374.3 258.5h.8c.1 0 .2-.1.3-.2l-.5-3.4c0-.1-.2-.2-.3-.2h-.8c-.2 0-.3.1-.3.2l.5 3.4c0 .1.1.2.3.2z" fill="#263238"/><path d="m388.6 258.3h.8c.1 0 .2 0 .3-.2l-.5-3.4c0-.1-.2-.2-.3-.2h-.8c-.2 0-.3.1-.3.2l.5 3.4c0 .1.1.2.3.2z" fill="#263238"/><path d="m392.8 273.1-2-.7 8.9-26.6c1.4-4.2.9-8.3-4.4-10.1-4.9-1.7-8.8.7-10.2 5l-9 26.5-2-.7 9-26.5c1.7-4.9 4.9-8.2 12.6-5.5s7.6 7.1 5.9 12.1z" fill="#7e57c2"/><path d="m397.9 289.5-39-14 8.8-25.8c.8-2.5 3.5-3.8 6-3h.1l28.4 10.1c3.2 1.2 4.9 4.7 3.9 8z" fill="#7e57c2"/><path d="m393.5 288-30.4-10.9c-2.4-.9-3.6-3.5-2.8-6l7.3-21.4c.8-2.5 3.5-3.8 6-3h.1l28.4 10.1c3.2 1.2 4.9 4.7 3.9 8l-6.7 20.3c-.7 2.4-3.3 3.7-5.7 3 0-.1 0-.1-.1-.1z" fill="#fff" opacity=".4"/><path d="m392.8 273.1-1.6 1.4-.4-2.1 8.9-26.6c1.4-4.2.9-8.3-4.4-10.1-4.9-1.7-8.8.7-10.2 5l-9 26.5-1.6 1.4-.4-2.1 9-26.5c1.7-4.9 4.9-8.2 12.6-5.5s7.6 7.1 5.9 12.1z" fill="#fff" opacity=".3"/><path d="m380.2 257.1-3.2-1.2.4-1.2 3.2 1.2z" fill="#7e57c2"/><path d="m377.5 265.1-3.3-1.2.4-1.2 3.2 1.2z" fill="#7e57c2"/><path d="m397 263-3.3-1.2.4-1.2 3.3 1.2z" fill="#7e57c2"/><path d="m394.3 271-3.3-1.2.4-1.2 3.3 1.2z" fill="#7e57c2"/><path d="m390.5 261.5-7-2.5.9-2.6 7 2.5z" fill="#fff"/><path d="m398.9 244.7c-3.1 1.8-15.8-.2-26.5-6.7-.5-.3-1-.3-1.2-.4-.7-.5 1-1.6 2-2.1.5-.3 24.2 2.7 25.8 2.9 1.9 4.8.2 4.8-.1 6.3z" fill="#ffb573"/><path d="m388.8 341.6c1.7 4.9 7.5 7.1 11.5 4 .2-.1.3-.3.5-.4 17.5-16.2 39.8-39.8 39.8-39.8l-3.8-4.8c-13.1 7.6-25.5 16.4-37 26.2-4 3.4-8.1 7.2-12.2 11.2z" fill="#ffb573"/><path d="m388.8 341.6c1.7 4.9 7.5 7.1 11.5 4 .2-.1.3-.3.5-.4 17.5-16.2 39.8-39.8 39.8-39.8l-3.8-4.8c-13.1 7.6-25.5 16.4-37 26.2-4 3.4-8.1 7.2-12.2 11.2z" fill="#263238" opacity=".8"/><path d="m434.6 301.2c.2-.8.7-1.5 1.3-2.1 2.1-2.2 7.8-7.8 7.8-7.8l.5.5s-2.6 3-3.7 4.7.4.8 2.6.1 6 .1 9.4 3.4c4 3.8 5.5 5.5 3.4 5.4s-5.2-2.1-5.2-2.1-8.7 1.6-12.2 5.3c-3.8 4-4.6-4.7-6-5.1-.3-.5 1.9-1.8 2.1-2.3z" fill="#263238"/><path d="m374.5 205.9c1.9 2.2 3.3 5 .8 8.2-.5.7-.8 1.6-.8 2.4.1 1.4 1 2.7 5.3-.3 6.3-4.4 5.4-8.7 5.4-8.7-3.5-.8-6.1-8-7.2-12.1z" fill="#ffb573"/><path d="m378.2 201.8c.6 1.7-1 4.7-2.4 5.9-.4-.6-.8-1.2-1.3-1.8l2.1-6.2c.7.6 1.2 1.3 1.6 2.1z" opacity=".2"/><path d="m359.5 186.8c-1.7 6.5.8 13.7 5.4 18.6 4.7-5.1 13.5-4 18.4-8.9 3.3-3.2 3.9-8.7 1.9-12.8-2.2-4.5-8.6-8.8-13.7-8.1-5.8.9-10.6 5.7-12 11.2z" fill="#263238"/><path d="m378.9 184.6c-2.8-4.2-8.5-5.3-12.7-2.4-5.9 4-4.8 14-2.2 19.6 2.9 6.3 11.4 6.6 15.3.4 2.6-4.1 2.1-6.9 1.1-13.7-.2-1.3-.7-2.7-1.5-3.9z" fill="#ffb573"/><path d="m367.3 198.6c-.6.3-1.4.3-2 0 .6-1.2 1-2.5 1.2-3.9z" fill="#ed893e"/><path d="m372.5 198c0-.1 0-.2-.1-.2-.1 0-.2 0-.2.1-.6 1.3-1.8 2.2-3.1 2.4-.1 0-.1.1-.1.2s.1.1.2.1c.3 0 .5-.1.8-.2 1-.4 1.9-1.3 2.5-2.4z" fill="#263238"/><path d="m367.7 179.1c-.5.9-.9 1.8-1 2.8 7.8 1.8 13.6 10 15.8 17.8 2.1-2.8 6.2-6.2 7.9-9.5 1.8-3.8-.6-8-4.2-10.1-3.2-1.6-6.5-2.9-9.9-3.9-3.2-1.1-6.8.1-8.6 2.9z" fill="#263238"/><path d="m383.4 192.6c-.2-1.2-1.4-2-2.6-1.7-1.6.4-2.2 2.7-2.1 4.1.1 1.6 1.4 2.8 2.8 1.7 1.1-.8 1.8-1.9 2-3.2-.1-.3-.1-.6-.1-.9z" fill="#ffb573"/><path d="m370.5 192c.2.6 0 1.3-.5 1.4s-.9-.3-1.1-1 0-1.3.5-1.4.9.3 1.1 1z" fill="#263238"/><path d="m364.5 194.1c.2.6 0 1.3-.5 1.4s-.9-.3-1.1-1 0-1.3.5-1.4 1 .3 1.1 1z" fill="#263238"/><path d="m363.6 193.1h-1.7s1.2 1 1.7 0z" fill="#263238"/><path d="m371.7 189s.1-.1.1-.1c.1-.2.1-.4-.1-.5-1-.7-2.4-.9-3.5-.4-.2.1-.2.3-.2.4.1.2.3.2.4.2 1-.4 2.1-.2 2.9.4z" fill="#263238"/><path d="m361.7 192.6s.1-.1.1-.1c.4-1 1.2-1.7 2.2-2 .2 0 .3-.2.3-.4s-.2-.3-.4-.3c-1.2.3-2.2 1.2-2.6 2.4-.1.2 0 .4.2.4 0 .1.1.1.2 0z" fill="#263238"/><path d="m369.6 191h-1.7s1.1.9 1.7 0z" fill="#263238"/><path d="m360.8 196.3c.8 4.1 4.1 9.8 7.6 12-2.4 1.8-6.7-.2-9.2-1.9s-4.1-4.4-4.5-7.4c-.3-3 .1-6 1.2-8.8 1.8-4.5 4.9-8.4 8.8-11.4.8-.6 2.1-1.1 2.6-.3.4.6 0 1.3-.4 1.9-3.8 5.3-6.7 9.1-6.1 15.9z" fill="#263238"/><path d="m379.3 203.8c-.2 0-.3-.2-.2-.3 2.7-10.8-8.9-19-12.5-21.3-.1-.1-.2-.2-.1-.3s.2-.2.3-.1c3.7 2.3 15.5 10.7 12.7 21.8 0 .1-.1.2-.2.2z" fill="#263238"/><path d="m381.4 195.9-.2 3.8 1 .8.5-1.2z" fill="#7e57c2"/><path d="m398.2 207.4c-1.6-.4-3.3.1-4.5 1.3-1.3 1.4-2.1 3.2-2.3 5.1-.4 2.9.4 5.8 1.1 8.6 1 2.8 1.5 5.7 1.6 8.6 3.1-1.7 7.5-5 11.8-5.4-.6-6.8-1.4-11.4-2.7-13.6-.7-1.3-1.6-2.5-2.7-3.6-.7-.5-1.5-.8-2.3-1z" fill="#7e57c2"/><path d="m398.2 207.4c-1.6-.4-3.3.1-4.5 1.3-1.3 1.4-2.1 3.2-2.3 5.1-.4 2.9.4 5.8 1.1 8.6 1 2.8 1.5 5.7 1.6 8.6 3.1-1.7 7.5-5 11.8-5.4-.6-6.8-1.4-11.4-2.7-13.6-.7-1.3-1.6-2.5-2.7-3.6-.7-.5-1.5-.8-2.3-1z" fill="#fff" opacity=".1"/><path d="m325.3 239.5s-7.5 1.2-7.6 1.6-.1 4.6-.1 4.6l6.8-2.6z" fill="#ffb573"/><path d="m317.6 245.7-6.4-6 2.9-.8 4.7 2.6z" fill="#ffb573"/><path d="m125 398.2 7.1-.4.6 16.9-7.1.4z" fill="#f7978d"/><path d="m134.5 413.1c2.2 1.4 5.4 2.6 11.3 3.2 1.3.1 1.7 3.1-1.3 3.4s-8.3.8-10.4 1c-3.6.4-4.9.7-7.7 1-.7.1-1.3-.4-1.4-1.1l-.3-6.4c0-.3.2-.5.5-.5l8.1-.9c.4 0 .8.1 1.2.3z" fill="#263238"/><path d="m125.3 406.9 7.1-.4-.3-8.7-7.1.4z" opacity=".2"/><path d="m138 413.8c.2-.3.2-.6.1-.9-.1-.2-.2-.4-.4-.4-.9-.2-2.8 1.4-3 1.5v.2c0 .1.1.1.1.1.6.1 1.3.1 1.9 0 .5-.1 1-.2 1.3-.5zm-2.8.2c.8-.6 1.9-1.4 2.4-1.2.1 0 .2.1.2.2.1.2.1.4 0 .6-.3.4-1.2.5-2.6.4z" fill="#7e57c2"/><path d="m134.9 414.2c.7-.5 1.6-2.1 1.3-2.9-.1-.3-.4-.5-.7-.4-.3 0-.5.1-.7.3-.6.8-.2 2.8-.2 2.9s0 .1.1.1zm.6-3c.2 0 .4.1.3.2 0 .9-.4 1.7-1 2.3-.2-.8-.1-1.6.2-2.3.2-.1.3-.2.5-.2z" fill="#7e57c2"/><path d="m68.7 390.7 7.1 1.5-5.2 16-7.1-1.5z" fill="#f7978d"/><path d="m72.5 408.2c1.7 2 5.1 4.4 10.4 6.8 1.2.5.7 3.5-2.3 2.9s-8.8-2.1-11-2.6c-3.5-.7-4.8-.9-7.6-1.4-.7-.1-1.1-.8-1-1.5l1.7-6.2c.1-.3.3-.4.6-.4l7.9 1.7c.6.1 1 .3 1.3.7z" fill="#263238"/><path d="m66 398.9 7.1 1.5 2.7-8.2-7.1-1.5z" opacity=".2"/><path d="m113.6 241s7.5 65.1 8.1 89.4c.5 22.4.2 72 .2 72l13-.6s5.4-46.1 7-68.7c1.4-20.7-3-86.8-3-86.8z" fill="#7e57c2"/><path d="m116.6 266.7c1.2 13.5 2.7 30.8 4.2 45.3 3-8.4 4.8-29.5 1.2-42.4-2.1-7.9-4-6.2-5.4-2.9z" opacity=".2"/><path d="m119.7 399.8 16.8-1.3-.8 5.5-14.1 1.2z" fill="#263238"/><path d="m98.8 243.5s-12.1 59.9-16.3 83.9c-3.9 22.1-19 68.9-19 68.9l12.9 2.7s21.4-47.4 27.4-69.2c5.4-20 19-81.2 19-81.2z" fill="#7e57c2"/><path d="m63.2 391.9 17.4 2.9-1.8 4.7-15.8-3.3z" fill="#263238"/><path d="m75 409.2c.3-.2.4-.5.4-.9 0-.2-.1-.4-.3-.5-.8-.5-3.1.4-3.3.5-.1 0-.1.1-.1.2s0 .1.1.1c.6.3 1.2.5 1.8.6.5.2 1 .2 1.4 0zm-2.7-.7c.9-.4 2.2-.7 2.6-.4.1.1.1.2.1.3 0 .2-.1.4-.2.6-.4.1-1.3 0-2.5-.5z" fill="#7e57c2"/><path d="m71.9 408.6c.8-.3 2.2-1.5 2.2-2.3 0-.3-.2-.6-.5-.6-.2-.1-.5-.1-.8.1-.9.5-1.1 2.6-1.1 2.7s0 .1.1.1zm1.5-2.6c.2.1.3.2.3.3 0 .5-.9 1.5-1.7 1.9.1-.8.4-1.6.9-2.2.2-.1.4-.1.5 0z" fill="#7e57c2"/><path d="m75.1 256.9c1.7-1.7 1.9-3.5 3-5.5.7-1.3-.9-.8.7-.6.6.1 1.2.3 1.8.6 1.4.6 2.8 1.2 4.2 1.7 1.2.4 3.4.2 4.5.9 1.7 1 .1 5.4-.3 6.8-.4 1.7 2.2 2.6 2.6.9.6-2.5 2.2-6.9.3-9.2-1.2-1.4-3-1.2-4.7-1.5-3.1-.6-6.3-3.4-9.6-3.1-1 0-1.9.7-2.2 1.6-.5 1.1-.2 2.4-.9 3.6-.4.6-.8 1.2-1.3 1.7-1.1 1.2.7 3.3 1.9 2.1z" fill="#7e57c2"/><path d="m75.1 256.9c1.7-1.7 1.9-3.5 3-5.5.7-1.3-.9-.8.7-.6.6.1 1.2.3 1.8.6 1.4.6 2.8 1.2 4.2 1.7 1.2.4 3.4.2 4.5.9 1.7 1 .1 5.4-.3 6.8-.4 1.7 2.2 2.6 2.6.9.6-2.5 2.2-6.9.3-9.2-1.2-1.4-3-1.2-4.7-1.5-3.1-.6-6.3-3.4-9.6-3.1-1 0-1.9.7-2.2 1.6-.5 1.1-.2 2.4-.9 3.6-.4.6-.8 1.2-1.3 1.7-1.1 1.2.7 3.3 1.9 2.1z" opacity=".3"/><path d="m56.2 249.8 50 16.8c1.7.6 2.6 2.4 2 4.1l-9 26.8c-1 2.9-4.1 4.5-7.1 3.5l-45.5-15.3c-2.9-1-4.5-4.1-3.5-7.1l9-26.8c.6-1.6 2.4-2.6 4.1-2z" fill="#7e57c2"/><path d="m56.2 249.8 50 16.8c1.7.6 2.6 2.4 2 4.1l-9 26.8c-1 2.9-4.1 4.5-7.1 3.5l-45.5-15.3c-2.9-1-4.5-4.1-3.5-7.1l9-26.8c.6-1.6 2.4-2.6 4.1-2z" fill="#fff" opacity=".3"/><path d="m70.5 292.9 7.9-22.5.9.3-7.9 22.5z" fill="#7e57c2"/><path d="m70.5 292.9 7.9-22.5.9.3-7.9 22.5z" opacity=".3"/><path d="m105.4 269.8-50.5-16.9c-1.6-.5-3.3.3-3.8 1.9l-.3 1c-1.5 4.4.9 9.2 5.3 10.7l40.1 13.5c4.4 1.5 9.2-.9 10.7-5.3l.3-1c.6-1.6-.2-3.3-1.8-3.9z" opacity=".2"/><path d="m106.5 266.6-50.5-16.9c-1.6-.5-3.3.3-3.8 1.9l-.3 1c-1.5 4.4.9 9.2 5.3 10.7l40.2 13.5c4.4 1.5 9.2-.9 10.7-5.3l.3-1c.5-1.6-.3-3.3-1.9-3.9z" fill="#7e57c2"/><path d="m106.5 266.6-50.5-16.9c-1.6-.5-3.3.3-3.8 1.9l-.3 1c-1.5 4.4.9 9.2 5.3 10.7l40.2 13.5c4.4 1.5 9.2-.9 10.7-5.3l.3-1c.5-1.6-.3-3.3-1.9-3.9z" fill="#7e57c2"/><path d="m106.5 266.6-50.5-16.9c-1.6-.5-3.3.3-3.8 1.9l-.3 1c-1.5 4.4.9 9.2 5.3 10.7l40.2 13.5c4.4 1.5 9.2-.9 10.7-5.3l.3-1c.5-1.6-.3-3.3-1.9-3.9z" fill="#fff" opacity=".5"/><path d="m64.5 260.5 1.7.6c1 .3 1.6 1.4 1.2 2.5l-2.5 7.6c-.3 1-1.4 1.6-2.5 1.2l-1.7-.6c-1-.3-1.6-1.4-1.2-2.5l2.5-7.6c.4-1 1.5-1.6 2.5-1.2z" fill="#7e57c2"/><path d="m91.7 269.6 1.7.6c1 .3 1.6 1.4 1.2 2.5l-2.5 7.6c-.3 1-1.4 1.6-2.5 1.2l-1.7-.6c-1-.3-1.6-1.4-1.2-2.5l2.5-7.6c.4-1 1.5-1.6 2.5-1.2z" fill="#7e57c2"/><path d="m64.5 260.5 1.7.6c1 .3 1.6 1.4 1.2 2.5l-2.5 7.6c-.3 1-1.4 1.6-2.5 1.2l-1.7-.6c-1-.3-1.6-1.4-1.2-2.5l2.5-7.6c.4-1 1.5-1.6 2.5-1.2z" fill="#fff"/><path d="m91.7 269.6 1.7.6c1 .3 1.6 1.4 1.2 2.5l-2.5 7.6c-.3 1-1.4 1.6-2.5 1.2l-1.7-.6c-1-.3-1.6-1.4-1.2-2.5l2.5-7.6c.4-1 1.5-1.6 2.5-1.2z" fill="#fff"/><path d="m147.9 192.3c.4.9 1 1.9 1.5 2.9s1.1 2 1.7 3c1.1 1.9 2.3 3.9 3.6 5.7 1.2 1.8 2.5 3.5 3.9 5.1 1.1 1.4 2.4 2.6 3.9 3.5l.2.1h.1.2c.6 0 1.1-.1 1.6-.4 1.7-.8 3.3-1.9 4.7-3.2 1.7-1.4 3.3-3 4.7-4.6.8-.8 1.5-1.7 2.2-2.5s1.5-1.8 2.1-2.6l.1-.2c1.2-1.8 3.7-2.2 5.4-.9 1.7 1.2 2.1 3.5 1 5.2-2.5 4.5-5.5 8.7-9 12.5-2 2.1-4.3 3.9-6.8 5.4-1.6.9-3.4 1.5-5.2 1.7-1.1.1-2.2.1-3.3-.1-.6-.1-1.1-.3-1.7-.4-.3-.1-.5-.2-.8-.3l-.6-.3c-2.7-1.4-5.1-3.2-7.2-5.4-1.9-1.9-3.6-3.9-5.2-6-1.5-2.1-3-4.2-4.3-6.3-.7-1.1-1.3-2.1-1.9-3.2s-1.2-2.2-1.8-3.4c-1.5-3-.3-6.6 2.7-8.1s6.6-.3 8.1 2.6z" fill="#263238"/><path d="m181.7 202.4 5.7 2.1-.4-6.6s-5.9-2.1-6.7 1v1.4c0 .9.6 1.8 1.4 2.1z" fill="#f7978d"/><path d="m193.2 202.9 1.2-5.7-7.4.6.4 6.6z" fill="#f7978d"/><path d="m149.5 215.5c-.7-.8-1.3-1.5-1.9-2.3-1.9-2.5-3.7-5.1-5.2-7.8s-2.9-5.4-4.1-8.2c-.2-.4-.3-.8-.5-1.2 3-1.8 9.5-.9 11.6 7.5.8 3.9.9 8 .1 12z" opacity=".3"/><path d="m136.6 251.5-37.7-8c.4-3.4 3.5-14.2 5.9-28.3 1.5-9.7 2.4-19.5 2.6-29.4v-.1c.1-2.5 2.3-4.5 4.9-4.4h.1c2.3.1 5.3.4 8.1.9 5.4.8 10.8 2 16 3.4 1.7.6 3.4 1.2 5.1 2 2.4 1 4 3.3 4.2 5.8.6 8.4.3 24.5-9.2 58.1z" fill="#fff"/><path d="m131.8 191.1-1.1 2.2c-.1.4-.5.6-.8.6l-1.9-.2c-.3 0-.5-.2-.6-.6l-.8-2.6 2.8-1.7z" fill="#7e57c2"/><path d="m120 181.6c-3-.5-6.1-.8-8.6-.9h-.1-.1c-2.7-.1-4.9 2-5 4.7-.2 10.4-1.1 20.7-2.7 31-3.7 26.3-7.3 31.5-7.3 31.5l16.8 3.1c5.1-23.9 9-56.5 8.6-69.2z" fill="#263238"/><path d="m104.1 212.7c1.2-8.5 1.8-17.2 2-23.6.1-.1.2-.2.3-.2 2.1-1.8 7.4 2.5 5.9 10.6-1.4 7.5-5.1 12.1-8.2 13.2z" opacity=".3"/><path d="m139.4 257-10.2-2.7c6.4-44.8 7.9-56.6 6.4-69.2 2.5.7 5 1.5 7.4 2.4 2.6 1.3 4.3 3.8 4.6 6.6.9 7-4.4 24.9-8.2 62.9z" fill="#263238"/><path d="m127.7 238.5c1.1-.5 2.4-.1 2.9 1 .5 1.1.1 2.4-.9 2.9s-2.4.1-2.9-.9c-.6-1.1-.2-2.4.9-3 0 .1 0 .1 0 0z" fill="#263238"/><path d="m126.4 241.6c-.6-1.2-.1-2.7 1.1-3.4.6-.3 1.3-.4 1.9-.1 1.3.4 2 1.8 1.6 3.2-.4 1.3-1.8 2-3.2 1.6-.5-.3-1.1-.7-1.4-1.3z" fill="#fff"/><path d="m129.7 188.8c-8.1-1.2-9.9-6.6-9.9-6.6 4.2-2.8 4.9-12.5 4.8-17.9l3.5 4.5 4.8 6.1c-.3.7-.6 1.5-.9 2.3-1 3.1-.8 6.2 3.7 8.3 0-.1.9 4.4-6 3.3z" fill="#f7978d"/><path d="m118.3 181.3 2.6-.4c2.1 3.2 4.9 5.9 8.3 7.8-1.8.7-3.3 1.9-4.3 3.5-7.9-4.7-6.6-10.9-6.6-10.9z" fill="#fff"/><path d="m135.8 185-2.2-1s-1.9 4.6-4.4 4.7c3.8 2.5 4 4.6 4 4.6 6.3-.6 2.6-8.3 2.6-8.3z" fill="#fff"/><path d="m132.3 176.4-4.6-5.8c-.2.7-.3 1.5-.4 2.2-.2 2.3 2.2 5.2 4.3 6.1z" opacity=".2"/><path d="m137.4 165.9s.2 3.6 4 2.2c.2-3.8 1.4-3.5 2.7-5.8 1.7-2.5 1.9-5.8.5-8.5l-2.4-1.2c-9.3-2.9-4.8 13.3-4.8 13.3z" fill="#263238"/><path d="m137.4 165.9s.2 3.6 4 2.2c.2-3.8 1.4-3.5 2.7-5.8 1.7-2.5 1.9-5.8.5-8.5l-2.4-1.2c-9.3-2.9-4.8 13.3-4.8 13.3z" fill="#fff" opacity=".6"/><path d="m127.6 151.3c3.5-3.9 9.4-4.2 13.3-.8 5.8 4.9 3.8 15.4.5 21.1-2.5 4.5-8.2 6.1-12.7 3.6-1.6-.9-3-2.3-3.8-4-2.4-4.7-1.1-8.7.5-15.7.4-1.5 1.1-3 2.2-4.2z" fill="#f7978d"/><path d="m124.3 162s.9 3.1 4.3 1.4c-.6-3.4.7-3.3 1.5-5.4 1.2-2.5.7-5.5-1.1-7.5l-2.6-.8c-12.2-1.1-2.1 12.3-2.1 12.3z" fill="#263238"/><path d="m124.3 162s.9 3.1 4.3 1.4c-.6-3.4.7-3.3 1.5-5.4 1.2-2.5.7-5.5-1.1-7.5l-2.6-.8c-12.2-1.1-2.1 12.3-2.1 12.3z" fill="#fff" opacity=".6"/><path d="m136.4 142.8c-1.3-.5-2.7-.2-3.8.7-.7.6-1.3 1.5-2.2 1.3-.4-.2-.8-.4-1.1-.7-1.4-1-3.4-.6-4.8.5-1.3 1.2-2.3 2.5-3.1 4.1-.8 1.5-2 2.8-3.5 3.8 2.8 1.3 6.1 1.4 8.9.2-.8 1-1.9 1.7-3.1 2 2.8.8 5.8.6 8.5-.7 1.5-.7 2.9-1.7 4.5-2s3.6.6 3.8 2.2c.4-.8 1.3-1.2 2.1-.8h.1c.8.5 1.4 1.2 1.7 2 .4.8.9 1.5 1.6 2.1.8.5 1.8.3 2.3-.4-1.2-.1-2.2-1.1-2.3-2.3.9.5 1.9.7 2.9.5-1.3-.1-3.9-4.7-4.2-6s-1-2.4-2.1-3.2c-1.2-.8-2.4.6-3.6 0s-1.3-2.8-2.6-3.3z" fill="#263238"/><path d="m134.8 168.1c-.9-.8-1.5-1.9-1.6-3.1l2 .8c.9.3 3.3 1.4 2.8 2.7s-2.5.1-3.2-.4z" fill="#263238"/><path d="m140.6 170.3c1.2 0 2.4-.5 3.2-1.4l-2.1-.6c-.9-.3-3.4-1-3.8.4s1.8 1.6 2.7 1.6z" fill="#263238"/><path d="m137.8 168c.8.5 1.8.7 2.8.4-.7-1.8-1.1-3.7-1.2-5.6z" fill="#ff5652"/><path d="m124.7 157.2c1.7.6 2.4 3.4 2.3 5.2-.1 2-1.4 3.2-2.9 2-1.1-1.1-1.9-2.5-2.1-4-.2-2 1-3.8 2.7-3.2z" fill="#f7978d"/><path d="m136 160.3c.4.1.5.7.4 1.2s-.6.9-.9.7-.5-.6-.4-1.2.5-.8.9-.7z" fill="#263238"/><path d="m142.3 162.1c.4.1.5.7.4 1.2s-.6.9-.9.8-.5-.7-.4-1.2.6-.9.9-.8z" fill="#263238"/><path d="m137.1 171.1c.1 0 .2-.1.2-.1 0-.1 0-.2-.1-.2-1.5-.2-2.8-1.1-3.5-2.4 0-.1-.1-.1-.2-.1s-.1.1-.1.2c.7 1.2 1.8 2.1 3.1 2.4.2.1.4.1.6.2z" fill="#263238"/><path d="m142.1 159.7c0 .1.1.2.2.2.8.3 1.5.9 1.9 1.7 0 .2.2.3.4.2.2-.1.3-.2.2-.4-.4-1-1.2-1.9-2.3-2.2-.2-.1-.4 0-.4.2z" fill="#263238"/><path d="m134.8 157.9c.1.1.2.1.3.1.8-.3 1.8-.2 2.5.2.1.1.3.1.5-.1.1-.1.1-.4-.1-.5-.9-.6-2.1-.7-3.1-.3-.2.1-.3.2-.2.4 0 .1.1.2.1.2z" fill="#263238"/><path d="m80.8 244.9-1.3-.1c-3.1 1.5.3 7.1.3 7.1l9-1.1-2.6-3c-1.5-1.6-3.4-2.6-5.4-2.9z" fill="#f7978d"/><path d="m89 254.7-.3-3.9-9 1.1.5 4.6v.2c.2.7.9 1.2 1.7 1l6.1-1.6c.6-.2 1-.8 1-1.4z" fill="#f7978d"/><path d="m133.2 228.6s-3.1 7.5-4.5 6.5-4.6-6.8-4.6-6.9 3.9-34.5 3.9-34.5l1.9.2c-.8 3.8 3.3 34.7 3.3 34.7z" fill="#7e57c2"/><path d="m81.6 210c-3.7 5.3-4.6 30.4-3.6 36.9 1.6-1.8 4.4-2.2 6.4-.8.1-4.4 3.7-20.2 5.2-26.8.4-1.9 1.5-3.5 3.1-4.6 6.6-4.8 18.6-14.2 19.9-18 2.1-6 .3-18.3-5-14.5-5.1 3.5-23 23.5-26 27.8z" fill="#263238"/><path d="m380.9 83.4c-.7-.2-1.4-.4-2.1-.7-1.3-.5-2.9-1.3-4.6-2.1-1.4-.7-2.9-1.1-4.5-1.3-1.2-.1-2 0-2.1-.3s.6-.9 2-1.2c1.9-.3 3.8.1 5.4.9s3 1.9 4.2 3.1c1.1 1 1.7 1.6 1.7 1.6z" fill="#7e57c2"/><path d="m388.2 77.5-1.5.6c-.9.4-2 .9-3.3 1.4-2.5 1.1-4.7 2.3-5 1.8-.2-.2.2-.8.9-1.5 1-.9 2.1-1.7 3.3-2.2 1.3-.5 2.6-.7 4-.6l1.2.3z" fill="#7e57c2"/><path d="m367.2 87.9-.4-.2c-.3-.2-.6-.4-1.1-.6-1.2-.6-2.4-1.2-3.7-1.6-2.9-1.1-5.6-.8-5.6-1.3 0-.2.6-.5 1.7-.7 1.5-.2 3 0 4.4.5s2.7 1.4 3.7 2.5c.3.3.6.7.8 1.1z" fill="#7e57c2"/><path d="m370.1 81.8-1.1.6-2.4 1.3c-1.8 1-3.1 2.1-3.5 1.8-.1-.2 0-.6.5-1.2.6-.8 1.4-1.5 2.3-2s1.9-.7 2.9-.7c.5 0 .9.1 1.3.2z" fill="#7e57c2"/><path d="m364.8 78.3s-1-.3-2.5-1-3.6-1.6-5.8-2.3c-1.9-.6-3.9-.9-5.9-.8-1.5.1-2.5.4-2.7.1s.7-1 2.4-1.6c2.2-.6 4.6-.5 6.8.3 2.1.7 4.1 1.9 5.7 3.4.7.6 1.4 1.3 2 1.9z" fill="#7e57c2"/><path d="m371.5 69.7-.6.2c-.4.1-.9.2-1.5.4-1.5.5-3 1.1-4.5 1.8-3.4 1.5-5.6 3.8-6.1 3.4-.2-.2.1-1 .9-2.1 1.2-1.4 2.6-2.5 4.3-3.2s3.5-1.1 5.3-.9c.5 0 1.1.1 1.6.3z" fill="#7e57c2"/><path d="m139.9 108.7c-.7-.2-1.4-.4-2.1-.7-1.3-.5-2.9-1.3-4.6-2.1-1.4-.7-2.9-1.1-4.5-1.3-1.2-.1-2 0-2.1-.3s.6-.9 2-1.2c1.9-.3 3.8.1 5.4.9s3 1.9 4.2 3.1c1.1 1 1.7 1.6 1.7 1.6z" fill="#7e57c2"/><path d="m147.3 102.8-1.5.6c-.9.4-2 .9-3.3 1.4-2.5 1.1-4.7 2.3-5 1.8-.2-.2.2-.8.9-1.5 1-.9 2.1-1.7 3.3-2.2 1.3-.5 2.6-.7 4-.6.4.1.8.2 1.2.3.1.1.2.1.4.2z" fill="#7e57c2"/><path d="m126.3 113.1-.4-.2c-.3-.2-.6-.4-1.1-.6-1.2-.6-2.4-1.2-3.7-1.6-2.9-1-5.6-.8-5.7-1.3 0-.2.6-.5 1.7-.7 1.5-.2 3 0 4.4.5s2.7 1.3 3.7 2.5c.3.3.6.7.8 1.1z" fill="#7e57c2"/><path d="m129.2 107-1.1.6-2.3 1.4c-1.8 1-3.1 2.1-3.5 1.8-.2-.1 0-.6.4-1.2.6-.8 1.4-1.5 2.3-1.9.9-.5 1.9-.7 2.9-.7.5-.1.9-.1 1.3 0z" fill="#7e57c2"/></svg>