<svg height="806.002" viewBox="0 0 427 806.002" width="427" xmlns="http://www.w3.org/2000/svg" xmlns:xlink="http://www.w3.org/1999/xlink"><filter id="a" filterUnits="userSpaceOnUse" height="177.079" width="153.244" x="3.499" y="396.993"><feOffset dy="3"/><feGaussianBlur result="blur" stdDeviation="3"/><feFlood flood-opacity=".161"/><feComposite in2="blur" operator="in"/><feComposite in="SourceGraphic"/></filter><filter id="b" filterUnits="userSpaceOnUse" height="72.366" width="56.591" x="87.987" y="506.071"><feOffset dy="10"/><feGaussianBlur result="blur-2" stdDeviation="3"/><feFlood flood-opacity=".161"/><feComposite in2="blur-2" operator="in"/><feComposite in="SourceGraphic"/></filter><filter id="c" filterUnits="userSpaceOnUse" height="187.749" width="183.349" x="98.725" y="364.335"><feOffset dy="10"/><feGaussianBlur result="blur-3" stdDeviation="3"/><feFlood flood-opacity=".161"/><feComposite in2="blur-3" operator="in"/><feComposite in="SourceGraphic"/></filter><filter id="d" filterUnits="userSpaceOnUse" height="126.136" width="110.044" x="196.454" y="381.148"><feOffset dy="10"/><feGaussianBlur result="blur-4" stdDeviation="3"/><feFlood flood-opacity=".161"/><feComposite in2="blur-4" operator="in"/><feComposite in="SourceGraphic"/></filter><filter id="e" filterUnits="userSpaceOnUse" height="68.953" width="60.497" x="257.379" y="343.528"><feOffset dy="10"/><feGaussianBlur result="blur-5" stdDeviation="3"/><feFlood flood-opacity=".161"/><feComposite in2="blur-5" operator="in"/><feComposite in="SourceGraphic"/></filter><filter id="f" filterUnits="userSpaceOnUse" height="208.708" width="109.239" x="278.44" y="204.219"><feOffset dy="10"/><feGaussianBlur result="blur-6" stdDeviation="3"/><feFlood flood-opacity=".161"/><feComposite in2="blur-6" operator="in"/><feComposite in="SourceGraphic"/></filter><filter id="g" filterUnits="userSpaceOnUse" height="270.082" width="427" x="0" y="0"><feOffset dy="10"/><feGaussianBlur result="blur-7" stdDeviation="2.5"/><feFlood flood-opacity=".161"/><feComposite in2="blur-7" operator="in"/><feComposite in="SourceGraphic"/></filter><filter id="h" filterUnits="userSpaceOnUse" height="332.598" width="427" x="0" y="473.404"><feOffset dy="-10"/><feGaussianBlur result="blur-8" stdDeviation="2.5"/><feFlood flood-opacity=".161"/><feComposite in2="blur-8" operator="in"/><feComposite in="SourceGraphic"/></filter><g filter="url(#a)" transform="translate(-.001 .003)"><path d="m133.517 353.789c-1.121-3.491.2-7.254 1.6-10.645 4.895-11.93 22.284-36.745 29.17-47.646l-5.235-7.622c-8.978 13.072-41.562 52-57.059 55.366-6.068 1.317-12.36.816-18.563 1.07s-12.719 1.428-17.445 5.453-6.835 11.63-3.145 16.623a23.843 23.843 0 0 0 -22.81 31.175c.7 2.156 1.716 4.362 1.293 6.588-.622 3.269-3.974 5.11-6.463 7.319-7.314 6.489-7.609 18.884-1.566 26.57s17.058 10.514 26.518 8.048 17.279-9.592 22.036-18.134c1.57 5.812 9.3 7.328 15.169 6a31.4 31.4 0 0 0 23.4-38.787 19.772 19.772 0 0 0 21.017-32.167c-2.802-2.986-6.667-5.311-7.917-9.211z" fill="#ebebeb" transform="translate(-16.54 115.12)"/></g><path d="m177.019 264.641-6.6-3.2c-3.675.361-7.479.761-10.67 2.62s-5.594 5.609-4.7 9.191c.75 2.986 3.611 5.472 3.184 8.521-.386 2.763-3.242 4.357-5.725 5.627s-5.251 3.177-5.208 5.966a4.945 4.945 0 0 0 2.444 3.938 9.615 9.615 0 0 0 4.614 1.253c7.837.422 15.424-4.386 19.439-11.13s4.763-15.09 3.222-22.786z" fill="#e8505b" transform="translate(-10.37 113.736)"/><path d="m177.019 264.641-6.6-3.2c-3.675.361-7.479.761-10.67 2.62s-5.594 5.609-4.7 9.191c.75 2.986 3.611 5.472 3.184 8.521-.386 2.763-3.242 4.357-5.725 5.627s-5.251 3.177-5.208 5.966a4.945 4.945 0 0 0 2.444 3.938 9.615 9.615 0 0 0 4.614 1.253c7.837.422 15.424-4.386 19.439-11.13s4.763-15.09 3.222-22.786z" fill="#fff" opacity=".7" transform="translate(-10.37 113.736)"/><path d="m158.493 259.75 22.08 16.077s5.863-7.356 3.783-15.974l-11.14-7.81s-6.773-1.085-14.723 7.707z" fill="#263238" transform="translate(-9.786 113.243)"/><path d="m167.245 254.688 19.282 13.473 71.283-96.051s4.876-9.071-2.395-20.661c0 0-14.731-1.335-22.858 8.359s-65.312 94.88-65.312 94.88z" fill="#e0e0e0" transform="translate(-9.33 107.994)"/><path d="m167.245 254.7s.116-.2.371-.6l1.15-1.759 4.463-6.72 16.629-24.756c7.075-10.466 15.531-22.966 25.1-36.838 4.791-6.932 9.825-14.229 15.287-21.665l2.144-2.751a22.609 22.609 0 0 1 8.674-6.147 31.725 31.725 0 0 1 7.01-1.9 34.029 34.029 0 0 1 7.367-.374l.134.008.073.119a25.752 25.752 0 0 1 3.972 11.542 19.177 19.177 0 0 1 -1.568 9.393l-.006.014-.016.02c-30.231 40.645-56.414 75.847-71.386 95.974l-.084.115-.116-.082-14.251-10.057-3.706-2.633-.939-.673c-.207-.15-.3-.229-.3-.229s.122.074.342.222l.975.663 3.773 2.594 14.275 9.876-.2.033 71.18-96.126-.021.033a18.707 18.707 0 0 0 1.5-9.094 25.219 25.219 0 0 0 -3.889-11.293l.207.127a33.482 33.482 0 0 0 -14.123 2.232 22.012 22.012 0 0 0 -6 3.575 22.314 22.314 0 0 0 -2.469 2.414l-2.128 2.725c-5.458 7.417-10.5 14.708-15.3 21.63-9.592 13.852-18.082 26.329-25.2 36.766l-16.769 24.659-4.545 6.666-1.186 1.716c-.269.381-.424.581-.424.581z" fill="#263238" transform="translate(-9.33 107.981)"/><path d="m168.7 248.927-11.418.192 10.5-13.631 10.29-.478z" fill="#455a64" transform="translate(-9.849 112.357)"/><g fill="#263238"><path d="m255.024 151.446a1.562 1.562 0 0 1 -.31.107 3.891 3.891 0 0 0 -.889.339 18.677 18.677 0 0 0 -3.122 1.959 104.767 104.767 0 0 0 -10.3 9.042l.057-.129a2.564 2.564 0 0 1 -.265.611l-.291.517q-.3.511-.614 1.033l-1.311 2.116-2.855 4.476-6.461 9.9c-4.6 6.986-9.744 14.694-15.2 22.764-5.26 7.8-10.369 15.154-14.985 21.866l-12.3 17.81-8.33 11.979-2.287 3.242-.606.835a1.7 1.7 0 0 1 -.222.274 1.641 1.641 0 0 1 .176-.306l.562-.865 2.2-3.3 8.187-12.079c6.964-10.2 16.554-24.245 27.148-39.764 5.455-8.068 10.61-15.765 15.236-22.733s8.745-13.243 11.96-18.385l-.064-.133a97.257 97.257 0 0 1 10.445-8.941 17.14 17.14 0 0 1 3.2-1.89 3.415 3.415 0 0 1 .92-.294 1.537 1.537 0 0 1 .321-.051z" transform="translate(-8.939 107.997)"/><path d="m219.4 191.595c-.043-.057.212-.257.585-.036a.667.667 0 0 1 .3.68.762.762 0 0 1 -1.457.179.682.682 0 0 1 .107-.73c.293-.312.588-.205.568-.138 0 .076-.17.148-.247.355a.3.3 0 0 0 .023.287.326.326 0 0 0 .279.146.318.318 0 0 0 .234-.206.275.275 0 0 0 -.051-.275c-.133-.175-.32-.19-.341-.262z" transform="translate(-6.642 110.085)"/><path d="m210.1 204.75c-.042-.057.213-.257.586-.036a.669.669 0 0 1 .3.68.762.762 0 0 1 -1.457.179.684.684 0 0 1 .106-.73c.294-.312.589-.205.569-.138 0 .076-.172.148-.248.355a.3.3 0 0 0 .024.287.326.326 0 0 0 .279.146.318.318 0 0 0 .234-.206.278.278 0 0 0 -.051-.275c-.131-.175-.318-.19-.342-.262z" transform="translate(-7.127 110.771)"/><path d="m199.48 220.31c-.042-.057.213-.257.586-.036a.669.669 0 0 1 .3.68.762.762 0 0 1 -1.457.179.684.684 0 0 1 .106-.73c.294-.313.589-.205.569-.138 0 .076-.172.148-.248.355a.3.3 0 0 0 .024.287.326.326 0 0 0 .279.146.318.318 0 0 0 .234-.206.278.278 0 0 0 -.05-.275c-.134-.172-.323-.19-.343-.262z" transform="translate(-7.681 111.583)"/><path d="m188.78 236.241c-.043-.057.213-.257.586-.037a.671.671 0 0 1 .3.681.762.762 0 0 1 -1.457.178.682.682 0 0 1 .106-.729c.294-.313.589-.205.569-.138 0 .076-.171.148-.248.355a.3.3 0 0 0 .024.287.326.326 0 0 0 .279.146.32.32 0 0 0 .234-.206.278.278 0 0 0 -.05-.275c-.134-.176-.323-.19-.343-.262z" transform="translate(-8.24 112.414)"/><path d="m178.858 251.21c-.042-.057.213-.257.586-.036a.669.669 0 0 1 .3.68.762.762 0 0 1 -1.457.179.684.684 0 0 1 .106-.73c.294-.312.589-.205.569-.138 0 .076-.172.148-.248.355a.3.3 0 0 0 .024.287.326.326 0 0 0 .279.146.318.318 0 0 0 .234-.206.278.278 0 0 0 -.05-.275c-.133-.172-.32-.19-.343-.262z" transform="translate(-8.757 113.195)"/><path d="m228.273 178.636c-.042-.058.213-.258.586-.037a.669.669 0 0 1 .3.68.762.762 0 0 1 -1.457.179.684.684 0 0 1 .106-.73c.294-.312.589-.2.569-.138 0 .076-.172.148-.248.355a.3.3 0 0 0 .024.287.324.324 0 0 0 .279.146.318.318 0 0 0 .234-.206.278.278 0 0 0 -.05-.275c-.134-.175-.321-.19-.343-.261z" transform="translate(-6.179 109.409)"/><path d="m237.748 164.6c-.043-.057.212-.257.585-.037a.667.667 0 0 1 .3.681.762.762 0 0 1 -1.457.178.68.68 0 0 1 .107-.729c.292-.312.588-.205.569-.138 0 .075-.171.148-.248.355a.3.3 0 0 0 .023.286.325.325 0 0 0 .28.147.321.321 0 0 0 .233-.206.275.275 0 0 0 -.051-.275c-.133-.175-.32-.19-.341-.262z" transform="translate(-5.685 108.676)"/></g><path d="m149.975 276.918a4.137 4.137 0 0 0 -5.9-.45l.131-.069a4.009 4.009 0 0 0 -1 4.562 3.966 3.966 0 1 0 6.765-4.042z" fill="#e8505b" transform="translate(-10.601 114.466)"/><path d="m149.975 276.918a4.137 4.137 0 0 0 -5.9-.45l.131-.069a4.009 4.009 0 0 0 -1 4.562 3.966 3.966 0 1 0 6.765-4.042z" fill="#fff" opacity=".7" transform="translate(-10.601 114.466)"/><path d="m252.931 173.76c-.069.057-1.089-1.132-3.043-2.737a77.428 77.428 0 0 0 -8.01-5.756 61.562 61.562 0 0 0 -8.671-4.68c-.582-.239-1.119-.423-1.587-.6l-1.229-.358a4.427 4.427 0 0 1 -1.073-.232 4.27 4.27 0 0 1 1.114.023l1.276.274c.483.156 1.04.317 1.639.537a50.483 50.483 0 0 1 8.822 4.578 60.513 60.513 0 0 1 7.972 5.927 24.923 24.923 0 0 1 2.132 2.136 4.226 4.226 0 0 1 .658.888z" fill="#263238" transform="translate(-6.091 108.411)"/><path d="m225.785 345.662-33.034 4.883 5.866 41.131c3.894-.8 8.748-23.2 8.748-23.2l21.295-2.261z" fill="#455a64" transform="translate(-7.999 118.13)"/><path d="m206.763 355.06a1.7 1.7 0 0 0 -2.082-.888 1.632 1.632 0 0 0 -.9 2.057 1.791 1.791 0 0 0 2.211.929 1.693 1.693 0 0 0 .7-2.243" fill="#fff" transform="translate(-7.429 118.569)"/><path d="m192.751 350.321 3.349-.362 4.372 39.571s-.536 1.944-1.855 1.922z" fill="#fff" transform="translate(-7.999 118.354)"/><path d="m207.073 368.116c-.2.022-.437-.969-1.224-1.866-.763-.916-1.706-1.3-1.652-1.5.013-.19 1.256-.062 2.19 1.04s.876 2.343.686 2.326z" fill="#263238" transform="translate(-7.402 119.122)"/><path d="m205.992 372.405c-.188.074-.654-.748-1.6-1.309-.93-.588-1.874-.63-1.894-.831-.058-.184 1.1-.49 2.262.229s1.423 1.88 1.232 1.911z" fill="#263238" transform="translate(-7.491 119.402)"/><path d="m201.243 375.335c-.068-.176.9-.6 2.069-.24s1.746 1.236 1.59 1.345c-.148.137-.826-.388-1.794-.669-.961-.303-1.816-.239-1.865-.436z" fill="#263238" transform="translate(-7.556 119.658)"/><path d="m211.532 367.155c-.2-.058-.049-1.018-.288-2.142-.217-1.129-.724-1.959-.566-2.088.128-.137.994.62 1.257 1.948s-.235 2.358-.403 2.282z" fill="#263238" transform="translate(-7.065 119.03)"/><path d="m216.007 365.68a3.9 3.9 0 0 1 -.283-2.061 9.347 9.347 0 0 1 .355-2.25 9.8 9.8 0 0 1 .459-1.272 2.571 2.571 0 0 1 .4-.691.883.883 0 0 1 1.055-.244 1.112 1.112 0 0 1 .585.814 2.664 2.664 0 0 1 0 .787 7.341 7.341 0 0 1 -1.232 3.421c-.748 1.081-1.452 1.513-1.5 1.45-.079-.081.483-.635 1.074-1.711a8.325 8.325 0 0 0 .773-1.984 7.789 7.789 0 0 0 .2-1.235c.053-.451 0-.823-.207-.907-.08-.029-.109-.031-.224.079a2.074 2.074 0 0 0 -.288.507 10.976 10.976 0 0 0 -.467 1.177 11.471 11.471 0 0 0 -.479 2.1 14.328 14.328 0 0 1 -.221 2.02z" fill="#263238" transform="translate(-6.801 118.83)"/><path d="m215.684 365.19c-.041-.067.622-.568 1.912-.828a6.737 6.737 0 0 1 3.621.306 1.721 1.721 0 0 1 1.228 1.166.969.969 0 0 1 -.451.942 2.824 2.824 0 0 1 -.725.32 4.631 4.631 0 0 1 -1.388.2 4.769 4.769 0 0 1 -2.253-.577c-1.181-.651-1.54-1.455-1.475-1.481a17.289 17.289 0 0 0 1.691 1.032 4.8 4.8 0 0 0 2.029.376 4.3 4.3 0 0 0 1.185-.208c.428-.126.758-.34.689-.5-.025-.205-.4-.506-.778-.624a6.838 6.838 0 0 0 -1.189-.351 7.489 7.489 0 0 0 -2.113-.106c-1.216.115-1.937.437-1.983.333z" fill="#263238" transform="translate(-6.803 119.099)"/><g filter="url(#b)" transform="translate(-.003)"><path d="m134.189 385.844-24.851 22.306 27.594 31.06c2.805-2.818-5.513-24.178-5.513-24.178l16.51-13.639z" fill="#455a64" transform="translate(-12.35 120.23)"/></g><path d="m123.618 403.332a1.7 1.7 0 0 0 -2.226.409 1.631 1.631 0 0 0 .386 2.211 1.79 1.79 0 0 0 2.356-.446 1.693 1.693 0 0 0 -.657-2.255" fill="#fff" transform="translate(-11.736 121.125)"/><path d="m109.338 407.151 2.594-2.151 25.487 30.585s.626 1.917-.486 2.626z" fill="#fff" transform="translate(-12.351 121.225)"/><path d="m131.111 414.014c-.157.129-.9-.568-2.05-.881-1.143-.344-2.141-.144-2.205-.338-.095-.166 1.013-.745 2.4-.342s2.024 1.47 1.855 1.561z" fill="#263238" transform="translate(-11.437 121.607)"/><path d="m132.574 418.209c-.117.165-.959-.263-2.057-.208-1.1.022-1.91.509-2.037.351-.15-.121.644-1.015 2.012-1.057s2.223.782 2.082.914z" fill="#263238" transform="translate(-11.353 121.867)"/><path d="m130.227 423.287c-.155-.109.416-.993 1.592-1.342s2.138.067 2.069.243c-.048.2-.9.133-1.865.434-.969.278-1.646.803-1.796.665z" fill="#263238" transform="translate(-11.262 122.102)"/><path d="m134.3 410.734c-.195.059-.6-.823-1.424-1.629-.8-.822-1.685-1.233-1.625-1.428.033-.185 1.172-.033 2.124.93s1.109 2.093.925 2.127z" fill="#263238" transform="translate(-11.208 121.361)"/><path d="m137.16 407.088c-.061.058-.688-.459-1.374-1.563a9.357 9.357 0 0 1 -.946-2.072 9.773 9.773 0 0 1 -.32-1.314 2.588 2.588 0 0 1 -.052-.794.885.885 0 0 1 .745-.787 1.113 1.113 0 0 1 .938.357 2.69 2.69 0 0 1 .438.655 7.442 7.442 0 0 1 .527 1.262 7.311 7.311 0 0 1 .332 2.271 3.465 3.465 0 0 1 -.45 2.037c-.11-.024.053-.8-.048-2.019a8.3 8.3 0 0 0 -.45-2.082 7.769 7.769 0 0 0 -.519-1.137c-.205-.406-.451-.688-.673-.642-.083.019-.108.034-.143.188a2.055 2.055 0 0 0 .039.583 10.841 10.841 0 0 0 .261 1.238 11.494 11.494 0 0 0 .76 2.016 14.413 14.413 0 0 1 .935 1.803z" fill="#263238" transform="translate(-11.041 120.993)"/><path d="m136.653 406.937c-.07-.033.205-.817 1.138-1.745a6.76 6.76 0 0 1 1.892-1.3 6.9 6.9 0 0 1 1.3-.443 1.72 1.72 0 0 1 1.667.295.971.971 0 0 1 .143 1.035 2.807 2.807 0 0 1 -.428.666 4.613 4.613 0 0 1 -1.047.932 4.787 4.787 0 0 1 -2.2.763 2.683 2.683 0 0 1 -2.048-.422 16.811 16.811 0 0 0 1.98-.073 4.784 4.784 0 0 0 1.9-.806 4.253 4.253 0 0 0 .873-.827c.287-.342.444-.7.3-.8a1.19 1.19 0 0 0 -.992-.091 6.947 6.947 0 0 0 -1.186.364 7.5 7.5 0 0 0 -1.82 1.077c-.952.77-1.376 1.438-1.472 1.375z" fill="#263238" transform="translate(-10.927 121.14)"/><g filter="url(#c)" transform="translate(.004 .004)"><path d="m241.119 251.136c-.819.332-8.525 1.717-15.245 15.441s-5.656 22-5.656 22l-33.157 47.277-67.518 63.02 21.374 21.011 70.335-61.47s36.8-33.115 40.7-37.521c7.535-8.5 32.941-44.985 32.941-44.985z" fill="#263238" transform="translate(-11.82 113.2)"/></g><g filter="url(#d)" transform="translate(.003 -.002)"><path d="m248.388 304.268 13.564 33.156-49.526 12.63 3.42 24.2s77.324-10.5 81.544-14.341 6.983-7.265 7.08-11.176-24.528-81.619-24.528-81.619l-27.893 21.7z" fill="#263238" transform="translate(-6.97 114.03)"/></g><path d="m274.756 276.508a1.957 1.957 0 0 1 -.182.51c-.166.382-.371.851-.62 1.419-.519 1.246-1.442 2.962-2.585 5.08a175.313 175.313 0 0 1 -10.2 15.775c-4.26 5.978-8.341 11.222-11.358 14.964-1.506 1.873-2.75 3.368-3.623 4.39-.408.467-.745.852-1.018 1.167-.239.262-.371.392-.386.381a2 2 0 0 1 .3-.451l.938-1.23 3.485-4.5c2.938-3.8 6.963-9.075 11.216-15.042s7.9-11.5 10.313-15.65c1.182-2.085 2.154-3.768 2.73-4.979.284-.55.52-1 .711-1.373a2.087 2.087 0 0 1 .279-.461z" fill="#455a64" transform="translate(-5.285 114.521)"/><path d="m275.219 340.468c-.088.054-.621-.868-1.781-2.09a15.092 15.092 0 0 0 -2.237-1.918 15.406 15.406 0 0 0 -6.651-2.625 15.064 15.064 0 0 0 -2.944-.127c-1.681.1-2.7.408-2.727.309-.012-.036.235-.136.693-.286a9.781 9.781 0 0 1 2-.409 13.3 13.3 0 0 1 3.041.013 14.531 14.531 0 0 1 6.879 2.716 13.36 13.36 0 0 1 2.231 2.068 9.752 9.752 0 0 1 1.183 1.667c.234.422.346.663.313.682z" fill="#455a64" transform="translate(-4.55 117.482)"/><path d="m274.587 331.2a49.012 49.012 0 0 1 -7.2 1.4 49.266 49.266 0 0 1 -7.288.856 49.353 49.353 0 0 1 7.2-1.4 49.423 49.423 0 0 1 7.288-.856z" fill="#455a64" transform="translate(-4.486 117.374)"/><path d="m250.254 318.028a1.97 1.97 0 0 1 -.257.284l-.789.8c-.727.712-1.758 1.726-3.076 3.019-2.671 2.62-6.589 6.359-11.464 10.943-9.747 9.17-23.439 21.6-38.8 35.051s-29.4 25.485-39.545 34.214l-12.02 10.324-3.282 2.792-.863.715a1.908 1.908 0 0 1 -.306.229 2.036 2.036 0 0 1 .269-.271l.827-.757 3.213-2.87 11.907-10.457 39.438-34.332c15.354-13.451 29.081-25.828 38.894-34.922 4.908-4.545 8.865-8.242 11.581-10.814l3.146-2.944.828-.755a1.927 1.927 0 0 1 .299-.249z" fill="#455a64" transform="translate(-10.759 116.688)"/><path d="m367.129 103.987 5.533-9.419s2.815-9.419 3.592-10.221 1.65-1 2.233-.6 9.028 2.805 9.611 3.206 0 5.611 0 5.611l-.1 1.2s3.275-1.074 4.563 0c.616.513-.388 2.906-2.427 3.808a26.8 26.8 0 0 0 -7.637 5.411 3.992 3.992 0 0 1 -2.608 1.125c-.546.022-.983.005-.822-.123.635-.5-5.242 7.416-5.242 7.416z" fill="#b78876" transform="translate(1.099 104.455)"/><path d="m391.85 93.295a3.648 3.648 0 0 0 -1.555-.32 14.222 14.222 0 0 0 -3.838.883 12.012 12.012 0 0 1 -4 .83 2.7 2.7 0 0 1 -1.656-.4c.025-.087.644.089 1.646.014a15.826 15.826 0 0 0 3.835-.963 11.1 11.1 0 0 1 4.023-.75 2.555 2.555 0 0 1 1.227.358c.261.166.337.334.318.348z" fill="#aa6550" transform="translate(1.813 104.925)"/><path d="m380.6 88.454c.058-.035.223.362.81.633a3 3 0 0 0 2.542-.242l.467-.226-.129.52a7.308 7.308 0 0 0 -.152 2.689l.026.184.043.3-.287.02a3.217 3.217 0 0 1 -1.393-.332 1.266 1.266 0 0 0 -.983-.092.872.872 0 0 0 -.444.7 1.313 1.313 0 0 0 .2.789 3.236 3.236 0 0 0 .928.924c.264.192.41.306.391.34s-.195-.02-.5-.159a2.838 2.838 0 0 1 -1.143-.9 1.671 1.671 0 0 1 -.326-1.029 1.322 1.322 0 0 1 .666-1.11 1.721 1.721 0 0 1 1.392.036 2.949 2.949 0 0 0 1.154.285l-.245.317-.028-.2a7.121 7.121 0 0 1 .215-2.89l.339.292a4.473 4.473 0 0 1 -1.611.378 2.349 2.349 0 0 1 -1.269-.329c-.64-.409-.712-.901-.663-.898z" fill="#aa6550" transform="translate(1.801 104.711)"/><path d="m379.588 93.93c-.128-.094.6-1.215 1.034-2.765a3.674 3.674 0 0 0 .181-1.942c-.123-.478-.375-.706-.325-.77.026-.063.423.077.689.636a3.206 3.206 0 0 1 -.018 2.226 4.457 4.457 0 0 1 -1.561 2.615z" fill="#aa6550" transform="translate(1.748 104.71)"/><path d="m293.715 108.417a20.9 20.9 0 0 1 9.394-3 10.452 10.452 0 0 1 8.756 3.863c1.514 2.083 2.06 4.885 4.053 6.516 2.742 2.243 6.792 1.258 10.277 1.893.711.129 1.517.432 1.717 1.127a2.191 2.191 0 0 1 -.538 1.729l-3.525 5.26a5.437 5.437 0 0 0 4.7.564 16.086 16.086 0 0 1 -5.61 9.419 1.367 1.367 0 0 1 1.764.98 3.424 3.424 0 0 1 -.356 2.235 16.563 16.563 0 0 1 -23.829 7.577" fill="#263238" transform="translate(-2.731 105.595)"/><path d="m297.662 107.946a10.276 10.276 0 0 0 -12.461-.467c-2.494 1.851-3.968 4.723-5.662 7.325s-3.941 5.176-6.992 5.759c-2.473.473-5.121-.447-7.5.364-2.579.877-4.142 3.631-4.433 6.339s.449 5.409 1.182 8.032a7.012 7.012 0 0 1 -5.314 1.392 9.38 9.38 0 0 0 3.606 4.787 12.085 12.085 0 0 1 3.1 2.285 6.473 6.473 0 0 1 1.035 3.618 4.923 4.923 0 0 0 6.347 4.394 23.205 23.205 0 0 0 4.39-1.791s-1.492 2.012.816 4.231a5.883 5.883 0 0 0 4.487-3" fill="#263238" transform="translate(-4.674 105.605)"/><path d="m315.323 129.417a18.782 18.782 0 0 0 -15.206-20.436l-.955-.18c-10.421-1.337-17.378 6.765-18.426 17.219l-7 47.892 23.635 4.4 2.67-15.514s10.2.324 12.185-9.56c.962-4.776 2.138-14.767 3.097-23.821z" fill="#b78876" transform="translate(-3.773 105.765)"/><path d="m308.427 134.654a1.44 1.44 0 0 1 -1.633 1.171 1.377 1.377 0 0 1 -1.218-1.55 1.44 1.44 0 0 1 1.631-1.172 1.379 1.379 0 0 1 1.22 1.551z" fill="#263238" transform="translate(-2.114 107.04)"/><path d="m310.647 132.717c-.209.152-1.132-.843-2.656-1.126-1.517-.3-2.782.269-2.911.052-.066-.1.176-.4.728-.66a3.944 3.944 0 0 1 2.375-.269 3.8 3.8 0 0 1 2.071 1.126c.399.447.495.811.393.877z" fill="#263238" transform="translate(-2.139 106.911)"/><path d="m295.541 133.791c-.21.15-1.134-.844-2.656-1.126-1.517-.3-2.782.268-2.912.051-.065-.1.175-.4.729-.659a3.948 3.948 0 0 1 2.374-.27 3.8 3.8 0 0 1 2.071 1.127c.399.447.496.81.394.877z" fill="#263238" transform="translate(-2.927 106.968)"/><path d="m299.33 142.561a10.2 10.2 0 0 1 2.556.019c.4.034.779.025.894-.228a2.015 2.015 0 0 0 -.042-1.2q-.284-1.514-.593-3.177c-.8-4.515-1.307-8.2-1.125-8.229s.982 3.6 1.784 8.12c.188 1.111.37 2.171.541 3.185a2.287 2.287 0 0 1 -.085 1.564.992.992 0 0 1 -.746.448 2.743 2.743 0 0 1 -.678-.033 10.088 10.088 0 0 1 -2.506-.469z" fill="#263238" transform="translate(-2.438 106.865)"/><path d="m294.905 142.125c.25.033-.058 1.686 1.136 3.125s2.987 1.588 2.957 1.821c0 .108-.453.247-1.2.127a4.187 4.187 0 0 1 -2.485-1.427 3.652 3.652 0 0 1 -.847-2.6c.067-.702.328-1.076.439-1.046z" fill="#263238" transform="translate(-2.693 107.511)"/><path d="m297.292 126.607c-.184.409-1.712.095-3.54.178-1.831.046-3.332.468-3.545.074-.094-.188.19-.565.812-.927a6.16 6.16 0 0 1 5.4-.191c.643.317.953.673.873.866z" fill="#263238" transform="translate(-2.915 106.628)"/><path d="m311.608 127.146c-.39.288-1.612-.3-3.157-.59-1.535-.336-2.9-.275-3.135-.69-.1-.2.166-.509.8-.735a5.2 5.2 0 0 1 2.672-.113 5.11 5.11 0 0 1 2.4 1.144c.479.453.595.838.42.984z" fill="#263238" transform="translate(-2.127 106.612)"/><path d="m280.876 132.438c-.155-.105-6.428-3.294-7.485 3.518s6 6.471 6.043 6.277 1.442-9.795 1.442-9.795z" fill="#b78876" transform="translate(-3.797 106.962)"/><path d="m278.232 139.33c-.026-.026-.132.064-.346.125a1.2 1.2 0 0 1 -.89-.12 2.972 2.972 0 0 1 -.95-2.846 3.97 3.97 0 0 1 .6-1.648 1.388 1.388 0 0 1 1.034-.772.61.61 0 0 1 .649.435c.062.2 0 .334.033.351.016.02.163-.092.153-.382a.765.765 0 0 0 -.2-.468.9.9 0 0 0 -.629-.276 1.69 1.69 0 0 0 -1.4.864 4.086 4.086 0 0 0 -.706 1.835 3.118 3.118 0 0 0 1.274 3.211 1.284 1.284 0 0 0 1.114-.012c.226-.135.286-.281.264-.297z" fill="#aa6550" transform="translate(-3.68 107.072)"/><path d="m290.684 114.317a8.663 8.663 0 0 1 5.732 1.867l1.051.833 17.341 5.264c4.514-1.417 2.426-5.689-1.1-7.583-4.131-2.217-8.559-6.2-13.152-7.142s-13.029.459-17.177 5.028a16.176 16.176 0 0 0 -3.286 5.223 58.915 58.915 0 0 0 -2.155 14.753 12.441 12.441 0 0 0 1.508 4.463c1.558.284 2.366-.847 2.417-2.431l.832-6.092a9.276 9.276 0 0 0 4.767-10.131c-.022-.044.021.064 0 0a3.17 3.17 0 0 1 3.222-4.052z" fill="#263238" transform="translate(-3.555 105.692)"/><path d="m287.135 116.04c.758-2.114 4.526-2.882 6.525-1.859s3.283 3.006 4.646 4.789 3.1 3.555 5.331 3.8c2.321.254 4.826-1.2 6.9-.119.913.477 1.537 1.372 2.4 1.937a5.3 5.3 0 0 0 4.58.337 15.7 15.7 0 0 0 4.078-2.412c-4.395-.675-8.149-3.437-11.658-6.169s-7.139-5.6-11.481-6.561-9.615.651-11.316 4.761" fill="#263238" transform="translate(-3.075 105.809)"/><path d="m264.474 143.639c.015-.025.2.12.617.218a2.487 2.487 0 0 0 1.768-.337 2.971 2.971 0 0 0 1.358-2.423 7.036 7.036 0 0 0 -.974-3.723 19.688 19.688 0 0 1 -1.906-4.485 6.78 6.78 0 0 1 .825-5.523 5.088 5.088 0 0 1 2.515-1.826 9.682 9.682 0 0 1 3.178-.418c2.137 0 4.371.391 6.467-.223a4.756 4.756 0 0 0 2.526-1.8 7.526 7.526 0 0 0 1.122-2.9c.4-2.046.235-4.126.576-6.1a9.131 9.131 0 0 1 .883-2.789 5.253 5.253 0 0 1 1.893-2.041 6.283 6.283 0 0 1 4.845-.53 8.956 8.956 0 0 1 3.542 1.932 16.916 16.916 0 0 1 2.1 2.184c.527.642.908 1.159 1.164 1.513a2.968 2.968 0 0 1 .364.558 3.052 3.052 0 0 1 -.451-.489l-1.237-1.437a18.347 18.347 0 0 0 -2.137-2.086 8.772 8.772 0 0 0 -3.442-1.793 5.914 5.914 0 0 0 -4.511.542 6.127 6.127 0 0 0 -2.516 4.524c-.321 1.894-.142 3.97-.548 6.115a8.006 8.006 0 0 1 -1.2 3.111 5.3 5.3 0 0 1 -2.809 2.01c-2.29.66-4.545.234-6.634.237a9.264 9.264 0 0 0 -3.005.377 4.59 4.59 0 0 0 -2.273 1.624 6.333 6.333 0 0 0 -.792 5.126 19.744 19.744 0 0 0 1.811 4.418 7.269 7.269 0 0 1 .931 3.92 3.194 3.194 0 0 1 -1.557 2.581 2.532 2.532 0 0 1 -1.9.259 1.381 1.381 0 0 1 -.593-.326z" fill="#455a64" transform="translate(-4.257 105.756)"/><path d="m321.665 118.642c.011.017-.082.09-.269.22a4.459 4.459 0 0 1 -.871.485 7.3 7.3 0 0 1 -3.615.56 8.019 8.019 0 0 1 -4.941-2.225 7.814 7.814 0 0 1 -1.755-2.737 25.746 25.746 0 0 0 -1.331-3.091 6.311 6.311 0 0 0 -5.234-3.03 5.888 5.888 0 0 0 -4.586 2.014 6.685 6.685 0 0 0 -1.586 3.115c-.165.826-.133 1.3-.185 1.306-.019 0-.039-.116-.059-.343a4.323 4.323 0 0 1 .034-1 6.5 6.5 0 0 1 1.5-3.335 6.222 6.222 0 0 1 4.889-2.264 6.755 6.755 0 0 1 5.694 3.26 24.473 24.473 0 0 1 1.355 3.163 7.413 7.413 0 0 0 1.615 2.584 7.787 7.787 0 0 0 4.623 2.2 7.592 7.592 0 0 0 3.5-.374c.801-.277 1.188-.564 1.222-.508z" fill="#455a64" transform="translate(-2.549 105.747)"/><path d="m272.762 117.629c-.02-.019.085-.119.183-.355a1.449 1.449 0 0 0 -.037-1.076 1.343 1.343 0 0 0 -1.3-.893 1.835 1.835 0 0 0 -1.619 1.317 2.355 2.355 0 0 0 .932 2.389 3.865 3.865 0 0 0 3.059.554 5.683 5.683 0 0 0 3.084-1.725 8.674 8.674 0 0 0 1.718-3.481 13.5 13.5 0 0 1 1.609-3.768 10.9 10.9 0 0 1 2.629-2.788 10.465 10.465 0 0 1 10.309-1.222 8.008 8.008 0 0 1 1.046.54c.227.145.34.229.33.245-.023.042-.511-.241-1.454-.587a10.993 10.993 0 0 0 -4.156-.64 10.128 10.128 0 0 0 -5.772 2.067 10.544 10.544 0 0 0 -2.482 2.677 13.159 13.159 0 0 0 -1.535 3.638 9.094 9.094 0 0 1 -1.849 3.683 6.153 6.153 0 0 1 -3.385 1.856 4.3 4.3 0 0 1 -3.431-.693 2.753 2.753 0 0 1 -1.025-2.857 2.159 2.159 0 0 1 1.991-1.51 1.522 1.522 0 0 1 1.013.375 1.784 1.784 0 0 1 .487.751 1.491 1.491 0 0 1 -.063 1.2c-.144.239-.277.311-.282.303z" fill="#263238" transform="translate(-3.993 105.613)"/><path d="m293.715 108.417a20.9 20.9 0 0 1 9.394-3 10.452 10.452 0 0 1 8.756 3.863c1.514 2.083 2.06 4.885 4.053 6.516 2.742 2.243 6.792 1.258 10.277 1.893.711.129 1.517.432 1.717 1.127a2.191 2.191 0 0 1 -.538 1.729l-3.525 5.26a5.437 5.437 0 0 0 4.7.564 16.086 16.086 0 0 1 -5.61 9.419 1.367 1.367 0 0 1 1.764.98 3.424 3.424 0 0 1 -.356 2.235 16.563 16.563 0 0 1 -23.829 7.577" fill="#263238" transform="translate(-2.731 105.595)"/><path d="m297.662 107.946a10.276 10.276 0 0 0 -12.461-.467c-2.494 1.851-3.968 4.723-5.662 7.325s-3.941 5.176-6.992 5.759c-2.473.473-5.121-.447-7.5.364-2.579.877-4.142 3.631-4.433 6.339s.449 5.409 1.182 8.032a7.012 7.012 0 0 1 -5.314 1.392 9.38 9.38 0 0 0 3.606 4.787 12.085 12.085 0 0 1 3.1 2.285 6.473 6.473 0 0 1 1.035 3.618 4.923 4.923 0 0 0 6.347 4.394 23.205 23.205 0 0 0 4.39-1.791s-1.492 2.012.816 4.231a5.883 5.883 0 0 0 4.487-3" fill="#263238" transform="translate(-4.674 105.605)"/><path d="m315.323 129.417a18.782 18.782 0 0 0 -15.206-20.436l-.955-.18c-10.421-1.337-17.378 6.765-18.426 17.219l-7 47.892 23.635 4.4 2.67-15.514s10.2.324 12.185-9.56c.962-4.776 2.138-14.767 3.097-23.821z" fill="#b78876" transform="translate(-3.773 105.765)"/><path d="m299.429 160.42a24.457 24.457 0 0 1 -12.266-6.242s1.712 7.7 11.764 8.672z" fill="#aa6550" transform="translate(-3.073 108.14)"/><path d="m308.427 134.654a1.44 1.44 0 0 1 -1.633 1.171 1.377 1.377 0 0 1 -1.218-1.55 1.44 1.44 0 0 1 1.631-1.172 1.379 1.379 0 0 1 1.22 1.551z" fill="#263238" transform="translate(-2.114 107.04)"/><path d="m310.647 132.717c-.209.152-1.132-.843-2.656-1.126-1.517-.3-2.782.269-2.911.052-.066-.1.176-.4.728-.66a3.944 3.944 0 0 1 2.375-.269 3.8 3.8 0 0 1 2.071 1.126c.399.447.495.811.393.877z" fill="#263238" transform="translate(-2.139 106.911)"/><path d="m295.541 133.791c-.21.15-1.134-.844-2.656-1.126-1.517-.3-2.782.268-2.912.051-.065-.1.175-.4.729-.659a3.948 3.948 0 0 1 2.374-.27 3.8 3.8 0 0 1 2.071 1.127c.399.447.496.81.394.877z" fill="#263238" transform="translate(-2.927 106.968)"/><path d="m299.33 142.561a10.2 10.2 0 0 1 2.556.019c.4.034.779.025.894-.228a2.015 2.015 0 0 0 -.042-1.2q-.284-1.514-.593-3.177c-.8-4.515-1.307-8.2-1.125-8.229s.982 3.6 1.784 8.12c.188 1.111.37 2.171.541 3.185a2.287 2.287 0 0 1 -.085 1.564.992.992 0 0 1 -.746.448 2.743 2.743 0 0 1 -.678-.033 10.088 10.088 0 0 1 -2.506-.469z" fill="#263238" transform="translate(-2.438 106.865)"/><path d="m294.905 142.125c.25.033-.058 1.686 1.136 3.125s2.987 1.588 2.957 1.821c0 .108-.453.247-1.2.127a4.187 4.187 0 0 1 -2.485-1.427 3.652 3.652 0 0 1 -.847-2.6c.067-.702.328-1.076.439-1.046z" fill="#263238" transform="translate(-2.693 107.511)"/><path d="m297.292 126.607c-.184.409-1.712.095-3.54.178-1.831.046-3.332.468-3.545.074-.094-.188.19-.565.812-.927a6.16 6.16 0 0 1 5.4-.191c.643.317.953.673.873.866z" fill="#263238" transform="translate(-2.915 106.628)"/><path d="m311.608 127.146c-.39.288-1.612-.3-3.157-.59-1.535-.336-2.9-.275-3.135-.69-.1-.2.166-.509.8-.735a5.2 5.2 0 0 1 2.672-.113 5.11 5.11 0 0 1 2.4 1.144c.479.453.595.838.42.984z" fill="#263238" transform="translate(-2.127 106.612)"/><path d="m280.876 132.438c-.155-.105-6.428-3.294-7.485 3.518s6 6.471 6.043 6.277 1.442-9.795 1.442-9.795z" fill="#b78876" transform="translate(-3.797 106.962)"/><path d="m278.232 139.33c-.026-.026-.132.064-.346.125a1.2 1.2 0 0 1 -.89-.12 2.972 2.972 0 0 1 -.95-2.846 3.97 3.97 0 0 1 .6-1.648 1.388 1.388 0 0 1 1.034-.772.61.61 0 0 1 .649.435c.062.2 0 .334.033.351.016.02.163-.092.153-.382a.765.765 0 0 0 -.2-.468.9.9 0 0 0 -.629-.276 1.69 1.69 0 0 0 -1.4.864 4.086 4.086 0 0 0 -.706 1.835 3.118 3.118 0 0 0 1.274 3.211 1.284 1.284 0 0 0 1.114-.012c.226-.135.286-.281.264-.297z" fill="#aa6550" transform="translate(-3.68 107.072)"/><path d="m290.684 114.317a8.663 8.663 0 0 1 5.732 1.867l1.051.833 17.341 5.264c4.514-1.417 2.426-5.689-1.1-7.583-4.131-2.217-8.559-6.2-13.152-7.142s-13.029.459-17.177 5.028a16.176 16.176 0 0 0 -3.286 5.223 58.915 58.915 0 0 0 -2.155 14.753 12.441 12.441 0 0 0 1.508 4.463c1.558.284 2.366-.847 2.417-2.431l.832-6.092a9.276 9.276 0 0 0 4.767-10.131c-.022-.044.021.064 0 0a3.17 3.17 0 0 1 3.222-4.052z" fill="#263238" transform="translate(-3.555 105.692)"/><path d="m287.135 116.04c.758-2.114 4.526-2.882 6.525-1.859s3.283 3.006 4.646 4.789 3.1 3.555 5.331 3.8c2.321.254 4.826-1.2 6.9-.119.913.477 1.537 1.372 2.4 1.937a5.3 5.3 0 0 0 4.58.337 15.7 15.7 0 0 0 4.078-2.412c-4.395-.675-8.149-3.437-11.658-6.169s-7.139-5.6-11.481-6.561-9.615.651-11.316 4.761" fill="#263238" transform="translate(-3.075 105.809)"/><path d="m264.474 143.639c.015-.025.2.12.617.218a2.487 2.487 0 0 0 1.768-.337 2.971 2.971 0 0 0 1.358-2.423 7.036 7.036 0 0 0 -.974-3.723 19.688 19.688 0 0 1 -1.906-4.485 6.78 6.78 0 0 1 .825-5.523 5.088 5.088 0 0 1 2.515-1.826 9.682 9.682 0 0 1 3.178-.418c2.137 0 4.371.391 6.467-.223a4.756 4.756 0 0 0 2.526-1.8 7.526 7.526 0 0 0 1.122-2.9c.4-2.046.235-4.126.576-6.1a9.131 9.131 0 0 1 .883-2.789 5.253 5.253 0 0 1 1.893-2.041 6.283 6.283 0 0 1 4.845-.53 8.956 8.956 0 0 1 3.542 1.932 16.916 16.916 0 0 1 2.1 2.184c.527.642.908 1.159 1.164 1.513a2.968 2.968 0 0 1 .364.558 3.052 3.052 0 0 1 -.451-.489l-1.237-1.437a18.347 18.347 0 0 0 -2.137-2.086 8.772 8.772 0 0 0 -3.442-1.793 5.914 5.914 0 0 0 -4.511.542 6.127 6.127 0 0 0 -2.516 4.524c-.321 1.894-.142 3.97-.548 6.115a8.006 8.006 0 0 1 -1.2 3.111 5.3 5.3 0 0 1 -2.809 2.01c-2.29.66-4.545.234-6.634.237a9.264 9.264 0 0 0 -3.005.377 4.59 4.59 0 0 0 -2.273 1.624 6.333 6.333 0 0 0 -.792 5.126 19.744 19.744 0 0 0 1.811 4.418 7.269 7.269 0 0 1 .931 3.92 3.194 3.194 0 0 1 -1.557 2.581 2.532 2.532 0 0 1 -1.9.259 1.381 1.381 0 0 1 -.593-.326z" fill="#455a64" transform="translate(-4.257 105.756)"/><path d="m321.665 118.642c.011.017-.082.09-.269.22a4.459 4.459 0 0 1 -.871.485 7.3 7.3 0 0 1 -3.615.56 8.019 8.019 0 0 1 -4.941-2.225 7.814 7.814 0 0 1 -1.755-2.737 25.746 25.746 0 0 0 -1.331-3.091 6.311 6.311 0 0 0 -5.234-3.03 5.888 5.888 0 0 0 -4.586 2.014 6.685 6.685 0 0 0 -1.586 3.115c-.165.826-.133 1.3-.185 1.306-.019 0-.039-.116-.059-.343a4.323 4.323 0 0 1 .034-1 6.5 6.5 0 0 1 1.5-3.335 6.222 6.222 0 0 1 4.889-2.264 6.755 6.755 0 0 1 5.694 3.26 24.473 24.473 0 0 1 1.355 3.163 7.413 7.413 0 0 0 1.615 2.584 7.787 7.787 0 0 0 4.623 2.2 7.592 7.592 0 0 0 3.5-.374c.801-.277 1.188-.564 1.222-.508z" fill="#455a64" transform="translate(-2.549 105.747)"/><path d="m272.762 117.629c-.02-.019.085-.119.183-.355a1.449 1.449 0 0 0 -.037-1.076 1.343 1.343 0 0 0 -1.3-.893 1.835 1.835 0 0 0 -1.619 1.317 2.355 2.355 0 0 0 .932 2.389 3.865 3.865 0 0 0 3.059.554 5.683 5.683 0 0 0 3.084-1.725 8.674 8.674 0 0 0 1.718-3.481 13.5 13.5 0 0 1 1.609-3.768 10.9 10.9 0 0 1 2.629-2.788 10.465 10.465 0 0 1 10.309-1.222 8.008 8.008 0 0 1 1.046.54c.227.145.34.229.33.245-.023.042-.511-.241-1.454-.587a10.993 10.993 0 0 0 -4.156-.64 10.128 10.128 0 0 0 -5.772 2.067 10.544 10.544 0 0 0 -2.482 2.677 13.159 13.159 0 0 0 -1.535 3.638 9.094 9.094 0 0 1 -1.849 3.683 6.153 6.153 0 0 1 -3.385 1.856 4.3 4.3 0 0 1 -3.431-.693 2.753 2.753 0 0 1 -1.025-2.857 2.159 2.159 0 0 1 1.991-1.51 1.522 1.522 0 0 1 1.013.375 1.784 1.784 0 0 1 .487.751 1.491 1.491 0 0 1 -.063 1.2c-.144.239-.277.311-.282.303z" fill="#263238" transform="translate(-3.993 105.613)"/><path d="m299.429 160.42a24.457 24.457 0 0 1 -12.266-6.242s1.712 7.7 11.764 8.672z" fill="#aa6550" transform="translate(-3.073 108.14)"/><path d="m196.488 299.562s1.543-11.146-7.717-11.832-11.145 7.374-11.145 7.374l-3.772-1.478s3.772-11.21 16.46-8.3 9.774 15.774 9.774 15.774z" fill="#e8505b" transform="translate(-8.985 114.957)"/><path d="m196.488 299.562s1.543-11.146-7.717-11.832-11.145 7.374-11.145 7.374l-3.772-1.478s3.772-11.21 16.46-8.3 9.774 15.774 9.774 15.774z" opacity=".3" transform="translate(-8.985 114.957)"/><path d="m156.295 287.624-12.518 51.564 68.481 15.212 11.59-51.119z" fill="#e8505b" transform="translate(-10.554 115.102)"/><path d="m223.22 303.267c.006.007-.05.068-.168.183l-.533.5-2.076 1.871c-1.813 1.614-4.423 3.968-7.765 6.744a70.7 70.7 0 0 1 -12.552 8.688 36.65 36.65 0 0 1 -8.475 3.158 25.118 25.118 0 0 1 -9.7.427 22.753 22.753 0 0 1 -9-3.647 30.319 30.319 0 0 1 -6.619-6.171 44.088 44.088 0 0 1 -7.052-13.519 101.511 101.511 0 0 1 -2.721-9.925q-.376-1.727-.593-2.733l-.139-.713a.868.868 0 0 1 -.028-.248.861.861 0 0 1 .083.236l.191.7q.256 1 .693 2.707c.609 2.347 1.457 5.76 2.88 9.848a44.45 44.45 0 0 0 7.079 13.33 29.981 29.981 0 0 0 6.525 6.042 22.321 22.321 0 0 0 8.788 3.552 24.747 24.747 0 0 0 9.491-.409 36.439 36.439 0 0 0 8.371-3.088 72.355 72.355 0 0 0 12.536-8.537c3.366-2.733 6.015-5.04 7.871-6.6l2.144-1.795.568-.453c.125-.108.195-.155.201-.148z" fill="#263238" transform="translate(-9.927 115.115)"/><path d="m199.949 351.483c-.14-.058 4.217-10.827 9.729-24.051s10.1-23.9 10.237-23.841-4.216 10.825-9.73 24.053-10.096 23.898-10.236 23.839z" fill="#263238" transform="translate(-7.624 115.934)"/><path d="m220.253 302.816a1.987 1.987 0 0 1 -.087.525c-.1.4-.214.888-.355 1.478-.317 1.283-.811 3.127-1.447 5.4-1.266 4.548-3.146 10.792-5.284 17.666-2.112 6.842-4.022 13.032-5.436 17.613l-1.613 5.349c-.181.579-.33 1.058-.454 1.45a1.88 1.88 0 0 1 -.195.5 1.977 1.977 0 0 1 .088-.525l.355-1.478c.317-1.282.811-3.126 1.446-5.4 1.267-4.547 3.146-10.792 5.285-17.669 2.111-6.84 4.021-13.029 5.436-17.611.662-2.2 1.207-4 1.612-5.348.182-.58.331-1.058.454-1.45a2.011 2.011 0 0 1 .195-.5z" fill="#263238" transform="translate(-7.34 115.894)"/><path d="m0 0h2.089v3.9h-2.089z" fill="#263238" transform="matrix(.98331529 .18190946 -.18190946 .98331529 169.493 437.489)"/><path d="m223.217 303.275a3.44 3.44 0 0 1 -.7-.1l-1.975-.4-7.239-1.58-23.831-5.414-23.8-5.571-7.2-1.75-1.951-.5a3.376 3.376 0 0 1 -.671-.211 3.429 3.429 0 0 1 .7.1l1.974.4 7.238 1.579 23.838 5.412 23.795 5.57 7.2 1.75 1.95.5a3.313 3.313 0 0 1 .672.215z" fill="#263238" transform="translate(-9.924 115.107)"/><path d="m190.109 267.792s-7.037 11.568-7.6 13.509-3.185 4.715-1.067 5.907c0 0-.693 1.469 1.638 2.516 0 0-.543 2.616 2.7 2.982 0 0 1.739 2.573 3.744 1.842 0 0 2.5 1.936 4.035.145a44.547 44.547 0 0 0 3.343-4.759l1.518 1.784a7.991 7.991 0 0 0 1.47-4.5c-.037-2.53-2.492-6.227-1.19-9.125a13.679 13.679 0 0 1 1.572-3z" fill="#b78876" transform="translate(-8.631 114.067)"/><path d="m205.643 316.874a39.05 39.05 0 0 1 -14.832 12.889c-4.229 2.2-9.211 3.624-13.758 2.193-3.97-1.25-7-4.476-9.383-7.888a47.867 47.867 0 0 1 -8.425-23.424s7.769 21.367 21.231 22.738 25.167-6.508 25.167-6.508z" opacity=".3" transform="translate(-9.747 115.781)"/><path d="m187.16 261.676 3.787 11.117 9.177-14.555-3.6-11.023z" fill="#455a64" transform="translate(-8.291 112.994)"/><path d="m367.129 100.485 3.689-4.663 8.323 9.471-3.577 6.849z" fill="#fafafa" transform="translate(1.098 105.095)"/><path d="m367.129 100.5a7.548 7.548 0 0 1 .718.868l1.827 2.4c1.54 2.044 3.67 4.9 6.1 8.237l-.444.032 2.741-5.275.826-1.579.037.306c-3.238-3.694-6.128-7.025-8.264-9.523l.3-.007c-1.112 1.34-2.035 2.454-2.746 3.312a13.706 13.706 0 0 1 -1.094 1.23 10.146 10.146 0 0 1 .885-1.271c.607-.823 1.508-2.026 2.651-3.512l.14-.182.158.175c2.2 2.439 5.135 5.732 8.383 9.419l.123.14-.086.166-.824 1.58-2.763 5.264-.2.377-.246-.344c-2.461-3.431-4.549-6.4-6-8.493q-1.015-1.477-1.678-2.446a5.094 5.094 0 0 1 -.544-.874z" fill="#263238" transform="translate(1.098 105.08)"/><path d="m186.251 265.242s-3.141 5.9-3.22 5.957l15.369 7.921 1.753-3.888z" fill="#fafafa" transform="translate(-8.506 113.934)"/><path d="m186.263 265.242a8.59 8.59 0 0 1 1.032.663l2.92 2.008c2.5 1.731 6.049 4.207 10.105 7.1l.176.126-.088.2-1.746 3.891-.118.263-.257-.133-1.19-.612c-5.53-2.85-10.526-5.459-14.143-7.378l-.164-.086.137-.243 2.386-4.25a11.572 11.572 0 0 1 .95-1.552 11.285 11.285 0 0 1 -.761 1.653q-.418.824-.966 1.9l-.613 1.182-.339.644-.179.335-.095.171-.047.086a.927.927 0 0 1 -.1.141l-.027-.329c3.662 1.832 8.686 4.387 14.216 7.237l1.189.613-.375.131c.6-1.332 1.192-2.632 1.76-3.884l.086.324c-3.941-2.85-7.344-5.369-9.8-7.2l-2.888-2.166a13.18 13.18 0 0 1 -1.061-.835z" fill="#263238" transform="translate(-8.519 113.934)"/><g filter="url(#e)" transform="translate(-.002 -.002)"><path d="m270.33 266.153c14.26-.069 29.859 5.232 40.037 15.161 4.078-7.267 2.4-15.93-.088-23.727s-7.088-14.621-11.714-21.262a12.376 12.376 0 0 0 -4.155-4.271c-3.4-1.735-7.657.039-10.65 2.6-4.533 3.881-7.462 9.442-9.174 15.2s-2.306 11.751-2.89 17.7" fill="#455a64" transform="translate(-3.95 112.17)"/></g><g filter="url(#f)" transform="translate(0 -.001)"><path d="m297.647 171.337s.176-5.6 2.855-5.6a14.709 14.709 0 0 1 4.536.782l65.34-67.554 11.209 13.229-30.937 39.635-38.157 38.952s-3.364 6.261-3.981 9.543-1.682 34.614-1.338 40.457 5.691 28.86 5.625 39.767-3.474 7.678-3.474 7.678l-11.407-31.854-5.343-14.2-2.226-3.1 1.845-8.462s7.105-24.04 7.071-28.76 1.049-9.882 1.049-13.57c0-3.529-3.38-10.25-3.38-10.25z" fill="#263238" transform="translate(-2.91 105.26)"/></g><path d="m275.4 155.851-1.43 4.751-.786.353-5.662 13.545-.96 103.078 8.538 2.322s8.068-9.421 10.739-16.235 8.147-26.929 8.147-26.929l7.468-44.643 1.078-11.115a9.829 9.829 0 0 0 -3.484-8.5l.378-4.381-2.121 1.053z" fill="#fafafa" transform="translate(-4.148 108.227)"/><path d="m273.824 160.644a6.144 6.144 0 0 1 .217-1.309c.211-.941.477-2.118.79-3.516l.058-.257.234.137c2.558 1.5 6.057 3.586 9.9 5.921 5.142 3.122 9.611 5.9 11.978 7.429l-.135-.006a14.285 14.285 0 0 1 2.183-.927 14.511 14.511 0 0 1 -2.059 1.178l-.064.035-.071-.04c-2.452-1.4-6.976-4.079-12.117-7.2-3.844-2.335-7.313-4.476-9.82-6.055l.291-.119c-.383 1.381-.7 2.544-.961 3.474a6.094 6.094 0 0 1 -.424 1.255z" fill="#263238" transform="translate(-3.77 108.212)"/><path d="m294.049 176.095a10.719 10.719 0 0 1 .308 1.729c.168 1.117.361 2.742.552 4.754a137.4 137.4 0 0 1 -.713 31.517c-.283 2-.548 3.615-.768 4.723a10.521 10.521 0 0 1 -.386 1.713 10.855 10.855 0 0 1 .176-1.747c.155-1.117.361-2.737.593-4.738.469-4 .959-9.555 1.1-15.7s-.1-11.714-.389-15.734c-.142-2.011-.275-3.637-.378-4.761a10.735 10.735 0 0 1 -.095-1.756z" fill="#263238" transform="translate(-2.767 109.283)"/><path d="m293.649 219.555s5.944-18.168 5.944-17.55-3.431 44.384-3.431 44.384l-5.383-14.777z" fill="#263238" transform="translate(-2.885 110.634)"/><path d="m284.757 250.229a6.028 6.028 0 0 1 .373-1.265c.313-.9.707-2.037 1.174-3.383.994-2.856 2.332-6.81 3.685-11.217s2.462-8.434 3.241-11.355c.367-1.376.678-2.535.925-3.46a6.129 6.129 0 0 1 .4-1.255 6.1 6.1 0 0 1 -.193 1.3c-.157.832-.415 2.03-.756 3.5-.683 2.95-1.737 7-3.092 11.422s-2.756 8.364-3.845 11.189c-.544 1.413-1 2.549-1.339 3.327a6.143 6.143 0 0 1 -.573 1.197z" fill="#455a64" transform="translate(-3.2 111.485)"/><path d="m302.856 197.171a3.43 3.43 0 0 1 .179 1.039 19.513 19.513 0 0 1 .047 2.87 22.848 22.848 0 0 1 -2.514 9.1c-1.456 2.885-3.065 5.348-4.13 7.372a41.234 41.234 0 0 0 -1.934 4.123l-.108-.034c.074-.177.12-.264.138-.258s.008.1-.03.29l-.107-.034a20.659 20.659 0 0 1 1.665-4.283c1.007-2.079 2.582-4.579 4.016-7.421a24.678 24.678 0 0 0 2.618-8.881c.219-2.386.066-3.877.16-3.883z" fill="#455a64" transform="translate(-2.696 110.383)"/><path d="m297.632 169.433a5.351 5.351 0 0 1 1.122.781 32.17 32.17 0 0 1 2.775 2.485 22.342 22.342 0 0 1 3.462 4.333 8.223 8.223 0 0 1 1.19 3.107 14 14 0 0 1 -.106 3.547 56.518 56.518 0 0 1 -2.375 9.525c-.87 2.648-1.664 4.695-2.165 5.871l-.1-.14a5.883 5.883 0 0 1 1.284.1 6.028 6.028 0 0 1 -1.284.1l-.144.006.048-.146c.406-1.206 1.118-3.278 1.928-5.933a64.033 64.033 0 0 0 2.262-9.46 13.926 13.926 0 0 0 .118-3.4 7.881 7.881 0 0 0 -1.1-2.927 23.646 23.646 0 0 0 -3.3-4.315c-1.065-1.137-1.992-2-2.634-2.593a8.328 8.328 0 0 1 -.981-.941z" fill="#455a64" transform="translate(-2.527 108.935)"/><path d="m310.233 179.04a13.558 13.558 0 0 1 -.227-2.568 28.236 28.236 0 0 0 -.883-6.074 12.457 12.457 0 0 0 -2.947-5.258c-1.1-1.115-2-1.538-1.956-1.626.015-.031.255.042.659.245a7.4 7.4 0 0 1 1.566 1.1 11.6 11.6 0 0 1 3.206 5.384 22.681 22.681 0 0 1 .743 6.215 10.951 10.951 0 0 1 -.161 2.582z" fill="#455a64" transform="translate(-2.184 108.626)"/><path d="m299.522 222.832a10.676 10.676 0 0 1 -6.474.392 120.151 120.151 0 0 1 6.474-.392z" fill="#455a64" transform="translate(-2.767 111.719)"/><path d="m296 230.188a18.395 18.395 0 0 1 -3.14-5.493 18.4 18.4 0 0 1 3.14 5.493z" fill="#455a64" transform="translate(-2.777 111.818)"/><path d="m254.747 166.149a5.031 5.031 0 0 1 .993.818 19.261 19.261 0 0 1 2.306 2.645 21.6 21.6 0 0 1 2.066 22.081 19.353 19.353 0 0 1 -1.776 3.028 5.017 5.017 0 0 1 -.824.987c-.092-.061 1.07-1.494 2.247-4.175a22.24 22.24 0 0 0 -2.031-21.7c-1.652-2.414-3.06-3.607-2.981-3.684z" fill="#455a64" transform="translate(-4.765 108.764)"/><path d="m211.585 271.307c2.546 5.494 44.107 27.371 44.107 27.371s9.763-7.426 22.267-22.721 19.822-54.236 19.822-54.236-6.94-30.19-11.821-42.89-9.908-18.365-9.908-18.365l-25.444 6.212-7.975 53.422-.464 16.551s-2.032.51-2.032 1.4v1.965z" fill="#263238" transform="translate(-7.017 108.468)"/><path d="m184.808 269.442s36.74-59.5 40.686-66.3c4.549-7.835 24.363-38.03 27.357-36.962s13.069 8.612 9.034 23.433-8.694 22.648-8.694 22.648l-14.578 15.488-37.955 53.088-14.841-10.667z" fill="#263238" transform="translate(-8.414 108.764)"/><g fill="#455a64"><path d="m293.923 223.516a1.593 1.593 0 0 1 -.174.45c-.129.286-.331.7-.6 1.238a43.781 43.781 0 0 1 -2.516 4.4 19.711 19.711 0 0 1 -5.148 5.5 16.326 16.326 0 0 1 -8.819 2.6 63.816 63.816 0 0 1 -16.581-1.927c-2.076-.519-3.727-1.042-4.855-1.435-.566-.191-1-.36-1.291-.477a1.57 1.57 0 0 1 -.436-.205 13.9 13.9 0 0 1 1.791.479c1.145.329 2.805.794 4.881 1.262a69.134 69.134 0 0 0 16.468 1.755 16.063 16.063 0 0 0 8.559-2.473 19.969 19.969 0 0 0 5.111-5.3c1.208-1.745 2.049-3.253 2.647-4.282a12.987 12.987 0 0 1 .963-1.585z" transform="translate(-4.83 111.757)"/><path d="m294.3 222.944a3.258 3.258 0 0 1 -.533-.435c-.375-.342-.855-.782-1.453-1.326-1.248-1.167-3.047-2.866-5.139-5.1a41.774 41.774 0 0 1 -11.155-20.874c-1.165-4.516-2.194-8.834-3.162-12.754a92.659 92.659 0 0 1 -2.257-10.507 12.112 12.112 0 0 1 1.178-7.113 7.4 7.4 0 0 1 1.162-1.6 4.1 4.1 0 0 1 .375-.354c.088-.075.137-.109.143-.1a11.252 11.252 0 0 0 -1.491 2.159 12.228 12.228 0 0 0 -.982 6.974 100.479 100.479 0 0 0 2.362 10.427c.986 3.92 2.066 8.22 3.2 12.734a48.827 48.827 0 0 0 4.566 12.2 49.74 49.74 0 0 0 6.346 8.556c2.044 2.257 3.8 4 5 5.208l1.382 1.4a3.177 3.177 0 0 1 .458.505z" transform="translate(-3.943 108.588)"/><path d="m276.492 271.907a4.523 4.523 0 0 1 -.547.592l-1.645 1.62-6.117 5.887-9.12 8.679a22.533 22.533 0 0 1 -2.775 2.425 3.536 3.536 0 0 1 -1.91.595 5.277 5.277 0 0 1 -1.944-.491c-2.376-1.022-4.821-2.1-7.288-3.285a183.279 183.279 0 0 1 -24.305-13.944c-2.967-2.018-5.293-3.756-6.894-4.964q-1.133-.89-1.816-1.427a4.458 4.458 0 0 1 -.609-.528 4.469 4.469 0 0 1 .677.44l1.876 1.344c1.637 1.153 3.994 2.841 6.982 4.814a199.706 199.706 0 0 0 24.325 13.771c2.459 1.185 4.9 2.262 7.259 3.285a4.779 4.779 0 0 0 1.743.457 3.023 3.023 0 0 0 1.629-.508 22.747 22.747 0 0 0 2.7-2.348l9.2-8.594 6.236-5.76c.713-.644 1.284-1.157 1.715-1.546a4.462 4.462 0 0 1 .628-.514z" transform="translate(-7.02 114.029)"/><path d="m290.831 220.92c-.047-.033.279-.42.994-.254a1.092 1.092 0 0 1 .764.963 1.124 1.124 0 0 1 -1.012 1.121 1.305 1.305 0 0 1 -1.341-.668 1.052 1.052 0 0 1 .169-1.223.818.818 0 0 1 .79-.206c.188.061.247.16.228.187-.015.064-.432-.089-.731.279a.667.667 0 0 0 -.014.719.837.837 0 0 0 .815.37.631.631 0 0 0 .589-.561.711.711 0 0 0 -.4-.619c-.445-.206-.825-.028-.851-.108z" transform="translate(-2.919 111.606)"/><path d="m254.207 251.527a2.744 2.744 0 0 1 -.784-.411c-.488-.292-1.171-.75-1.993-1.347a46.385 46.385 0 0 1 -10.974-11.388c-.566-.844-1-1.542-1.273-2.04a2.769 2.769 0 0 1 -.382-.8 29.081 29.081 0 0 1 1.971 2.616 60.266 60.266 0 0 0 10.894 11.3 29.09 29.09 0 0 1 2.541 2.07z" transform="translate(-5.597 112.384)"/><path d="m259.778 248.715a3.393 3.393 0 0 1 -.881-.43c-.55-.305-1.33-.775-2.278-1.379a84.721 84.721 0 0 1 -13.7-10.973c-.8-.793-1.426-1.451-1.843-1.921a3.436 3.436 0 0 1 -.612-.766 29.54 29.54 0 0 1 2.722 2.406c1.655 1.511 3.974 3.558 6.639 5.7s5.17 3.951 7.005 5.237a29.727 29.727 0 0 1 2.948 2.126z" transform="translate(-5.51 112.264)"/><path d="m252.484 205.129a31.776 31.776 0 0 1 -2.313 3.1l-5.747 7.352c-2.257 2.864-4.319 5.442-5.854 7.276a18.933 18.933 0 0 1 -2.625 2.85 4.462 4.462 0 0 1 .6-.85l1.72-2.243 5.727-7.373c2.255-2.864 4.332-5.431 5.876-7.256.771-.914 1.41-1.641 1.864-2.134a3.9 3.9 0 0 1 .752-.722z" transform="translate(-5.745 110.797)"/><path d="m251.883 165.9s13.7 3.665 10.776 19.728-21.241 38.072-21.241 38.072l-1.64-.322-6.955 9.065s5.687 2.1 10.153-.046 15.8-19.63 21.262-33.5c6.514-16.524 4.432-23.817 2.323-27.65-4.7-8.542-9.412-6.949-9.412-6.949z" transform="translate(-5.909 108.661)"/></g><path d="m295.517 168.786-3.3 4.014 1.36 3.631 2.37.822 1.781-4.234z" fill="#e8505b" transform="translate(-2.81 108.902)"/><path d="m296.531 175.527c-.166 0-.211-1.258-.9-2.584s-1.615-2.177-1.5-2.3c.068-.114 1.238.588 1.992 2.055a3.541 3.541 0 0 1 .408 2.829z" fill="#263238" transform="translate(-2.71 108.997)"/><path d="m296.683 177.052s.723 4.018 0 5.638c-2.706 6.068-7.893.536-12.642-4.606s-11.237-18.462-18.98-20.87-16.267-2.78-22.332 2.842l-1.882 6.911 6.925-.228s9.672-8.45 18-1.083 18.147 24.339 24.632 24.755 8.806-2.753 9.274-6.675a23.718 23.718 0 0 0 -.368-7.422z" fill="#e8505b" transform="translate(-5.49 108.211)"/><path d="m280.425 175.193a21.514 21.514 0 0 0 9.345 10.278 4.972 4.972 0 0 0 2.657.754 3.55 3.55 0 0 0 2.509-1.544 7.066 7.066 0 0 0 1.085-2.816 21.574 21.574 0 0 0 .319-3.737 2.9 2.9 0 0 0 -.278-1.551 1.041 1.041 0 0 0 -1.4-.29 13.906 13.906 0 0 1 .12 4.392 4.867 4.867 0 0 1 -2.521 3.523c.015-.048-1.99.755-5.181-2.049a72.951 72.951 0 0 1 -6.655-6.96z" opacity=".3" transform="translate(-3.425 109.236)"/><path d="m296.6 175.194c.124.065-.269.862-1.264 1.2a1.944 1.944 0 0 1 -1.287-.006c-.312-.125-.448-.29-.415-.351.076-.137.748.117 1.532-.164.786-.257 1.307-.78 1.434-.679z" fill="#263238" transform="translate(-2.736 109.235)"/><g fill="#fff"><path d="m296.344 184.447c-.146.045-.455-.542-.77-1.279s-.523-1.367-.389-1.44.567.458.893 1.226.41 1.446.266 1.493z" transform="translate(-2.657 109.576)"/><path d="m296.957 178.656c-.113.105-.4-.013-.721-.115s-.62-.186-.647-.338.353-.338.82-.183.661.54.548.636z" transform="translate(-2.634 109.38)"/><path d="m295.375 172.178c.118.1-.28.778-.887 1.522s-1.2 1.272-1.313 1.177.28-.778.888-1.524 1.195-1.271 1.312-1.175z" transform="translate(-2.761 109.078)"/><path d="m290.576 188.829c-.145-.044-.09-.77.121-1.622s.5-1.52.653-1.491.095.757-.121 1.622-.508 1.535-.653 1.491z" transform="translate(-2.9 109.785)"/><path d="m283.766 186.637c-.115-.1.441-.971 1.239-1.948s1.545-1.694 1.663-1.6-.435.965-1.24 1.948-1.548 1.698-1.662 1.6z" transform="translate(-3.252 109.648)"/><path d="m283.254 179.919c.106.108-.586.878-1.547 1.72s-1.815 1.427-1.908 1.307.6-.889 1.547-1.719 1.801-1.416 1.908-1.308z" transform="translate(-3.458 109.482)"/><path d="m280.46 175.023a8.937 8.937 0 0 1 -3.863 4.416 13.464 13.464 0 0 1 1.892-2.243c1.058-1.203 1.837-2.255 1.971-2.173z" transform="translate(-3.625 109.227)"/><path d="m276.435 170c.1.111-.738 1.046-1.875 2.085a7.305 7.305 0 0 1 -2.244 1.68c-.1-.112.738-1.045 1.875-2.084a7.344 7.344 0 0 1 2.244-1.681z" transform="translate(-3.849 108.964)"/><path d="m273.787 165.618a15.943 15.943 0 0 1 -2.336 2.289 15.973 15.973 0 0 1 -2.426 2.194 11.335 11.335 0 0 1 4.762-4.483z" transform="translate(-4.021 108.736)"/><path d="m270.249 161.335a32.17 32.17 0 0 1 -2.435 2.367 32.509 32.509 0 0 1 -2.3 2.5 9.327 9.327 0 0 1 4.738-4.864z" transform="translate(-4.204 108.512)"/><path d="m264.5 157.323a14.9 14.9 0 0 1 -1.348 3.087 14.82 14.82 0 0 1 -1.552 2.99 13.253 13.253 0 0 1 2.9-6.077z" transform="translate(-4.408 108.303)"/><path d="m258.046 155.835c.146.066-.419 1.528-.782 3.4s-.412 3.441-.572 3.447a9.634 9.634 0 0 1 1.354-6.851z" transform="translate(-4.673 108.226)"/><path d="m252.3 163.737a16.73 16.73 0 0 1 -1.517-7.867 24.185 24.185 0 0 1 .819 3.923 24.055 24.055 0 0 1 .698 3.944z" transform="translate(-4.976 108.228)"/><path d="m247.928 165.953a11.811 11.811 0 0 1 -4.736-6.547c.148-.064.928 1.577 2.235 3.37s2.608 3.056 2.501 3.177z" transform="translate(-5.369 108.413)"/></g><path d="m296.737 170.673a8.811 8.811 0 0 1 -.15-1.662l.214.061a23.767 23.767 0 0 1 -3.894 4.827 5.444 5.444 0 0 1 -1.761 1.307 1.581 1.581 0 0 1 -1.269-.156 6.51 6.51 0 0 1 -.961-.72c-1.2-1-2.467-2.072-3.763-3.2-5.223-4.538-9.481-8.715-11.33-10.651l.1.031a8.1 8.1 0 0 1 -1.6.105 8.318 8.318 0 0 1 1.572-.331l.052-.009.044.041c1.979 1.8 6.317 5.873 11.53 10.4l3.739 3.21c.589.515 1.158 1.009 1.749.8a5.3 5.3 0 0 0 1.59-1.167 28.018 28.018 0 0 0 4.014-4.619l.219-.311v.372a8.617 8.617 0 0 1 -.095 1.672z" fill="#263238" transform="translate(-3.848 108.458)"/><g filter="url(#g)"><path d="m-11759.965-17431s-40.08 120.295-108.81 144.8-83.956-45.316-111.359 20.346-41.757 86.008-101.352 87.395-90.479-35.143-90.479-35.143v-217.398z" fill="#211e1e" opacity=".48" transform="translate(12179.46 17431)"/></g><g filter="url(#h)"><path d="m-12162-16487s27.876-117.973 122.662-149.219 73.289-106.668 126.057-112.055 56.676 64.646 85.014 38.787 78.268-92.611 78.268-92.611v315.1z" fill="#fff" opacity=".7" transform="translate(12169.5 17293)"/></g><text fill="#fff" font-family="Cabin-Bold, Cabin" font-size="31" font-weight="700" transform="translate(37.499 52)"><tspan x="0" y="0">Welcome to</tspan><tspan x="0" y="38">HIRING</tspan><tspan x="0" y="76">ACADEMY</tspan></text><text font-family="Cabin-Bold, Cabin" font-size="40" font-weight="700" transform="translate(386.499 683)"><tspan x="-146.28" y="0">Place of</tspan><tspan x="-230.92" y="49">oppertunities</tspan><tspan x="0" y="98"/></text></svg>