<svg enable-background="new 0 0 512 512" viewBox="0 0 512 512" xmlns="http://www.w3.org/2000/svg"><path d="m258.495 8.192c105.297 1.71 212.044 112.008 212.044 247.808s-106.747 246.098-212.044 247.808c-.828.011-1.667.022-2.495.022s-1.667-.011-2.495-.022c-105.297-1.71-212.044-112.008-212.044-247.808s106.747-246.098 212.044-247.808c.828-.011 1.667-.022 2.495-.022s1.667.011 2.495.022z" fill="#ffcc3d"/><path d="m355.219 191.001c-17.19 0-31.174 13.984-31.174 31.174h62.349c-.001-17.189-13.986-31.174-31.175-31.174z" fill="#ffbb02"/><path d="m155.692 191.001c-17.19 0-31.174 13.984-31.174 31.174h62.349c-.001-17.189-13.986-31.174-31.175-31.174z" fill="#ffbb02"/><path d="m258.495 8.192c135.723 1.329 245.335 111.769 245.335 247.808s-109.612 246.479-245.335 247.808c105.297-1.71 190.257-112.008 190.257-247.808s-84.96-246.098-190.257-247.808z" fill="#ffbb02"/><path d="m253.505 8.192c-105.297 1.71-190.257 112.008-190.257 247.808s84.959 246.098 190.257 247.808c-135.723-1.329-245.335-111.769-245.335-247.808s109.612-246.479 245.335-247.808z" fill="#fd7"/><circle cx="84.97" cy="275.227" fill="#ff7a2f" r="19.064"/><circle cx="427.03" cy="275.227" fill="#ff7a2f" r="19.064"/><g fill="#1d2328"><path d="m256 512c-68.38 0-132.668-26.628-181.019-74.981-48.352-48.351-74.981-112.639-74.981-181.019s26.629-132.668 74.981-181.019c48.352-48.353 112.639-74.981 181.019-74.981s132.668 26.628 181.019 74.981c48.352 48.351 74.981 112.639 74.981 181.019s-26.628 132.668-74.98 181.019c-48.352 48.353-112.64 74.981-181.02 74.981zm0-495.66c-132.148 0-239.66 107.511-239.66 239.66s107.511 239.66 239.66 239.66c132.148 0 239.66-107.51 239.66-239.66s-107.512-239.66-239.66-239.66z"/><path d="m256.001 384.07c-42.92 0-82.949-21.305-107.078-56.99-2.527-3.739-1.546-8.817 2.192-11.345 3.739-2.527 8.818-1.545 11.345 2.192 21.085 31.184 56.054 49.802 93.541 49.802 37.486 0 72.455-18.617 93.539-49.8 2.526-3.738 7.605-4.719 11.345-2.192 3.739 2.527 4.719 7.606 2.192 11.345-24.129 35.683-64.157 56.988-107.076 56.988z"/><path d="m388.989 230.346c-4.513 0-8.17-3.658-8.17-8.17 0-13.516-10.996-24.511-24.511-24.511s-24.511 10.995-24.511 24.511c0 4.512-3.657 8.17-8.17 8.17s-8.17-3.658-8.17-8.17c0-22.526 18.325-40.851 40.851-40.851s40.851 18.325 40.851 40.851c0 4.511-3.658 8.17-8.17 8.17z"/><path d="m188.372 230.346c-4.512 0-8.17-3.658-8.17-8.17 0-13.516-10.995-24.511-24.511-24.511s-24.511 10.995-24.511 24.511c0 4.512-3.658 8.17-8.17 8.17s-8.17-3.658-8.17-8.17c0-22.526 18.325-40.851 40.851-40.851s40.851 18.325 40.851 40.851c.001 4.511-3.657 8.17-8.17 8.17z"/><path d="m272.34 416.751h-32.68c-4.512 0-8.17-3.658-8.17-8.17s3.658-8.17 8.17-8.17h32.681c4.513 0 8.17 3.658 8.17 8.17 0 4.511-3.658 8.17-8.171 8.17z"/><path d="m84.97 302.466c-15.017 0-27.234-12.217-27.234-27.234s12.217-27.234 27.234-27.234c4.512 0 8.17 3.658 8.17 8.17s-3.658 8.17-8.17 8.17c-6.007 0-10.894 4.887-10.894 10.894s4.887 10.894 10.894 10.894 10.894-4.887 10.894-10.894c0-4.512 3.658-8.17 8.17-8.17s8.17 3.658 8.17 8.17c0 15.018-12.217 27.234-27.234 27.234z"/><path d="m427.03 302.466c-15.017 0-27.234-12.217-27.234-27.234s12.217-27.234 27.234-27.234c4.513 0 8.17 3.658 8.17 8.17s-3.657 8.17-8.17 8.17c-6.007 0-10.894 4.887-10.894 10.894s4.887 10.894 10.894 10.894 10.894-4.887 10.894-10.894c0-4.512 3.657-8.17 8.17-8.17s8.17 3.658 8.17 8.17c0 15.018-12.217 27.234-27.234 27.234z"/></g></svg>