<svg enable-background="new 0 0 1081.32 764.24" viewBox="0 0 1081.32 764.24" xmlns="http://www.w3.org/2000/svg"><path d="m140.4 607.56h754.21" fill="none" stroke="#000" stroke-miterlimit="10"/><path d="m675.22 607.42c18.28-36.85 28.57-78.35 28.57-122.27 0-152.17-123.35-275.52-275.52-275.52s-275.52 123.35-275.52 275.52c0 43.92 10.29 85.43 28.57 122.27z" fill="#8639f7"/><path d="m401.62 259.13s2.14 25.65-6.5 36.86-30.46 32.25-22.3 48.89 3.61 31.09-7.54 42.55c-6.22 6.4-12.4 17-12.4 17h61.12s8.29-57.44 8.6-58.34 14.45-45.93 14.13-46.5c-.31-.57-10.99-24.51-11.62-25.57-.62-1.06-23.49-14.89-23.49-14.89z" fill="#282a35"/><path d="m678.84 370.43s36.34 78.75 67.01 123.01 52.31 64.36 38.35 113.98h-108.98l-15.99-118.5z" fill="#8639f7"/><path d="m722.11 280.99-98.62 51.25-25.01-73.11c-11.88.45-23.77 1.02-35.62 1.92-3.07.23-6.15.49-9.22.76l-4.11 89.82s24.65 50.97 40.44 63.99 31.3 2.49 31.3 2.49 77.77-57.9 88.58-60.39c10.8-2.49 11.63-11.43 13.3-17.45 1.66-6.03 6.86-7.9 15.37-8.03 8.52-.14 13.5-12.19 13.5-12.19z" fill="#2295f1"/><path d="m806.38 547.43 57.71 70.57 55.99 8.85 20.86-28-36.57-48.56z" fill="#fff5c9"/><path d="m914.66 620.85 23.23-26.06s11.63 6.06 20.49 24.63c0 0 63.42 1.43 74.57 27.14l-147.42 1.14-21.44-29.7z" fill="#282a35"/><path d="m804.43 406.42h-264.75l-37.27 27.58 80.28 34.28 114.56-15.43 67.42 103.99h153.29l-107-143.42c-.01.02-1.54-3.24-6.53-7z" fill="#c63c32"/><path d="m909.32 556.86-78.33 20.67-16.9-20.67z" fill="#282a35"/><path d="m957.89 620.61-15.7 10.83" fill="none" stroke="#fff" stroke-miterlimit="10"/><path d="m968.72 622.96-14.44 10.52" fill="none" stroke="#fff" stroke-miterlimit="10"/><path d="m981.29 624.06-15.39 12.09" fill="none" stroke="#fff" stroke-miterlimit="10"/><path d="m681.27 455.02 15.98-2.15 65.69 101.32c4.64-13.61 4.48-29.35-8.08-44.44-24.81-29.83-23.55-40.2-24.18-66.89s-38.94-34.92-38.94-34.92l-2.36 12.3s1.1 12.56.01 13.82c-.86.99-5.34 13.1-8.12 20.96z" fill="#282a35"/><path d="m593.25 551.43-10.57 54.85 47.71 23.14 28.57-17.42 12-63.14z" fill="#fff5c9"/><path d="m582.68 606.28-12.86 50.55 155.99.02-66.85-44.85-32.14 9.25z" fill="#282a35"/><path d="m543.25 136.17s-15.21-12.86-50.14-7.29-46.92 68.78-52.07 84.64c-5.14 15.86-38.78 57.21-38.78 57.21l65.14 6.36 127.28-19.65s-17.36-50.35-33.21-67.07c0 .01 10.28-32.98-18.22-54.2z" fill="#d06d6b"/><path d="m423.26 427.06s-30 88.08 18 86.94l150.85.01-6.29 42.84h117.13l12.14-116.85s3.86-26.57-21.86-26.57h-263.54z" fill="#de4a39"/><path d="m689.39 398.44h-82.5c-4.14 0-7.5 3.36-7.5 7.5s3.36 7.5 7.5 7.5h82.5z" fill="#f1f1f1"/><path d="m816.45 398.44h-127.07v15h127.07c4.14 0 7.5-3.36 7.5-7.5s-3.36-7.5-7.5-7.5z" fill="#f9fdff"/><path d="m824.67 389.81c-1.5 4.76-7.32 8.63-13 8.63h-117.13c-5.68 0-9.07-3.86-7.57-8.63l35.71-113.45c1.5-4.76 7.32-8.63 13-8.63h117.13c5.68 0 9.07 3.86 7.57 8.63z" fill="#8639f7"/><path d="m832.7 389.81c-1.5 4.76-7.32 8.63-13 8.63h-117.13c-5.68 0-9.07-3.86-7.57-8.63l35.71-113.45c1.5-4.76 7.32-8.63 13-8.63h117.13c5.68 0 9.07 3.86 7.57 8.63z" fill="#f1f1f1"/><path d="m793.84 333.52c-2.78 9.59-9.36 16.11-14.68 14.57-5.32-1.55-7.38-10.57-4.59-20.16s9.36-16.11 14.68-14.57 7.38 10.56 4.59 20.16z" fill="#fff"/><path d="m559.97 240.31h-125.56s-38.14-6.43-32.14 30.43c6 36.85 27.43 142.7 27.43 142.7s62.57 31.71 63.85 27.85c15.79-47.38 91.4-27.01 94.71-27.85l11.14-145.7c-.01 0 4.28-27.43-39.43-27.43z" fill="#2295f1"/><path d="m543.25 139.81v45.43s-2.14 22.71-24.43 22.07l2.14 33h27.72s-8.86 25.93-30.51 31.87c-6.34 1.74-39.75 10.13-63.96-31.87h19.18l16.87-54.68s8.99 8.4 4.7-14.74c.01 0 44.58-.37 48.29-31.08z" fill="#fff5c9"/><path d="m626.82 413.44h62.57" fill="none" stroke="#000" stroke-miterlimit="10"/><path d="m700.36 398.23h116.09" fill="none" stroke="#000" stroke-miterlimit="10"/><path d="m730.68 413.44h70.03" fill="none" stroke="#000" stroke-miterlimit="10"/><path d="m669.44 556.86-80.05 14.63 2.82-14.63z" fill="#282a35"/><path d="m659.24 617.94-19.32 6.75" fill="none" stroke="#fff" stroke-miterlimit="10"/><path d="m665.57 622.91-20.2 7.33" fill="none" stroke="#fff" stroke-miterlimit="10"/><path d="m669.86 627.51-16.64 6.49" fill="none" stroke="#fff" stroke-miterlimit="10"/><path d="m592.11 514.01 37.3-43.2-61.4 43.2z" fill="#282a35"/><g fill="none" stroke-miterlimit="10"><path d="m715.1 440.01-6.83 65.74" stroke="#fff"/><path d="m812.33 428.64v44.24" stroke="#fff"/><path d="m827.4 466.73v39.02" stroke="#fff"/><path d="m844.36 486.24v14.4" stroke="#fff"/><path d="m686.61 445.37-30.38 30.38" stroke="#fff"/><path d="m727.82 285.53-29.52 93.8" stroke="#000"/><path d="m743.71 267.74h118.47" stroke="#000" stroke-linecap="round"/><path d="m867.13 280.43-6.39 20.32" stroke="#000"/><path d="m856.84 313.12-18.03 57.31" stroke="#000"/><path d="m717.67 292.26-19.37 61.55" stroke="#000"/></g><path d="m621.64 375.42s23.96-10.4 31.12.77c0 0-16.35 3.6-22 9.99s-14.64 10.75-15.27 9.93c-.64-.82.81-17.96.94-18.29.12-.35 5.21-2.4 5.21-2.4z" fill="#efe6bf"/><path d="m626.75 371.65s.98 14.52-4.15 23.98" fill="none" stroke="#f9f9f9" stroke-miterlimit="10"/><path d="m644.13 352.87s8.46 4.35 8.32 11.32-1.3 18.12 6.72 19.42l.43-6.79s1.33 2.25 5.61 3.33c4.29 1.08-2.59-26.15-2.59-26.15l-13.33-4.78z" fill="#fff5c9"/><path d="m662.63 353.99-13.33-4.78-5.16 3.66s2.66 1.37 4.97 3.8c4.71-1.83 10.85-.56 14.27.44-.44-1.9-.75-3.12-.75-3.12z" fill="#2a71d8"/><path d="m576.96 364.94s46.29-11.41 57.08-18.85c10.8-7.44 15.34-14.09 30.18-17.07 0 0 1.46 4.26-2.61 6.93-4.08 2.67-9.25 3.99-12.63 9.68-3.37 5.69-16.3 48.08-33.26 55.59s-30.13 12.21-30.13 12.21l-23.51-28.58 13.92-19.41z" fill="#fff5c9"/><path d="m644.6 344.23s23.38 4.55 34.64 13.62c0 0-1.87 3.15-7.77.98s-21.43-9.64-33.1-1.4c-11.68 8.25 4.54-10.35 4.54-10.35z" fill="#fff5c9"/><path d="m634.05 346.09s-7.69 7.81-12.13 14.63" fill="none" stroke="#000" stroke-miterlimit="10"/><path d="m649.21 345.28s-1.85 3.87-3.92 9.03" fill="none" stroke="#000" stroke-miterlimit="10"/><path d="m654.44 353.85s7.92 3.98 5.17 22.97" fill="none" stroke="#000" stroke-miterlimit="10"/><path d="m528.83 184.45c0 4.95 4.01 8.97 8.97 8.97 1.23 0 2.4-.25 3.47-.7 1.67-4.11 1.99-7.48 1.99-7.48v-7.89c-1.51-1.17-3.4-1.87-5.46-1.87-4.96.01-8.97 4.02-8.97 8.97z" fill="#f4e9bd"/><path d="m531.7 190.53c1.84-1.26 1.01-2.98-.38-5.84-.88-1.81-1.97-4.06-2.88-7.05-.65-2.15-.52-4.07.39-5.69 1.68-3 5.46-4.02 5.5-4.03l-.12-.45c-.16.04-4.02 1.09-5.79 4.26-.97 1.74-1.12 3.78-.43 6.05.92 3.03 2.02 5.3 2.91 7.12 1.46 3 1.99 4.25.54 5.25z"/><path d="m527.84 194.95.09-.46c-.05-.01-4.69-.93-6.56-3.75-.72-1.09-.94-2.33-.65-3.7l-.46-.1c-.32 1.49-.08 2.86.71 4.06 1.99 2.99 6.67 3.91 6.87 3.95z"/><path d="m516.82 173.88c-.09.77.27 1.44.81 1.51.54.06 1.05-.51 1.14-1.27.09-.77-.27-1.44-.81-1.51-.54-.06-1.05.51-1.14 1.27z" fill="#190a10"/><path d="m535.21 175.31c-.09.77.27 1.44.81 1.51s1.05-.51 1.14-1.27c.09-.77-.27-1.44-.81-1.51s-1.05.5-1.14 1.27z" fill="#190a10"/><path d="m506.07 174.58.11-.46-19.45-4.98-.12.45z" fill="#fff"/><path d="m520.99 169.64s1.55.5 1.38 2.28-4.27-1.01-8.82.69c-4.55 1.71-5-4.42 1.03-5.37 6.03-.94 6.41 2.4 6.41 2.4z" fill="#ed9c96"/><path d="m539.8 170.18s1.35.44 1.2 1.99c-.15 1.56-3.73-.88-7.71.61s-4.37-3.86.9-4.69c5.27-.82 5.61 2.09 5.61 2.09z" fill="#ed9c96"/><path d="m520.52 166.71s2.7.63 2.51 2.15c-.2 1.52-9.32-2.48-14.64 1.58-5.32 4.05-.16-6.05 12.13-3.73z" fill="#190a10"/><path d="m544.27 170.17s-12.38-4.83-14.69-3.04c-2.3 1.79 8.59 3.41 14.69 3.04z" fill="#190a10"/><path d="m528.93 172.54c.57-4.81 4.95-8.25 9.76-7.68s8.25 4.95 7.68 9.76-4.95 8.25-9.76 7.68c-4.81-.58-8.25-4.96-7.68-9.76zm.46.05c-.54 4.55 2.72 8.7 7.27 9.24s8.7-2.72 9.24-7.27-2.72-8.7-7.27-9.24-8.69 2.72-9.24 7.27z" fill="#fff"/><path d="m499.12 184.45c0 4.95 4.02 8.97 8.97 8.97s8.97-4.01 8.97-8.97c0-4.95-4.01-8.97-8.97-8.97-4.96.01-8.97 4.02-8.97 8.97z" fill="#f4e9bd"/><path d="m505.95 173.56c.68-5.7 5.87-9.79 11.57-9.1 5.7.68 9.79 5.87 9.11 11.57s-5.87 9.78-11.57 9.1-9.79-5.87-9.11-11.57zm.47.05c-.65 5.44 3.25 10.4 8.7 11.05s10.4-3.25 11.05-8.69c.65-5.45-3.25-10.41-8.7-11.05-5.44-.65-10.4 3.25-11.05 8.69z" fill="#fff"/><path d="m518.83 207.31s-15.98-1.71-22-8.93c0 0 3.84 21.53 23.59 33.35z" fill="#282a35"/><path d="m555.76 514.01h36.35" fill="none" stroke="#000" stroke-miterlimit="10"/><path d="m707.41 514.01h28.57" fill="none" stroke="#000" stroke-miterlimit="10"/><path d="m623.49 332.24-8.16 16.56 2.92-31.88z" fill="#282a35"/><path d="m596.87 415.99s-1.23 13.05-13.16 14.3c-11.93 1.26-26.73 15.28-29.06 27.43v-38.73l14.41-5.86z" fill="#282a35"/><path d="m456.59 266.87 17.34 101.94 120.45-10.33 3.77 56.17s-7.84 9.56-18.36 5.82-14.16-3.46-19.89.87c-5.74 4.33-5.74 7.03-14.54 2.87s-84.17 3.74-84.17 3.74-21.81 5.19-28.12-13.09-30.8-143.56-30.8-143.56z" fill="#2295f1"/><path d="m488.01 378.14c-.79 1.02-1.62 2.02-2.55 2.94-.21.21-.42.42-.63.63-5.12 5.12-12.49 7.88-19.68 7.75-7.3-.13-14.33-3.19-19.4-8.43-5.07-5.25-7.88-12.38-7.75-19.68.13-7.41 3.23-14.2 8.43-19.4l.63-.63c3.83-3.83 8.91-6.33 14.24-7.3-6.17-6.07-15.93-16.07-16.81-16.37-1.26-.42-42.85-54.95-42.85-54.95v170.36l116.55 1.84c-.01 0-15.96-30.18-30.18-56.76z" fill="#2295f1"/><path d="m401.62 277.83s2.14 25.28-5.4 39.72-11.62 18-4.08 30.2 11.72 12.33 2.88 29.06-14.25 31.12-3.82 31.12h11.06z" fill="#2295f1"/><path d="m585.12 359.28 3.14 57.51" fill="none" stroke="#000" stroke-miterlimit="10"/><path d="m554.64 411.97c0-4.16-3.38-7.54-7.54-7.54h-237.66c-4.16 0-7.54 3.38-7.54 7.54v139.34c0 4.16 3.37 7.54 7.54 7.54h237.66c4.16 0 7.54-3.37 7.54-7.54z" fill="#8639f7"/><path d="m554.64 429.56v59.67" fill="none" stroke="#000" stroke-miterlimit="10"/><path d="m345.86 404.44h185.91" fill="none" stroke="#000" stroke-miterlimit="10"/><path d="m393.88 283.74s-51.56 5.31-89.25 39.29" fill="none" stroke="#000" stroke-miterlimit="10"/><path d="m300.44 329.62s-15.07 12.73-22.61 32.68" fill="none" stroke="#000" stroke-miterlimit="10"/><path d="m494.97 170.89s-5.32-4.34-10.58-1.97c-5.26 2.38-4.63 17.92 10.91 19.18 0 0 3.93-5.89 3.81-6.2s-.93-3.79-.64-4.01c.29-.23-.58-3.35-.65-3.71-.08-.38-2.85-3.29-2.85-3.29z" fill="#fff5c9"/><path d="m490.13 173.09s-.3-2.6-3.13-2.07c-2.83.52-2.62 5.6-.37 7.96s2.51 3.93 2.96 4.55c.44.63 3.42.29 1.75-4.67s-1.21-5.77-1.21-5.77z" fill="#efe5b9"/><path d="m492.17 182.44-2.44-10.17" fill="none" stroke="#000" stroke-miterlimit="10" stroke-width=".5"/><path d="m485.69 176.21 5.38 1.67" fill="none" stroke="#000" stroke-miterlimit="10" stroke-width=".5"/><path d="m543.25 136.17s-33.97 13.68-70.09 8.03" fill="none" stroke="#fff" stroke-miterlimit="10" stroke-width=".5"/><path d="m542.34 136.52s-16.73 30.61-70.59 21.19" fill="none" stroke="#fff" stroke-miterlimit="10" stroke-width=".5"/><path d="m479.67 158.84s-8.07 6.2-12.16 34.57c-4.08 28.37-20.73 46.47-20.73 46.47" fill="none" stroke="#fff" stroke-miterlimit="10" stroke-width=".5"/><path d="m468.46 156.45s-6.65 6.32-14.24 33.62-11.36 47.18-21.72 49.8" fill="none" stroke="#fff" stroke-miterlimit="10" stroke-width=".5"/><path d="m543.25 137.4s23.04 40.6-.91 64.89l16.66 37.59" fill="none" stroke="#fff" stroke-miterlimit="10" stroke-width=".5"/><path d="m529.1 206.92 8.69 33.39" fill="none" stroke="#fff" stroke-miterlimit="10" stroke-width=".5"/><path d="m460.71 240.31s18.4 26.95 40.75 28.36c22.34 1.41 38.6-20.5 39.65-28.36h7.59s-8.22 37.78-49.15 34.22c0 0-27.64 1.48-46.48-34.22z" fill="#fff"/><path d="m472.8 240.48c2.52 9.52 5.87 18.88 9.69 27.94 4.89 11.62 11.52 26.73 23.39 32.8 12.55 6.42 23.1-7.03 24.7-18.25 1.93-13.54-2.75-28.25-8.01-40.58-.34-.8-.69-1.6-1.06-2.39-.34-.73-1.42-.09-1.08.63 4.73 10.04 8.04 21.24 9.05 32.29.73 7.94-.19 16.58-5.58 22.83-4.61 5.34-11.67 7.33-17.99 4.1-11.95-6.11-18.52-22.68-23.29-34.33-3.38-8.24-6.33-16.75-8.61-25.36-.21-.8-1.42-.46-1.21.32z" fill="#fff"/><path d="m476.49 239.88c0 1.71-1.38 3.09-3.09 3.09s-3.09-1.38-3.09-3.09 1.38-3.09 3.09-3.09 3.09 1.38 3.09 3.09z" fill="#fff"/><path d="m474.16 241.3c-1.71 0-3.09-1.38-3.09-3.09 0-.13.02-.25.04-.38-.49.55-.8 1.26-.8 2.06 0 1.71 1.38 3.09 3.09 3.09 1.58 0 2.86-1.19 3.05-2.71-.56.62-1.37 1.03-2.29 1.03z" fill="#e8e6dd"/><path d="m480.89 253.62c0 1.71-1.38 3.09-3.09 3.09s-3.09-1.38-3.09-3.09 1.38-3.09 3.09-3.09 3.09 1.38 3.09 3.09z" fill="#fff"/><path d="m478.56 255.04c-1.71 0-3.09-1.38-3.09-3.09 0-.13.02-.25.04-.38-.49.55-.8 1.26-.8 2.06 0 1.71 1.38 3.09 3.09 3.09 1.58 0 2.86-1.19 3.05-2.71-.56.62-1.38 1.03-2.29 1.03z" fill="#e8e6dd"/><path d="m486.31 269.24c0 1.71-1.38 3.09-3.09 3.09s-3.09-1.38-3.09-3.09 1.38-3.09 3.09-3.09c1.7 0 3.09 1.38 3.09 3.09z" fill="#fff"/><path d="m483.98 270.66c-1.71 0-3.09-1.38-3.09-3.09 0-.13.02-.25.04-.38-.49.55-.8 1.26-.8 2.06 0 1.71 1.38 3.09 3.09 3.09 1.58 0 2.86-1.19 3.05-2.71-.57.62-1.38 1.03-2.29 1.03z" fill="#e8e6dd"/><path d="m493.37 283.06c0 1.71-1.38 3.09-3.09 3.09s-3.09-1.38-3.09-3.09 1.38-3.09 3.09-3.09 3.09 1.38 3.09 3.09z" fill="#fff"/><path d="m491.04 284.48c-1.71 0-3.09-1.38-3.09-3.09 0-.13.02-.25.04-.38-.49.55-.8 1.26-.8 2.06 0 1.71 1.38 3.09 3.09 3.09 1.58 0 2.86-1.19 3.05-2.71-.56.62-1.37 1.03-2.29 1.03z" fill="#e8e6dd"/><path d="m501.46 295.47c0 1.71-1.38 3.09-3.09 3.09s-3.09-1.38-3.09-3.09 1.38-3.09 3.09-3.09c1.7 0 3.09 1.38 3.09 3.09z" fill="#fff"/><path d="m499.12 296.89c-1.71 0-3.09-1.38-3.09-3.09 0-.13.02-.25.04-.38-.49.55-.8 1.26-.8 2.06 0 1.71 1.38 3.09 3.09 3.09 1.58 0 2.86-1.19 3.05-2.71-.56.62-1.37 1.03-2.29 1.03z" fill="#e8e6dd"/><circle cx="510.22" cy="301.65" fill="#fff" r="3.09"/><path d="m510.98 303.07c-1.71 0-3.09-1.38-3.09-3.09 0-.13.02-.25.04-.38-.49.55-.8 1.26-.8 2.06 0 1.71 1.38 3.09 3.09 3.09 1.58 0 2.86-1.19 3.05-2.71-.56.63-1.38 1.03-2.29 1.03z" fill="#e8e6dd"/><path d="m528.31 295.14c0 1.71-1.38 3.09-3.09 3.09s-3.09-1.38-3.09-3.09 1.38-3.09 3.09-3.09c1.7-.01 3.09 1.38 3.09 3.09z" fill="#fff"/><path d="m525.97 296.55c-1.71 0-3.09-1.38-3.09-3.09 0-.13.02-.25.04-.38-.49.55-.8 1.26-.8 2.06 0 1.71 1.38 3.09 3.09 3.09 1.58 0 2.86-1.19 3.05-2.71-.56.63-1.37 1.03-2.29 1.03z" fill="#e8e6dd"/><path d="m533.39 279.97c0 1.71-1.38 3.09-3.09 3.09s-3.09-1.38-3.09-3.09 1.38-3.09 3.09-3.09 3.09 1.38 3.09 3.09z" fill="#fff"/><path d="m531.06 281.38c-1.71 0-3.09-1.38-3.09-3.09 0-.13.02-.25.04-.38-.49.55-.8 1.26-.8 2.06 0 1.71 1.38 3.09 3.09 3.09 1.58 0 2.86-1.19 3.05-2.71-.56.63-1.37 1.03-2.29 1.03z" fill="#e8e6dd"/><path d="m532.19 266.15c0 1.71-1.38 3.09-3.09 3.09s-3.09-1.38-3.09-3.09 1.38-3.09 3.09-3.09 3.09 1.38 3.09 3.09z" fill="#fff"/><path d="m529.85 267.57c-1.71 0-3.09-1.38-3.09-3.09 0-.13.02-.25.04-.38-.49.55-.8 1.26-.8 2.06 0 1.71 1.38 3.09 3.09 3.09 1.58 0 2.86-1.19 3.05-2.71-.56.62-1.37 1.03-2.29 1.03z" fill="#e8e6dd"/><path d="m529.1 252.8c0 1.71-1.38 3.09-3.09 3.09s-3.09-1.38-3.09-3.09 1.38-3.09 3.09-3.09c1.7 0 3.09 1.39 3.09 3.09z" fill="#fff"/><path d="m526.76 254.22c-1.71 0-3.09-1.38-3.09-3.09 0-.13.02-.25.04-.38-.49.55-.8 1.26-.8 2.06 0 1.71 1.38 3.09 3.09 3.09 1.58 0 2.86-1.19 3.05-2.71-.56.63-1.37 1.03-2.29 1.03z" fill="#e8e6dd"/><path d="m524.36 240.4c0 1.71-1.38 3.09-3.09 3.09s-3.09-1.38-3.09-3.09 1.38-3.09 3.09-3.09 3.09 1.38 3.09 3.09z" fill="#fff"/><path d="m522.03 241.81c-1.71 0-3.09-1.38-3.09-3.09 0-.13.02-.25.04-.38-.49.55-.8 1.26-.8 2.06 0 1.71 1.38 3.09 3.09 3.09 1.58 0 2.86-1.19 3.05-2.71-.56.63-1.38 1.03-2.29 1.03z" fill="#e8e6dd"/><path d="m254.59 528.91c18.84-58.41 8.17-82.28-13.82-162.49-19.79-72.2 35.22-110.93 46.41-117.95-80.51 48.1-134.43 136.09-134.43 236.68 0 43.92 10.29 85.43 28.57 122.27h110.91c-33.81-19.75-47.19-48.91-37.64-78.51z" fill="#dddacc"/><path d="m332.3 343.21c-2.52 3.14-4.86 6.43-6.94 9.87-2.04 3.46-3.94 7.01-5.58 10.68-3.31 7.32-5.9 14.95-8.11 22.67-2.23 7.72-4.11 15.55-6.02 23.37-.94 3.91-1.83 7.82-2.58 11.75s-1.34 7.89-1.85 11.86c-.94 7.95-1.38 15.95-1.48 23.96-.08 8.01.14 16.03.53 24.05s.92 16.05 1.43 24.1l1.52 24.12c.05.76-1.05 1.45-2.45 1.52-1.4.08-2.58-.48-2.63-1.25v-.02l-.89-24.15c-.29-8.05-.61-16.11-.79-24.18-.18-8.08-.19-16.17.1-24.27.32-8.09.98-16.18 2.14-24.21.62-4.01 1.32-8.01 2.19-11.97s1.87-7.88 2.91-11.77c2.12-7.78 4.2-15.57 6.65-23.27 2.43-7.7 5.23-15.3 8.76-22.57 1.75-3.64 3.75-7.16 5.89-10.58 2.17-3.41 4.6-6.63 7.2-9.71z"/><path d="m453.39 288.19s-44.02-.71-127.77 69.06c.01 0 47.71-68.7 127.77-69.06z" fill="#1f2109"/><path d="m314.68 331.5s-3.81-40.45 18.56-54.25c0 0-.16 15.7-3.89 23.08 0 0 9.6-20.22 28.39-28.08 0 0-12.76 14.82-18.32 35.69 0 0 21.41-34.02 46.16-41.16 0 0-26.65 12.85-36.17 41.88 0 0 17.13-39.73 62.58-24.51 0 0-29.27-6.19-45.21 14.99l-17.37 23.56-30.11 13.8z" fill="#393f14"/><path d="m329.35 335.06s12.69-22.72 32.56-17.13c0 0 13.44 3.93 13.8 14.75 0 0-2.38-13.92-18.44-11.66 0 0-11.06.33-36.16 30.5 0 .01 6.24-13.39 8.24-16.46z" fill="#6c7f2a"/><path d="m226.12 278.98c6.42 8.92 11.84 18.56 16.31 28.61 4.45 10.07 8.15 20.46 11.29 31.01 3.16 10.54 5.89 21.21 8.51 31.88l7.86 32.02c10.46 42.68 21.17 85.37 29.06 128.74.19 1.03-.78 2.07-2.16 2.31s-2.66-.39-2.85-1.42c0-.01 0-.02-.01-.03-7.02-43.29-16.89-86.14-26.52-129.02l-7.24-32.16c-2.42-10.72-4.93-21.4-7.88-31.97-2.93-10.57-6.41-20.99-10.65-31.11-4.26-10.1-9.47-19.82-15.72-28.86z" fill="#393f14"/><path d="m272.39 287.54 2.9 15.01c.96 5 1.97 10 2.81 15.03.85 5.03 1.49 10.11 1.78 15.22.3 5.1.32 10.21.3 15.31-.27 20.37.58 40.71 1.92 61.03.66 10.16 1.42 20.32 2.18 30.48.77 10.16 1.53 20.31 2.55 30.42 1.01 10.11 2.26 20.18 4 30.15 1.71 9.97 3.93 19.84 6.81 29.49.27.92-.6 1.99-1.95 2.4-1.34.41-2.66-.03-2.93-.97 0 0-.01-.02-.01-.02-2.74-9.94-4.8-20.03-6.32-30.18-1.55-10.14-2.6-20.33-3.41-30.52-.82-10.19-1.37-20.38-1.93-30.55-.55-10.17-1.1-20.35-1.55-30.54s-.8-20.38-.94-30.59c-.16-10.2-.03-20.42.28-30.6.13-5.09.21-10.17.02-15.25-.18-5.08-.71-10.13-1.46-15.16-.74-5.03-1.64-10.05-2.5-15.07z"/><path d="m316.38 362.19s-22.47-32.49-24.54-39.5c0 0 15.7 9.53 22.84 18.21 0 0 7.92 27 1.7 21.29z" fill="#393f14"/><path d="m253.29 340.06s.96 68.05 11.66 89.94c.01 0 20.23-56.63-11.66-89.94z" fill="#1f2109"/><path d="m216.89 328.43s7.61 8.66 9.16 16.51c0 0 16.89 39.62 27.24 48.54 0 0-33.19-28.74-36.4-65.05z" fill="#393f14"/><path d="m346.19 530.88h-83.51c-26.31 40.45 7.35 97.12 7.35 97.12 0 1.77 15.4 3.21 34.41 3.21 19 0 34.41-1.44 34.41-3.21 33.41-53.81 7.34-97.12 7.34-97.12z" fill="#ababad"/><path d="m276.3 587.2c1.66.92 2.26 3.01 1.34 4.68-.92 1.66-3.02 2.26-4.68 1.33-1.66-.92-2.26-3.02-1.34-4.68.92-1.65 3.02-2.25 4.68-1.33z" fill="#a39d98"/><path d="m285.46 607.75c.74.41 1.01 1.35.6 2.09s-1.35 1.01-2.09.6-1.01-1.35-.6-2.09c.4-.74 1.34-1.01 2.09-.6z" fill="#82807f"/><path d="m263.56 582.31c.74.41 1.01 1.35.6 2.09s-1.35 1.01-2.09.6-1.01-1.35-.6-2.09c.42-.75 1.35-1.02 2.09-.6z" fill="#82807f"/><path d="m292.44 598.34c.74.41 1.01 1.35.6 2.09s-1.35 1.01-2.09.6-1.01-1.35-.6-2.09 1.35-1.01 2.09-.6z" fill="#82807f"/><path d="m288.72 588.84c.74.41 1.01 1.35.6 2.09s-1.35 1.01-2.09.6-1.01-1.35-.6-2.09c.41-.75 1.35-1.01 2.09-.6z" fill="#b5b0ac"/><path d="m283.71 617.23c.74.41 1.01 1.35.6 2.09s-1.35 1.01-2.09.6-1.01-1.35-.6-2.09 1.35-1.01 2.09-.6z" fill="#b5b0ac"/><path d="m269.8 605.99c.74.41 1.01 1.35.6 2.09s-1.35 1.01-2.09.6-1.01-1.35-.6-2.09c.41-.75 1.35-1.02 2.09-.6z" fill="#d4ccc7"/><path d="m315.43 595.92c-.02.85-.73 1.52-1.58 1.5s-1.52-.73-1.5-1.58.73-1.52 1.58-1.5 1.52.73 1.5 1.58z" fill="#82807f"/><path d="m306.22 598.75c-.02.85-.73 1.52-1.58 1.5s-1.52-.73-1.5-1.58.73-1.52 1.58-1.5 1.52.73 1.5 1.58z" fill="#b5b0ac"/><path d="m262.69 563.11c-.02.85-.73 1.52-1.58 1.5s-1.52-.73-1.5-1.58.73-1.52 1.58-1.5 1.52.73 1.5 1.58z" fill="#b5b0ac"/><path d="m309.77 581.21c-.02.85-.73 1.52-1.58 1.5s-1.52-.73-1.5-1.58.73-1.52 1.58-1.5c.85.03 1.52.73 1.5 1.58z" fill="#d4ccc7"/><path d="m296.94 607.48c-.02.85-.73 1.52-1.58 1.5s-1.52-.73-1.5-1.58.73-1.52 1.58-1.5c.85.03 1.52.73 1.5 1.58z" fill="#d4ccc7"/><path d="m285.72 566.32c.74.41 1.01 1.35.6 2.09s-1.35 1.01-2.09.6-1.01-1.35-.6-2.09 1.34-1.01 2.09-.6z" fill="#d4ccc7"/><path d="m335.71 570.25c-1.51-.88-2.03-2.82-1.15-4.33s2.82-2.03 4.33-1.15 2.03 2.82 1.15 4.33-2.82 2.03-4.33 1.15z" fill="#a39d98"/><path d="m327.61 551.17c-.68-.39-.91-1.26-.52-1.94s1.26-.91 1.94-.52.91 1.26.51 1.94c-.38.69-1.25.92-1.93.52z" fill="#82807f"/><path d="m347.35 574.97c-.68-.39-.91-1.26-.52-1.94s1.26-.91 1.94-.52.91 1.26.52 1.94c-.4.68-1.27.91-1.94.52z" fill="#82807f"/><path d="m321.02 559.72c-.68-.39-.91-1.26-.51-1.94.39-.68 1.26-.91 1.93-.52.68.39.91 1.26.52 1.94s-1.26.92-1.94.52z" fill="#82807f"/><path d="m324.29 568.54c-.68-.39-.91-1.26-.52-1.94s1.26-.91 1.94-.52.91 1.26.52 1.94c-.4.68-1.26.91-1.94.52z" fill="#b5b0ac"/><path d="m329.38 542.47c-.68-.39-.91-1.26-.52-1.94s1.26-.91 1.94-.51c.68.39.91 1.26.52 1.94-.4.68-1.27.91-1.94.51z" fill="#b5b0ac"/><path d="m342 553.06c-.68-.39-.91-1.26-.52-1.94s1.26-.91 1.94-.52.91 1.26.52 1.94-1.26.91-1.94.52z" fill="#d4ccc7"/><path d="m299.82 561.57c.03-.78.7-1.39 1.48-1.35s1.39.7 1.35 1.48-.7 1.39-1.48 1.35c-.79-.03-1.39-.69-1.35-1.48z" fill="#82807f"/><path d="m308.35 559.12c.04-.78.7-1.39 1.48-1.35.78.03 1.39.7 1.35 1.48s-.7 1.39-1.48 1.35c-.79-.04-1.39-.7-1.35-1.48z" fill="#b5b0ac"/><path d="m347.84 592.66c.03-.78.7-1.39 1.48-1.35s1.39.7 1.35 1.48-.7 1.39-1.48 1.35c-.79-.03-1.39-.69-1.35-1.48z" fill="#b5b0ac"/><path d="m304.78 575.21c.04-.78.7-1.39 1.48-1.35s1.39.7 1.35 1.48c-.03.78-.7 1.39-1.48 1.35s-1.38-.7-1.35-1.48z" fill="#d4ccc7"/><path d="m317.03 551.23c.04-.78.7-1.39 1.48-1.35.78.03 1.39.7 1.35 1.48-.03.78-.7 1.39-1.48 1.35-.78-.03-1.38-.7-1.35-1.48z" fill="#d4ccc7"/><path d="m326.68 589.32c-.68-.39-.91-1.26-.52-1.94s1.26-.91 1.94-.51c.68.39.91 1.26.52 1.94-.39.67-1.26.9-1.94.51z" fill="#d4ccc7"/><path d="m282.04 270.35s35.62 23.91 38.59 65.31l-7.97.83s-23.02-33.27-30.62-66.14z" fill="#6c7f2a"/><path d="m272.21 342.63s7.38-63.2-22.36-98.79c0 0-9.6-10.97-17.18-27.74 0 0 4.56 19.99 11.7 27.48 0 0-16.06-22.49-39.61-34.98 0 0 19.99 13.56 24.98 22.13 0 0 10.71 17.84 18.2 22.48 0 0 2.99 23.68 7.74 37.71 4.75 14.04-.33 2.99-.33 2.99l-19.19-35.76s-18.2-32.07-44.26-20.83c0 0 20.34-2.68 31.41 25.16 0 0-12.85-7.5-18.92-13.92 0 0-9.64-16.42-32.48-5.35 0 0 17.13-5.71 25.34 7.14 0 0 5.23 8.21 10.11 9.64 0 0-25.46-3.93-30.45-10.35 0 0-3.57-4.28-16.06-3.21 0 0-6.42.36-16.77 4.28 0 0 17.13-5.35 27.48 1.43 0 0-11.78-6.17-42.11 6.02 0 0-22.84 12.54-32.12 4.69 0 0 7.6 11.49 30.69-1.07 0 0-9.99 5.95-15.35 11.18 0 0 22.48-17.71 47.82-14.8 0 0-12.85-.66-24.27 9.33 0 0 18.2-11.06 44.61-5.71.02 0 62.83 13.95 91.38 80.85z" fill="#1f2109"/><path d="m346.19 530.88c0-1.77-18.7-3.21-41.76-3.21s-41.76 1.44-41.76 3.21 18.7 3.21 41.76 3.21c23.07 0 41.76-1.43 41.76-3.21z" fill="#9f9d9a"/><path d="m263.83 531.63c4.39 1.41 20.9 2.46 40.6 2.46s36.21-1.05 40.6-2.46c-4.39-1.41-20.9-2.46-40.6-2.46s-36.21 1.05-40.6 2.46z" fill="#302e2a"/><path d="m292.71 271.97s10.29-36.83-16.84-76.32c.01-.01-.41 49.97 16.84 76.32z" fill="#6c7f2a"/><path d="m257.89 174.79s22.27 9.89 27.36 37.31l-9.38-16.46s-4.72-4.56-9.39-12.8c.01 0-2.33-4.12-8.59-8.05z" fill="#34c289"/><path d="m348.03 176.76s-34.45 73.81-54.79 99.38c0 0 .53-31.62 16.41-63.57-.01-.01 9.61-21.79 38.38-35.81z" fill="#34c289"/><path d="m245.8 187.55s8.57 0 15.7 21.41c0 0 26.41 53.54 28.19 76.73 0 0-31.76-48.18-39.26-78.52 0 0-2.86-9.64-2.62-15.11.01.01.73-2.85-2.01-4.51z" fill="#33c393"/><path d="m234.97 178.98s.71 13.56 9.28 27.84c0 0 36.52 57.1 45.44 89.58 0 0-36.05-40.33-47.47-72.81.01 0-11.29-27.12-7.25-44.61z" fill="#525f1e"/><path d="m374.64 205.75s-19.27-8.75-32.48 6.51c0 0-43.9 48.81-50.32 75.93 0 0 26.41-36.76 32.48-46.4 0 .01 27.12-41.04 50.32-36.04z" fill="#6c7f2a"/><path d="m379.99 218.6s-19.63-2.14-34.26 13.56c0 0-35.33 21.41-53.89 64.24 0 0 20.82-24.98 28.79-34.26 0 0 34.74-36.76 59.36-43.54z" fill="#525f1e"/><path d="m376.78 226.45s-47.11 26.05-70.66 59.25c0 0-7.38 7.49-10.47 14.39 0 0-3.81 7.14-5.95 10.94 0 0 10.71-14.75 20.46-23.79 0 0 56.15-46.16 66.62-60.79z" fill="#525f1e"/><path d="m278.75 431.43s12.14-41.4-10.23-61.86c0 0-12.85 30.21 10.23 61.86z" fill="#6c7f2a"/><path d="m208.8 384.08s42.83-1.43 67.1 45.92c0 0-28.43-16.52-42.59-30.69 0 0-7.14-4.76-11.42-8.33 0 0-4.28-3.81-13.09-6.9z" fill="#6c7f2a"/><path d="m262.34 431.43s-25.46-34.5-72.57-27.36c0 0 14.99 2.61 21.18 2.97 0 0 11.18.36 16.89 4.4 0 0 10.31 6.83 19.99 10.71-.01 0 9.03 4.76 14.51 9.28z" fill="#393f14"/><path d="m272.33 483.3s-15.23-10.47-20.46-36.88l-9.52-37.12 26.17 52.58s8.81 20.47 3.81 21.42z" fill="#393f14"/><path d="m201.9 471.88s37.65-16.85 64.98 6.33c0 0-21.06-9.42-42.14-8.23 0-.01-12.13 2.61-22.84 1.9z" fill="#6c7f2a"/><path d="m345.02 426.04s8.21-27.96 51.39-37.71c0 0 20.34-5.47 24.98-11.9 0 0-6.37 13.56-30.69 18.92 0 0-7.73 2.02-12.49 7.26 0 0-12.37 14.25-26.17 17.95 0 0-3.57 1.08-7.02 5.48z" fill="#6c7f2a"/><path d="m458.87 416.2s-60.91-44.73-113.85 9.52c0 0 21.41-18.6 43.42-22.62 0 0 27.6-5.93 49.49 5.26 0-.01 11.42 7.36 20.94 7.84z" fill="#34c289"/><path d="m314.09 467.35s4.88-30.93 41.28-41.64c0 0 12.85-4.07 14.51-8.46 0 0-1.19 10.6-15.82 14.17 0 .01-28.44 9.05-39.97 35.93z" fill="#393f14"/><path d="m336.33 427.62s-29.5 14.81-36.64 38.34c0 0 28.32-21.45 36.64-38.34z" fill="#393f14"/><path d="m325.63 397.94s-26.17 20.88-25.94 53.47c0 0 16.9-35.09 25.94-53.47z" fill="#393f14"/><path d="m334.19 396.21s-23.08 21.89-31.17 57.34c0 .01 26.65-28.55 31.17-57.34z" fill="#393f14"/><path d="m309.92 396.21s5.47 40-3.09 50.58c0 0-4.28-27.73 3.09-50.58z" fill="#393f14"/><path d="m316.59 372.18s6.42-32.83 39.97-39.02c0 0 4.16-.71 8.45-3.39 0 0 5.89-3.39 12.85-.89 0 0 7.32 3.03 13.03 1.07 0 0-7.14 5.35-14.99.71 0 0-5.71-2.5-17.31 6.6 0 0-31.88 25.34-42 37.83 0 .01-.47-1.05 0-2.91z" fill="#393f14"/><path d="m319.92 331.85s14.28-6.44 19.51-.71c0 0-14.75 10.83-19.51 21.89 0 0-1.43-18.32 0-21.18z" fill="#1f2109"/><path d="m356.56 355.41s-3.93-3.09-6.78-13.09c0 0-4.59-13.47-21.07-13.17 0 0 9.04-1.33 13.92-.39 0 0 7.74 1.9 10 9.87 0 0 1.15 4.15 1 8.45 0 0-.52 3.81 2.93 8.33z" fill="#6c7f2a"/><path d="m231.17 285.69s57.06.83 82.24 48.59l.32 9.34c0 .01-18.68-45.43-82.56-57.93z" fill="#6c7f2a"/><path d="m293.46 266.76c-.52 88.15 2.39 176.29 8.69 264.15.07 1.05-1 1.97-2.4 2.07s-2.6-.68-2.67-1.72c0-.01 0-.02 0-.03-4.63-88.1-5.84-176.35-3.62-264.47z"/><path d="m299.41 381.22c.56 3.08.94 6.2 1.15 9.33.2 3.13.22 6.27.15 9.41-.17 6.28-.78 12.53-1.42 18.76-.32 3.12-.65 6.23-.94 9.34-.15 1.55-.27 3.11-.38 4.67s-.25 3.11-.32 4.67c-.36 6.23-.46 12.47-.4 18.7.35 24.92 4.28 49.74 11.61 73.43.17.57-.78 1.35-2.13 1.75-1.34.4-2.58.26-2.75-.32v-.01c-6.66-24.4-9.77-49.69-9.27-74.86.15-6.29.46-12.57 1.04-18.83.12-1.57.32-3.12.48-4.69.16-1.56.33-3.12.54-4.68.39-3.11.83-6.22 1.25-9.32.85-6.2 1.67-12.4 2.05-18.64.18-3.12.26-6.24.17-9.37-.1-3.13-.37-6.24-.83-9.34z"/><path d="m266.14 323.64 8.83 23.62c2.94 7.87 5.91 15.76 8.19 23.89 2.31 8.14 3.7 16.49 5.02 24.79 1.34 8.31 2.57 16.63 3.75 24.96 4.67 33.34 8.01 66.88 10.03 100.52.05.8-1.05 1.51-2.45 1.58s-2.58-.52-2.63-1.32v-.02c-1.16-33.54-3.65-67.05-7.47-100.43-.96-8.34-1.99-16.68-3.11-25.01-1.11-8.33-2.28-16.63-4.36-24.74-2.06-8.12-4.82-16.06-7.56-24.01z"/><path d="m246.83 397.48c12.49 19.77 22.28 41.21 30.26 63.23 7.99 22.04 14.23 44.68 19.84 67.41.14.54-.87 1.24-2.23 1.55-1.37.31-2.59.13-2.72-.41v-.01c-4.77-22.83-10.15-45.52-17.29-67.71-7.14-22.18-16.09-43.85-27.86-64.06z"/><path d="m266.01 475.5c7.43 7.27 12.98 16.38 17.23 25.93 4.26 9.58 7.33 19.62 10.19 29.61.07.24-.98.7-2.35 1.03s-2.53.41-2.59.17v-.01c-2.02-10.12-4.21-20.18-7.61-29.87-3.39-9.65-8.07-19-14.87-26.86z"/><path d="m347.41 422.55c-19.57 32.04-29.21 69.74-27.6 106.73.01.44-1.11.83-2.52.87-1.4.04-2.55-.3-2.56-.75v-.01c.06-38.06 11.68-75.71 32.68-106.84z"/><path d="m330.93 504.05c-5.68 8.51-8.84 18.4-9.24 28.15-.01.12-1.14.07-2.54-.1s-2.52-.42-2.51-.54c2.22-10.48 7.29-20.05 14.29-27.51z"/><path d="m312.27 466.41c4.16 19.5 6.49 39.48 6.92 59.57.01.24-1.13.41-2.53.38-1.41-.03-2.55-.25-2.55-.48 1.25-19.74.65-39.69-1.84-59.47z"/><path d="m318.01 357.44c1.35 53.39.94 106.82-1.23 160.2-.02.63-.42 1.14-.89 1.12s-.83-.55-.8-1.18v-.01c2.73-53.32 3.7-106.73 2.92-160.13z"/><path d="m332.92 361.1c-6.25 12.1-10.94 24.93-14.42 38.04-3.48 13.12-5.8 26.52-7.34 39.99-1.56 13.48-2.44 27.03-3.1 40.6-.33 6.79-.59 13.58-.86 20.38-.13 3.4-.27 6.86-.65 10.35s-1.02 7.03-2.17 10.49c-.23.66-1.48.79-2.79.28s-2.21-1.38-2.02-1.94l.01-.01c2.19-5.96 2.71-12.64 3.18-19.4.48-6.79.96-13.58 1.5-20.38 1.08-13.59 2.39-27.18 4.38-40.69 1.97-13.51 4.72-26.92 8.63-40 3.92-13.08 9.03-25.81 15.65-37.71z"/><path d="m320.41 352.15c-4.99 12.75-8.7 25.98-11.38 39.39s-4.35 27.01-5.35 40.65c-1.99 27.29-1.34 54.68-.58 82.03.02.65-.35 1.19-.82 1.21-.47.01-.86-.5-.88-1.15v-.02c-.47-27.36-.84-54.81 1.43-82.14 1.14-13.65 2.95-27.26 5.78-40.67 2.83-13.4 6.68-26.6 11.8-39.3z"/><path d="m307.38 451.92c5.19 12.54 7.96 26.06 9.1 39.65 1.15 13.61.74 27.32-.33 40.91-.02.32-1.17.46-2.57.31s-2.51-.54-2.49-.86v-.01c1.89-13.33 3.14-26.76 2.85-40.22-.29-13.43-2.17-26.94-6.56-39.78z"/><path d="m264.96 431.43s-4.05-43.78-27.37-66.15c0 0 1.43 44.97 27.37 66.15z" fill="#34c289"/><path d="m232.59 311.03s46.4-23.07 82.09 29.86l-22.84-18.21c0 .01-17.61-21.4-59.25-11.65z" fill="#34c289"/><path d="m229.03 329.16s51.87-29.07 83.63 7.34l.75 5.43c0-.01-21.33-35.57-84.38-12.77z" fill="#6c7f2a"/><path d="m318.25 357.25s-4.52-6.13-4.52-13.62c0 0-2.26-13.2-4.76-13.68 0 0 9.16-1.79 12.73 0 0 0 2.5 2.74 1.43 10.11 0 0-1.31 14.4-4.88 17.19z" fill="#34c289"/><path d="m327.77 509.47s2.85-7.62 16.18-6.19c0 0 3.57 0 5.24 9.28 0 0 4.76-9.76-6.9-13.09-.01.01-11.91-3.33-14.52 10z" fill="#393f14"/><path d="m369.03 482.68s-19.46 1.51-37.77 19.41c0 0 26.2-5.4 37.77-19.41z" fill="#34c289"/><path d="m306.12 504.47s-1.07-6.25.71-8.56c0 0 5.53-2.14 8.74 1.25 0 0-6.24.71-9.45 7.31z" fill="#393f14"/><path d="m320.57 509.65s-6.6-15.17-13.74-13.74c0 0 5.35-2.58 10.35-.67 0 0 3.75 1.79 4.1 6.85 0 0 .36 3.81-.71 7.56z" fill="#34c289"/><path d="m361.26 503.76s-10.17-16.14-44.08-8.52c0 0 6.78 1.2 13.2.85 0 0 4.75-.86 8.83 1.43 0 0 6.87 3.26 13.65 2.34.01 0 5.9 1.4 8.4 3.9z" fill="#6c7f2a"/><path d="m301.31 552.86c-28.77 0-45.57-5.48-45.82-5.56l.23-.68c.37.12 38.01 12.38 97.39-.01l.15.7c-19.96 4.16-37.47 5.55-51.95 5.55z" fill="#d0d0d0"/><path d="m301.31 592.62c-28.77 0-45.57-5.48-45.82-5.56l.23-.68c.37.12 38.01 12.38 97.39-.01l.15.7c-19.96 4.17-37.47 5.55-51.95 5.55z" fill="#d0d0d0"/><path d="m304.88 613.12c-25.49 0-42.69-2.89-42.94-2.93l.12-.7c.38.07 38.97 6.55 86.45 0l.1.71c-15.96 2.19-30.9 2.92-43.73 2.92z" fill="#d0d0d0"/><path d="m302.57 573.31c-30.23 0-49.11-6.42-49.39-6.52l.24-.67c.42.15 42.71 14.51 102.34-.01l.17.69c-20.05 4.88-38.14 6.51-53.36 6.51z" fill="#d0d0d0"/><path d="m265.64 544.27c0-4.56.4-9.03 1.17-13.38h-4.12c-26.31 40.45 7.35 97.12 7.35 97.12 0 1.77 15.4 3.21 34.41 3.21 19 0 34.41-1.44 34.41-3.21.75-1.2 1.45-2.4 2.14-3.58-42.38-4.37-75.36-38.59-75.36-80.16z" fill="#353433" opacity=".5"/><path d="m455.47 298.23 29.79 64.02h-26.39z" fill="#282a35"/><path d="m455.16 292.38 3.71 69.87 135.52-3.76" fill="none" stroke="#000" stroke-miterlimit="10"/><path d="m597.72 289.62s-1.14 18.51 2.79 29.35c3.93 10.83 8.48 14.57 7.69 25.26s3.06 11.08 3.06 11.08l-16.88 5.01z" fill="#282a35"/><path d="m598.15 278.69-3.76 79.8" fill="none" stroke="#000" stroke-miterlimit="10"/><path d="m583.19 366.41c0 2.54-2.06 4.6-4.61 4.6-2.54 0-4.6-2.06-4.6-4.6s2.06-4.6 4.6-4.6 4.61 2.06 4.61 4.6z" fill="#fff"/><path d="m583.19 381.42c0 2.54-2.06 4.61-4.61 4.61-2.54 0-4.6-2.06-4.6-4.61 0-2.54 2.06-4.6 4.6-4.6s4.61 2.06 4.61 4.6z" fill="#fff"/><path d="m549.53 656.85h207.13" fill="none" stroke="#000" stroke-miterlimit="10"/><path d="m873.66 647.71h179.85" fill="none" stroke="#000" stroke-miterlimit="10"/></svg>