<svg enable-background="new 0 0 3000 2000" viewBox="0 0 3000 2000" xmlns="http://www.w3.org/2000/svg"><path d="m471.51 1718.79s-361.5-384.18-108.02-742.56c94.59-133.73 336.07-208.82 558.05-147.9 131.12 35.98 329.97 30.67 524.27-286.5 264.97-432.54 1364.9-235.86 1150.2 521.98-90.44 319.22 246.64 333.75 79.67 655.67z" fill="#ebf3fa"/><path d="m2428.62 949.17-787.42 658.75-414.3-352.94c-77.54 68.28-197.3 173.68-317.77 279.44-82.33 72.28-148.99 130.68-203.02 177.95l-376.29-.44c104.35-88.84 524.5-458.05 807.56-707.57l86.55-76.29 418.8 356.78 614.71-514.27z" fill="#d5e5fb"/><path d="m2157.75 689.58 375.02 376.16 105.94-429.72z" fill="#d5e5fb"/><path d="m928.36 1480.43c-1.4-34.24-4.42-64.03-8.03-84.81-5.76-33.11-10.95-52.17-11.01-52.37-.76-2.91-11.72-14.7-36.09-14.33-24.37.36-22.06 15.82-22.06 15.82 0 .52.07 1.01.17 1.37.23.8 22.61 81.44 21.64 185.57-.01 1.46-.18 3.99-.07 5.67 0 .01 56.48 1.45 56.49 0 1.97-9.1 1.01-34.32-1.04-56.92z" fill="#b7d3f3"/><path d="m935.46 1531.16c-.02 1.45-.79 2.61-1.73 2.61h-.02c-.94-.02-1.69-1.18-1.7-2.61h-48.4c-.02 1.45-.79 2.61-1.73 2.61h-.02c-.96-.02-1.72-1.22-1.7-2.69.28-29.81-1.43-57.64-4.02-82.2-6.43-61.26-18.33-102.2-18.5-102.77-.11-.37-.17-.85-.17-1.37 0 0-2.31-15.45 22.06-15.82 24.38-.36 35.34 11.42 36.1 14.33.04.15 2.98 10.94 6.88 30.34 1.29 6.43 2.69 13.79 4.12 22.03 3.61 20.77 6.63 50.57 8.03 84.81 2.05 22.6 2.77 41.64.8 50.73z" fill="#d2e3fc"/><path d="m876.58 1533.78h189.76s-4.42-17.78-114.31-15.13c-77.77 1.87-75.45 15.13-75.45 15.13z" fill="#c5dcf8"/><g fill="#b7d3f3"><path d="m861.14 1719.48c22-110.73 16.34-178.68 16.32-179.54-.06-1.7 3.11-3.25 4.81-3.31 1.72-.03 9.32-.5 10.19.96 1.15 1.91 5.58 85.63-27.21 181.89z"/><path d="m1038.31 1719.48c-22-110.73-16.34-178.68-16.32-179.54.06-1.7-3.1-3.25-4.81-3.31-1.72-.03-9.32-.5-10.19.96-1.15 1.91-5.58 85.63 27.21 181.89z"/><path d="m1073.43 1719.48c-22-110.73-16.34-178.68-16.32-179.54.06-1.7-3.11-3.25-4.81-3.31-1.72-.03-9.32-.5-10.19.96-1.15 1.91-5.58 85.63 27.21 181.89z"/><path d="m896.49 1719.48c22-110.73 16.34-178.68 16.32-179.54-.06-1.7 3.11-3.25 4.81-3.31 1.72-.03 9.32-.5 10.19.96 1.15 1.91 5.58 85.63-27.21 181.89z"/><path d="m1066.45 1539.45h-189.75c-2.14 0-3.89-1.75-3.89-3.89v-2.49c0-2.14 1.75-3.89 3.89-3.89h189.76c2.14 0 3.89 1.75 3.89 3.89v2.5c-.01 2.13-1.76 3.88-3.9 3.88z"/></g><path d="m1059.79 1369.08 63.08-13.58 3.71 9s-69.6 41.17-76.12 39.16c-6.52-2.02 9.33-34.58 9.33-34.58z" fill="#ffb27d"/><path d="m1002.44 1652.69c-1.58 1.8-1.78 3.81-1 5.96 0 .01.01.02.02.03 1.45 3.97 6.22 8.41 11.77 12.84.71.57 1.34 1.09 1.89 1.57.14.13.29.25.42.38.11.1.22.2.33.29 5.17 4.74 3.23 5.83 12.52 15.45 10.6 10.96 17.9 11.16 19.97 10.16 1.76-.85-1.81-6.67-5.77-13.2-.19-.31-.38-.63-.58-.95-.53-.87-1.05-1.75-1.57-2.62-4.63-7.87-3.44-11.56-2.35-23.26.89-9.51 14.89-53.15 14.89-53.15l-20.31-3.48s-6.12 34.75-12.86 40.1c-3.6 2.85-7.64 2.89-11.1 5-.24.15-.48.3-.72.45-1.96 1.29-3.96 2.63-5.55 4.43z" fill="#ffb27d"/><path d="m1002.44 1652.69c-1.58 1.8-1.78 3.81-1 5.96 0 .01.01.02.02.03 1.77 3.97 6.43 8.38 11.79 12.8.7.58 1.32 1.11 1.87 1.61.14.13.29.25.42.38.11.1.22.2.33.29 5.17 4.74 3.23 5.83 12.52 15.45 10.6 10.96 17.9 11.16 19.97 10.16 1.76-.85-1.81-6.67-5.77-13.2-2.06-.75-11.65-4.62-18.89-13.84-6.38-8.1-10.64-18.5-14.99-24.53-.24.15-.48.3-.72.45-1.96 1.3-3.96 2.64-5.55 4.44z" fill="#1c468a"/><path d="m1166.23 1640.08c1.25 6.23 10.19 5.19 20.18 2.77 9.99-2.43 7.61.46 21.82-1.11 14.21-1.56 18.52-6.83 18.95-8.93.39-1.86-6.63-2.52-14.17-3.38-.95-.11-1.9-.22-2.85-.34-8.5-1.06-14.73-6.52-22.46-11-7.32-4.24-18.24-21.53-18.24-21.53l-19.49 1.54s10.23 15.44 14.18 22.16c2.33 3.95 2.2 9.17 1.91 13.2-.13 2.19-.27 4.43.17 6.62z" fill="#ffb27d"/><path d="m1186.41 1642.85c9.99-2.43 7.61.46 21.82-1.11 14.21-1.56 18.52-6.83 18.95-8.93.39-1.86-6.63-2.52-14.17-3.38l-.07.14s-8.52 6.01-20.35 6.29c-9.64.23-19.85-2.51-26.51-2.41-.15 2.19-.29 4.43.15 6.63 1.25 6.24 10.19 5.2 20.18 2.77z" fill="#1c468a"/><path d="m1122.87 1355.49s4.64-11.31 9.75-11.77 21.36-3 22.52-.69 0 10.62-3.48 13.62-25.07 7.85-25.07 7.85z" fill="#ffb27d"/><path d="m1091.54 1516.19-42 112.38s-6.45.62-12.64-1.15c-5.69-1.63-12.22-5.91-12.22-5.91s10.42-107.91 29.52-130.35c19.11-22.45 37.34 25.03 37.34 25.03z" fill="#163560"/><path d="m925.41 1470.72s120.69-40.57 147.61-31.94 107.74 168.49 107.74 168.49-1.82 2.41-6.8 4.27c-4.63 1.73-15.84 1.62-15.84 1.62s-72.94-62.15-81.62-80.28-12.16-35.39-20.84-33.67c-8.68 1.73-112.01 42.3-135.45 18.13s-17.31-55.58-17.31-55.58z" fill="#1c468a"/><path d="m994.22 1184.62c-5.22-2.95-11.47-3.27-15.84-3.01 1.13-1.16 3.34-1.58 3.34-1.58-2.71-.4-8.76 2.27-8.76 2.27-37.72-14.45-43.65 40.77-42.86 53.6s.88 27.59-17.95 39.1c-37.05 22.64-5.79 62.16-5.79 62.16.29.17 17.24 28.75 17.24 28.75-.95-10.37 47.16-65.07 72.26-81.46 6.11-8.94 8.28-24.74 8.44-25.99-1.05 12.53-3.21 19.55-5.14 23.51 21.26-19.45 8.89-89.54-4.94-97.35z" fill="#b5453c"/><path d="m994.37 1285.26c.13.06-12.12 6.38-21.33 3.87-8.66-2.35-14.32-13.52-14.21-13.54 3.67-.72 4.73-5.74 4.65-27.28l1.66.32 27.89 5.49s-.63 8.73-.65 16.95c-.02 6.91.4 13.46 1.99 14.19z" fill="#ffb27d"/><path d="m993.03 1254.13s-.63 8.73-.65 16.95c-15.61-.44-23.86-14.59-27.24-22.44z" fill="#ed975d"/><path d="m962.26 1245.62s-8.18-12.85-10.14-23.83c-1.4-7.84 2.62-36.91 32-32.73 0 0 8.53.84 16.56 6.22 6.38 4.28 15.59 13.53 5.29 38.9l-2.67 8.57z" fill="#b5453c"/><path d="m998.24 1261.92s-36.92.6-36.95-22.26c-.03-22.87-4.81-38.19 18.77-39.54 23.57-1.35 28.16 7.37 30.04 15 1.88 7.62-2.25 46.05-11.86 46.8z" fill="#ffb27d"/><path d="m996.88 1199.55s-10.11 26.83-25.62 30.79c-15.52 3.97-22.25-.17-22.25-.17s11.9-9.4 14.37-25.81c0 .01 25.87-17.58 33.5-4.81z" fill="#b5453c"/><path d="m994.37 1201.73s7.55 5.99 9.39 11.81 2.67 17.81 6.18 17.4c0 0 7.62-18.23-.94-28.55-9.07-10.93-14.63-.66-14.63-.66z" fill="#b5453c"/><path d="m912.15 1384.02c-3.64-15.18 8.75-44.64 21.68-69.03 11.73-22.11 23.91-40.04 25.01-39.4 30.95 18.26 33.74 3.08 33.74 3.08.01 0 28.11 3.71 36.07 17.33 9.87 16.9 20.54 64.13 31.14 73.07-1.63 4.95-.93 7.59.8 13.72.37 1.32.78 2.57 1.23 3.75 1.6 4.32 3.59 7.82 5.32 10.86-5.39 3.25-15.79 9.44-23.45 4.99-11.68-6.8-20.8-27.49-25.93-35.73-.02-.03-.04-.06-.06-.09-11.15 62.75 4.01 77.04-3.66 83.65-8.1 6.99-19.68-3.33-45.15 7.65-16.71 7.21-39.89 17.62-55.5 19.44-8.19.96-14.29-.46-16.28-5.96-5.8-15.97 21.99-58.38 15.04-87.33z" fill="#1c468a"/><path d="m990.04 1248.05s.69 2.9 7.96 2.46c0 0 6.1-.37 5.92-3.57-.01 0-5.93-2.27-13.88 1.11z" fill="#fff"/><path d="m897.1 1471.35c1.99 5.5 8.1 6.91 16.28 5.96 10.8-4.68 57.47-22.65 56.95-34.83-.78-18.03-8.97-18.61-3.18-40.86 4.65-17.87-38.47-51.1-45.35-58.32-12.93 24.39-13.29 25.54-9.65 40.73 6.95 28.94-20.84 71.35-15.05 87.32z" fill="#163560"/><path d="m891.82 1406.32c8.28-11.55 16.9-17.66 22.57-20.73-1.31-3.34 34.81-47.36 34.81-54.18 0-6.91 9.64-55.81 9.64-55.81s-30.09 1.85-40.51 16.29c-13.03 18.06-40.1 87.59-26.51 114.43z" fill="#1c468a"/><path d="m914.39 1385.59 60.13 15.6-5.64 10.07s-73.18-.51-77.06-4.94 22.57-20.73 22.57-20.73z" fill="#ffb27d"/><path d="m1017.75 1366.67c5.13 8.24 14.24 28.93 25.93 35.73 7.66 4.45 18.06-1.74 23.45-4.99-1.72-3.04-3.72-6.54-5.32-10.86-4.3.98-9.54 2.23-12.93 3.24-6.58 1.98-31.13-23.12-31.13-23.12z" fill="#163560"/><path d="m974.52 1401.19s18.88-5.31 23.38-4.07 19.91 11.39 17.74 14.14-15.74-1.65-21.99-.82-11.08 3.9-15.58 3.24-9.2-2.42-9.2-2.42z" fill="#ffb27d"/><path d="m974.52 1401.19s9.24-4.72 11.87-7.41c.33-.34.89-.27 1.15.13.7 1.1 1.36 3.24-1.88 5.36-4.66 3.05-11.14 1.92-11.14 1.92z" fill="#ffb27d"/><path d="m1061.79 1427.6h-88.1c0-3.86 3.14-6.98 7.02-6.98h81.08z" fill="#ed7d2b"/><path d="m1061.54 1332.21h136.21l-32.67 95.39h-137.1z" fill="#ed7d2b"/><path d="m1199.76 1332.21-32.68 95.39h-137.09l33.56-95.39z" fill="#f99746"/><path d="m1126.32 1379.02c-.85 3.64-4.5 6.6-8.17 6.6s-5.95-2.95-5.11-6.6c.85-3.64 4.5-6.6 8.17-6.6s5.96 2.96 5.11 6.6z" fill="#f9ddbf"/><path d="m1199.76 1332.21-32.68 95.39h-90.79c60.14-20.41 76.15-82.63 78.84-95.39z" fill="#ed893e"/><path d="m804.32 1719.48c1.72 0 3.2-1.2 3.49-2.85l17.11-96.41 24.61-138.65 6.88-38.77-17.53-.5-3.04 22.51-21.35 158.17-12.66 93.75c-.2 1.46.97 2.75 2.49 2.75z" fill="#95c0f4"/><path d="m835.84 1464.81c11.36 4.98 13.69 16.76 13.69 16.76l6.88-38.77-17.53-.5z" fill="#78acea"/><path d="m1240.26 1719.48c-1.72 0-3.2-1.2-3.49-2.85l-17.11-96.41-24.61-138.65-6.88-38.77 17.53-.5 3.04 22.51 21.35 158.17 12.66 93.75c.2 1.46-.97 2.75-2.49 2.75z" fill="#95c0f4"/><path d="m1208.74 1464.81c-11.35 4.98-13.69 16.76-13.69 16.76l-6.88-38.77 17.53-.5z" fill="#78acea"/><path d="m792.62 1458.02h448.83c5.88 0 10.69-4.81 10.69-10.69v-9.06c0-5.88-4.81-10.69-10.69-10.69h-448.83c-5.88 0-10.69 4.81-10.69 10.69v9.06c0 5.88 4.81 10.69 10.69 10.69z" fill="#78acea"/><path d="m2675.83 1720.68h-2343.02c-1.65 0-3-1.35-3-3 0-1.65 1.35-3 3-3h2343.02c1.65 0 3 1.35 3 3 0 1.65-1.35 3-3 3z" fill="#2e3552"/><path d="m1907.47 1412.71s-11.64 14.44-8 16.41 13.26 5.65 15.53 3.33 2.98-19.34 2.98-19.34z" fill="#ffb27d"/><path d="m1907.94 1412.95s-4.76 1.65-6.63 4.13-6.01 6.25-5 7.3 6.96-3.58 6.96-3.58z" fill="#ffb27d"/><path d="m1951.48 1219.88s-13.12 122.17-14.29 125.65c-.25.76-1.28 4.62-2.73 10.19-2.07 7.95-4.98 19.37-7.75 30.22-4.18 16.4-8.01 31.54-8.01 31.54l-11.39-3.75s-.59-59.37 2.34-73.04c2.94-13.68 12.31-97.67 17.04-108.97 4.73-11.31 24.79-11.84 24.79-11.84z" fill="#aec3ff"/><path d="m1924.19 1512.84-71.57-18.77c-9.31-2.44-14.94-12.06-12.5-21.38l8.13-31.02c2.44-9.32 12.06-14.94 21.38-12.5l71.57 18.77c9.31 2.44 14.94 12.06 12.49 21.38l-8.13 31.02c-2.43 9.32-12.05 14.94-21.37 12.5z" fill="#a02e2e"/><path d="m1857.7 1444.13-8.23 31.38c-1.59 6.08.23 12.28 4.26 16.55 1.34 1.42 2.92 2.62 4.7 3.54h.01c1.11.58 2.3 1.04 3.56 1.37l71.45 18.73c9.35 2.45 19-3.19 21.46-12.54l8.23-31.38c2.45-9.35-3.19-19.01-12.54-21.46l-24.6-6.45 1.76-6.69c.81-3.09-1.05-6.27-4.14-7.08l-2.7-.71-14.96-3.92-3.72-.97c-1.49-.39-3.06-.18-4.4.6s-2.29 2.04-2.68 3.53l-1.76 6.69-14.25-3.74c-.57-.15-1.12-.26-1.69-.35-.01 0-.01 0-.01 0-5.73-.91-11.4 1.12-15.3 5.07-2.07 2.11-3.65 4.77-4.45 7.83zm64.79-1.18-25.57-6.7 1.76-6.69c.3-1.15 1.49-1.85 2.64-1.54l6.42 1.68 11.78 3.09 3.18.83c.22.06.42.15.6.26.78.49 1.19 1.45.95 2.38z" fill="#bc3f3f"/><path d="m1914.27 1432.77s3.18-5.35 1.99-7.22-5.48 5.55-5.48 5.55 2.93-6.37 1.84-7.42-5.58 6.27-5.58 6.27 2.79-6.19 1.81-6.4-4.31 5.2-4.31 5.2 1.73-4.63.15-4.41-5 4.45-5 4.45z" fill="#ffb27d"/><path d="m1934.46 1355.71c-2.07 7.95-4.98 19.37-7.75 30.22-1.79-5.02-4.05-13.01-5.49-23.96-2.64-20.22 5.47-63.29 5.47-63.29z" fill="#9db0f4"/><path d="m2084.59 1407.68s12.69 10.31 14.26 13.53 5.51 15.14 5.3 18.98-9.72-8.79-12.52-9.81 2.92 5.19 2.28 6.52-6.59-3.02-8.87-4.44c-2.27-1.42-3.87-11.06-7.25-16.31-3.38-5.24 6.8-8.47 6.8-8.47z" fill="#ffb27d"/><path d="m1918.09 1716.32h63.26c4.53-3.07-1.22-33.13-1.22-33.13s-17.27-6.55-20.25 6.77c-2.99 13.31-21.99 17.55-32.05 19.17-6.88 1.13-9.06 4.91-9.74 7.19z" fill="#233862"/><path d="m2011.91 1716.32h63.26c4.53-3.07-1.22-33.13-1.22-33.13s-17.27-6.55-20.25 6.77c-2.99 13.31-21.99 17.55-32.05 19.17-6.87 1.13-9.05 4.91-9.74 7.19z" fill="#233862"/><path d="m1935.11 1409.73s2.84 35.48 6.19 78.12c4.54 57.93 16.79 201.56 16.79 201.56s8.03 6.85 25.82 3.1c0 0 15.14-49.55 19.67-106.11.07-.93.14-1.86.21-2.79 4.21-57.57 10.76-178.81 10.76-178.81z" fill="#2b478b"/><path d="m1934.14 1397.47s3.81 47.74 7.16 90.38l62.29 98.56c.07-.93.14-1.86.21-2.79 4.21-57.57 10.76-178.81 10.76-178.81z" fill="#233862"/><path d="m1952.29 1397.47s45.18 112.46 59.62 155.08c10.29 30.37 39.3 136.88 39.3 136.88s12.62 3.84 23.22-3.58c0 0 10.79-108.83-11.01-139.51-11.57-16.28-2.88-169.24-49.78-170.55-46.9-1.3-61.35 21.68-61.35 21.68z" fill="#2b478b"/><path d="m2038.38 1407.68c-18.84 10.63-99.54 10.39-103.28 2.05-8.35-18.63-10.44-113.28-6.5-142.32 0 0 2.04-44.62 6.5-42.65 29.81-13.7 78.06-1.26 78.06-1.26 13.01 3.83 11.89 33.56 15.52 75.31.47 5.38.98 10.99 1.56 16.78 2.57 25.78 6.3 55.4 11.98 86.64.39 2.06-1.04 3.88-3.84 5.45z" fill="#aec3ff"/><path d="m1990.87 1218.49c-.5 7.98-10.91 7.08-23.43 4.22-12.51-2.85-7.98-10.23-7.98-10.23s.18-5.67.98-12.46c.29-2.47.65-5.1 1.12-7.65.22-1.25.47-2.48.75-3.67 1.63-7.02 25-.25 24.83 1.64-.45 5.1 3.24 21.88 3.73 28.15z" fill="#ffb27d"/><path d="m1964.05 1232.42-.99-11.03 13.85 2.62-5.33 9.84z" fill="#233862"/><path d="m1959.76 1207.29-8.28 12.59s0 7.74 7.18 13.36l11.32-10.54c.01 0-7.31-2.79-10.22-15.41z" fill="#9db0f4"/><path d="m1969.99 1222.7s2.35 8.42 6.88 12.28c0 0 17.67-4.75 21.89-13.81l-9.21-11.88s-.45 8.99-19.56 13.41z" fill="#9db0f4"/><path d="m1987.28 1194.31s-11.25 7.48-26.84 5.71c.29-2.47.65-5.1 1.12-7.65 3.08-.75 5.65-1.21 5.65-1.21z" fill="#e2915a"/><path d="m1994.42 1185.81c-5.5 15.13-25.56 11.27-34.11 8.84-2.41-.68-3.9-1.25-3.9-1.25-2.64-1.2-3.46-5.81-3.23-11.63.46-11.52 5-27.78 7.62-31.7 3.93-5.9 10.48-11.89 29.94-3.54 19.48 8.35 10.73 19.89 3.68 39.28z" fill="#ffb27d"/><path d="m2009.45 1178.04c-6.14 5.01-19.34 14.28-19.34 14.28s1.47-1.74 3.26-6.74c.2-.57.27-1.4.24-2.28-.08-2.45.52-4.9 1.8-6.99.8-1.31 1.1-2.66.08-3.62-1.67-1.58-4.52-.13-6.38 1.15-1.23.84-2.85.89-4.12.1-.01 0-.02-.01-.02-.01-5.25-3.29.54-9.08-3.72-13.89-4.27-4.81-22.73-5.47-21.99-8.48-6.3-3.56-2.33-16.7-2.21-17.4 0 0 9.05.8 20.34-2.02 9.17-2.3 19.28 3.59 22.48 6.01 0-.58-.1-1.39-.51-2.24 0 0 1.39 1.37 1.36 2.97.14.14.2.24.16.26 0 0 1.83-.04 2.89.67 0 0-.78-.25-1.15.22-.04.05-.1.09-.16.12 12.27 8.68 12.09 33.72 6.99 37.89z" fill="#233862"/><path d="m1965.4 1183.62s-.99 1.91-5.95.33c0 0-4.17-1.33-3.48-3.52 0-.01 4.5-.56 9.43 3.19z" fill="#fff"/><path d="m1964.05 1232.42s-11.05 139.68-10.9 151.32 12.25 23.95 12.25 23.95 9.64-10.55 11.52-21.68-5.33-152.15-5.33-152.15z" fill="#2a4e96"/><path d="m2013.17 1223.51s17.84 4.27 31.95 31.37 25.25 81.75 31.98 96.18c6.74 14.43 11.35 59.86 11.35 59.86l-10.66 5.23s-25.75-46.56-29.55-61.83c-2.06-8.26-33.54-74.39-33.54-74.39z" fill="#aec3ff"/><path d="m2038.38 1407.68c-.01 0-.01 0-.02 0-33.6-4.83-23.97-116.03-21.33-116.47s12.3 19.88 12.3 19.88l.92 4.51c2.57 25.78 6.3 55.4 11.98 86.64.38 2.05-1.05 3.87-3.85 5.44z" fill="#9db0f4"/><path d="m2457.58 1650.59s13.99 12.77 11.26 21.84-15.35 15.12-17.06 26.21-8.53 17.13-14.67 17.13-29.28 0-29.28 0-4.52-7.8 6.4-10.15 15.04-15.38 14.35-27.47c-.68-12.09 1.02-28.22 1.02-28.22l23.2-5.38z" fill="#233862"/><path d="m2285.96 1683.61s2.51 29.05-3.63 32.08l-78.6-.16s0-9.07 12.62-11.09 34.8-9.41 38.56-25.87c3.75-16.46 31.05 5.04 31.05 5.04z" fill="#233862"/><path d="m2219.6 1273.2s4.15 50.93 9.02 112.15c6.62 83.16 14.59 185.31 15.37 204.66 1.36 33.6 6.83 87.35 6.83 87.35s12.96 12.77 38.9 7.39c0 0 23.11-76.73 29.71-157.92.1-1.33.21-2.67.31-4.01 6.14-82.65 15.69-256.68 15.69-256.68z" fill="#2a4e96"/><path d="m2219.6 1273.2s4.15 50.93 9.02 112.15l90.81 141.49c.1-1.33.21-2.67.31-4.01 6.14-82.65 15.69-256.68 15.69-256.68z" fill="#233862"/><path d="m2238.53 1279.25s74.72 184.44 123.86 271.12 64.49 110.87 64.49 110.87 28.15-11.09 30.71-18.65c0 0-18.79-167.34-51.69-208.13-18.59-23.05-34.63-74.19-33.82-98.39 1.38-41.73-14.29-90.09-14.29-90.09z" fill="#2a4e96"/><path d="m2178.86 1281.96s-13.95 18.89-14.98 23.93-2.23 23.04-.56 28.31 10.37-15.72 13.89-18.14-2.2 8.26-.83 9.89c1.37 1.62 8.09-6.56 10.74-9.36 2.65-2.79 1.41-16.78 4.23-25.29s-12.49-9.34-12.49-9.34z" fill="#ffb27d"/><path d="m2240.39 1007.42s-18.85 175.51-20.53 180.51c-.37 1.09-1.84 6.64-3.93 14.64-2.97 11.42-7.16 27.82-11.14 43.42-6 23.56-12.48 43.94-12.48 43.94s-2.85 1.84-9.71 1.26c-4.68-.4-7.21-4.4-7.21-4.4s.69-86.17 4.89-105.81c4.22-19.65 17.68-140.31 24.49-156.55 6.79-16.25 35.62-17.01 35.62-17.01z" fill="#fff"/><path d="m2215.93 1202.57c-2.97 11.42-7.16 27.82-11.14 43.42-2.56-7.21-5.82-18.69-7.88-34.42-3.79-29.04 7.86-90.92 7.86-90.92z" fill="#dceaff"/><path d="m2365.23 1277.23c-27.06 15.27-143 14.93-148.37 2.94-12-26.76-15-162.74-9.34-204.45 0 0 2.93-64.1 9.34-61.27 42.82-19.67 112.14-1.81 112.14-1.81 18.69 5.51 17.08 48.21 22.3 108.19.67 7.73 1.41 15.79 2.25 24.11 3.69 37.04 9.05 79.58 17.21 124.46.55 2.95-1.51 5.57-5.53 7.83z" fill="#fff"/><path d="m2296.98 1005.43c-.72 11.47-15.67 10.17-33.65 6.06-17.97-4.09-11.47-14.7-11.47-14.7s.26-8.15 1.4-17.91c.42-3.55.93-7.32 1.62-10.99.32-1.79.67-3.56 1.07-5.27 2.35-10.09 35.92-.35 35.68 2.36-.66 7.34 4.64 31.44 5.35 40.45z" fill="#ffb27d"/><path d="m2258.44 1025.44-1.42-15.84 19.9 3.75-7.66 14.15z" fill="#233862"/><path d="m2252.28 989.33-11.89 18.09s0 11.13 10.32 19.2l16.26-15.14s-10.51-4.01-14.69-22.15z" fill="#dceaff"/><path d="m2266.97 1011.48s3.37 12.09 9.88 17.64c0 0 25.39-6.83 31.44-19.83l-13.22-17.07c0-.01-.64 12.91-28.1 19.26z" fill="#dceaff"/><path d="m2291.81 970.69s-16.16 10.75-38.55 8.2c.42-3.55.93-7.32 1.62-10.99 4.42-1.07 8.12-1.74 8.12-1.74z" fill="#e2915a"/><path d="m2302.07 958.48c-7.9 21.74-36.73 16.19-49 12.7-3.46-.98-5.6-1.79-5.6-1.79-3.79-1.72-4.97-8.34-4.64-16.7.65-16.55 7.19-39.91 10.94-45.54 5.64-8.47 15.05-17.08 43.02-5.09 27.97 11.98 15.41 28.56 5.28 56.42z" fill="#ffb27d"/><path d="m2323.67 947.31c-8.83 7.2-27.79 20.52-27.79 20.52s2.11-2.49 4.69-9.68c.29-.82.39-2.01.35-3.28-.11-3.52.74-7.04 2.59-10.04 1.16-1.88 1.57-3.82.11-5.2-2.4-2.27-6.49-.19-9.17 1.65-1.77 1.21-4.09 1.28-5.91.15-.01-.01-.02-.01-.03-.02-7.54-4.72.78-13.04-5.34-19.95-6.14-6.91-32.66-7.85-31.6-12.19-9.06-5.11-3.35-23.99-3.18-24.99 0 0 12.99 1.15 29.22-2.9 13.17-3.31 27.69 5.15 32.29 8.64 0-.83-.14-2-.73-3.22 0 0 1.99 1.97 1.96 4.27.2.2.29.34.23.38 0 0 2.63-.05 4.16.96 0 0-1.12-.35-1.65.32-.06.08-.14.13-.23.18 17.61 12.44 17.35 48.42 10.03 54.4z" fill="#bc3f3f"/><path d="m2260.38 955.34s-1.42 2.74-8.54.47c0 0-5.99-1.91-4.99-5.06-.01-.01 6.45-.8 13.53 4.59z" fill="#fff"/><path d="m2258.44 1025.44s-15.88 200.67-15.66 217.39 17.59 34.4 17.59 34.4 13.84-15.15 16.55-31.15c2.7-16-7.66-218.58-7.66-218.58z" fill="#2a4e96"/><path d="m2365.23 1277.23c-.01 0-.01 0-.03 0-48.27-6.95-34.44-166.69-30.65-167.32s17.67 28.55 17.67 28.55l1.33 6.48c3.69 37.04 9.05 79.58 17.21 124.46.55 2.95-1.51 5.57-5.53 7.83z" fill="#dceaff"/><path d="m2507.12 1396.23-102.07 29.7c-13.28 3.87-27.32-3.84-31.18-17.12l-12.87-44.23c-3.87-13.28 3.84-27.32 17.12-31.18l102.07-29.7c13.28-3.87 27.32 3.84 31.18 17.12l12.87 44.23c3.87 13.28-3.83 27.31-17.12 31.18z" fill="#a02e2e"/><path d="m2374.45 1360.63 13.02 44.74c2.52 8.66 9.35 14.96 17.47 17.25 2.69.76 5.53 1.08 8.41.89h.01.01c1.79-.11 3.6-.42 5.4-.94l101.88-29.65c13.33-3.88 21.07-17.96 17.19-31.29l-13.02-44.75c-3.89-13.33-17.97-21.07-31.3-17.19l-35.08 10.21-2.78-9.55c-1.28-4.41-5.92-6.95-10.33-5.67l-3.85 1.12-21.34 6.21-5.3 1.54c-2.13.62-3.9 2.04-4.97 3.99-1.07 1.96-1.32 4.21-.7 6.34l2.78 9.55-20.32 5.91c-.81.23-1.58.51-2.34.81 0 .01-.01.01-.02.01h-.01c-7.73 3.11-13.23 9.79-15.11 17.54v.01c-.99 4.12-.97 8.55.3 12.92zm78.98-49.29-36.46 10.61-2.78-9.55c-.48-1.64.47-3.37 2.12-3.85l9.16-2.66 16.79-4.89 4.53-1.32c.31-.09.62-.13.93-.12 1.32.02 2.54.9 2.93 2.24z" fill="#bc3f3f"/><path d="m2422.85 1282.78s-3.17 26.47 2.77 26.09 20.45-3.23 21.45-7.78c.99-4.56-11.12-25.82-11.12-25.82z" fill="#ffb27d"/><path d="m2423.61 1282.71s-4.54 5.64-4.93 10.08-2.56 12.2-.52 12.7c2.03.5 5.75-9.66 5.75-9.66z" fill="#ffb27d"/><path d="m2329.01 1012.64s25.64 6.14 45.9 45.07c20.27 38.93 36.27 117.45 45.95 138.18 9.68 20.72 17.04 82.91 17.04 82.91s-1.51 3.09-6.72 4.22c-4.05.88-8.2.53-8.2.53s-38.11-61.05-43.58-82.98c-2.96-11.87-48.18-106.87-48.18-106.87z" fill="#fff"/><path d="m640.73 1690.44-3.84-27.67 16.13-13.48 5.09 36.63z" fill="#ffb27d"/><path d="m694.31 1715.15h-65.78s-1.58-10.02 1.86-17.63c3.29-7.3 8.42-11.8 8.88-17.39 4.18 4.3 9.32 7.07 18.83 5.79 1.17 1.89 7.52 12 11.41 14.79 4.31 3.09 23.48 1.99 24.8 14.44z" fill="#233862"/><path d="m681.09 1316.88c-4.3 34.6-7.82 67.23-10.68 97.63-15.31 162.01-12.3 261.03-12.3 261.03s-1.11 2.93-10.6 2.97c-5.36.03-10.62-1.14-10.62-1.14s-34.27-105.79-31.63-165.99c.32-7.24 1.17-13.82 2.67-19.49 8.22-30.8-30.43-148.59 11.59-192.46 42.01-43.86 63.55 1.57 61.57 17.45z" fill="#f99746"/><path d="m681.09 1316.88c-4.3 34.6-7.82 67.23-10.68 97.63l-65.15 96.87c.32-7.24 1.17-13.82 2.67-19.49 8.22-30.8-30.43-148.59 11.59-192.46 42.01-43.86 63.55 1.57 61.57 17.45z" fill="#ed7d2b"/><path d="m732.86 986.81s-1.59-7.91-3.37-13.94c-.79-2.67 4.72-20.2 8.53-22.36s13.74 9.65 10.93 18.72c-1.44 4.66-3.81 19.81-3.81 19.81z" fill="#ffb27d"/><path d="m732.86 986.81s-2.07-4.58-3.94-5.33c-1.87-.74-3.88-8.24-5.25-11.21 0 0 1.33-1.94 3.65.56 1.42 1.53 4.57 6 4.57 6z" fill="#ffb27d"/><path d="m461.32 1013.4c-.4.83-.96 2.32-1.46 3.72-.01-.38-.01-.76-.02-1.13-.03-2.78-10.42-17.94-14.7-18.89s-10.31 13.25-4.97 21.1c2.74 4.03 9.44 17.83 9.44 17.83l11.08-5.72s.64-4.99 2.21-6.25 1.29-9.01 1.74-12.26c.01 0-1.83-1.47-3.32 1.6z" fill="#ffb27d"/><path d="m530.42 1682.14c-.93-8.87-1.16-32.2-1.16-32.2s23.77-7.6 22.9-2.38c-4.3 25.65-3.13 38.35-3.13 38.35l-9.61 5.74z" fill="#ffb27d"/><path d="m661.24 1315.23s-91.83 251.73-109.91 360.92c0 0-4.19 2.88-12 1.92-8.86-1.08-11.29-7.24-11.29-7.24s-16.59-130.87 16.38-176.31c22.65-31.21-9.77-168.31 42.99-179.3 52.77-10.98 73.83.01 73.83.01z" fill="#f99746"/><path d="m644.93 1073.08c0-.01 0-.01 0 0-.02-.12-.04-.23-.08-.33-.54-2.22-1.12-4.4-1.75-6.56 0-.01 0-.01 0-.01-1.92-6.62-4.21-12.92-6.68-18.49-1.42-3.19-2.89-6.15-4.4-8.78-.23-.41-.45-.79-.67-1.17l-.01-.01c-3.55-5.96-7.2-10.09-10.49-11.36-6-2.32-12.68-1.67-17.28-.72 1.01-1.41 3.3-2.21 3.3-2.21-2.94 0-8.94 3.8-8.94 3.8-42.3-9.46-39.82 50.37-36.94 63.93 2.87 13.56-10.75 20.15-29.95 34.03-36.65 26.48-36.04 54.54-36.04 54.54.33.14.69.3 1.07.49 1.47-3.63 4.6-10.5 7.88-11.96-.09.32-2.76 9.23-3.52 14.21 5.58 3.08 13.31 7.84 21.7 13.22 0 0 0 0 .01.01 11.23 7.18 23.61 15.45 33.54 22.16-.47-2.73-.94-6.63-.25-8.83l3.16 9.8.41 1.28c6.34 4.29 11.34 7.73 13.87 9.49.26.18.49.34.7.48.74.51 1.14.79 1.14.79-.84-3.46 2.85-12.49 9.06-23.87.43-.79.88-1.6 1.34-2.42 2-3.6 4.24-7.39 6.65-11.3.87-1.41 1.74-2.83 2.65-4.26 0-.01.01-.01.01-.01.73-1.16 1.47-2.31 2.23-3.48l.01-.01c1.8-2.78 3.66-5.58 5.56-8.38 4.92-7.26 10.12-14.47 15.27-21.08 7.47-9.63 14.8-18 20.94-23.47.2-.41.39-.84.56-1.26.96-2.23 1.7-4.71 2.27-7.23.18-.76.34-1.52.48-2.28 1.53-8.05 1.56-16.04 1.54-17.94.49 7.78.3 13.65-.22 18.08-.12.97-.25 1.87-.39 2.71v.01c-.33 1.89-.7 3.46-1.11 4.76 1-1.25 1.89-2.61 2.67-4.11.51-.97.98-2 1.39-3.07 4.93-12.66 3.6-31.51-.69-49.19z" fill="#163560"/><path d="m636.98 1133.7c.14.04-11.84 8.71-22.01 7.5-9.56-1.14-17.34-12.16-17.21-12.2 3.78-1.35 4.1-6.87.6-29.83l1.81.08 30.45 1.46s.71 9.41 2 18.18c1.08 7.35 2.56 14.27 4.36 14.81z" fill="#ffb27d"/><path d="m630.63 1100.7s.71 9.41 2 18.18c-16.62 2-27.61-11.8-32.44-19.64z" fill="#ed975d"/><path d="m596.64 1096.48s-10.71-12.41-14.54-23.82c-2.73-8.14-3.08-39.79 28.74-39.96 0 0 9.18-.46 18.55 4.03 7.45 3.56 18.68 11.98 11.79 40.66l-1.48 9.56z" fill="#163560"/><path d="m684.93 1310.4s-39.62 23.55-89.37 11.44c-.59-.14-40.96-6.59-40.96-6.59.69-1.9 5.91-33.09 6.59-34.83 8.83-22.77 24.95-146.38 38.43-152.48 3.44 3.75 13.28 6.31 21.69 5.57 9.69-.86 12.94-5.04 12.13-9.55 10.73 5.07 18.97 9.79 18.97 9.79 9.81 14.68 32.52 176.65 32.52 176.65z" fill="#fff"/><path d="m637.39 1108.18s-39.06 6.47-42.72-17.92c-3.65-24.39-11.16-39.98 13.63-45.14s31.04 3.42 34.24 11.26c3.19 7.85 4.91 49.49-5.15 51.8z" fill="#ffb27d"/><path d="m626.04 1041.87s-6.46 30.21-22.29 36.89c-15.82 6.68-23.62 3.33-23.62 3.33s11.13-11.9 11.15-29.79c0 0 24.65-22.84 34.76-10.43z" fill="#163560"/><path d="m623.73 1044.59s8.96 5.2 11.83 11.12c2.88 5.92 5.66 18.58 9.32 17.59 0 0 5.18-20.65-5.53-30.3-11.36-10.24-15.62 1.59-15.62 1.59z" fill="#163560"/><path d="m745.4 987.37c-1.59-.56-3.93-1.88-6.98-2.16-2.72-.24-6.14.64-6.14.64s-11.02 68.51-11.84 72.14-47.27 55.96-59.79 55.75c-11.31-.19-24.71 8.54-27.19 10.22 0 0 26.34 55.69 27.65 66.15 1.43 11.38 15.06 186.68 15.06 186.68s-.81 8.16 14.43 3.77c15.24-4.38 19.05-8.01 19.05-8.01s-14-138-16.93-180.92c-.39-5.76-1.33-11.09-2.67-16.01-1.29-4.74-.27-9.82 2.62-13.79 19.26-26.44 49.68-69.29 51.38-78.39 2.47-13.39 1.35-96.07 1.35-96.07z" fill="#2b478b"/><path d="m585.22 1715.15h-65.78s-1.58-10.02 1.86-17.63c3.29-7.3 8.42-11.8 8.88-17.39 4.18 4.3 9.32 7.07 18.83 5.79 1.17 1.89 7.52 12 11.41 14.79 4.31 3.09 23.48 1.99 24.8 14.44z" fill="#233862"/><path d="m630.41 1195.52c-2.22-13.64-30.52-68.42-30.52-68.42s-17.89-5.35-29.67-1.08-72.71-30.14-74.66-33.3c-1.95-3.17-34.59-63.98-34.59-63.98s-2.71-1.57-7.04.69c-4.29 2.24-4.31 6.6-4.31 6.6s25.19 76.57 31.89 88.41c4.04 7.14 38.01 32.01 64.35 50.63 5.03 3.56 7.67 9.61 6.84 15.71-3.54 26.18-4.44 40.93-8.52 85.85-3.38 37.27-4.67 109.42-4.67 109.42s29.47 10.2 49.82 11.55c20.34 1.35 24.77-20.09 24.77-20.09s18.59-167.96 16.31-181.99z" fill="#2b478b"/><path d="m624.59 1096.12s4.75 2.79 10.35 1.95c3.84-.58 4.71-5.13 4.71-5.13s-2.67-.84-6.93.01c-4.26.86-8.13 3.17-8.13 3.17z" fill="#fff"/><path d="m1872.25 631.22s-18.28-32.48 0-39.09 26.55-.51 27.42 6.88c.87 7.4-6.96 36.56-6.96 36.56z" fill="#ffb27d"/><path d="m1886.89 838.96c-33.33 6.01-63.97 8.79-91.62 9.41-26.25.59-49.81-.77-70.43-3.17-5.54-.64-10.85-1.35-15.96-2.12-53.96-8.18-83.75-22.69-83.75-22.69s49.3-103.2 89.12-99.24c46.72 4.66 125.9 46.58 133.77 34.83 8.86-13.25 16.28-126.86 16.28-126.86 20.72-14.19 33.08.77 33.08.77s40.47 199.88-10.49 209.07z" fill="#f99746"/><path d="m1886.89 838.96c-33.33 6.01-63.97 8.79-91.62 9.41-26.25.59-49.81-.77-70.43-3.17-12.43-39.53-21.37-79.91 3.63-55.57 44.11 42.94 158.42 49.33 158.42 49.33z" fill="#ed7d2b"/><path d="m1621.39 1672.18s-3.55 41.02 5.13 45.29l110.98-.23s0-12.81-17.83-15.65c-17.83-2.85-49.14-13.28-54.44-36.53-5.3-23.24-43.84 7.12-43.84 7.12z" fill="#233862"/><path d="m1702.87 1175.66c-.55 26.83-1.84 54.5-4.36 79.36-11.99 118-16.2 260.58-17.92 288.06-2.99 47.72-12.41 123.95-12.41 123.95s-18.7 17.75-55.14 9.28c0 0-30.2-109.79-36.94-225.4-.1-1.9-.21-3.8-.3-5.71-.78-15.29-1.6-32.76-2.44-51.61-5.55-126.23-11.58-313.74-11.58-313.74l139.27-32.7c-.02 0 3.19 61.63 1.82 128.51z" fill="#2a4e96"/><path d="m1702.87 1175.66c-35.29 60.89-102.57 173.08-129.52 217.93-5.55-126.23-11.58-313.74-11.58-313.74l139.27-32.7c-.01 0 3.2 61.63 1.83 128.51z" fill="#233862"/><path d="m1350.24 1057.7s-22.66 26.65-24.7 34.04-5.67 34.01-3.72 42.01c1.94 8 17.01-22.31 22.49-25.54 5.48-3.24-4.11 12.05-2.24 14.61 1.87 2.55 12.69-8.93 16.91-12.81s3.8-24.79 8.87-37.15-17.61-15.16-17.61-15.16z" fill="#ffb27d"/><path d="m1344.93 1625.56s-19.75 18.03-15.9 30.83c3.85 12.81 21.68 21.35 24.09 37s12.04 24.19 20.72 24.19h41.34s6.38-11.02-9.03-14.34c-15.42-3.32-21.23-21.72-20.27-38.79.96-17.08-1.45-39.85-1.45-39.85l-32.76-7.59z" fill="#233862"/><path d="m1679.09 1082.71s-130.37 278.94-199.75 401.33-91.06 156.55-91.06 156.55-39.75-15.66-43.36-26.33c0 0 26.53-236.28 72.99-293.88 26.25-32.55 57.09-130.22 58.54-164.37 1.45-34.16 31.9-115.68 31.9-115.68z" fill="#2a4e96"/><path d="m1717.2 1095.86s-51.84 34.66-125.22 31.44c-32.2-1.41-96.08-10.54-106.39-36.15-2.42-6.01-.65-13.64 2.99-25.36 9.42-30.44 31.39-88.41 24.76-216.94-.62-11.96-.28-23.2.86-33.73 6.91-63.31 43.19-100.8 78.26-113.05 85.52-29.89 114.03 11.52 114.03 11.52s37.8 29.95 43.5 92.45c11.39 125.04-32.79 289.82-32.79 289.82z" fill="#f99746"/><path d="m1617.52 694.91s39.24 23.87 81.8 17.12c0 0 8.41-2.14 4.28-12.02 2.59-7.97 2.28-7.25 3.78-13.18 3.73-13.63 4.87-21.5 4.87-21.5l-24.15-25.39-22.88-24.26c-6.32 57.98-47.7 79.23-47.7 79.23z" fill="#ffb27d"/><path d="m1661.56 637.67s13.14 35.13 45.82 49.16c3.73-13.63 6.16-27.9 6.16-27.9l-25.44-18.99z" fill="#ed985f"/><path d="m1739.35 664.1s-74.9 9.36-80.16-36.67-18.47-75.82 29.14-83.74c47.6-7.92 58.92 8.62 64.47 23.57 5.54 14.94 5.9 93.22-13.45 96.84z" fill="#ffb27d"/><path d="m1635.54 536.21c-.65-.8-2.18-1.48-5.64-1.8 0 0 2.84-1.63 6.55-1.58.91-4.8 3.8-13.24 12.18-15 0 0-4.55 2.21-5.33 7.32 9.99-9.51 30.86-15.92 87.75-9.26 74.96 8.78 48.36 55.98 38.41 61.35s-33.86-11.29-52.05-10.54-22.63 26.83-28.92 30.19-3.63-2.9-11.81-6.98-9.5 9.69-7.43 18.75-9.82 20.46-9.82 20.46 0 0-11.09-12.89-19.99-66.02-14.31-77.06c.5-.98 1-1.97 1.51-2.96z" fill="#2c3a64"/><path d="m1864.3 609.67-127.16 1.14-.87-19.13 126.76-9.83z" fill="#2a4e96"/><path d="m1960.29 612.87-138.45 2-1.58-34.78 138.05-10.7z" fill="#2a4e96"/><path d="m2053.64 615.6-116.75.14-2.13-46.95 116.28-10.58z" fill="#233862"/><path d="m2055.31 623.52c3.6-.16 6.39-3.22 6.23-6.82l-2.74-60.32c-.16-3.6-3.22-6.39-6.82-6.22-3.6.16-6.39 3.22-6.22 6.82l2.74 60.32c.16 3.6 3.21 6.39 6.81 6.22z" fill="#233862"/><path d="m1736.74 614.89c-3.2.15-5.92-2.33-6.06-5.53l-.71-15.65c-.15-3.2 2.33-5.91 5.53-6.06 3.2-.15 5.92 2.33 6.06 5.53l.71 15.65c.15 3.2-2.33 5.91-5.53 6.06z" fill="#2a4e96"/><path d="m1488.58 1065.8c9.42-30.44 31.39-88.41 24.76-216.94-.62-11.96-.28-23.2.86-33.73h.01c28.14-2.42 71.17 28.01 71.17 28.01s-26.5 161.54-96.8 222.66z" fill="#ed7d2b"/><path d="m1617.52 694.91s-72.17 12.41-109.81 58.36-98.19 110.74-112.5 133.43c-14.32 22.69-54.06 177.1-54.06 177.1s2.62 4.96 13.58 7.85c10.49 2.76 18.1-1.52 18.1-1.52s52.65-90.11 72.47-135.12c8.23-18.7 150.62-92.77 204.15-85.1 21.03 3-31.93-155-31.93-155z" fill="#f99746"/><path d="m1863.54 576.37s15.52 9.49 24.81 5.48c9.29-4.02 8.47-7.69 8.47-7.69s-28.06-7.79-33.28 2.21z" fill="#ffb27d"/><path d="m1687.55 745.24s-31.67 199.95-256.38 258.17l-24.48 48.29 43 7.28s255.82-74.11 252.38-317.28z" fill="#bc3f3f"/><path d="m1682.64 713.33-10.37 1.01v15.02l15.28 15.88 14.53-3.53v-20.84l-10.45-7.54z" fill="#a02e2e"/><path d="m1641.94 673.57s-10.04 2.27-32.99 21.34c0 0 22.83 48.46 70.99 54.26 0 0-.78-22.49 2.7-35.83 0-.01-38.17-13.68-40.7-39.77z" fill="#ed7d2b"/><path d="m1682.64 713.33s23.5 12.48 25.24 31.92c0 0 8.98-14.23 6.38-24.09-2.61-9.86-10.66-21.15-10.66-21.15s.8 11.87-20.96 13.32z" fill="#ed7d2b"/></svg>