<svg enable-background="new 0 0 1080 1080" viewBox="0 0 1080 1080" xmlns="http://www.w3.org/2000/svg"><path d="m897 695-101.11-18.68-8.35 47.37z" fill="#282a35"/><path d="m65.38 753.67h829.66" fill="none" stroke="#000" stroke-miterlimit="10"/><path d="m653.71 753.52c20.11-40.53 31.43-86.19 31.43-134.5 0-167.39-135.69-303.08-303.08-303.08s-303.08 135.69-303.08 303.08c0 48.31 11.32 93.97 31.43 134.5z" fill="#8639f7"/><path d="m352.74 370.38s2.35 28.22-7.15 40.54c-9.5 12.33-33.51 35.47-24.53 53.78s3.97 34.2-8.29 46.81c-6.85 7.04-13.65 18.71-13.65 18.71h67.23s9.12-63.18 9.46-64.18c.35-.99 15.89-50.52 15.55-51.15-.35-.63-12.09-26.97-12.78-28.13s-25.84-16.38-25.84-16.38z" fill="#282a35"/><path d="m657.69 492.81s39.97 86.63 73.72 135.32c33.74 48.69 57.54 70.8 42.19 125.38h-119.89l-17.59-130.35z" fill="#8639f7"/><path d="m705.29 394.43-108.49 56.38-27.51-80.42c-13.07.5-26.14 1.13-39.19 2.12-3.38.26-6.76.54-10.14.83l-4.52 98.81s27.12 56.07 44.49 70.39 34.44 2.74 34.44 2.74 85.55-63.69 97.44-66.43c11.88-2.74 12.8-12.57 14.63-19.2s7.54-8.68 16.91-8.84c9.37-.15 14.86-13.41 14.86-13.41z" fill="#2295f1"/><path d="m796.84 533.41h-291.24l-41 30.34 88.31 37.71 126.02-16.97 74.17 114.39h168.62l-117.71-157.75s-1.68-3.59-7.17-7.72z" fill="#c63c32"/><path d="m660.35 585.87 17.58-2.37 72.26 111.46c5.11-14.98 4.92-32.28-8.88-48.89-27.29-32.82-25.91-44.22-26.6-73.58s-42.84-38.41-42.84-38.41l-2.59 13.54s1.21 13.82.01 15.2c-.94 1.09-5.88 14.41-8.94 23.05z" fill="#282a35"/><path d="m563.53 692.92-11.63 60.34 52.49 25.46 31.42-19.17 13.2-69.46z" fill="#fff5c9"/><path d="m551.9 752.26-14.14 55.61 171.6.02-73.55-49.34-35.35 10.18z" fill="#282a35" stroke="#000" stroke-linecap="round" stroke-linejoin="round" stroke-miterlimit="10"/><path d="m508.53 235.13s-16.74-14.14-55.16-8.01-51.62 75.66-57.28 93.1-42.66 62.93-42.66 62.93l71.66 7 140.01-21.62s-19.09-55.39-36.54-73.78c.01.01 11.32-36.29-20.03-59.62z" fill="#d06d6b"/><path d="m376.54 555.11s-33 96.9 19.8 95.64l165.94.01-6.91 47.13h128.85l13.36-128.54s4.24-29.23-24.04-29.23h-289.93z" fill="#de4a39"/><path d="m669.29 523.63h-90.75c-4.56 0-8.25 3.69-8.25 8.25s3.69 8.25 8.25 8.25h90.75z" fill="#f1f1f1"/><path d="m809.06 523.63h-139.78v16.5h139.78c4.56 0 8.25-3.69 8.25-8.25s-3.7-8.25-8.25-8.25z" fill="#f9fdff"/><path d="m818.1 514.14c-1.65 5.24-8.05 9.49-14.3 9.49h-128.85c-6.25 0-9.98-4.25-8.33-9.49l39.28-124.8c1.65-5.24 8.05-9.49 14.3-9.49h128.85c6.25 0 9.98 4.25 8.33 9.49z" fill="#8639f7"/><path d="m826.94 514.14c-1.65 5.24-8.05 9.49-14.3 9.49h-128.85c-6.25 0-9.98-4.25-8.33-9.49l39.28-124.8c1.65-5.24 8.05-9.49 14.3-9.49h128.86c6.25 0 9.98 4.25 8.33 9.49z" fill="#f1f1f1"/><path d="m784.19 452.21c-3.06 10.55-10.29 17.73-16.14 16.03s-8.11-11.63-5.05-22.18 10.29-17.73 16.15-16.03c5.84 1.7 8.1 11.63 5.04 22.18z" fill="#fff"/><path d="m526.92 349.68h-138.12s-41.96-7.07-35.36 33.47 30.17 156.98 30.17 156.98 68.83 34.89 70.24 30.64c17.37-52.12 100.54-29.71 104.18-30.64l12.26-160.28s4.71-30.17-43.37-30.17z" fill="#2295f1"/><path d="m508.53 239.12v49.98s-2.36 24.99-26.87 24.28l2.36 36.3h30.5s-9.74 28.52-33.57 35.06c-6.98 1.91-43.72 11.14-70.36-35.06h21.1l18.56-60.15s9.89 9.24 5.17-16.22c0 0 49.03-.4 53.11-34.19z" fill="#fff5c9"/><path d="m600.46 540.13h68.83" fill="none" stroke="#000" stroke-miterlimit="10"/><path d="m681.36 523.4h127.7" fill="none" stroke="#000" stroke-miterlimit="10"/><path d="m714.71 540.13h77.04" fill="none" stroke="#000" stroke-miterlimit="10"/><path d="m647.34 697.89-88.06 16.1 3.1-16.1z" fill="#282a35"/><path d="m636.12 765.08-21.25 7.43" fill="none" stroke="#fff" stroke-miterlimit="10"/><path d="m643.08 770.55-22.22 8.06" fill="none" stroke="#fff" stroke-miterlimit="10"/><path d="m647.81 775.62-18.31 7.14" fill="none" stroke="#fff" stroke-miterlimit="10"/><path d="m562.27 650.77 41.04-47.53-67.55 47.52z" fill="#282a35"/><g fill="none"><path d="m697.57 569.36-7.52 72.32" stroke="#fff" stroke-miterlimit="10"/><path d="m804.53 556.85v48.67" stroke="#fff" stroke-miterlimit="10"/><path d="m821.11 598.75v42.93" stroke="#fff" stroke-miterlimit="10"/><path d="m839.77 620.21v15.85" stroke="#fff" stroke-miterlimit="10"/><path d="m666.23 575.26-33.42 33.42" stroke="#fff" stroke-miterlimit="10"/><path d="m711.57 399.43-32.48 103.18" stroke="#000" stroke-miterlimit="10"/><path d="m729.04 379.85h130.33" stroke="#000" stroke-linecap="round" stroke-miterlimit="10"/><path d="m864.81 393.82-7.03 22.35" stroke="#000" stroke-miterlimit="10"/><path d="m853.49 429.78-19.84 63.03" stroke="#000" stroke-miterlimit="10"/><path d="m700.4 406.82-21.31 67.72" stroke="#000" stroke-miterlimit="10"/></g><path d="m594.76 498.31s26.35-11.44 34.24.84c0 0-17.98 3.97-24.2 10.99-6.22 7.03-16.1 11.82-16.8 10.92s.89-19.75 1.03-20.13c.13-.36 5.73-2.62 5.73-2.62z" fill="#efe6bf"/><path d="m600.38 494.16s1.08 15.97-4.56 26.38" fill="none" stroke="#f9f9f9" stroke-miterlimit="10"/><path d="m619.5 473.5s9.31 4.79 9.16 12.46c-.15 7.66-1.43 19.94 7.39 21.36l.48-7.47s1.46 2.48 6.17 3.66c4.71 1.19-2.85-28.77-2.85-28.77l-14.67-5.26z" fill="#fff5c9"/><path d="m639.85 474.74-14.67-5.26-5.68 4.02s2.92 1.51 5.47 4.18c5.18-2.02 11.93-.62 15.7.48-.48-2.08-.82-3.42-.82-3.42z" fill="#2a71d8"/><path d="m545.61 486.78s50.92-12.55 62.79-20.73c11.88-8.18 16.88-15.5 33.2-18.78 0 0 1.61 4.69-2.88 7.63s-10.18 4.39-13.89 10.65c-3.71 6.25-17.93 52.9-36.59 61.15-18.66 8.26-33.14 13.43-33.14 13.43l-25.86-31.43 15.31-21.37z" fill="#fff5c9"/><path d="m620.02 464s25.72 5.01 38.1 14.98c0 0-2.05 3.47-8.55 1.08-6.49-2.39-23.57-10.61-36.41-1.54s4.99-11.38 4.99-11.38z" fill="#fff5c9"/><path d="m608.41 466.05s-8.46 8.59-13.35 16.09" fill="none" stroke="#000" stroke-miterlimit="10"/><path d="m625.09 465.15s-2.03 4.26-4.31 9.93" fill="none" stroke="#000" stroke-miterlimit="10"/><path d="m630.84 474.57s8.71 4.38 5.69 25.27" fill="none" stroke="#000" stroke-miterlimit="10"/><path d="m492.66 288.24c0 5.45 4.42 9.86 9.86 9.86 1.36 0 2.64-.27 3.82-.77 1.83-4.52 2.19-8.23 2.19-8.23v-8.68c-1.66-1.28-3.74-2.05-6.01-2.05-5.44 0-9.86 4.42-9.86 9.87z" fill="#f4e9bd"/><path d="m495.83 294.92c2.03-1.39 1.11-3.28-.42-6.42-.97-1.99-2.17-4.46-3.16-7.76-.72-2.37-.57-4.47.43-6.26 1.85-3.3 6.01-4.42 6.05-4.44l-.13-.5c-.18.05-4.42 1.2-6.37 4.68-1.07 1.91-1.23 4.15-.47 6.66 1.01 3.33 2.22 5.83 3.2 7.83 1.6 3.3 2.19 4.68.59 5.77z"/><path d="m491.57 299.78.1-.5c-.05-.01-5.16-1.02-7.21-4.12-.79-1.2-1.03-2.57-.71-4.07l-.5-.11c-.35 1.64-.09 3.15.79 4.46 2.16 3.28 7.31 4.3 7.53 4.34z"/><path d="m479.45 276.61c-.1.84.3 1.59.89 1.66s1.16-.56 1.26-1.4c.1-.85-.3-1.59-.89-1.66s-1.16.55-1.26 1.4z" fill="#190a10"/><path d="m499.68 278.17c-.1.84.3 1.59.89 1.66.6.07 1.16-.56 1.26-1.4.1-.85-.3-1.59-.89-1.66s-1.16.56-1.26 1.4z" fill="#190a10"/><path d="m467.63 277.37.12-.5-21.4-5.48-.12.5z" fill="#fff"/><path d="m484.04 271.94s1.7.55 1.51 2.51-4.7-1.11-9.71.76c-5.01 1.88-5.5-4.86 1.13-5.9 6.65-1.05 7.07 2.63 7.07 2.63z" fill="#ed9c96"/><path d="m504.73 272.54s1.49.48 1.32 2.19-4.1-.97-8.48.67-4.8-4.25.99-5.16c5.8-.91 6.17 2.3 6.17 2.3z" fill="#ed9c96"/><path d="m483.53 268.72s2.97.69 2.76 2.36-10.25-2.73-16.1 1.73c-5.86 4.47-.19-6.65 13.34-4.09z" fill="#190a10"/><path d="m509.66 272.52s-13.62-5.31-16.16-3.34c-2.53 1.97 9.44 3.75 16.16 3.34z" fill="#190a10"/><path d="m492.78 275.12c.63-5.29 5.45-9.08 10.74-8.45s9.08 5.45 8.45 10.74-5.45 9.08-10.74 8.45c-5.3-.63-9.08-5.45-8.45-10.74zm.51.07c-.6 5.01 2.99 9.57 8 10.17s9.57-2.99 10.17-8-2.99-9.57-8-10.17c-5.02-.6-9.58 2.99-10.17 8z" fill="#fff"/><path d="m459.98 288.24c0 5.45 4.42 9.86 9.86 9.86 5.45 0 9.86-4.42 9.86-9.86 0-5.45-4.42-9.86-9.86-9.86-5.44-.01-9.86 4.41-9.86 9.86z" fill="#f4e9bd"/><path d="m467.5 276.25c.75-6.27 6.46-10.76 12.73-10.02 6.27.75 10.77 6.46 10.02 12.73s-6.46 10.76-12.73 10.01c-6.27-.74-10.77-6.45-10.02-12.72zm.51.06c-.72 5.99 3.58 11.44 9.57 12.16s11.45-3.58 12.16-9.56c.71-5.99-3.58-11.45-9.57-12.16-5.99-.72-11.44 3.57-12.16 9.56z" fill="#fff"/><path d="m481.66 313.38s-17.58-1.88-24.21-9.83c0 0 4.22 23.68 25.95 36.68z" fill="#282a35"/><path d="m522.29 650.76 39.98.01" fill="none" stroke="#000" stroke-miterlimit="10"/><path d="m689.11 650.77h31.42" fill="none" stroke="#000" stroke-miterlimit="10"/><path d="m596.8 450.81-8.98 18.22 3.22-35.08z" fill="#282a35"/><path d="m567.51 542.94s-1.35 14.35-14.48 15.73-29.4 16.81-31.97 30.17v-42.61l15.85-6.45z" fill="#282a35"/><path d="m413.2 378.9 19.08 112.14 132.5-11.36 4.14 61.79s-8.63 10.51-20.2 6.4c-11.58-4.12-15.57-3.81-21.88.95s-6.31 7.73-15.99 3.16-92.59 4.11-92.59 4.11-23.99 5.71-30.93-14.4-33.88-157.93-33.88-157.93z" fill="#2295f1"/><path d="m447.76 501.3c-.87 1.12-1.79 2.22-2.81 3.24-.23.23-.46.46-.69.69-5.63 5.63-13.74 8.67-21.65 8.53-8.03-.14-15.76-3.5-21.34-9.28-5.58-5.77-8.67-13.62-8.53-21.65.14-8.15 3.56-15.62 9.28-21.34l.69-.69c4.21-4.21 9.8-6.96 15.66-8.03-6.79-6.68-17.52-17.68-18.5-18-1.38-.46-47.14-60.45-47.14-60.45v187.4l128.21 2.02c.01 0-17.54-33.21-33.18-62.44z" fill="#2295f1"/><path d="m352.74 390.96s2.35 27.81-5.94 43.7-12.78 19.8-4.49 33.22 12.89 13.56 3.16 31.97-15.68 34.24-4.2 34.24h12.17z" fill="#2295f1"/><path d="m554.59 480.55 3.45 63.27" fill="none" stroke="#000" stroke-miterlimit="10"/><path d="m521.06 538.52c0-4.58-3.71-8.29-8.29-8.29h-261.44c-4.58 0-8.29 3.71-8.29 8.29v153.27c0 4.58 3.71 8.29 8.29 8.29h261.44c4.58 0 8.29-3.71 8.29-8.29z" fill="#8639f7"/><path d="m521.06 557.86v65.64" fill="none" stroke="#000" stroke-miterlimit="10"/><path d="m291.39 530.22h204.52" fill="none" stroke="#000" stroke-miterlimit="10"/><path d="m344.21 397.46s-56.72 5.84-98.17 43.22" fill="none" stroke="#000" stroke-miterlimit="10"/><path d="m241.43 447.93s-16.58 14-24.87 35.95" fill="none" stroke="#000" stroke-miterlimit="10"/><path d="m455.42 273.31s-5.85-4.78-11.64-2.17-5.1 19.71 12 21.09c0 0 4.32-6.48 4.19-6.82-.13-.35-1.02-4.16-.71-4.41.32-.25-.63-3.68-.72-4.08-.07-.4-3.12-3.61-3.12-3.61z" fill="#fff5c9"/><path d="m450.1 275.74s-.33-2.86-3.44-2.28-2.88 6.16-.4 8.75 2.76 4.32 3.25 5.01 3.76.32 1.92-5.14-1.33-6.34-1.33-6.34z" fill="#efe5b9"/><path d="m452.33 286.02-2.67-11.19" fill="none" stroke="#000" stroke-miterlimit="10" stroke-width=".5"/><path d="m445.21 279.17 5.92 1.83" fill="none" stroke="#000" stroke-miterlimit="10" stroke-width=".5"/><path d="m508.53 235.13s-37.37 15.05-77.1 8.84" fill="none" stroke="#fff" stroke-miterlimit="10" stroke-width=".5"/><path d="m507.53 235.51s-18.4 33.67-77.65 23.31" fill="none" stroke="#fff" stroke-miterlimit="10" stroke-width=".5"/><path d="m438.59 260.06s-8.88 6.82-13.37 38.02c-4.49 31.21-22.8 51.12-22.8 51.12" fill="none" stroke="#fff" stroke-miterlimit="10" stroke-width=".5"/><path d="m426.25 257.43s-7.31 6.95-15.66 36.99c-8.35 30.03-12.49 51.9-23.89 54.79" fill="none" stroke="#fff" stroke-miterlimit="10" stroke-width=".5"/><path d="m508.53 236.48s25.34 44.66-1 71.39l18.33 41.34" fill="none" stroke="#fff" stroke-miterlimit="10" stroke-width=".5"/><path d="m492.96 312.94 9.57 36.74" fill="none" stroke="#fff" stroke-miterlimit="10" stroke-width=".5"/><path d="m417.73 349.68s20.25 29.65 44.82 31.2c24.58 1.55 42.46-22.55 43.61-31.2h8.35s-9.04 41.56-54.06 37.65c0 0-30.4 1.63-51.13-37.65z" fill="#fff"/><path d="m431.09 349.84c1.87 7.06 4.21 14.03 6.75 20.88 4.54 12.27 9.85 24.81 17.83 35.28 3.23 4.25 7.1 8.43 12.01 10.74 4.41 2.07 9.19 2.09 13.59-.03 13.56-6.55 14.81-22.76 12.88-35.94-1.55-10.61-4.91-21.13-9.34-30.89-.08-.17-.16-.35-.24-.52-.34-.73-1.42-.09-1.08.63 3.76 7.95 6.53 16.57 8.37 25.14 2.66 12.37 4.05 29.18-7.14 37.97-4.09 3.21-9.18 4.94-14.28 3.38-4.9-1.5-8.85-5.27-12.07-9.1-4.08-4.86-7.34-10.4-10.23-16.02-2.99-5.8-5.58-11.81-7.92-17.89-2.98-7.74-5.48-15.62-7.81-23.58-.04-.12-.07-.25-.1-.38-.22-.77-1.43-.44-1.22.33z" fill="#fff"/><path d="m435.09 349.21c0 1.88-1.52 3.4-3.4 3.4s-3.4-1.52-3.4-3.4 1.52-3.4 3.4-3.4c1.88-.01 3.4 1.52 3.4 3.4z" fill="#fff"/><path d="m432.53 350.76c-1.88 0-3.4-1.52-3.4-3.4 0-.14.02-.28.04-.42-.54.6-.88 1.39-.88 2.26 0 1.88 1.52 3.4 3.4 3.4 1.73 0 3.15-1.3 3.36-2.98-.62.7-1.51 1.14-2.52 1.14z" fill="#e8e6dd"/><path d="m439.93 364.32c0 1.88-1.52 3.4-3.4 3.4s-3.4-1.52-3.4-3.4 1.52-3.4 3.4-3.4 3.4 1.52 3.4 3.4z" fill="#fff"/><path d="m437.37 365.88c-1.88 0-3.4-1.52-3.4-3.4 0-.14.03-.28.04-.42-.54.6-.88 1.39-.88 2.26 0 1.88 1.52 3.4 3.4 3.4 1.73 0 3.15-1.3 3.36-2.98-.62.69-1.52 1.14-2.52 1.14z" fill="#e8e6dd"/><path d="m445.89 381.51c0 1.88-1.52 3.4-3.4 3.4s-3.4-1.52-3.4-3.4 1.52-3.4 3.4-3.4 3.4 1.52 3.4 3.4z" fill="#fff"/><path d="m443.32 383.07c-1.88 0-3.4-1.52-3.4-3.4 0-.14.03-.28.04-.42-.54.6-.88 1.39-.88 2.26 0 1.88 1.52 3.4 3.4 3.4 1.73 0 3.15-1.3 3.36-2.98-.61.69-1.51 1.14-2.52 1.14z" fill="#e8e6dd"/><path d="m453.66 396.71c0 1.88-1.52 3.4-3.4 3.4s-3.4-1.52-3.4-3.4 1.52-3.4 3.4-3.4 3.4 1.52 3.4 3.4z" fill="#fff"/><path d="m451.1 398.27c-1.88 0-3.4-1.52-3.4-3.4 0-.14.02-.28.04-.42-.54.6-.88 1.39-.88 2.26 0 1.88 1.52 3.4 3.4 3.4 1.73 0 3.15-1.3 3.36-2.98-.62.69-1.52 1.14-2.52 1.14z" fill="#e8e6dd"/><path d="m462.55 410.36c0 1.88-1.52 3.4-3.4 3.4s-3.4-1.52-3.4-3.4 1.52-3.4 3.4-3.4 3.4 1.52 3.4 3.4z" fill="#fff"/><path d="m459.99 411.92c-1.88 0-3.4-1.52-3.4-3.4 0-.14.02-.28.04-.42-.54.6-.88 1.39-.88 2.26 0 1.88 1.52 3.4 3.4 3.4 1.73 0 3.15-1.3 3.36-2.98-.62.69-1.52 1.14-2.52 1.14z" fill="#e8e6dd"/><circle cx="472.19" cy="417.16" fill="#fff" r="3.4"/><path d="m473.03 418.72c-1.88 0-3.4-1.52-3.4-3.4 0-.14.02-.28.04-.42-.54.6-.88 1.39-.88 2.26 0 1.88 1.52 3.4 3.4 3.4 1.73 0 3.15-1.3 3.36-2.98-.62.69-1.52 1.14-2.52 1.14z" fill="#e8e6dd"/><path d="m492.09 409.99c0 1.88-1.52 3.4-3.4 3.4s-3.4-1.52-3.4-3.4 1.52-3.4 3.4-3.4 3.4 1.52 3.4 3.4z" fill="#fff"/><path d="m489.52 411.55c-1.88 0-3.4-1.52-3.4-3.4 0-.14.02-.28.04-.42-.54.6-.88 1.39-.88 2.26 0 1.88 1.52 3.4 3.4 3.4 1.73 0 3.15-1.3 3.36-2.98-.61.69-1.51 1.14-2.52 1.14z" fill="#e8e6dd"/><path d="m497.69 393.31c0 1.88-1.52 3.4-3.4 3.4s-3.4-1.52-3.4-3.4 1.52-3.4 3.4-3.4 3.4 1.52 3.4 3.4z" fill="#fff"/><path d="m495.12 394.86c-1.88 0-3.4-1.52-3.4-3.4 0-.14.02-.28.04-.42-.54.6-.88 1.39-.88 2.26 0 1.88 1.52 3.4 3.4 3.4 1.73 0 3.15-1.3 3.36-2.98-.62.7-1.51 1.14-2.52 1.14z" fill="#e8e6dd"/><path d="m496.36 378.11c0 1.88-1.52 3.4-3.4 3.4s-3.4-1.52-3.4-3.4 1.52-3.4 3.4-3.4 3.4 1.52 3.4 3.4z" fill="#fff"/><path d="m493.79 379.66c-1.88 0-3.4-1.52-3.4-3.4 0-.14.02-.28.04-.42-.54.6-.88 1.39-.88 2.26 0 1.88 1.52 3.4 3.4 3.4 1.73 0 3.15-1.3 3.36-2.98-.62.7-1.51 1.14-2.52 1.14z" fill="#e8e6dd"/><path d="m492.96 363.42c0 1.88-1.52 3.4-3.4 3.4s-3.4-1.52-3.4-3.4 1.52-3.4 3.4-3.4 3.4 1.52 3.4 3.4z" fill="#fff"/><path d="m490.39 364.98c-1.88 0-3.4-1.52-3.4-3.4 0-.14.03-.28.04-.42-.54.6-.88 1.39-.88 2.26 0 1.88 1.52 3.4 3.4 3.4 1.73 0 3.15-1.3 3.36-2.98-.62.7-1.51 1.14-2.52 1.14z" fill="#e8e6dd"/><path d="m487.75 349.78c0 1.88-1.52 3.4-3.4 3.4s-3.4-1.52-3.4-3.4 1.52-3.4 3.4-3.4 3.4 1.52 3.4 3.4z" fill="#fff"/><path d="m485.19 351.33c-1.88 0-3.4-1.52-3.4-3.4 0-.14.02-.28.04-.42-.54.6-.88 1.39-.88 2.26 0 1.88 1.52 3.4 3.4 3.4 1.73 0 3.15-1.3 3.36-2.98-.62.7-1.52 1.14-2.52 1.14z" fill="#e8e6dd"/><path d="m191 667.15c20.73-64.25 8.98-90.51-15.2-178.75-21.77-79.43 38.75-122.03 51.05-129.75-88.56 52.91-147.88 149.7-147.88 260.36 0 48.31 11.32 93.97 31.43 134.5h122.01c-37.21-21.72-51.92-53.79-41.41-86.36z" fill="#dddacc"/><path d="m276.47 462.87c-2.77 3.46-5.34 7.07-7.63 10.86-2.25 3.81-4.33 7.71-6.14 11.75-3.64 8.06-6.49 16.44-8.93 24.94-2.46 8.49-4.52 17.11-6.62 25.71-1.03 4.3-2.01 8.61-2.84 12.93s-1.47 8.68-2.03 13.04c-1.03 8.74-1.52 17.54-1.63 26.35-.09 8.81.16 17.64.58 26.46.43 8.83 1.01 17.66 1.57 26.51l1.68 26.53c.05.84-1.15 1.59-2.7 1.68-1.54.08-2.84-.53-2.89-1.38v-.02l-.98-26.57c-.32-8.85-.67-17.72-.87-26.6-.19-8.89-.21-17.79.11-26.7.35-8.9 1.08-17.8 2.35-26.64.68-4.41 1.45-8.81 2.41-13.16s2.06-8.66 3.21-12.95c2.33-8.56 4.62-17.13 7.32-25.6 2.67-8.47 5.76-16.83 9.63-24.83 1.92-4.01 4.12-7.87 6.47-11.63 2.4-3.74 5.07-7.29 7.93-10.68z"/><path d="m409.68 402.35s-48.42-.79-140.55 75.97c0 0 52.48-75.57 140.55-75.97z" fill="#1f2109"/><path d="m257.09 449.99s-4.19-44.49 20.42-59.67c0 0-.17 17.27-4.27 25.39 0 0 10.56-22.25 31.23-30.89 0 0-14.03 16.3-20.15 39.26 0 0 23.56-37.43 50.78-45.28 0 0-29.31 14.13-39.78 46.07 0 0 18.84-43.71 68.84-26.96 0 0-32.19-6.8-49.73 16.49l-19.11 25.91-33.12 15.18z" fill="#393f14"/><path d="m273.24 453.91s13.96-24.99 35.81-18.84c0 0 14.79 4.32 15.18 16.23 0 0-2.62-15.31-20.28-12.82 0 0-12.17.36-39.78 33.55-.01 0 6.86-14.74 9.07-18.12z" fill="#6c7f2a"/><path d="m159.67 392.21c7.06 9.81 13.02 20.42 17.95 31.48 4.9 11.07 8.97 22.51 12.42 34.11 3.48 11.6 6.48 23.33 9.37 35.07l8.65 35.22c11.51 46.95 23.29 93.91 31.97 141.62.21 1.14-.85 2.28-2.38 2.54-1.52.27-2.92-.43-3.13-1.56 0-.01 0-.02-.01-.03-7.72-47.62-18.58-94.75-29.18-141.93l-7.97-35.38c-2.66-11.79-5.42-23.54-8.67-35.17-3.22-11.63-7.05-23.09-11.72-34.22-4.69-11.11-10.43-21.8-17.3-31.75z" fill="#393f14"/><path d="m210.57 401.63 3.19 16.51c1.06 5.5 2.16 11 3.09 16.53.94 5.53 1.64 11.12 1.95 16.74.33 5.61.36 11.24.33 16.84-.29 22.41.64 44.78 2.12 67.13.73 11.17 1.57 22.35 2.4 33.53.84 11.17 1.68 22.34 2.81 33.46 1.12 11.12 2.49 22.2 4.4 33.16 1.88 10.97 4.33 21.82 7.49 32.44.29 1.01-.66 2.19-2.14 2.64s-2.92-.03-3.23-1.07c0-.01-.01-.02-.01-.03-3.02-10.93-5.28-22.04-6.95-33.2-1.71-11.16-2.86-22.37-3.75-33.57-.9-11.21-1.51-22.41-2.12-33.61-.61-11.19-1.21-22.39-1.71-33.6s-.88-22.42-1.03-33.65c-.17-11.22-.04-22.46.31-33.66.14-5.6.23-11.19.02-16.77-.2-5.58-.78-11.14-1.6-16.68-.81-5.54-1.81-11.05-2.75-16.58z"/><path d="m258.96 483.75s-24.72-35.74-27-43.45c0 0 17.27 10.48 25.13 20.03 0 0 8.71 29.7 1.87 23.42z" fill="#393f14"/><path d="m189.57 459.41s1.05 74.86 12.83 98.94c-.01 0 22.24-62.3-12.83-98.94z" fill="#1f2109"/><path d="m149.52 446.62s8.38 9.52 10.08 18.16c0 0 18.58 43.58 29.97 53.39 0 0-36.51-31.61-40.05-71.55z" fill="#393f14"/><path d="m291.76 669.32h-91.87c-28.94 44.49 8.08 106.83 8.08 106.83 0 1.95 16.95 3.53 37.85 3.53s37.85-1.58 37.85-3.53c36.76-59.19 8.09-106.83 8.09-106.83z" fill="#ababad"/><path d="m214.87 731.28c1.83 1.01 2.49 3.32 1.47 5.15-1.01 1.83-3.32 2.48-5.14 1.47-1.83-1.01-2.49-3.32-1.47-5.14 1.01-1.84 3.31-2.5 5.14-1.48z" fill="#a39d98"/><path d="m224.94 753.88c.82.45 1.11 1.48.66 2.3s-1.48 1.11-2.3.66-1.11-1.48-.66-2.3c.46-.82 1.49-1.11 2.3-.66z" fill="#82807f"/><path d="m200.86 725.89c.82.46 1.11 1.48.66 2.3s-1.48 1.11-2.3.66-1.11-1.48-.66-2.3c.46-.82 1.49-1.11 2.3-.66z" fill="#82807f"/><path d="m232.63 743.53c.82.45 1.11 1.48.66 2.3s-1.48 1.11-2.3.66-1.11-1.48-.66-2.3 1.48-1.11 2.3-.66z" fill="#82807f"/><path d="m228.54 733.08c.82.45 1.11 1.48.66 2.3s-1.48 1.11-2.3.66-1.11-1.48-.66-2.3 1.48-1.12 2.3-.66z" fill="#b5b0ac"/><path d="m223.02 764.31c.82.45 1.11 1.48.66 2.3s-1.48 1.11-2.3.66-1.11-1.48-.66-2.3c.46-.82 1.49-1.11 2.3-.66z" fill="#b5b0ac"/><path d="m207.72 751.94c.82.45 1.11 1.48.66 2.3s-1.49 1.11-2.3.66c-.82-.45-1.11-1.48-.66-2.3s1.48-1.12 2.3-.66z" fill="#d4ccc7"/><path d="m257.92 740.86c-.03.93-.8 1.67-1.74 1.64-.94-.02-1.67-.8-1.65-1.73s.8-1.67 1.74-1.65c.94.03 1.67.81 1.65 1.74z" fill="#82807f"/><path d="m247.78 743.98c-.02.93-.8 1.67-1.74 1.65-.93-.03-1.67-.8-1.64-1.74.02-.93.8-1.67 1.74-1.65.93.02 1.67.8 1.64 1.74z" fill="#b5b0ac"/><path d="m199.9 704.77c-.02.93-.8 1.67-1.74 1.65s-1.67-.8-1.65-1.74c.02-.93.8-1.67 1.74-1.65.94.03 1.67.81 1.65 1.74z" fill="#b5b0ac"/><path d="m251.69 724.69c-.02.94-.8 1.67-1.74 1.65-.93-.02-1.67-.8-1.64-1.74.02-.94.8-1.67 1.74-1.64.93.02 1.66.79 1.64 1.73z" fill="#d4ccc7"/><path d="m237.58 753.59c-.02.93-.8 1.67-1.74 1.65s-1.67-.8-1.65-1.74.8-1.67 1.74-1.65 1.67.8 1.65 1.74z" fill="#d4ccc7"/><path d="m225.23 708.3c.82.45 1.11 1.48.66 2.3s-1.49 1.11-2.3.66c-.82-.45-1.11-1.48-.66-2.3.46-.81 1.48-1.11 2.3-.66z" fill="#d4ccc7"/><path d="m280.22 712.63c-1.67-.96-2.23-3.1-1.27-4.76.96-1.67 3.1-2.23 4.76-1.27 1.66.97 2.23 3.1 1.27 4.76-.96 1.67-3.09 2.23-4.76 1.27z" fill="#a39d98"/><path d="m271.32 691.64c-.75-.43-1-1.38-.57-2.13.43-.74 1.39-1 2.13-.57s1 1.39.57 2.13c-.43.75-1.38 1-2.13.57z" fill="#82807f"/><path d="m293.03 717.82c-.74-.43-1-1.38-.57-2.13.43-.74 1.39-1 2.13-.57s1 1.38.57 2.13-1.39 1-2.13.57z" fill="#82807f"/><path d="m264.07 701.05c-.74-.43-1-1.38-.57-2.13.43-.74 1.38-1 2.13-.57.74.43 1 1.39.57 2.13-.43.75-1.38 1-2.13.57z" fill="#82807f"/><path d="m267.66 710.74c-.74-.43-1-1.38-.57-2.13s1.39-1 2.13-.57 1 1.38.57 2.13-1.38 1-2.13.57z" fill="#b5b0ac"/><path d="m273.26 682.07c-.74-.43-1-1.38-.57-2.13.43-.74 1.39-1 2.13-.57s1 1.38.57 2.13-1.39 1-2.13.57z" fill="#b5b0ac"/><path d="m287.15 693.72c-.75-.43-1-1.38-.57-2.13.43-.74 1.39-1 2.13-.57s1 1.38.57 2.13-1.39 1-2.13.57z" fill="#d4ccc7"/><path d="m240.74 703.08c.04-.86.77-1.52 1.63-1.49.86.04 1.52.77 1.49 1.63-.04.86-.77 1.53-1.63 1.49s-1.53-.77-1.49-1.63z" fill="#82807f"/><path d="m250.12 700.39c.04-.86.77-1.53 1.63-1.49s1.53.77 1.49 1.63-.77 1.52-1.63 1.49c-.86-.05-1.53-.77-1.49-1.63z" fill="#b5b0ac"/><path d="m293.56 737.28c.04-.86.77-1.53 1.63-1.49s1.53.77 1.49 1.63-.77 1.53-1.63 1.49-1.52-.77-1.49-1.63z" fill="#b5b0ac"/><path d="m246.21 718.08c.04-.86.77-1.52 1.63-1.49.86.04 1.52.77 1.49 1.63-.04.86-.77 1.53-1.63 1.49-.87-.04-1.53-.77-1.49-1.63z" fill="#d4ccc7"/><path d="m259.68 691.71c.04-.86.77-1.53 1.63-1.49s1.52.77 1.49 1.63c-.04.86-.77 1.53-1.63 1.49s-1.53-.77-1.49-1.63z" fill="#d4ccc7"/><path d="m270.3 733.61c-.74-.43-1-1.38-.57-2.13.43-.74 1.39-1 2.13-.57.75.43 1 1.38.57 2.13-.44.75-1.39 1-2.13.57z" fill="#d4ccc7"/><path d="m221.19 382.72s39.18 26.3 42.45 71.85l-8.77.92c0-.01-25.33-36.61-33.68-72.77z" fill="#6c7f2a"/><path d="m18 374.48s8.36 12.64 33.76-1.18c0 0-10.99 6.54-16.88 12.3 0 0 24.73-19.48 52.61-16.28 0 0-14.13-.73-26.7 10.26 0 0 20.02-12.17 49.08-6.28 0 0 69.1 15.34 100.51 88.94 0 0 8.12-69.52-24.6-108.68 0 0-10.56-12.06-18.89-30.52 0 0 5.02 21.98 12.87 30.23 0 0-17.67-24.73-43.58-38.47 0 0 21.98 14.92 27.48 24.34 0 0 11.78 19.63 20.02 24.73 0 0 3.29 26.05 8.52 41.49 5.22 15.44-.36 3.29-.36 3.29l-21.11-39.34s-20.02-35.28-48.68-22.91c0 0 22.38-2.94 34.55 27.68 0 0-14.13-8.25-20.81-15.31 0 0-10.6-18.06-35.73-5.89 0 0 18.84-6.28 27.87 7.85 0 0 5.76 9.03 11.12 10.6 0 0-28-4.32-33.5-11.39 0 0-3.93-4.71-17.67-3.53 0 0-7.06.39-18.45 4.71 0 0 18.85-5.89 30.23 1.57 0 0-12.95-6.78-46.33 6.62 0 .01-25.12 13.81-35.33 5.17" fill="#1f2109"/><path d="m291.76 669.32c0-1.95-20.57-3.53-45.93-3.53-25.37 0-45.94 1.58-45.94 3.53s20.57 3.53 45.94 3.53c25.36.01 45.93-1.58 45.93-3.53z" fill="#9f9d9a"/><path d="m201.16 670.15c4.83 1.55 22.99 2.71 44.67 2.71s39.83-1.15 44.66-2.71c-4.83-1.55-22.99-2.71-44.66-2.71-21.68 0-39.84 1.15-44.67 2.71z" fill="#302e2a"/><path d="m232.93 384.5s11.32-40.52-18.52-83.96c0 0-.46 54.99 18.52 83.96z" fill="#6c7f2a"/><path d="m194.63 277.6s24.5 10.88 30.1 41.05l-10.32-18.1s-5.19-5.01-10.33-14.08c0-.01-2.57-4.54-9.45-8.87z" fill="#34c289"/><path d="m293.77 279.77s-37.9 81.19-60.27 109.32c0 0 .59-34.78 18.05-69.93 0 0 10.59-23.96 42.22-39.39z" fill="#34c289"/><path d="m181.32 291.64s9.42 0 17.27 23.56c0 0 29.05 58.89 31.01 84.41 0 0-34.94-53-43.19-86.37 0 0-3.14-10.6-2.88-16.62.02-.01.8-3.15-2.21-4.98z" fill="#33c393"/><path d="m169.41 282.22s.79 14.92 10.21 30.62c0 0 40.18 62.82 49.99 98.54 0 0-39.65-44.36-52.22-80.09.01 0-12.43-29.84-7.98-49.07z" fill="#525f1e"/><path d="m323.05 311.66s-21.2-9.62-35.73 7.16c0 0-48.29 53.69-55.36 83.53 0 0 29.05-40.44 35.73-51.04 0 0 29.84-45.15 55.36-39.65z" fill="#6c7f2a"/><path d="m328.94 325.8s-21.59-2.36-37.69 14.92c0 0-38.87 23.56-59.28 70.67 0 0 22.9-27.48 31.67-37.69 0-.01 38.21-40.44 65.3-47.9z" fill="#525f1e"/><path d="m325.41 334.43s-51.82 28.66-77.73 65.17c0 0-8.11 8.24-11.52 15.83 0 0-4.19 7.85-6.54 12.04 0 0 11.78-16.23 22.51-26.17-.01.01 61.76-50.77 73.28-66.87z" fill="#525f1e"/><path d="m217.57 559.92s13.35-45.54-11.25-68.05c0 0-14.14 33.24 11.25 68.05z" fill="#6c7f2a"/><path d="m140.62 507.83s47.11-1.57 73.81 50.52c0 0-31.27-18.17-46.85-33.76 0 0-7.85-5.23-12.56-9.16 0-.01-4.71-4.2-14.4-7.6z" fill="#6c7f2a"/><path d="m199.51 559.92s-28.01-37.95-79.83-30.1c0 0 16.49 2.87 23.29 3.27 0 0 12.3.4 18.58 4.84 0 0 11.34 7.51 21.99 11.78.01 0 9.95 5.23 15.97 10.21z" fill="#393f14"/><path d="m210.51 616.97s-16.75-11.52-22.51-40.57l-10.47-40.83 28.79 57.84c0 .01 9.68 22.52 4.19 23.56z" fill="#393f14"/><path d="m133.03 604.41s41.41-18.54 71.48 6.96c0 0-23.17-10.36-46.36-9.05.01 0-13.34 2.88-25.12 2.09z" fill="#6c7f2a"/><path d="m290.47 554s9.03-30.75 56.53-41.49c0 0 22.38-6.02 27.48-13.09 0 0-7.01 14.92-33.76 20.81 0 0-8.51 2.23-13.74 7.98 0 0-13.61 15.68-28.79 19.75 0 0-3.93 1.19-7.72 6.04z" fill="#6c7f2a"/><path d="m415.7 543.17s-67-49.21-125.24 10.47c0 0 23.56-20.46 47.77-24.89 0 0 30.36-6.52 54.44 5.78 0 0 12.57 8.11 23.03 8.64z" fill="#34c289"/><path d="m256.44 599.44s5.37-34.03 45.41-45.8c0 0 14.13-4.47 15.97-9.3 0 0-1.31 11.66-17.41 15.58 0 0-31.28 9.94-43.97 39.52z" fill="#393f14"/><path d="m280.91 555.73s-32.45 16.3-40.31 42.17c0 0 31.15-23.59 40.31-42.17z" fill="#393f14"/><path d="m269.13 523.08s-28.79 22.97-28.53 58.82c0 0 18.59-38.6 28.53-58.82z" fill="#393f14"/><path d="m278.56 521.18s-25.39 24.08-34.29 63.08c0 0 29.31-31.41 34.29-63.08z" fill="#393f14"/><path d="m251.86 521.18s6.02 44-3.4 55.63c0 .01-4.71-30.5 3.4-55.63z" fill="#393f14"/><path d="m259.19 494.75s7.07-36.12 43.97-42.93c0 0 4.58-.78 9.29-3.73 0 0 6.48-3.73 14.13-.98 0 0 8.05 3.34 14.33 1.18 0 0-7.85 5.89-16.49.79 0 0-6.28-2.75-19.04 7.26 0 0-35.07 27.88-46.2 41.62.01-.01-.5-1.17.01-3.21z" fill="#393f14"/><path d="m262.85 450.38s15.71-7.08 21.46-.79c0 0-16.23 11.91-21.46 24.08 0 .01-1.57-20.15 0-23.29z" fill="#1f2109"/><path d="m303.16 476.29s-4.32-3.4-7.46-14.4c0 0-5.05-14.82-23.17-14.48 0 0 9.95-1.47 15.32-.43 0 0 8.51 2.09 11 10.85 0 0 1.27 4.56 1.1 9.29-.01.01-.59 4.2 3.21 9.17z" fill="#6c7f2a"/><path d="m165.22 399.61s62.77.91 90.47 53.46l.35 10.28c.01-.01-20.54-50-90.82-63.74z" fill="#6c7f2a"/><path d="m233.75 378.78c-.57 96.97 2.62 193.92 9.56 290.57.08 1.15-1.1 2.17-2.64 2.28s-2.86-.74-2.94-1.9c0-.01 0-.02 0-.03-5.09-96.91-6.42-193.98-3.98-290.92z"/><path d="m240.29 504.68c.62 3.39 1.03 6.82 1.27 10.26.22 3.44.24 6.9.16 10.35-.19 6.9-.85 13.78-1.56 20.64-.36 3.43-.72 6.85-1.03 10.27-.17 1.71-.3 3.42-.42 5.13s-.28 3.42-.35 5.14c-.4 6.85-.5 13.71-.44 20.57.38 27.42 4.71 54.71 12.77 80.77.19.62-.86 1.48-2.34 1.93-1.48.44-2.83.29-3.02-.35v-.02c-7.32-26.84-10.75-54.66-10.2-82.34.17-6.92.51-13.83 1.15-20.72.13-1.72.35-3.44.53-5.16s.37-3.44.59-5.15c.43-3.42.91-6.84 1.38-10.25.94-6.82 1.84-13.64 2.25-20.5.19-3.43.28-6.87.18-10.3-.12-3.43-.41-6.86-.92-10.27z"/><path d="m203.7 441.34 9.72 25.99c3.24 8.66 6.5 17.34 9.01 26.28 2.54 8.95 4.07 18.14 5.52 27.27 1.47 9.14 2.83 18.29 4.13 27.46 5.13 36.68 8.82 73.57 11.03 110.57.05.88-1.15 1.66-2.69 1.74s-2.84-.57-2.89-1.45v-.02c-1.28-36.9-4.02-73.76-8.22-110.48-1.06-9.18-2.19-18.35-3.43-27.51-1.22-9.16-2.51-18.3-4.8-27.21-2.27-8.93-5.3-17.67-8.32-26.41z"/><path d="m182.45 522.57c13.74 21.75 24.51 45.33 33.29 69.56 8.79 24.25 15.65 49.15 21.83 74.15.15.6-.95 1.36-2.46 1.71s-2.85.15-3-.45v-.01c-5.25-25.11-11.16-50.08-19.02-74.49-7.85-24.39-17.69-48.24-30.64-70.47z"/><path d="m203.55 608.4c8.17 8 14.28 18.02 18.95 28.52 4.69 10.54 8.06 21.59 11.21 32.58.08.26-1.08.77-2.58 1.14s-2.78.45-2.85.19v-.01c-2.23-11.14-4.64-22.2-8.37-32.86-3.73-10.63-8.87-20.92-16.36-29.56z"/><path d="m293.09 550.16c-21.52 35.25-32.13 76.72-30.37 117.41.01.48-1.23.91-2.77.95s-2.81-.33-2.82-.83v-.01c.09-41.87 12.87-83.28 35.96-117.52z"/><path d="m274.97 639.81c-6.25 9.36-9.72 20.24-10.16 30.96-.01.13-1.26.08-2.79-.11-1.54-.19-2.77-.46-2.76-.6 2.43-11.52 8-22.05 15.71-30.25z"/><path d="m254.44 598.4c4.58 21.45 7.14 43.43 7.61 65.53.01.26-1.24.45-2.78.42-1.55-.03-2.8-.27-2.81-.53v-.01c1.38-21.71.72-43.65-2.02-65.41z"/><path d="m260.75 478.53c1.48 58.73 1.04 117.51-1.35 176.23-.03.7-.47 1.25-.98 1.23s-.91-.6-.88-1.3v-.02c3-58.65 4.08-117.4 3.21-176.14z"/><path d="m277.16 482.56c-6.87 13.31-12.03 27.42-15.86 41.85s-6.38 29.17-8.07 43.99c-1.72 14.83-2.69 29.73-3.4 44.66-.36 7.46-.65 14.94-.95 22.42-.15 3.74-.3 7.54-.72 11.38s-1.12 7.73-2.38 11.54c-.25.73-1.63.87-3.07.31s-2.43-1.52-2.22-2.13l.01-.02c2.41-6.56 2.98-13.91 3.5-21.34.53-7.47 1.05-14.94 1.65-22.42 1.19-14.95 2.63-29.9 4.82-44.76 2.17-14.86 5.2-29.62 9.5-44 4.29-14.4 9.91-28.4 17.19-41.48z"/><path d="m263.39 472.71c-5.49 14.03-9.57 28.58-12.52 43.33-2.95 14.76-4.79 29.72-5.88 44.72-2.19 30.02-1.47 60.15-.64 90.24.02.72-.38 1.31-.9 1.33-.51.02-.95-.55-.97-1.27v-.02c-.52-30.1-.93-60.3 1.58-90.36 1.25-15.02 3.25-29.99 6.36-44.74 3.11-14.74 7.34-29.26 12.97-43.23z"/><path d="m249.06 582.46c5.71 13.8 8.75 28.67 10.01 43.62 1.26 14.97.82 30.06-.36 45-.02.36-1.29.51-2.83.34s-2.76-.59-2.73-.94v-.01c2.08-14.66 3.45-29.43 3.13-44.24-.33-14.79-2.39-29.64-7.22-43.77z"/><path d="m202.39 559.92s-4.45-48.16-30.1-72.76c0-.01 1.58 49.46 30.1 72.76z" fill="#34c289"/><path d="m166.79 427.48s51.04-25.38 90.3 32.85l-25.13-20.03c.01 0-19.36-23.55-65.17-12.82z" fill="#34c289"/><path d="m162.87 447.41s57.06-31.98 92 8.07l.83 5.97c-.01 0-23.47-39.12-92.83-14.04z" fill="#6c7f2a"/><path d="m261.02 478.32s-4.97-6.74-4.97-14.98c0 0-2.49-14.53-5.23-15.05 0 0 10.08-1.96 14 0 0 0 2.75 3.01 1.57 11.12-.01 0-1.44 15.84-5.37 18.91z" fill="#34c289"/><path d="m271.49 645.77s3.14-8.38 17.8-6.81c0 0 3.93 0 5.76 10.21 0 0 5.23-10.73-7.59-14.4 0 0-13.09-3.66-15.97 11z" fill="#393f14"/><path d="m316.88 616.29s-21.41 1.66-41.55 21.36c0 0 28.82-5.94 41.55-21.36z" fill="#34c289"/><path d="m247.67 640.27s-1.18-6.87.79-9.42c0 0 6.08-2.36 9.62 1.37 0 0-6.88.79-10.41 8.05z" fill="#393f14"/><path d="m263.57 645.96s-7.26-16.69-15.11-15.11c0 0 5.89-2.84 11.38-.73 0 0 4.12 1.97 4.51 7.54.01-.01.4 4.18-.78 8.3z" fill="#34c289"/><path d="m308.33 639.48s-11.19-17.76-48.49-9.37c0 0 7.46 1.32 14.53.93 0 0 5.22-.94 9.72 1.57 0 0 7.56 3.58 15.02 2.58-.01 0 6.47 1.55 9.22 4.29z" fill="#6c7f2a"/><path d="m242.38 693.5c-31.65 0-50.13-6.03-50.41-6.12l.25-.74c.41.14 41.81 13.62 107.13-.01l.16.77c-21.93 4.57-41.2 6.1-57.13 6.1z" fill="#d0d0d0"/><path d="m242.38 737.24c-31.65 0-50.13-6.03-50.41-6.12l.25-.74c.41.14 41.81 13.62 107.13-.01l.16.77c-21.93 4.57-41.2 6.1-57.13 6.1z" fill="#d0d0d0"/><path d="m246.31 759.79c-28.04 0-46.96-3.18-47.24-3.23l.14-.77c.42.07 42.87 7.2 95.09 0l.11.78c-17.54 2.41-33.98 3.22-48.1 3.22z" fill="#d0d0d0"/><path d="m243.77 715.99c-33.25 0-54.03-7.06-54.34-7.17l.26-.74c.46.16 46.98 15.97 112.58-.01l.19.76c-22.04 5.37-41.95 7.16-58.69 7.16z" fill="#d0d0d0"/><path d="m203.15 684.04c0-5.02.44-9.93 1.28-14.72h-4.54c-28.94 44.49 8.08 106.83 8.08 106.83 0 1.95 16.95 3.53 37.85 3.53s37.85-1.58 37.85-3.53c.82-1.32 1.6-2.64 2.35-3.94-46.59-4.79-82.87-42.43-82.87-88.17z" fill="#353433" opacity=".5"/><path d="m411.97 413.39 32.76 70.43h-29.03z" fill="#282a35"/><path d="m411.63 406.96 4.07 76.86 149.08-4.14" fill="none" stroke="#000" stroke-miterlimit="10"/><path d="m568.45 403.92s-1.25 20.37 3.07 32.28c4.32 11.92 9.33 16.03 8.46 27.79-.86 11.76 3.36 12.19 3.36 12.19l-18.56 5.51z" fill="#282a35"/><path d="m568.92 391.9-4.14 87.78" fill="none" stroke="#000" stroke-miterlimit="10"/><path d="m552.46 488.4c0 2.8-2.27 5.07-5.07 5.07s-5.07-2.27-5.07-5.07 2.27-5.07 5.07-5.07 5.07 2.27 5.07 5.07z" fill="#fff"/><path d="m552.46 504.91c0 2.8-2.27 5.07-5.07 5.07s-5.07-2.27-5.07-5.07 2.27-5.07 5.07-5.07 5.07 2.27 5.07 5.07z" fill="#fff"/><path d="m787.54 723.69-12.8 55.39 55.71-.41 23.67-30.23 28.02-49.55z" fill="#fff5c9"/><path d="m777.42 767.75 53 11.36 23.59-30.3s27.17 11.76 31.35 24.73c0 0 49.4 8.98 58.14 34.96l-172.94-.73z" fill="#282a35" stroke="#000" stroke-linecap="round" stroke-linejoin="round" stroke-miterlimit="10"/><path d="m860.65 756.51-15.57 17.79" fill="none" stroke="#fff" stroke-miterlimit="10"/><path d="m867.39 763.69-12.3 14.09" fill="none" stroke="#fff" stroke-miterlimit="10"/><path d="m874.39 767.69-12.3 14.09" fill="none" stroke="#fff" stroke-miterlimit="10"/></svg>