<svg height="512.001" viewBox="0 0 507.72 512.001" width="507.72" xmlns="http://www.w3.org/2000/svg"><g transform="translate(-2.138)"><path d="m386.4 247.449h-51.3v190.263h51.3z" fill="#ffd652" transform="translate(-209.503)"/><path d="m386.405 247.449h-29.929v190.263h29.929z" fill="#fb9d46" transform="translate(-230.881)"/><path d="m501.846 247.449h-123.992v256.534h123.992z" fill="#458fde" transform="translate(-367.699)"/><path d="m501.846 454.814h-123.992v49.169h123.992z" fill="#4f5aa8" transform="translate(-367.699)"/><g fill="#ffd652"><path d="m167.282 117.044a48.1 48.1 0 0 1 48.1 48.1v58.789h119.718v256.534h-158.2a42.757 42.757 0 0 1 -42.756-42.756v-304.634a16.033 16.033 0 0 1 16.033-16.033z" transform="translate(42.752)"/><path d="m167.282 117.044a48.1 48.1 0 0 1 48.1 48.1v58.789h119.718v256.534h-158.2a42.757 42.757 0 0 1 -42.756-42.756v-304.634a16.033 16.033 0 0 1 16.033-16.033z" transform="translate(42.752)"/><path d="m42.221 288.067h113.3a32.067 32.067 0 0 0 0-64.134h-113.3a32.067 32.067 0 0 0 0 64.134z" transform="translate(314.251)"/><path d="m48.635 352.2h106.889a32.067 32.067 0 0 0 0-64.134h-106.889a32.067 32.067 0 0 0 0 64.134z" transform="translate(307.837)"/><path d="m55.048 416.334h100.476a32.067 32.067 0 1 0 0-64.134h-100.476a32.067 32.067 0 0 0 0 64.134z" transform="translate(301.424)"/><path d="m63.6 480.468h91.925a32.067 32.067 0 0 0 0-64.134h-91.925a32.067 32.067 0 0 0 0 64.134z" transform="translate(292.873)"/></g><path d="m75.357 448.4a47.909 47.909 0 0 1 12.277-32.067 48.017 48.017 0 0 1 0-64.134 48.017 48.017 0 0 1 0-64.134 47.992 47.992 0 0 1 -.3-63.778h116.29v256.179h-114.984c-8.221-8.632-13.283-19.23-13.283-32.065z" fill="#fb9d46" transform="translate(233.015)"/><path d="m10.154 256a32.067 32.067 0 0 1 32.067-32.067h113.3a32.067 32.067 0 0 1 0 64.134h-6.413a32.067 32.067 0 0 1 0 64.134h-6.408a32.067 32.067 0 0 1 0 64.134h-8.551a32.067 32.067 0 0 1 0 64.134h-91.927a32.067 32.067 0 0 1 0-64.134 32.067 32.067 0 0 1 0-64.134 32.067 32.067 0 0 1 0-64.134 32.066 32.066 0 0 1 -32.068-32.067z" fill="#ffd652" transform="translate(314.251)"/><path d="m454.814 136.284c12.474 15.9 30.26 18.716 34.2 19.24-3.944.524-21.731 3.335-34.205 19.24a51.674 51.674 0 0 0 -10.689 27.791 51.674 51.674 0 0 0 -10.689-27.791c-12.474-15.9-30.26-18.716-34.205-19.24 3.944-.524 21.731-3.335 34.205-19.24a51.674 51.674 0 0 0 10.689-27.791 51.665 51.665 0 0 0 10.689 27.791z" fill="#ff7452" transform="translate(-376.249)"/><path d="m232.484 35.808c12.474 15.9 30.26 18.716 34.205 19.24-3.944.524-21.731 3.335-34.205 19.24a51.673 51.673 0 0 0 -10.689 27.791 51.673 51.673 0 0 0 -10.689-27.791c-12.474-15.9-30.26-18.716-34.205-19.24 3.944-.524 21.731-3.335 34.205-19.24a51.673 51.673 0 0 0 10.689-27.791 51.665 51.665 0 0 0 10.689 27.791z" fill="#ff7452" transform="translate(68.408)"/><path d="m48.635 121.319c-12.474 15.9-30.26 18.716-34.205 19.24 3.944.524 21.731 3.335 34.205 19.24a51.673 51.673 0 0 1 10.689 27.791 51.673 51.673 0 0 1 10.689-27.79c12.474-15.9 30.26-18.716 34.205-19.24-3.944-.524-21.731-3.335-34.205-19.24a51.674 51.674 0 0 1 -10.689-27.792 51.665 51.665 0 0 1 -10.689 27.791z" fill="#ff7452" transform="translate(393.348)"/><path d="m10.155 411.524a8.017 8.017 0 0 1 -8.017-8.017v-156.058a8.017 8.017 0 0 1 8.017-8.017h158.729v-106.355a24.077 24.077 0 0 1 24.05-24.05h17.1a56.181 56.181 0 0 1 56.116 56.117v50.772h36.877a8.017 8.017 0 0 1 0 16.034h-29.773c9.143 13.005 20.2 34.849 18.538 63-1.93 32.775-20.158 54.861-27.906 62.836a8.017 8.017 0 0 1 -11.5-11.173c6.5-6.688 21.787-25.2 23.4-52.605 1.961-33.317-17.43-56.164-23.421-62.373a7.994 7.994 0 0 1 -2.169-6.641 8.076 8.076 0 0 1 -.078-1.062v-58.788a40.128 40.128 0 0 0 -40.084-40.084h-17.1a8.026 8.026 0 0 0 -8.017 8.017v304.635a34.778 34.778 0 0 0 34.739 34.739h104.774a40.025 40.025 0 0 1 8.023-56.117 40.043 40.043 0 0 1 0-64.134 40.043 40.043 0 0 1 0-64.134 40.07 40.07 0 0 1 24.023-72.151h113.3a40.074 40.074 0 0 1 20.48 74.524 40.041 40.041 0 0 1 -6.413 64.134 40.05 40.05 0 0 1 -7.744 64.9 40.055 40.055 0 0 1 -27.7 69.013h-228.742a50.848 50.848 0 0 1 -50.133-42.756h-27.361v58.255a8.017 8.017 0 0 1 -8.017 8.015h-123.991a8.017 8.017 0 0 1 -8.017-8.017v-62a8.017 8.017 0 1 1 16.034 0v53.979h107.957v-240.5h-107.957v148.046a8.016 8.016 0 0 1 -8.017 8.016zm459.62-131.474a24.05 24.05 0 0 0 0-48.1h-113.3a24.05 24.05 0 0 0 0 48.1zm-6.414 64.134a24.05 24.05 0 0 0 0-48.1h-106.887a24.05 24.05 0 0 0 0 48.1zm-6.413 64.133a24.05 24.05 0 0 0 0-48.1h-100.474a24.05 24.05 0 0 0 0 48.1zm-8.548 64.134a24.05 24.05 0 0 0 0-48.1h-91.926a24.05 24.05 0 0 0 0 48.1zm-279.516-42.756v-174.23h-26.721v174.23z"/><path d="m490.074 163.471c-5.443.724-19.159 3.754-28.951 16.239a43.929 43.929 0 0 0 -9 23.454 8.017 8.017 0 0 1 -15.988 0 43.94 43.94 0 0 0 -9-23.453c-9.794-12.487-23.51-15.517-28.952-16.24a8.017 8.017 0 0 1 0-15.894c5.443-.724 19.159-3.754 28.951-16.239a43.929 43.929 0 0 0 9-23.454 8.017 8.017 0 0 1 15.988 0 43.94 43.94 0 0 0 9 23.454c9.793 12.486 23.509 15.516 28.951 16.239a8.017 8.017 0 0 1 0 15.894zm-41.568-22.24a58.4 58.4 0 0 1 -4.379-6.421 58.572 58.572 0 0 1 -4.381 6.422 57.767 57.767 0 0 1 -16.419 14.293 57.764 57.764 0 0 1 16.421 14.294 58.4 58.4 0 0 1 4.379 6.421 58.572 58.572 0 0 1 4.381-6.422 57.767 57.767 0 0 1 16.419-14.293 57.73 57.73 0 0 1 -16.42-14.293z" transform="translate(-376.249)"/><path d="m267.744 62.995c-5.443.724-19.159 3.754-28.951 16.239a43.929 43.929 0 0 0 -9 23.454 8.017 8.017 0 0 1 -15.988 0 43.94 43.94 0 0 0 -9-23.453c-9.805-12.487-23.517-15.517-28.959-16.235a8.017 8.017 0 0 1 0-15.894c5.443-.724 19.159-3.754 28.951-16.239a43.929 43.929 0 0 0 9-23.454 8.017 8.017 0 0 1 15.988 0 43.94 43.94 0 0 0 9 23.454c9.801 12.482 23.515 15.512 28.959 16.233a8.016 8.016 0 0 1 0 15.893zm-41.568-22.24a58.4 58.4 0 0 1 -4.379-6.421 58.576 58.576 0 0 1 -4.381 6.422 57.767 57.767 0 0 1 -16.416 14.292 57.765 57.765 0 0 1 16.421 14.294 58.4 58.4 0 0 1 4.379 6.421 58.576 58.576 0 0 1 4.381-6.422 57.767 57.767 0 0 1 16.419-14.293 57.73 57.73 0 0 1 -16.424-14.293z" transform="translate(68.408)"/><path d="m105.272 148.507c-5.443.724-19.159 3.754-28.951 16.239a43.929 43.929 0 0 0 -9 23.454 8.017 8.017 0 0 1 -15.988 0 43.94 43.94 0 0 0 -9-23.453c-9.794-12.487-23.51-15.517-28.952-16.24a8.017 8.017 0 0 1 0-15.894c5.442-.724 19.158-3.754 28.951-16.239a43.929 43.929 0 0 0 9-23.454 8.017 8.017 0 0 1 15.988 0 43.94 43.94 0 0 0 9 23.453c9.794 12.487 23.51 15.517 28.952 16.24a8.017 8.017 0 0 1 0 15.894zm-41.572-22.242a58.4 58.4 0 0 1 -4.379-6.421 58.542 58.542 0 0 1 -4.379 6.421 57.768 57.768 0 0 1 -16.419 14.293 57.764 57.764 0 0 1 16.421 14.294 58.4 58.4 0 0 1 4.379 6.421 58.577 58.577 0 0 1 4.381-6.422 57.767 57.767 0 0 1 16.419-14.293 57.723 57.723 0 0 1 -16.423-14.293z" transform="translate(393.35)"/></g></svg>