<svg enable-background="new 0 0 500 500" viewBox="0 0 500 500" xmlns="http://www.w3.org/2000/svg"><path d="m336.18 330.71c-15.45-10.79-18.95-30.83-18.34-48.83.1-3.01-.23-6.17 1.2-8.81s4.77-4.44 7.46-3.17c2.23 1.05 3.21 3.65 4.45 5.79 1.66 2.86 4.14 5.22 7.05 6.73 1.91.99 4.28 1.6 6.17.56 2.59-1.43 2.9-5.01 2.88-8-.04-5.57-.07-11.14-.1-16.72-.02-2.99-.03-6.04.9-8.88s2.98-5.47 5.83-6.27c2.84-.8 6.36.84 6.96 3.77.25 1.22 0 2.48.08 3.72s.66 2.61 1.84 2.96c1.19.35 2.39-.5 3.28-1.37 3.09-3.02 5.18-6.91 7.14-10.77s3.86-7.83 6.66-11.12 6.67-5.9 10.95-6.14 8.84 2.4 9.93 6.6c1.08 4.21-1.37 8.49-4.05 11.9-3.97 5.06-8.67 9.54-13.89 13.24-.94.67-1.96 1.39-2.32 2.5-.65 1.99 1.24 3.97 3.21 4.63 2.23.74 4.65.51 6.98.79 2.33.27 4.86 1.3 5.74 3.51 1.22 3.06-1.33 6.26-3.85 8.36-5.04 4.2-10.79 7.52-16.92 9.77-2.2.8-4.51 1.51-6.29 3.06-1.77 1.55-2.84 4.23-1.77 6.34s3.82 2.78 6.13 2.35c2.3-.43 4.37-1.68 6.56-2.51 4.11-1.55 9.41-1.27 12.05 2.28 1.73 2.33 1.88 5.58 1.01 8.37-.87 2.78-2.65 5.18-4.53 7.39-6.58 7.73-15.01 13.95-24.55 17.25-9.55 3.29-18.38 4.19-27.85.72" fill="#6c5aaa"/><path d="m396.2 226.66c.01.01-.09.1-.29.28-.22.2-.51.46-.89.79-.78.69-1.94 1.71-3.39 3.07-2.91 2.7-6.99 6.77-11.42 12.33-2.22 2.77-4.54 5.91-6.96 9.32-2.41 3.42-4.97 7.09-7.52 11.05-2.54 3.96-5.09 8.2-7.38 12.78-1.15 2.29-2.18 4.68-3.23 7.12-1.04 2.44-2.1 4.91-3.17 7.41-4.25 10.03-7.98 19.72-10.65 28.77-2.69 9.05-4.28 17.43-4.98 24.53-.72 7.11-.57 12.91-.28 16.89.16 1.99.31 3.54.45 4.58.06.5.1.89.14 1.19.03.27.04.41.03.41s-.04-.13-.08-.4c-.05-.29-.11-.68-.19-1.18-.18-1.04-.36-2.58-.55-4.58-.36-3.98-.56-9.8.11-16.94.65-7.13 2.22-15.56 4.88-24.64 2.65-9.09 6.38-18.81 10.63-28.84 1.07-2.5 2.13-4.98 3.18-7.42 1.05-2.43 2.09-4.84 3.25-7.14 2.3-4.6 4.87-8.85 7.43-12.81s5.14-7.63 7.57-11.04c2.44-3.41 4.78-6.54 7.03-9.3 4.48-5.55 8.62-9.58 11.58-12.24 1.47-1.33 2.65-2.33 3.46-2.99.39-.32.69-.56.92-.75.21-.18.32-.26.32-.25z" fill="#6c5aaa"/><path d="m358.04 276c-.04.01-.14-.45-.29-1.28-.16-.83-.34-2.03-.55-3.52-.42-2.98-.87-7.11-1.34-11.66-.47-4.56-.97-8.67-1.44-11.63-.23-1.48-.43-2.68-.57-3.5-.14-.83-.2-1.29-.17-1.3.04-.01.17.44.38 1.25s.47 2 .75 3.48c.57 2.96 1.13 7.08 1.6 11.64.45 4.5.86 8.57 1.18 11.67.15 1.4.28 2.59.38 3.54.08.84.11 1.31.07 1.31z" fill="#6c5aaa"/><path d="m396.48 268.82c0 .04-.55.1-1.53.18-.99.09-2.41.21-4.17.41-3.52.38-8.37 1.08-13.68 2.08-5.31 1.01-10.08 2.13-13.5 3.04-1.72.44-3.1.84-4.05 1.11s-1.49.4-1.5.37c-.01-.04.5-.24 1.44-.58.94-.33 2.3-.79 4.01-1.28 3.41-1.01 8.18-2.19 13.51-3.21 5.33-1 10.2-1.64 13.74-1.92 1.77-.15 3.21-.21 4.2-.24.98-.01 1.53 0 1.53.04z" fill="#6c5aaa"/><path d="m341.3 318.72c-.02.01-.11-.15-.26-.47-.18-.38-.39-.83-.66-1.39-.57-1.21-1.34-2.98-2.26-5.18-1.85-4.4-4.22-10.57-6.75-17.4-2.53-6.84-4.83-13.02-6.59-17.45-.86-2.16-1.57-3.93-2.1-5.25-.23-.57-.41-1.04-.56-1.43-.12-.33-.18-.51-.16-.51.02-.01.11.15.26.47.18.38.39.83.66 1.39.57 1.21 1.34 2.98 2.26 5.18 1.85 4.4 4.22 10.57 6.75 17.41 2.52 6.84 4.83 13.01 6.59 17.45.86 2.16 1.57 3.93 2.1 5.25.23.57.41 1.05.56 1.43.12.31.18.49.16.5z" fill="#6c5aaa"/><path d="m392.38 302.25c0 .02-.17.09-.51.21-.4.13-.89.3-1.48.5-1.37.44-3.22 1.04-5.47 1.77-4.62 1.5-10.97 3.64-17.99 6.02s-13.4 4.46-18.05 5.87c-2.33.7-4.21 1.25-5.52 1.6-.61.16-1.11.29-1.51.4-.35.08-.53.12-.54.1 0-.02.17-.09.51-.21.4-.13.89-.3 1.48-.5 1.37-.44 3.22-1.04 5.47-1.77 4.62-1.5 10.97-3.64 17.99-6.02s13.4-4.46 18.05-5.86c2.33-.7 4.21-1.25 5.52-1.6.61-.16 1.11-.29 1.51-.4.35-.09.53-.12.54-.11z" fill="#6c5aaa"/><path d="m371.54 59.68-5.15 1.84-2.2-6.73c-4.06-12.41-17.03-19.05-28.9-14.81-11.87 4.25-18.22 17.8-14.15 30.21l2.2 6.73-5.17 1.85c-4.02 1.44-6.2 6.07-4.82 10.28l14.34 43.79c1.4 4.27 5.84 6.55 9.86 5.11l53.37-19.09c4.08-1.46 6.26-6.11 4.86-10.38l-14.34-43.79c-1.37-4.21-5.81-6.47-9.9-5.01zm-40.68 7.03c-2.23-6.8 1.25-14.23 7.76-16.56 6.5-2.33 13.61 1.32 15.83 8.12l2.2 6.73-23.59 8.44zm30.01 38.86 3.66 11.18c.15.47-.12.96-.57 1.12l-5.12 1.83c-.39.14-.89-.07-1.05-.54l-3.66-11.18c-3.97-.17-7.65-2.8-9.03-7-1.77-5.41 1-11.32 6.19-13.18s10.84 1.04 12.61 6.45c1.38 4.21.01 8.64-3.03 11.32z" fill="#6c5aaa"/><path d="m366.16 61.4c.05.14-9.55 3.73-21.44 8.03s-21.57 7.67-21.62 7.54c-.05-.14 9.55-3.73 21.44-8.03 11.9-4.3 21.57-7.67 21.62-7.54z" fill="#6c5aaa"/><path d="m377.5 63.24c.01 0 .05.09.12.26.08.2.17.46.29.78.26.73.61 1.74 1.07 3.03.92 2.68 2.23 6.49 3.84 11.18 1.61 4.74 3.51 10.36 5.63 16.6 1.04 3.13 2.19 6.39 3.28 9.83.51 1.73.93 3.57.75 5.49-.09.95-.35 1.9-.81 2.77-.47.86-1.13 1.61-1.89 2.23-1.54 1.23-3.34 1.95-5.08 2.59-1.75.63-3.47 1.24-5.16 1.85-3.38 1.21-6.64 2.38-9.75 3.49-6.21 2.21-11.8 4.2-16.51 5.88-4.68 1.65-8.48 2.98-11.15 3.92-1.29.44-2.31.79-3.04 1.04-.33.11-.59.19-.79.26-.18.06-.27.08-.28.07 0-.01.08-.05.26-.12.2-.08.46-.18.78-.31.72-.27 1.73-.65 3.01-1.13 2.66-.98 6.44-2.37 11.09-4.08 4.7-1.71 10.28-3.73 16.48-5.98 3.1-1.12 6.36-2.3 9.74-3.52 1.69-.61 3.41-1.23 5.15-1.86 1.72-.64 3.48-1.35 4.93-2.51.72-.58 1.33-1.28 1.76-2.07.43-.8.67-1.68.75-2.57.17-1.8-.23-3.59-.72-5.29-1.08-3.4-2.22-6.69-3.25-9.82-2.08-6.25-3.95-11.89-5.52-16.64-1.54-4.71-2.8-8.54-3.68-11.23-.41-1.3-.74-2.33-.98-3.06-.1-.33-.18-.59-.24-.8-.07-.18-.09-.27-.08-.28z" fill="#6c5aaa"/><path d="m349.34 49.45c-.03.04-.53-.27-1.51-.66-.99-.38-2.48-.82-4.37-.88-1.88-.07-4.16.22-6.44 1.22-2.27.98-4.51 2.73-6.11 5.11-1.63 2.37-2.35 5.11-2.35 7.59-.02 2.5.51 4.72 1.02 6.54.53 1.83 1.07 3.27 1.42 4.28.36 1.01.55 1.56.52 1.58-.03.01-.29-.52-.71-1.51-.41-.99-1.01-2.42-1.58-4.25-.56-1.83-1.14-4.08-1.15-6.65-.03-2.56.71-5.43 2.4-7.88 1.66-2.46 3.99-4.26 6.35-5.26 2.37-1.01 4.73-1.26 6.65-1.14 1.94.11 3.45.62 4.43 1.06.48.24.85.43 1.09.59.23.16.35.25.34.26z" fill="#6c5aaa"/><path d="m349.8 88.58c-.01-.01.17-.1.51-.25.34-.16.85-.36 1.54-.56.68-.21 1.56-.37 2.6-.43 1.03-.05 2.25.06 3.51.52 2.55.9 4.91 3.51 6.07 6.97.56 1.75.61 3.78.05 5.74-.6 1.95-1.69 3.83-3.27 5.41l.07-.27c1.33 3.64 2.77 7.61 4.28 11.74l.09.25-.25.08c-.72.24-1.5.5-2.29.77-1.68.56-3.35 1.12-4.98 1.67l-.25.08-.08-.25c-1.37-4.15-2.87-8.05-3.96-11.79l.22.17c-2.05-.14-3.89-1-5.35-2.12-1.47-1.13-2.6-2.53-3.36-4.01-.75-1.48-1.12-3.05-1.06-4.5.04-1.45.37-2.76.84-3.86.93-2.23 2.32-3.63 3.35-4.4 1.04-.76 1.72-.96 1.72-.96.02.04-.63.3-1.64 1.09-.98.79-2.31 2.19-3.18 4.38-.87 2.14-1.25 5.21.31 8.08.75 1.42 1.85 2.76 3.27 3.84 1.42 1.07 3.18 1.87 5.11 1.99l.17.01.05.16c1.1 3.71 2.61 7.6 3.99 11.77l-.33-.16c1.63-.55 3.29-1.1 4.97-1.67.78-.26 1.56-.52 2.29-.77l-.16.33c-1.5-4.13-2.93-8.1-4.25-11.75l-.05-.15.12-.12c1.5-1.48 2.59-3.31 3.16-5.17.55-1.88.51-3.81 0-5.49-1.09-3.36-3.34-5.91-5.78-6.81-1.2-.47-2.38-.6-3.39-.57-1.01.04-1.88.16-2.56.35-1.39.37-2.09.71-2.1.66z" fill="#6c5aaa"/><path d="m318.89 377.32-99.88-.46c-12.01-.05-21.71-9.84-21.66-21.85l1.06-250.4c.05-12.02 9.84-21.72 21.86-21.67l99.88.46c12.01.06 21.71 9.84 21.66 21.85l-1.06 250.4c-.05 12.02-9.84 21.72-21.86 21.67z" fill="#d0a416"/><path d="m320.01 92.04-19.37-.09c-2.6-.01-4.71 2.18-4.72 4.89l-.02 3.51c-.01 2.71-2.13 4.91-4.72 4.89l-37.75-.17c-2.6-.01-4.69-2.22-4.68-4.94l.02-3.51c.01-2.71-2.08-4.93-4.68-4.94l-6.81-.03-16.95-.08c-8.42-.04-15.27 6.76-15.31 15.17l-1.03 244.41c-.04 8.41 6.75 15.26 15.17 15.3l99.68.46c8.42.04 15.27-6.75 15.31-15.17l1.03-244.41c.03-8.4-6.76-15.25-15.17-15.29z" fill="#fff"/><path d="m306.59 334.32-74.12-.34c-.77 0-1.39-.84-1.38-1.87l.08-19.39c0-1.03.63-1.86 1.4-1.85l74.12.34c.77 0 1.39.84 1.38 1.87l-.08 19.39c0 1.03-.63 1.86-1.4 1.85z" fill="#6c5aaa"/><text fill="#fff" font-family="'Montserrat-Regular'" font-size="8.299" transform="matrix(.9566 .00441968 -.00423 1 251.8853 325.3873)">SING UP</text><g fill="#6c5aaa"><path d="m221.51 163.81h25.72v4.72h-25.72z" transform="matrix(1 .0046157 -.0046157 1 .7695 -1.08)"/><path d="m221.51 163.81h25.72v4.72h-25.72z" opacity=".1" transform="matrix(1 .0046157 -.0046157 1 .7695 -1.08)"/><path d="m322.65 192.83c0-.02.21.01.59-.14.35-.14.91-.56.97-1.35 0-1.59-.01-3.91-.01-6.89 0-1.5 0-3.16 0-4.98 0-.46 0-.92 0-1.39.01-.49.01-.94-.28-1.31-.26-.37-.71-.61-1.18-.61-.51 0-1.04 0-1.57 0-4.25-.01-9.1-.02-14.44-.03-21.42-.08-50.99-.19-83.64-.31-.43 0-.85.21-1.1.56-.28.35-.27.77-.26 1.31 0 1.01-.01 2.03-.01 3.03-.01 2.02-.02 4.02-.03 6.01 0 .99-.01 1.99-.01 2.97.02.47-.05 1.04.04 1.41.1.4.4.74.78.9.2.08.38.11.62.11h.73l1.46.01c.97 0 1.94.01 2.9.01 7.7.04 15.13.08 22.21.12 14.15.09 26.89.16 37.6.23 10.69.08 19.35.15 25.35.2 2.98.03 5.3.06 6.89.08.77.01 1.37.03 1.79.03.4.01.6.03.6.03s-.21.02-.61.02c-.42 0-1.02.01-1.79.02-1.6 0-3.92.01-6.89.02-6-.01-14.66-.02-25.35-.03-10.71-.03-23.45-.07-37.6-.12-7.08-.03-14.51-.06-22.21-.09-.96 0-1.93-.01-2.9-.01l-1.46-.01h-.73c-.25.01-.56-.03-.82-.15-.52-.22-.94-.69-1.08-1.24-.08-.28-.06-.57-.06-.8v-.74c0-.99.01-1.98.01-2.97.01-1.99.02-3.99.02-6.01 0-1.01.01-2.02.01-3.03.01-.26-.01-.49.03-.8.04-.29.16-.57.33-.81.34-.48.93-.78 1.52-.77 32.65.18 62.22.34 83.64.46 5.35.04 10.19.07 14.45.11.53 0 1.05.01 1.57.01.56.01 1.09.29 1.4.73.34.43.34 1.02.32 1.47 0 .47-.01.94-.01 1.4-.02 1.82-.03 3.48-.04 4.98-.04 2.98-.07 5.3-.08 6.9-.09.83-.69 1.26-1.05 1.39-.4.12-.62.07-.62.07z"/><path d="m228.41 182.01h47.04v4.41h-47.04z" transform="matrix(1 .00461913 -.00461913 1 .8536 -1.1617)"/><path d="m228.41 182.01h47.04v4.41h-47.04z" opacity=".2" transform="matrix(1 .00461913 -.00461913 1 .8536 -1.1617)"/><path d="m221.33 206.87h25.72v4.72h-25.72z" transform="matrix(1 .00461568 -.00461568 1 .9683 -1.0787)"/><path d="m221.33 206.87h25.72v4.72h-25.72z" opacity=".1" transform="matrix(1 .00461568 -.00461568 1 .9683 -1.0787)"/><path d="m321.99 235.89c0-.02.21 0 .59-.11.36-.12.95-.42 1.27-1.13.17-.35.19-.78.17-1.27 0-.49 0-1.02-.01-1.59 0-1.15 0-2.48-.01-3.96 0-1.49 0-3.15 0-4.96 0-.45 0-.92 0-1.39.02-.48-.04-.92-.29-1.32-.24-.39-.63-.7-1.09-.84-.45-.14-.98-.06-1.51-.09-4.24-.01-9.06-.02-14.4-.03-21.35-.08-50.81-.19-83.35-.31-.9-.02-1.74.72-1.83 1.61-.03.95-.02 2-.03 2.99-.01 2.01-.02 4.01-.03 5.99 0 .99-.01 1.98-.01 2.96.02.49-.05 1 .06 1.4.11.41.38.78.73 1.03.37.25.76.34 1.24.32l1.45.01c.97 0 1.93.01 2.89.01 7.67.04 15.08.08 22.13.12 14.1.09 26.8.16 37.47.23 10.65.08 19.28.15 25.26.2 2.97.04 5.28.06 6.87.08.77.02 1.36.03 1.79.03.44 0 .64.02.64.02s-.21.02-.61.02c-.42 0-1.01.01-1.79.02-1.59 0-3.9.01-6.87.02-5.98-.01-14.61-.02-25.26-.03-10.67-.03-23.37-.07-37.47-.12-7.05-.03-14.46-.06-22.13-.09-.96 0-1.92-.01-2.89-.01l-1.45-.01c-.49.03-1.09-.09-1.53-.41-.45-.31-.79-.78-.94-1.31-.15-.56-.06-1.05-.08-1.53 0-.98.01-1.97.01-2.96.01-1.98.02-3.98.02-5.99.01-1.02-.01-1.98.03-3.05.11-1.15 1.18-2.1 2.35-2.07 32.54.18 62 .34 83.35.46 5.33.04 10.15.07 14.39.11.52.03 1.05-.06 1.59.11.52.16.96.52 1.23.97.29.44.35 1 .32 1.46 0 .47-.01.94-.01 1.39-.02 1.81-.03 3.47-.04 4.96-.02 1.49-.03 2.81-.04 3.96-.01.57-.01 1.1-.02 1.59.01.48-.02.95-.21 1.31-.35.74-.97 1.04-1.35 1.14-.39.09-.6.06-.6.06z"/><path d="m221.14 251.79h25.72v4.72h-25.72z" transform="matrix(1 .00459626 -.00459626 1 1.1706 -1.0728)"/><path d="m221.14 251.79h25.72v4.72h-25.72z" opacity=".1" transform="matrix(1 .00459626 -.00459626 1 1.1706 -1.0728)"/><path d="m321.8 280.8c0-.02.21 0 .59-.11.36-.12.95-.42 1.27-1.13.17-.35.19-.78.17-1.27 0-.49 0-1.02-.01-1.59 0-1.15 0-2.48-.01-3.96 0-1.49 0-3.15 0-4.96 0-.45 0-.92 0-1.39.02-.48-.04-.92-.29-1.32-.24-.39-.63-.7-1.09-.84-.45-.14-.98-.06-1.51-.09-4.24-.01-9.06-.02-14.39-.03-21.35-.08-50.81-.19-83.35-.31-.9-.02-1.74.71-1.83 1.61-.03.95-.02 2-.03 2.99-.01 2.01-.02 4.01-.03 5.99 0 .99-.01 1.98-.01 2.96.02.49-.05 1 .06 1.4.11.41.38.78.73 1.03.37.25.76.34 1.24.32l1.45.01c.97 0 1.93.01 2.89.01 7.67.04 15.08.08 22.13.12 14.1.09 26.8.16 37.47.23 10.65.08 19.28.15 25.26.2 2.97.04 5.28.06 6.87.08.77.01 1.37.03 1.79.03.43 0 .63.02.63.02s-.21.02-.61.02c-.42 0-1.01.01-1.79.02-1.59 0-3.9.01-6.87.02-5.98-.01-14.61-.02-25.26-.03-10.67-.03-23.37-.07-37.47-.12-7.05-.03-14.46-.06-22.13-.09-.96 0-1.92-.01-2.89-.01l-1.45-.01c-.49.03-1.09-.09-1.53-.41-.45-.31-.79-.78-.94-1.31-.15-.56-.06-1.05-.08-1.54 0-.98.01-1.97.01-2.96.01-1.98.02-3.98.02-5.99.01-1.02-.01-1.98.03-3.05.11-1.15 1.18-2.1 2.35-2.07 32.54.18 62 .34 83.35.46 5.33.04 10.15.07 14.39.11.52.03 1.05-.06 1.59.11.52.16.96.52 1.23.97.29.44.35 1 .32 1.46 0 .47-.01.94-.01 1.39-.02 1.81-.03 3.47-.04 4.96-.02 1.49-.03 2.81-.04 3.96-.01.57-.01 1.1-.02 1.59.01.48-.02.95-.21 1.31-.35.74-.97 1.04-1.35 1.14-.38.11-.6.07-.6.07z"/><path d="m228.23 225.07h47.04v4.41h-47.04z" transform="matrix(1 .00461909 -.00461909 1 1.0525 -1.1604)"/><path d="m228.23 225.07h47.04v4.41h-47.04z" opacity=".2" transform="matrix(1 .00461909 -.00461909 1 1.0525 -1.1604)"/><path d="m232.51 272.64c-.01 1.21-.93 2.19-2.07 2.18s-2.05-.99-2.05-2.2c.01-1.21.93-2.19 2.07-2.18 1.14 0 2.06.99 2.05 2.2z"/><path d="m238.88 272.67c-.01 1.21-.93 2.19-2.07 2.18-1.14 0-2.05-.99-2.05-2.2s.93-2.19 2.07-2.18c1.14 0 2.06.98 2.05 2.2z"/><path d="m245.26 272.7c0 1.21-.93 2.19-2.07 2.18-1.14 0-2.05-.99-2.05-2.2.01-1.21.93-2.19 2.07-2.18 1.14 0 2.05.98 2.05 2.2z"/><path d="m251.63 272.73c0 1.21-.93 2.19-2.07 2.18-1.14 0-2.05-.99-2.05-2.2s.93-2.19 2.07-2.18c1.14 0 2.06.98 2.05 2.2z"/><path d="m258 272.75c0 1.21-.93 2.19-2.07 2.18-1.14 0-2.05-.99-2.05-2.2.01-1.21.93-2.19 2.07-2.18s2.06.99 2.05 2.2z"/><path d="m264.38 272.78c0 1.21-.93 2.19-2.07 2.18-1.14 0-2.05-.99-2.05-2.2s.93-2.19 2.07-2.18c1.13.01 2.05.99 2.05 2.2z"/><path d="m270.75 272.81c-.01 1.21-.93 2.19-2.07 2.18s-2.05-.99-2.05-2.2.93-2.19 2.07-2.18 2.05.99 2.05 2.2z"/><path d="m277.12 272.84c0 1.21-.93 2.19-2.07 2.18s-2.05-.99-2.05-2.2.93-2.19 2.07-2.18c1.14 0 2.06.99 2.05 2.2z"/><path d="m283.49 272.87c0 1.21-.93 2.19-2.07 2.18-1.14 0-2.05-.99-2.05-2.2.01-1.21.93-2.19 2.07-2.18 1.14 0 2.06.99 2.05 2.2z"/><g opacity=".2"><path d="m232.51 272.64c-.01 1.21-.93 2.19-2.07 2.18s-2.05-.99-2.05-2.2c.01-1.21.93-2.19 2.07-2.18 1.14 0 2.06.99 2.05 2.2z"/><path d="m238.88 272.67c-.01 1.21-.93 2.19-2.07 2.18-1.14 0-2.05-.99-2.05-2.2s.93-2.19 2.07-2.18c1.14 0 2.06.98 2.05 2.2z"/><path d="m245.26 272.7c0 1.21-.93 2.19-2.07 2.18-1.14 0-2.05-.99-2.05-2.2.01-1.21.93-2.19 2.07-2.18 1.14 0 2.05.98 2.05 2.2z"/><path d="m251.63 272.73c0 1.21-.93 2.19-2.07 2.18-1.14 0-2.05-.99-2.05-2.2s.93-2.19 2.07-2.18c1.14 0 2.06.98 2.05 2.2z"/><path d="m258 272.75c0 1.21-.93 2.19-2.07 2.18-1.14 0-2.05-.99-2.05-2.2.01-1.21.93-2.19 2.07-2.18s2.06.99 2.05 2.2z"/><path d="m264.38 272.78c0 1.21-.93 2.19-2.07 2.18-1.14 0-2.05-.99-2.05-2.2s.93-2.19 2.07-2.18c1.13.01 2.05.99 2.05 2.2z"/><path d="m270.75 272.81c-.01 1.21-.93 2.19-2.07 2.18s-2.05-.99-2.05-2.2.93-2.19 2.07-2.18 2.05.99 2.05 2.2z"/><path d="m277.12 272.84c0 1.21-.93 2.19-2.07 2.18s-2.05-.99-2.05-2.2.93-2.19 2.07-2.18c1.14 0 2.06.99 2.05 2.2z"/><path d="m283.49 272.87c0 1.21-.93 2.19-2.07 2.18-1.14 0-2.05-.99-2.05-2.2.01-1.21.93-2.19 2.07-2.18 1.14 0 2.06.99 2.05 2.2z"/></g><path d="m274.44 128.51c1.35-.56 2.3-1.95 2.31-3.59.01-2.14-1.61-3.89-3.62-3.9s-3.64 1.72-3.65 3.86c-.01 1.65.96 3.05 2.32 3.62-5.6.84-5.34 6.93-5.34 6.93l13.23.06s.3-6.15-5.25-6.98z"/><path d="m274.44 128.51c1.35-.56 2.3-1.95 2.31-3.59.01-2.14-1.61-3.89-3.62-3.9s-3.64 1.72-3.65 3.86c-.01 1.65.96 3.05 2.32 3.62-5.6.84-5.34 6.93-5.34 6.93l13.23.06s.3-6.15-5.25-6.98z" opacity=".1"/><path d="m248.74 139.37h47.19v5.64h-47.19z" transform="matrix(1 .0046151 -.0046151 1 .6591 -1.2554)"/><path d="m248.74 139.37h47.19v5.64h-47.19z" opacity=".2" transform="matrix(1 .0046151 -.0046151 1 .6591 -1.2554)"/><path d="m122.47 168.68c0 .01-.16.03-.46.05-.33.02-.78.06-1.36.1-.6.01-1.33.14-2.19.29-.43.09-.9.12-1.39.26s-1 .28-1.55.43c-2.16.68-4.76 1.76-7.37 3.66-2.61 1.88-5.22 4.57-7.26 8.08-1.07 1.72-1.85 3.72-2.54 5.81-.57 2.13-1.07 4.39-1.11 6.78-.11 1.19.01 2.4.06 3.62.03.61.16 1.22.24 1.84s.17 1.24.35 1.85c.51 2.49 1.52 4.92 2.8 7.26 2.56 4.69 6.86 8.73 12.18 11.07 2.66 1.17 5.6 1.81 8.59 1.93 2.99.19 6.06-.29 8.97-1.29l.88-.32.12-.04.11.05c4.3 2.18 8.52 4.33 12.61 6.4l-.38.32c-1.35-4.18-2.65-8.23-3.9-12.12l-.05-.15.11-.11c3.18-3.18 5.39-7.05 6.62-11.01 1.23-3.97 1.44-8.01.96-11.72s-1.69-7.09-3.31-9.93c-1.62-2.85-3.63-5.17-5.69-6.97-2.09-1.79-4.26-3.01-6.2-3.94-1.99-.83-3.76-1.36-5.23-1.65-.74-.13-1.39-.24-1.96-.33-.57-.04-1.05-.07-1.45-.1-.37-.03-.67-.05-.89-.07-.21-.03-.31-.04-.31-.05s.1-.01.3-.01c.22.01.52.01.89.03.4.02.89.04 1.46.06.58.09 1.24.18 1.98.29 1.49.26 3.28.77 5.3 1.59 1.97.92 4.17 2.13 6.3 3.93 2.11 1.81 4.16 4.14 5.82 7.03 1.66 2.87 2.91 6.3 3.41 10.07.5 3.76.31 7.87-.93 11.92-1.24 4.03-3.48 7.98-6.72 11.23l.06-.26c1.26 3.89 2.57 7.94 3.92 12.11l.2.61-.57-.29c-4.09-2.07-8.31-4.21-12.62-6.4l.22.01-.9.33c-2.97 1.02-6.11 1.51-9.17 1.32-3.06-.13-6.06-.78-8.78-1.98-5.43-2.4-9.81-6.53-12.41-11.31-1.3-2.38-2.32-4.87-2.83-7.4-.18-.62-.27-1.25-.35-1.88s-.21-1.25-.24-1.87c-.05-1.25-.16-2.48-.05-3.68.05-2.42.57-4.72 1.16-6.88.72-2.12 1.52-4.14 2.61-5.88 2.09-3.55 4.75-6.25 7.41-8.13 2.66-1.89 5.3-2.96 7.49-3.61.55-.14 1.08-.28 1.57-.41.49-.14.97-.16 1.4-.24.87-.14 1.61-.25 2.21-.24.58-.02 1.04-.03 1.37-.05s.49-.02.49-.01z"/><path d="m128.17 192.03h-1.85l-4.03-5.62v-3.69s-2.86-.18-2.52 4.65-.03 3.6-.03 3.6-6.07.02-6.57.55c-.37.38-.53 6.41-.6 9.68-.03 1.65.98 3.17 2.51 3.56.22.06.44.09.65.09 1.51 0 9.24-1.23 9.24-1.23h3.19v-11.59z"/><path d="m133.46 191.01-1.14 12.64h-3.16v-12.38z"/><path d="m171.15 448.34v-8.56l-15.33-.1-.13 12.92.95.07c4.23.27 21.52.67 24.35-.21 3.17-.97-9.84-4.12-9.84-4.12z"/><path d="m181.36 451.67c0 .14-5.73.26-12.81.26-7.07 0-12.81-.12-12.81-.26s5.73-.26 12.81-.26c7.07 0 12.81.12 12.81.26z"/><path d="m171.42 450.09c-.13-.07-.02-.52.31-.96.33-.45.73-.68.83-.58s-.11.48-.41.89c-.3.4-.6.72-.73.65z"/><path d="m172.4 450.65c-.13-.05-.06-.56.24-1.09.3-.54.7-.86.81-.77s-.08.53-.36 1.02c-.28.5-.56.89-.69.84z"/><path d="m160.36 451.63c-.06.04-.29-.18-.62-.56-.33-.37-.77-.9-1.34-1.35-.57-.44-1.2-.67-1.66-.72-.47-.06-.77.01-.8-.07-.03-.06.26-.27.81-.3.54-.04 1.31.17 1.96.68.65.5 1.06 1.11 1.32 1.54.27.45.39.74.33.78z"/><path d="m171.47 448.48c.08.12-.19.42-.63.58s-.83.11-.85-.04c-.02-.14.29-.31.67-.45s.73-.21.81-.09z"/><path d="m171.23 447.65c.01.14-.39.27-.91.27-.52.01-.93-.1-.92-.25.01-.14.42-.27.91-.27s.9.11.92.25z"/><path d="m208.9 448.34v-8.56l-15.33-.1-.13 12.79.95.07c4.23.27 21.52.8 24.35-.07 3.17-.98-9.84-4.13-9.84-4.13z"/><path d="m219.11 451.69c0 .14-5.73.26-12.81.26-7.07 0-12.81-.12-12.81-.26s5.73-.26 12.81-.26 12.81.12 12.81.26z"/><path d="m209.17 450.09c-.13-.07-.02-.52.31-.96.33-.45.73-.68.83-.58s-.11.48-.41.89c-.3.4-.6.72-.73.65z"/><path d="m210.15 450.65c-.13-.05-.06-.56.24-1.09.3-.54.7-.86.81-.77s-.08.53-.36 1.02c-.28.5-.55.89-.69.84z"/><path d="m198.11 451.63c-.06.04-.29-.18-.62-.56-.33-.37-.77-.9-1.34-1.35-.57-.44-1.2-.67-1.66-.72-.47-.06-.77.01-.8-.07-.03-.06.26-.27.81-.3.54-.04 1.31.17 1.96.68.65.5 1.06 1.11 1.32 1.54.27.45.39.74.33.78z"/><path d="m209.22 448.48c.07.12-.19.42-.63.58s-.83.11-.85-.04c-.02-.14.29-.31.67-.45.39-.14.73-.21.81-.09z"/><path d="m208.98 447.65c.01.14-.39.27-.91.27-.52.01-.93-.1-.92-.25.01-.14.42-.27.91-.27s.9.11.92.25z"/></g><path d="m265.38 194.44c-.4-.41-1.38-.22-1.38-.22s.17-1.17-.01-1.73c-.18-.57-1.44-.46-1.44-.46s-.08-.54.03-1.42c.03-.22-.09-.38-.29-.5-.6-.36-1.88-.34-1.88-.34-.77-.55 2.35-4.92 3.51-6.32 1.14-1.38.95-2.49-.08-2.49-.7 0-4.35 4.2-5.46 5.61s-4.1 5.33-4.2 2.2-1.36-5.5-2.14-5.9c-.79-.4-1.63.54-1.2 1.41.35.7.57 2.06.7 3.08.1.84.07 1.7-.12 2.53-.52 2.34-1.08 3.87-1.35 4.52l-.08-.04s-21.83 20.93-23.4 22.42c-1.42 1.34-29.78-1.59-35.46-2.19-1.55-.17-3.85-.49-5.85-.4-2.46.11-2.9.46-5.37.49-7.55.1-13.85.84-18.53 1.63-5.66.96-10.31 4.99-12.06 10.46-5.73 17.9-18.71 60.27-21.02 84.07-1.82 3.42-3.86 7.42-4.68 9.67-1.61 4.38-1.22 4.52-.68 4.62 1.45.27 3.12-7.59 3.74-5.69s-3.15 9.37-1.62 9.59c2 .29 3.59-7.97 3.77-8.66.18-.67 1.19-.44.99.17-.29.88-3.1 10.21-1.15 10.51 1.09.17 1.2-1.81 1.2-1.81s1.99-8.92 2.91-8.75c.93.17-.06 5.45-.52 7.21-.46 1.74.19 2.66 1.12 2.22.64-.3 2.17-5.64 2.59-7.39s1.47-6.56 2.88-3.77 3.55 4.41 4.43 4.45c.88.03 1.25-1.18.49-1.79-.62-.49-1.39-1.62-1.93-2.5-.45-.72-.78-1.51-.96-2.34-.7-3.2-.7-5.06-.7-5.06l-.16-1.03c2.24-11.09 8.69-43.64 17.97-64.43l3.82 7.86 1.66 5.82-10.18 25.14 43.41-.57-6.47-24.94 7.86-26c8.51.19 30.37.51 34.04-1.13 4.58-2.05 28.28-31.92 28.28-31.92 1.6-1.27 3.23-2.65 4.43-3.84-.01-.01 1.41-1.15.54-2.05z" fill="#ffbe9d"/><path d="m151.39 266.39c1.26-4.3 7.73-25.56 7.73-25.56s3.18 17.33 2.34 19.42c-.96 2.41-2.73 5.16-2.73 5.16-7.34 11.18-6.38 16.77-6.38 16.77l44.34-1.35c.11-6.2-3.56-20.62-4.33-22.92s1.78-9.84 1.78-9.84 5.01-5.09 4.82-7.71c-.39-5.28-.87-6.98-.87-6.98l26.98.99-.85-18.31-38.78-3.88c-1.34 3.82-13.56 1.95-13.56 1.95-13.19.43-13.98 2.86-19.48 7.12s-14.55 40.82-14.55 40.82z" fill="#6c5aaa"/><path d="m177.61 262.06c0 .07-.89.13-2.34.12-1.44-.01-3.44-.1-5.63-.32s-4.17-.53-5.58-.81c-1.42-.28-2.28-.51-2.27-.58s.9.03 2.33.22c1.43.18 3.39.43 5.57.65s4.16.37 5.59.47c1.45.11 2.34.18 2.33.25z" fill="#6c5aaa"/><path d="m180.65 258.29c.02.06-.9.41-2.42.83-1.52.41-3.66.87-6.06 1.16-2.4.28-4.59.34-6.16.3-1.58-.04-2.55-.17-2.55-.24 0-.08.98-.08 2.55-.13s3.73-.16 6.1-.45c2.37-.28 4.5-.68 6.04-1 1.53-.32 2.48-.54 2.5-.47z" fill="#6c5aaa"/><path d="m195.57 241.47c.07.01-.04.88-.3 2.26s-.66 3.28-1.17 5.37-1.03 3.96-1.44 5.3c-.41 1.35-.71 2.17-.78 2.15s.1-.87.42-2.24c.38-1.56.81-3.35 1.29-5.33.49-1.98.93-3.76 1.32-5.32.34-1.37.58-2.2.66-2.19z" fill="#6c5aaa"/><path d="m151.86 263.84c-.04.14-3.1-.57-6.83-1.59-3.74-1.02-6.73-1.96-6.69-2.1s3.1.58 6.83 1.59c3.73 1.02 6.73 1.96 6.69 2.1z" fill="#6c5aaa"/><path d="m198.57 233.15c0 .02-.41.07-1.15-.01-.73-.08-1.81-.25-3.05-.73-1.24-.47-2.66-1.24-3.98-2.42-1.32-1.17-2.5-2.79-3.25-4.69-.76-1.9-1.02-3.88-.9-5.64s.58-3.35 1.37-4.46c.78-1.13 1.81-1.67 2.53-1.86.36-.1.66-.12.85-.11.2.01.3.03.3.04 0 .05-.41.03-1.09.26-.66.24-1.6.8-2.29 1.88-1.36 2.14-1.74 6.05-.29 9.7.73 1.83 1.84 3.38 3.09 4.52 1.25 1.15 2.6 1.94 3.79 2.44 2.42 1 4.09.96 4.07 1.08z" fill="#6c5aaa"/><path d="m221.88 234.01c-.14 0-.25-4.13-.24-9.21.01-5.09.13-9.22.28-9.22.14 0 .25 4.13.24 9.22-.01 5.08-.13 9.21-.28 9.21z" fill="#6c5aaa"/><path d="m185.2 213.3c.11-2.23.34-4.75.34-4.75s5.52-.61 5.85-6.31 0-18.85 0-18.85l-10.05-5.12-11.05 8.73 1.68 28.5 10.17.65c1.6.1 2.98-1.18 3.06-2.85z" fill="#ffbe9d"/><path d="m186.19 197.73c.02 0 .02.11-.09.25-.1.13-.32.29-.63.28-.64-.03-1.26-.74-1.48-1.6-.11-.44-.11-.88-.03-1.27.07-.38.29-.76.6-.86.15-.06.31-.05.42.01.12.06.19.15.23.23.07.17.02.27 0 .26-.02 0-.02-.09-.1-.2s-.27-.21-.47-.1c-.21.1-.36.37-.41.71-.06.34-.06.74.05 1.13.2.77.74 1.41 1.21 1.47.24.03.43-.06.54-.15.1-.09.14-.17.16-.16z" fill="#eb996e"/><path d="m194.82 180.32c-.77-2.62-3.56-3.93-6.1-4.65-3.87-1.1-8.06-1.58-11.83-.19-3.78 1.39-8.32 3.84-8.32 8.01-2.23-.18-3.5 1.77-4.39 4.19-.52 1.43-.87 3.02-.95 4.6l-.04-.01c-.29 5.46-1.81 12.99-5.35 17.03-1.96 2.23-4.77 3.77-5.91 6.55-.99 2.42-.48 5.27-1.41 7.71-.83 2.15-2.66 3.68-3.97 5.55-2.86 4.08-3.05 9.84-.95 14.39s6.26 7.88 10.88 9.41 9.66 1.36 14.36.13c3.47-.9 6.85-2.4 9.62-4.77 2.77-2.36 4.89-5.65 5.52-9.32.7-4.09-.44-8.23-1.28-12.29-2.66-12.84-1.9-13.5 1.46-25.41.08-.21.12-.43.18-.64.04-.16.09-.31.13-.47h-.01c.09-.47.16-.94.16-1.42-.97.38-2.15.13-2.89-.63-.75-.75-1.02-1.97-.68-2.99.39-1.18 1.47-1.96 2.58-2.43s2.3-.7 3.39-1.22c2.31-1.1 3.91-3.38 5-5.77.75-1.68 1.32-3.59.8-5.36z" fill="#263238"/><path d="m186.59 197.97c.03-.01.23.36.53.99s.7 1.52 1.14 2.55l.08.19-.21.02c-.33.03-.67.06-1.02.09-.7.05-1.28.13-1.96.12-.11-.02-.23-.12-.26-.23-.04-.11-.03-.2-.02-.28.03-.16.06-.27.09-.41l.18-.71c.22-.86.38-1.39.42-1.38s-.04.56-.21 1.43l-.14.72c-.05.24-.14.6-.01.58.5-.02 1.21-.1 1.87-.15.35-.03.68-.05 1.02-.08l-.13.21c-.43-1.03-.79-1.94-1.04-2.59-.24-.65-.37-1.05-.33-1.07z" fill="#6c5aaa"/><path d="m152.35 282.17 44.34-1.35 19.28 75.34-3.55 86.42h-23.47l2.91-84.58-17.15-52.45 2.64 140.38-23.69.35-2.5-131.95c-.1-3.67-1.31-11.94-.86-15.58z" fill="#263238"/><path d="m180.62 306.62c-.01.07-.84.03-2.17-.13s-3.17-.44-5.18-.84c-2.01-.41-3.81-.86-5.1-1.23s-2.07-.65-2.06-.72c.04-.14 3.26.64 7.26 1.44s7.27 1.33 7.25 1.48z" fill="#455a64"/><path d="m212.21 437.84c0 .14-5.31.26-11.87.26s-11.87-.12-11.87-.26 5.31-.26 11.87-.26 11.87.11 11.87.26z" fill="#455a64"/><path d="m177.15 442.28c0 .14-5.15.26-11.51.26s-11.51-.12-11.51-.26 5.15-.26 11.51-.26c6.35 0 11.51.12 11.51.26z" fill="#455a64"/><path d="m174.09 441.92c-.14 0-.77-30.67-1.39-68.5-.62-37.84-1.01-68.52-.87-68.52s.77 30.67 1.39 68.51c.63 37.83 1.02 68.51.87 68.51z" fill="#455a64"/><path d="m209.06 437.84c-.01 0-.01-.14-.01-.41.01-.29.01-.69.02-1.2.03-1.08.08-2.63.13-4.6.14-4.03.34-9.8.59-16.93.55-14.32 1.3-34.05 2.14-55.85.01-.2.02-.4.02-.59l.01.07c-5.26-21.04-10.01-40.06-13.45-53.85-1.69-6.87-3.06-12.43-4.01-16.31-.46-1.91-.81-3.4-1.06-4.44-.11-.49-.2-.87-.26-1.16-.06-.26-.08-.4-.07-.4s.05.13.12.39c.08.28.18.66.31 1.14.27 1.04.66 2.52 1.16 4.42.99 3.87 2.42 9.42 4.17 16.27 3.48 13.78 8.28 32.79 13.6 53.82l.01.04v.04c-.01.18-.02.39-.02.59-.89 21.79-1.7 41.53-2.29 55.84-.32 7.12-.57 12.9-.75 16.92-.1 1.98-.18 3.52-.23 4.6-.03.51-.06.9-.07 1.2-.03.26-.05.4-.06.4z" fill="#455a64"/><path d="m201.41 356.5c.02.14-2.3.66-5.18 1.15-2.16.37-4.02.62-4.83.67v-.2c.27.07.42.13.41.17s-.16.05-.44.04l-.61-.03.6-.18c.78-.23 2.62-.61 4.78-.98 2.89-.5 5.25-.78 5.27-.64z" fill="#455a64"/><path d="m200.97 359.37c-.02.14-2.1-.02-4.67-.21-2.57-.2-4.65-.37-4.65-.51s2.1-.21 4.69-.01c2.58.2 4.64.59 4.63.73z" fill="#455a64"/><path d="m152.16 283.76c1.07 1.51 2.6 2.04 4.38 2.33s3.59.1 5.38-.1c11.45-1.27 23.57-2.44 34.78-5.17-14.51.81-29.83.54-44.34 1.35 0 0-.12 1-.15 1.24" opacity=".2"/><path d="m167.11 304.21 8.18 31.74-.57-30.4z" opacity=".2"/><path d="m130.87 291.01 13.5 2.66-.56 2.51-13.58-2.73z" fill="#6c5aaa"/></svg>