<svg enable-background="new 0 0 511.999 511.999" viewBox="0 0 511.999 511.999" xmlns="http://www.w3.org/2000/svg"><path d="m422.555 87.386 84.306 89.39h-127.487z" fill="#ecf8fd"/><path d="m256.008 87.386 123.366 91.446 43.181-91.446z" fill="#cbedf9"/><path d="m506.861 176.776-250.853 247.835 123.366-247.835z" fill="#aae2f5"/><path d="m90.471 87.386-83.278 90.418 128.515 1.028z" fill="#7dd2f0"/><path d="m256.008 87.386-120.3 91.446-45.237-91.446z" fill="#64b9dc"/><path d="m256.008 87.386-122.356 90.418 245.722 1.028z" fill="#aae2f5"/><path d="m133.652 177.804 122.356 246.807 124.394-246.807z" fill="#7dd2f0"/><path d="m7.193 177.804 248.815 246.807-122.356-246.807z" fill="#64b9dc"/><path d="m504.812 160.648-72.779-72.78c-5.734-5.733-12.606-8.764-19.874-8.764h-311.546c-7.442 0-15.168 3.283-20.667 8.782l-72.72 72.716c-4.66 4.66-7.226 10.854-7.226 17.442s2.566 12.783 7.225 17.441l229.2 229.2c4.877 4.877 11.254 7.709 18.091 8.068.065.012.131.021.196.03.08.013.158.029.239.04.058.007.116.017.174.023.168.017.339.022.511.029.119.005.238.021.357.021.002 0 .004-.001.006-.001s.004.001.006.001c.118 0 .238-.015.357-.021.172-.008.342-.012.511-.029.059-.006.116-.016.175-.023.08-.011.158-.027.238-.04.066-.01.133-.018.197-.03 6.836-.36 13.212-3.19 18.09-8.067l229.217-229.223c9.603-9.604 9.615-25.221.022-34.815zm-347.064 9.045 90.026-66.019v66.019zm90.026 16.45v203.683l-101.842-203.683zm-112.153-20.623-34.983-69.966h130.391zm98.313 233.412-212.788-212.789h106.394zm120.33-170.795c-4.062-2.032-9.003-.385-11.035 3.678l-79.005 158.01v-203.682h16.452c4.542 0 8.225-3.683 8.225-8.225s-3.683-8.225-8.225-8.225h-16.452v-66.019l69.117 50.687c1.466 1.075 3.17 1.594 4.858 1.594 2.53 0 5.028-1.165 6.64-3.363 2.686-3.663 1.895-8.81-1.768-11.497l-62.102-45.541h130.391l-37.069 74.138h-60.72c-4.542 0-8.225 3.683-8.225 8.225s3.683 8.225 8.225 8.225h52.495l-6.385 12.77c-2.032 4.063-.384 9.004 3.679 11.035 1.18.59 2.436.871 3.671.871 3.018 0 5.922-1.667 7.363-4.548l10.064-20.128h106.388l-212.782 212.788 79.878-159.757c2.031-4.064.384-9.005-3.678-11.036zm136.329-58.444h-97.911l32.637-65.275zm-403.915-65.275 32.637 65.275h-97.916z" fill="#2d2b29"/></svg>