<svg enable-background="new 0 0 2150.32 1113.91" viewBox="0 0 2150.32 1113.91" xmlns="http://www.w3.org/2000/svg" xmlns:xlink="http://www.w3.org/1999/xlink"><linearGradient id="a"><stop offset="0" stop-color="#ff9f55"/><stop offset="1" stop-color="#ffd255"/></linearGradient><linearGradient id="b" gradientUnits="userSpaceOnUse" x1="574.9086" x2="690.1826" xlink:href="#a" y1="588.6948" y2="588.6948"/><linearGradient id="c" gradientUnits="userSpaceOnUse" x1="647.4697" x2="675.0684" xlink:href="#a" y1="514.176" y2="514.176"/><linearGradient id="d" gradientUnits="userSpaceOnUse" x1="647.4863" x2="672.6592" xlink:href="#a" y1="507.9666" y2="507.9666"/><linearGradient id="e" gradientUnits="userSpaceOnUse" x1="571.8418" x2="609.1837" xlink:href="#a" y1="514.2831" y2="514.2831"/><linearGradient id="f" gradientUnits="userSpaceOnUse" x1="582.1755" x2="699.3237" xlink:href="#a" y1="746.8337" y2="746.8337"/><linearGradient id="g" gradientUnits="userSpaceOnUse" x1="1527.4022" x2="1799.4484" xlink:href="#a" y1="579.5892" y2="579.5892"/><linearGradient id="h" gradientUnits="userSpaceOnUse" x1="1542.4519" x2="1624.0332" xlink:href="#a" y1="561.4802" y2="561.4802"/><linearGradient id="i" gradientUnits="userSpaceOnUse" x1="1660.7253" x2="1687.8613" xlink:href="#a" y1="530.3519" y2="530.3519"/><linearGradient id="j" gradientUnits="userSpaceOnUse" x1="768.3272" x2="1181.6447" xlink:href="#a" y1="667.7612" y2="667.7612"/><path d="m2204 149.93v964.07h-2263v-747.09h54.23v-185.83h69.68v94.66h88.76l35.12 44.2h35.62v-229.02h81.97v59.01h69.57v113.92h93.46v-142.93h73.75v60.12h38.35l33.19-41.78h37.78v-138.57h105.6v205.66h107.94v49.57h41.85v-74.84h159.5v82.77h61v-113.92h93.06v170.01h5.44v-229.02h82v59.01h69.54v113.92h93.42v-142.93h73.75v60.12h38.41l33.19-41.78h37.75v-138.57h105.57v205.66h108v49.57h41.85v-74.84h83.97v82.77h136.48v-113.92z" fill="#f3e5f5"/><path d="m116 1081v-741.06h74.65v135.39h85.77l26.18 48.95h284.6l44.28-82.8h89.39v-139.04h78.17v187.47h143.95l55.48-103.73h178v174.81h79.09l38.5-71.99h97.4l27.57 51.55h120.58v-193.74h85.77v63.95h67.95v-135.59h62.38v204.92h174.89l16.35 30.58h151.05v570.33z" fill="#f3e5f5"/><path d="m702.74 1007.1s16.71 28.32 23.76 32.95c9.58 6.28 3.58 12.63-.97 12.64s-27.77 1.67-32.89-4.14-7.66-23.21-12.42-27.77c-4.76-4.55-9.12-21.35 2.32-27.04 12.54-6.25 20.2 13.36 20.2 13.36z" fill="#e55353"/><path d="m696.47 992.25s18.17 35.56 21.47 40.46-6.21 4.89-12.1 2.57c-5.89-2.33-21.18-25.92-22.84-30.45s-.45-11.09-.45-11.09z" fill="#3b3b40"/><path d="m676.12 1012.49 4.41 34 2.35.11-.73-24.47z" fill="#e55353"/><path d="m559.48 979.49s4 32.64 8.62 39.7c6.27 9.58-1.77 13.01-5.94 11.2s-26.13-9.57-28.5-16.93c-2.37-7.37 2.25-24.34-.29-30.41s.17-23.21 12.93-23.87c14-.73 13.18 20.31 13.18 20.31z" fill="#e55353"/><path d="m559.67 963.37s2.45 39.86 3.52 45.67-7.65 2-12.12-2.48c-4.47-4.49-9.06-32.22-8.78-37.04.29-4.82 4.02-10.35 4.02-10.35z" fill="#3b3b40"/><path d="m532.92 973.79-9.53 32.94 2.1 1.03 9.11-22.72z" fill="#e55353"/><path d="m700.05 689.44c-.54-2.64-20.72-41.74-24.36-53.52s-6.77-22.58-8.6-27.24c-.12-.31-.32-.84-.57-1.56-1.24-3.46-3.93-11.18-6.7-18.4-.2-.5-.39-1.01-.59-1.51l-.28-2.76c-1.95-5-.02-7.88.02-11.86.01-1.2-.15-2.49-.64-3.97-.02-.05-.03-.11-.05-.16-2.3-6.71-4.02-12.57-4.36-15.86-1.12-10.93-7.03-59.58-7.03-59.58s19.13 9.9 21.25 17.55c3.23 11.6 6.52 28.85 7.33 34.16.82 5.31 9.13 49.48 10.86 58.46s3.72 16.59 6.22 22.53 19.11 58.91 20.14 63.65c1.04 4.76-12.1 2.71-12.64.07z" fill="#eea886"/><path d="m699.8 683.9s-.34 6.19-1.65 12.66c-.64 3.15 2 22.73 2.53 25.23.44 2.1 1.64.62 2.13-.89.28-.87.45-7.81 1.11-11.6.55-3.18 1.27-4.45 1.96-3.56s3.71 13.25 3.44 18.79 2.95 17.67 5.47 15.42c2.52-2.24 5.45-25.62 3.52-33.92s-6.66-18.34-6.66-18.34z" fill="#eea886"/><path d="m629.22 731.67c.83 4.02 6.16 20.84 12.12 39.53 5.44 17.04 11.41 35.63 14.98 47.49 1.34 4.43 2.34 7.92 2.86 10.04 3.43 14.05-.43 36.08-1.68 54.49-1.25 18.42 25.48 121.59 25.48 121.59 4.68 2.18 13.48-12.58 13.48-12.58-3.43-6.55-2.95-122.93-1.08-130.11s3.12-27.15 1.25-34.96c-.38-1.6-.57-3.72-.61-6.26-.16-9.85 1.87-26.13 3.11-43.99 1.56-22.47-7.18-78.34-8.42-83.34-.12-.46-.3-1.11-.53-1.9-2.3-7.83-9.7-30.08-9.7-30.08-15.01-4.47-26.32-5.27-34.76-3.55-11.17 2.27-17.32 8.98-20.39 17.49-7.34 20.34 2.81 50.93 3.89 56.14z" fill="#3b3b40"/><path d="m544.71 961.93 15.2 5.35c2.58-12.48 64.32-99.83 68.08-109.5 3.77-9.68 7.78-28.4 7.78-35.27 0-1.23.09-3.29.26-5.98.67-10.41 2.57-30.04 5.3-45.32.51-2.85 1.05-5.55 1.61-8.01 3.02-13.17 3.55-58.19 3.58-84.67.02-11.78-.06-19.89-.06-19.89s-.26-.21-.75-.58c-5.69-4.31-42.2-30.57-54.93-6.02-3.36 6.49-5.56 13.45-6.89 20.71-4.08 22.25-.08 47.3 3.22 70.13 2.82 19.53 8.22 47.13 9.77 67.61.86 11.27.55 20.38-2 24.81-7.18 12.49-14.2 23.05-28.71 67.11-4.72 14.33-21.46 59.52-21.46 59.52z" fill="#3b3b40"/><path d="m655.45 431.39s7.94-51.36-34.6-50.41-41.97 26.34-41.21 51.55 17.06 23.31-1.33 58.38c-18.38 35.06 15.92 35.06 15.92 35.06l26.62-36.58z" fill="#3c4145"/><path d="m625.5 385.9s28.81 4.55 29.95 45.49-7.77 49.66-32.98 41.13-33.17-51.36-33.74-58c-.57-6.63-2.08-33.54 36.77-28.62z" fill="#eea886"/><path d="m574.91 528.3c-.11 14.1 16.09 47.79 18.59 58.2 2.5 10.4 6.45 13.73 3.12 27.05s-13.65 58.37-13.23 62.32 92.85 18.53 106.8 15.83c0 0-17.04-63.59-18.29-70.88-1.25-7.28 1.52-34.59 2.14-42.29s8.42-24.27 8.16-31.99c-.27-7.86-4.13-14.65-9.53-23.05-1.67-2.6-3.43-5.25-5.19-7.83-5.72-8.4-11.44-16.02-14.25-18.65-2.09-1.95-4.04-3.45-5.74-4.58-.01-.01-.02-.01-.02-.01-3.53-2.35-5.9-3.11-5.9-3.11l-24.76-3.95s-15.43 5.58-24.31 7.66c-.01 0-17.33 2.53-17.59 35.28z" fill="url(#b)"/><path d="m647.47 492.43 14.35 22.62 13.25 20.88c-.03-.11-.91-3.27-2.41-12.43-.29-1.74-.59-3.69-.92-5.88-.1-.65-.24-1.29-.42-1.93-5.67-13.07-23.2-22.93-23.84-23.25 0-.01-.01-.01-.01-.01z" fill="url(#c)"/><path d="m575.75 516.4s3.98-26.83 23.64-22.41c18.89 4.25 1.19 39.43-.2 43.59-1.39 4.17-15.38 38.19-16.59 42.64-3.84 14.1-.24 14.43 5.53 17.75 17.04 9.81 52.07 9.17 56.11 11.87s3.8 11.09-2.99 11.39c-8.83.38-59.3-4.37-66.34-5.06-6.83-.67-20.42-1.24-16.85-25.5 2.4-16.35 17.69-74.27 17.69-74.27z" fill="#eea886"/><path d="m606.26 454.08c2.5 4.72 5.13 33.99 5.13 33.99s35.24 13.32 31.63 5.78c-1.63-3.42-2.12-7.86-2.15-11.68-.03-3.01.22-5.65.39-7.11.09-.77.16-1.21.16-1.21s-37.66-24.49-35.16-19.77z" fill="#eea886"/><path d="m637.25 415.28s-14.78 24.07-28.24 33.55-6.63 17.06-6.63 17.06-35.11-73.92-1.73-79.04 53.85-5.5 54.8 44.54c0 0-15.17-16.49-18.2-16.11z" fill="#3c4145"/><path d="m621.17 472.05c5.41 7.98 19.7 10.12 19.7 10.12s0 0 0 0c-.03-3.01.22-5.65.39-7.11-9.17 1.77-20.09-3.01-20.09-3.01z" fill="#a77860"/><path d="m671.26 515.53s.77 1.58 1.39 7.96l-5.19-7.83s-9.27-13.29-12.45-16.75-7.54-6.48-7.54-6.48 18.25 8.77 23.79 23.1z" fill="url(#d)"/><path d="m665.66 544.23-55.53-4.6c-2.37-.2-4.44 1.57-4.62 3.94l-6.89 91.99c-.17 2.31 1.52 4.33 3.82 4.57l53.31 5.49c2.36.24 4.46-1.48 4.69-3.83l9.11-92.88c.25-2.38-1.51-4.48-3.89-4.68z" fill="#2f4563"/><path d="m613.24 606.1s10.52 1.76 11.5 1.6 5.14-6.97 9.96-8.19 10.84-2.16 12.33-3.09c1.48-.93 1.89 3.8-2.74 5.73s-5.79 4.52 2.88 6.25c4.79.96 22.72-1.04 21.23 1.99-.87 1.78-18.14 3.05-18.14 3.05s18.63-.09 19.27 1.04c1.25 2.22-17.44 3-18.22 2.93 0 0 16.02.92 16.16 2.36.17 1.79-16.05 1.03-15.9 1.32 0 0 12.73.88 12.6 1.96-.17 1.42-11.37 1.6-13.54 1.34-2.17-.25-24.12-2.75-27.8-3.49-3.71-.74-9.9-1.17-9.9-1.17z" fill="#eea886"/><path d="m593.15 600.4s10.42 3.66 20.09 5.71-.33 13.64-.33 13.64-16.76-1.55-24.81-2.33c-3.89-.39 5.05-17.02 5.05-17.02z" fill="#eea886"/><path d="m601.15 535.35s-22.62-8.87-29.31-9.39c0 0 4.55-36.32 26.76-32.47 22.22 3.86 2.55 41.86 2.55 41.86z" fill="url(#e)"/><path d="m587.12 742.88c2.82 19.53 8.22 47.13 9.77 67.61 0 0 15.93 3.18 39.15 6.04 6.29.77 13.11 1.52 20.29 2.18 12.44 1.14 25.97 2 39.7 2.22-.16-9.85 1.87-26.13 3.11-43.99 1.56-22.47-7.18-78.34-8.42-83.34-.12-.46-.3-1.11-.53-1.9-11.23-6.18-27.34-10.35-43.64-13.17-7.16-1.24-14.36-2.21-21.2-2.98-21.38-2.4-39.23-2.77-41.43-2.81-4.1 22.25-.09 47.31 3.2 70.14z" fill="url(#f)"/><path d="m641.57 489.32s16.6 25.53 10.98 27.76-36.04-2.98-48.98-27.23c0 0 19.34-9.92 38-.53z" fill="#eea886"/><path d="m330.91 718.13-6.19-10.73c-1.8-3.12-.73-7.12 2.39-8.92l35.07-20.25c3.12-1.8 7.12-.73 8.92 2.39l6.19 10.73c1.8 3.12.73 7.12-2.39 8.92l-35.07 20.25c-3.12 1.8-7.12.74-8.92-2.39z" fill="#525252"/><path d="m336.61 713.27s-2.45-1.38-3.23-2.51c0 0-1.26-2.16-2.25-3.64-.32-.47-.6-.87-.81-1.11-.88-1-3.12-2.94-4.55-5.95-1.44-3-4.31-17.55-4.31-17.55l7.42-3.79 6.44-4.54s17.04 11.21 18.71 13.85c.16.26.31.52.43.78 1.19 2.38 1.08 4.64 1.57 5.96.17.49 1.59 5.42.72 6.69-1.2 1.76-2.75 2.49-4.21 2.46 0 0-2.51 3.34-5.24 4.01 0 0-2.21 3.15-5.84 3.02-.01 0-2.61 2.95-4.85 2.32z" fill="#eea886"/><path d="m197.51 749.01-33.65-7.51c-3.42-.76-5.58-4.16-4.81-7.58l4.74-21.22c.76-3.42 4.16-5.58 7.58-4.81l33.65 7.51c3.42.76 5.58 4.16 4.81 7.58l-4.74 21.22c-.76 3.41-4.16 5.57-7.58 4.81zm-27.07-36.97c-1.12-.25-2.24.46-2.49 1.58l-4.74 21.22c-.25 1.12.46 2.24 1.58 2.49l33.65 7.51c1.12.25 2.24-.46 2.49-1.58l4.74-21.22c.25-1.12-.46-2.24-1.58-2.49z" fill="#0e1e2b"/><path d="m173.74 720.18s-.89-2.57-.73-3.88c0 0 .48-2.37.71-4.07.07-.54.12-1.01.13-1.32.01-1.29-.36-4.12.52-7.22.88-3.09 8.14-15.45 8.14-15.45l7.79 2.02 7.56.86s5.12 19.03 4.63 22c-.05.29-.11.58-.19.84-.66 2.48-2.2 4.05-2.69 5.31-.19.46-2.33 4.93-3.77 5.29-2 .5-3.58.04-4.62-.92 0 0-3.95.81-6.35-.46 0 0-3.62.86-6.16-1.57.01 0-3.76.46-4.97-1.43z" fill="#eea886"/><path d="m254.54 545.93c-1.5 1.93-7.44 12.99-13.72 24.78-1.04 1.95-2.09 3.91-3.12 5.86-.83 1.57-1.67 3.13-2.47 4.65-.89 1.67-1.77 3.31-2.61 4.88-3.51 6.57-6.47 12.04-7.95 14.5-4.24 7.05-11.13 32.72-12.81 37.8s-9.97 55.35-9.97 55.35-26.51.09-25.7-1.91 10.9-56.26 12.92-64.43c2.67-10.74 12.91-39.6 13.93-41.74s22.6-47.15 25.52-54.88c3.09-8.19 4.7-15.6 17.58-30.92 12.88-15.31 27.6-7.3 27.6-7.3 11.98 8.61-16.14 49.4-19.2 53.36z" fill="#6c5aaa"/><path d="m107.95 735.04h129.35v92.68h-129.35z" fill="#665955" transform="matrix(.976 .2178 -.2178 .976 174.3288 -18.8405)"/><path d="m112.19 735.5h129.35v53.72h-129.35z" fill="#877671" transform="matrix(.976 .2178 -.2178 .976 170.29 -20.221)"/><path d="m261.49 482.78c1.63-8.66 0-21.18 0-21.18s31.65 14.63 26.17 18.59c-1.43 1.03-2.41 3.02-3.09 5.4-1.93 6.75-1.35 16.94-1.35 16.94l10.46 12.2c9.26 12.74-32.98-27.74-32.19-31.95z" fill="#eea886"/><path d="m156.6 959.15s2.92 11.73 5.56 26.23 14.91 25.14 16.69 27.7 9.77 12.84 2.78 14.09-35.66-17.9-43.51-28.9c0 0-4.68-10.41-5.32-11.03-.64-.61-4.64 2.49-4.64 2.49l-7.33-5.06s-3.1-2.33-4.24-3.65c-1.13-1.33 1.53-8.73 1.94-9.43.47-.81 13.29-18.45 21.57-22.26 8.28-3.82 16.5 9.82 16.5 9.82z" fill="#34395c"/><path d="m396.12 991.34s10.07 6.09 21.86 14.28 27.43 7.19 30.4 7.75 15.47 2.22 11.6 7.81c-3.87 5.6-36.47 11.87-49.37 9.62 0 0-10.35-3.99-11.21-3.98s-1.42 4.86-1.42 4.86l-8.45 1.49s-3.7.5-5.39.36c-1.68-.14-4.83-6.92-5.2-7.81-.34-.84-3.74-21.71-.77-29.95 2.97-8.25 17.95-4.43 17.95-4.43z" fill="#3c4169"/><path d="m165.88 940.62s-9.15 16.91-9.73 19.91c-.58 2.99-14.15 3.08-16.81-9.69 0 0 10.62-21.34 10.28-21.91s16.26 11.69 16.26 11.69z" fill="#eea886"/><path d="m261.1 755.83s-1.03 3.5-2.65 9.06c-1.06 3.6-2.38 8.08-3.83 13.02-6.64 22.57-16.24 54.93-18 59.49-2.76 7.11-15.47 27.92-17.37 29.12-1.91 1.19-51.83 87.04-53.37 91.09 0 0-20.49-9.29-24.24-16.1 0 0 34.17-94.61 47.97-111.22 13.3-16 12.56-111.53 24.64-140.37 12.07-28.84 54.19 40.87 46.85 65.91z" fill="#34395c"/><path d="m389.61 972.29s5.48 17.84 7.16 20.3c1.68 2.45-7.45 11.71-18.05 4.73 0 0-7.54-21.89-8.17-22.05-.63-.17 19.06-2.98 19.06-2.98z" fill="#eea886"/><path d="m297.61 690.63s42.72 98.62 47.64 113.38 2.56 27.38 5.25 33.52 41.94 143.61 41.94 143.61-20.76 11.37-30.15 6.79c0 0-35.54-90.47-43.05-105.28-7.05-13.91-10.97-41.85-20.03-59.83-6.34-12.58-84.14-108.6-84.83-144.06-.69-35.45 83.23 11.87 83.23 11.87z" fill="#393d63"/><path d="m261.78 483.88s12.21 4.96 16.37 16.13c4.16 11.18 2.4 25.98 2.58 31.09s8.5 55.17 9.56 56.66 17.83 32.4 24.73 48.08 21.77 35.79 21.77 35.79l-11.46 6.72s-52.23-61.43-55.3-78.24-23.34-67.44-23.34-67.44-10-37.46 15.09-48.79z" fill="#eea886"/><path d="m284.63 391.33c10.52-.21 33.68 5.73 36.49 33.68 0 0-1.05 7.48-3.04 13.33s2.81 23.39 1.4 24.21c-1.4.82-7.13 1.75-7.13 1.75s-6.67 18.83-13.33 18.48c-6.67-.35-31.77-6.28-43-30.25s-13.88-60.34 28.61-61.2z" fill="#eea886"/><path d="m321.12 425.01s-17.39 11.15-34.38 13.02c-17 1.87-28.31 19.04-28.31 19.04s-24.87-33.08-3.35-58.65c21.52-25.56 70.64-5.76 66.04 26.59z" fill="#3b3b40"/><path d="m309.19 581.02c-5.23 5.5-.94 18.24-1.64 25.49-.19 1.93-.79 8.28-1.64 16.7-.87 8.7-1.99 19.6-3.15 30.12-.46 4.2-.93 8.34-1.39 12.25-1.46 12.4-2.86 22.51-3.76 25.04-2.57 7.25-59.92 7.6-82.61-16.96 0 0-4-8.08 22.05-55.12 5.22-9.43.1-56.24-4.11-68.63-4.21-12.4-5.71-54.52 28.54-67.13 0 0 20.57 17.78 27.59 25.73s29.94 36.72 32.04 45.38c2.11 8.65-6.23 21.15-11.92 27.13z" fill="#6c5aaa"/><path d="m287.66 480.2c-1.43 1.03-2.41 3.02-3.09 5.4-12.27-7.36-18.31-18.39-18.5-18.74 6.7 8.27 21.59 13.34 21.59 13.34z" fill="#a77860"/><path d="m307.55 606.51c-.19 1.93-.79 8.28-1.64 16.7-5.24 5-40.88-63.9-24.09-83.51 0 0 11.88 46.24 13.18 48.58 1.3 2.35 12.55 18.23 12.55 18.23z" fill="#393d63"/><path d="m262.06 485.6s13.6 6.32 17.95 18 2.51 27.15 2.7 32.49 8.89 57.66 10 59.22 16.55 25.43 23.77 41.81c7.21 16.38 23.45 38.89 23.45 38.89l-19.53 10.95s-46.67-58.97-51.09-76.28c-4.72-18.48-22.15-72.95-22.15-72.95s-15.03-46.61 14.9-52.13z" fill="#6c5aaa"/><path d="m237.69 576.58c-.83 1.57-1.67 3.13-2.47 4.65-.89 1.67-1.77 3.31-2.61 4.88-1.17-14.04-1.71-48.26-1.71-48.26s1.47 10.12 3.03 15.51c1.44 4.99 3.46 20.83 3.76 23.22z" fill="#393d63"/><path d="m279.86 386.78s-44.13-3.41-42.17 50.28c1.96 53.7-7.05 67.81-26.57 92.14s-2.4 54.67 16.52 39.05 40.61-50.88 41.02-88.62c.41-37.73 11.2-92.85 11.2-92.85z" fill="#3b3b40"/><path d="m279.72 437.06c0-3.28-3.51-8.3-9.01-3.97s1.29 20.12 5.73 18.71c4.45-1.41 3.28-11.35 3.28-14.74z" fill="#eea886"/><path d="m258.45 764.89c-1.06 3.6-2.38 8.08-3.83 13.02-5.03-10.46-16.54-43.7-16.89-44.74 2.87 4.78 20.3 31.1 20.72 31.72z" fill="#2b2d4a"/><path d="m1822.55 1018.96s-15.25 21.43-13.16 24.83 18.13 3.88 27.9 0c9.76-3.88 10-29 14.42-39.79 1.85-4.52-2.11-17.85-7.67-18.82s-11.62 1.87-11.62 1.87 5.76 15.2-9.87 31.91z" fill="#363a5e"/><path d="m1832.31 986.88s-3.21 9.13-4.38 17.84c-.97 7.23-10.87 22.57-10.4 24.51.46 1.94 13.02 3.7 18.13-1.3 5.12-5 8.41-19.56 9.53-28.26 1.05-8.11 2.37-12.11 2.37-12.11s-10.37-6.02-15.25-.68z" fill="#eea886"/><path d="m1955.33 1019.32s-14.71 21.08-12.61 24.47c2.09 3.4 18.13 3.88 27.9 0 9.76-3.88 10-29 14.41-39.79 1.85-4.52-2.11-17.85-7.67-18.82s-12.09 2.08-12.09 2.08 5.7 15.35-9.94 32.06z" fill="#363a5e"/><path d="m1965.27 987.26s-1.16 9.95-3.02 16.98c-1.86 7.04-11.86 23.05-11.39 24.99.46 1.94 13.02 3.7 18.13-1.3 5.12-5 9.07-19.49 9.53-28.26s-1.16-14.49-1.16-14.49-7.21-3.26-12.09 2.08z" fill="#eea886"/><path d="m1891.79 638.36s-13.09 63.55-16.1 79.55-11.42 93.49-12.33 106.67c-.9 13.18-13.66 62.82-13.06 67.53s-18.92 99.24-18.92 99.24 6.67 5.6 13.69.51c3.61-2.62 42.82-88.5 42.82-112.03 0-32.52 23.05-74.98 26.02-82.26 27.62-67.6 22.19-88.26 25.79-92.65 3.61-4.39 3.92 2.71 6.02 12.44s6.61 93.8 9.32 104.47.6 46.75 2.11 64.94c1.5 18.2 8.1 100.5 8.1 100.5s5.11 8.36 12.28.22c1.54-1.75 12.38-91.69 12.68-113.33.3-21.65.62-51.5 1.2-60.86 5.57-89.7 19.26-102.51-2.3-166-40.34-118.88-97.32-8.94-97.32-8.94z" fill="#eea886"/><path d="m1979.7 620.6s37.29 54.46 21.24 170.33c0 0-88.46 12.55-135.85-14.52 0 0 19.6-119.46 26.7-138.04 7.1-18.59 87.91-17.77 87.91-17.77z" fill="#3f446e"/><path d="m1852.11 1002.11v22.44h-2.79v-17.34z" fill="#363a5e"/><path d="m1985.44 1002.11v22.44h-2.79v-17.34z" fill="#363a5e"/><path d="m1935.49 379.1s-24.98 25.16-16.47 57.55c8.51 32.4 22.17 32.58 37.24 18.64s23.93-28.6 25.92-44.88c1.99-16.29-23.89-53.76-46.69-31.31z" fill="#eea886"/><path d="m1930.6 487.14s3.7-8.47 6.3-18.02c.46-1.68.88-3.4 1.24-5.11 1.27-6 1.8-11.91.42-15.97-3.98-11.76 24.98-3.62 24.98-3.62s-5.61 31.13 0 41.63-32.94 1.09-32.94 1.09z" fill="#eea886"/><path d="m2003.99 501.97c-4.56-9.1-7.97-12.03-16.78-14.81-4.93-1.56-26.95-7.29-26.95-7.29l-26.45-.97s-18.2 3.03-32.31 7.92c-14.12 4.89-32.61 31.63-32.61 31.63s25.52 59.91 30.41 77.1c4.88 17.19 1.63 43.8 1.63 43.8 30.59 16.65 79.63-1.63 79.63-1.63-3.72-13.43-3.87-29.12-1.92-40.24.23-1.31.49-2.56.78-3.73.26-1.07.63-2.61 1.05-4.32.02-.08.04-.15.05-.23 19.46 1.99 37.7 2.8 38.18-1.1 2.13-17.58-8.44-73.62-14.71-86.13zm-13.48 68.31c-.78-.12-2.45-.13-4.21-.29 2.16-6.03 4.57-11.37 4.57-11.37 1.38 3.85 6.62 12.7-.36 11.66z" fill="#eddad3"/><path d="m1943.63 397.19s11.94 21.72 19.37 29.5c7.42 7.78 6.55 13.96 6.55 13.96s28.92-35.68 8.29-57.22-47.24-12.85-55.02 5.97-4.93 41.81-4.93 41.81.22-22.07 25.74-34.02z" fill="#e8734d"/><path d="m1951.51 374.45s-2.89-15.9 22.04-22.22 36.13 22.4 33.06 39.93-24.39 61.97-12.83 67.75 16.08-6.68 16.08-6.68-3.61 21.86-19.69 16.8-13.91-40.58-11.49-54.74c2.44-14.16-27.17-40.84-27.17-40.84z" fill="#e8734d"/><path d="m1959.54 452.14c-.1.23-6.4 14.74-22.65 16.99.46-1.68.88-3.4 1.24-5.11.01 0 8.91 1.8 21.41-11.88z" fill="#a77860"/><path d="m1990.51 558.84s-1.19 2.51-4.45 12.4c-3.32-27.77-1.59-42.23-1.59-42.23.36 14.84 6.04 29.83 6.04 29.83z" fill="#cfbeb8"/><path d="m1955.4 371.12s17.7 3.4 26.52 17.81c0 0-1.79-13.05-10.6-16.81s-15.92-1-15.92-1z" fill="#eddad3"/><path d="m1980.45 589.42c-.42 1.71-.79 3.25-1.05 4.32-.29 1.17-.54 2.42-.78 3.73-10.96-5.96-18.83-10.62-18.83-10.62 2.96.67 20.66 2.57 20.66 2.57z" fill="#cfbeb8"/><path d="m1961.74 480.26-31.14 25.38 3.21-26.74s18.15-3.92 27.93 1.36z" fill="#eea886"/><path d="m1939.6 501.34-9 4.3 30.58-30.32z" fill="#d6c5be"/><path d="m1982.29 587.23c-4.29 17.76 11.57 57.74 11.57 57.74l-31.43 9.83c-4.52 1.41-9.28-1.36-10.28-5.99-4.21-19.56-14.08-67.71-15.25-94.48-1.5-34.16 23.36-74.45 23.36-74.45 44.2 7.58 32.08 74.45 32.08 74.45s-1.6 4.21-3.75 10.8c-.54 1.65-1.11 3.46-1.7 5.38-1.51 4.93-3.14 10.67-4.6 16.72z" fill="#6c5aaa"/><path d="m1930.67 480.36.54-1.46s-22.63 3.44-34.14 9.19c-11.5 5.75-33.53 35.43-33.53 35.43l28.81 38.03c.03 29.22-4.71 81.18-4.71 81.18l13.17 7.59c3.54 2.04 7.97-.46 8.05-4.55.37-19.76 1.26-66.68 1.72-89.4.6-29.23 21.45-76.5 21.45-76.5-.45.16-.9.33-1.36.49z" fill="#6c5aaa"/><path d="m1889.64 617.39s21.72.84 25.1 0 25.92-10.62 27.27-20.27-52.37 8.65-52.37 8.65z" fill="#eea886"/><path d="m1957.02 587.23-88.14-10.32 39.82 32.4z" fill="#6a77bf"/><path d="m1908.7 609.31 48.32-16.47v-5.61l-49.95 16.02z" fill="#323657"/><path d="m1931.42 571.04s-7.29 0-11.37-.83c-3.16-.64-11.01.24-13.01 2.02-2 1.77-8.36 14.13-9.57 14.88-1.2.75.62 2.5 2.73 1.62 0 0 1.94 5.41 6.73 3.38 4.79-2.02 8.04-6.44 10.55-7.22s17.11-4.7 17.11-4.7.59-10.46-3.17-9.15z" fill="#eea886"/><path d="m1935.47 473.97-16.78 26.57-8.1 5.1 18.88-26.45z" fill="#fae6de"/><path d="m1918.69 500.54 11.91 5.1 3.21-26.74 1.66-4.93z" fill="#d6c5be"/><path d="m1892.29 604.96s-.9 11.22 0 13.57c0 0-54.36-5.43-59.42-13.03-5.07-7.6-4.89-16.83-4.89-16.83z" fill="#6c5aaa"/><path d="m1908.7 609.31-25.7-95.56-97.73-10.32 26.78 87.96z" fill="#252740"/><path d="m1961.18 475.32-21.58 26.02 11.81 10.53 12.75-31.14z" fill="#fae6de"/><path d="m1989.32 562.92s-.72 2.2-.72 2.2c-.54 1.65-1.11 3.46-1.7 5.38-4.17 1.31-40.27-1.34-40.27-1.34s30.2-7.09 42.69-6.24z" fill="#3d426b"/><path d="m1987.23 569.8c-5.82-.44-15.34-1.06-23.14-1.09-12.13-.05-32.88 1.3-32.88 1.3l2.47 12.96s36.75 5.97 56.82 7.37 26.49 3.04 28.45-.91c1.97-3.95-.65-29.32-4.96-52.18s-8.74-36.03-14-43.09c-5.27-7.06-33.09-12.56-33.09-12.56l23.6 77.25s3.38 6.89 3.21 9.86c-.05.91-.68 1.33-1.53 1.49-.59-.05-1.9-.16-3.7-.3z" fill="#6c5aaa"/><path d="m1790.42 651.61s4.45 10.14 8.71 8.87 10.58-.9 12.57-.68c2.65.29 11.28-1.73 10.78 1.49-.51 3.23-14.09 3.99-16.94 4.69-2.84.7 7.37 7.93 8.08 10.7.71 2.78-13.55 18.87-19.92 13.11s-9.01-16.12-10.35-16.91-7.19-9.05-7.19-9.05z" fill="#eea886"/><path d="m1812.48 674.99s18.22 18.93 18.29 21.22c.06 2.29-1.11 3.22-2.9 1.52-1.78-1.7-18.19-17.78-18.19-17.78s17.46 26.06 17.94 27.9c.28 1.08-1.89 3.01-2.94 2.19s-19.95-25.63-19.95-25.63 16.26 24.36 16.17 26.04c-.07 1.47-2.51 2.78-3.85 1.06s-17.81-23.45-17.81-23.45 10.63 18.49 9.69 19.91c-.58.87-2.38 2.62-4.96-2.25-2.58-4.86-9.97-15.66-9.97-15.66z" fill="#eea886"/><path d="m1564.58 1007.35s-6.99 4.99-10.86 8.48-9.14 7.29-12.36 16.21c-3.26 9.02 1.88 15.5 10.61 16.04s22.12-6.06 23.43-14.06c1.29-7.92 11.55-6.99 12.89-12.62s-.45-12.57-.45-12.57z" fill="#353a3d"/><path d="m1565.74 1000.8-1.16 6.55s3.6 6.66 23.26 1.48l-1.01-6.45z" fill="#81807e"/><path d="m1587.84 1008.83s-4.43.58-7.58 1.08-9.4-3.54-15.68-2.56l1.93 7.96c0 .01 20.89-3.91 21.33-6.48z" fill="#353a3d"/><path d="m1690.18 1006.04s6.99 4.99 10.86 8.48 9.14 7.29 12.36 16.21c3.26 9.02-1.88 15.5-10.61 16.04-8.74.53-22.12-6.06-23.43-14.06-1.29-7.92-11.55-6.99-12.89-12.62s.45-12.57.45-12.57z" fill="#353a3d"/><path d="m1689.01 999.5 1.16 6.55s-3.6 6.66-23.26 1.48l1.01-6.45z" fill="#81807e"/><path d="m1698.42 850.51c0 14.39-2.06 150.18-2.06 150.18-1.44 4.8-28.33 6.37-33.13 3.97s-3.96-137.05-4.84-151.56c-.89-14.51-12.55-121.28-16.75-120.8-4.21.48-27.99 101.06-31.35 112.09-3.36 11.04-16.58 159.51-16.58 159.51-16.41 5.71-33.18.69-33.18.69s6.27-150.37 6.28-168.23c0-6.62 1.96-11.64 3.83-46.87 1.43-26.85 8.9-81.88 13.91-119.75.18-1.35.35-2.64.51-3.88.98-7.37 1.71-12.78 2.07-15.38.15-1.12.24-1.72.24-1.72 1.35-.62 2.76-1.19 4.23-1.72 35.14-12.62 102.91.74 102.91.74s.04.33.12.96c.09.76.23 1.95.41 3.5.39 3.34.97 8.31 1.64 14.08 0 .04.01.08.01.12.02.17.04.35.06.53 2.36 20.53 3.54 31.81 5.39 53.73.4 4.79-3.72 115.42-3.72 129.81z" fill="#292c47"/><path d="m1662.9 454.27s57.55 12.22 62.34 28.21c4.8 15.99 14.11 53.55 27.07 94.4 7.75 24.44 47.14 80.1 47.14 80.1s-22.54 16.61-22.54 14.37-53.07-73.06-53.71-81.7-16.72-52.8-16.72-52.8-7.62 84.91-7.62 98.02 3.31 53.42 3.31 53.42-23.14 19.22-64.55 17.06c0 0-58.5.25-57.69-22.76.71-20.28 5.71-141.75 4.43-142.39s-24.25 28.14-22.01 33.68 61.7 25.41 61.7 25.41 1.74 6.4-7.5 20.91c0 0-88.81-25.95-89.13-31.39s36.94-111.03 49.11-116.56c17.52-7.96 63.93-18.58 63.93-18.58z" fill="url(#g)"/><path d="m1666.92 1007.52s4.43.58 7.58 1.08 9.4-3.54 15.68-2.56l-1.93 7.97s-20.89-3.91-21.33-6.49z" fill="#353a3d"/><path d="m1664.94 455.62c-.28 14.06-32.55 28.85-32.55 28.85s-7.84-26.27-5.13-27.64c1.07-.54 1.41-.87 1.54-3.25.12-2.27-.02-4.78-.15-6.38-.08-.99-.16-1.63-.16-1.63s3.89-4.1 8.83-8.99c8.64-8.55 21.02-21.2 21.04-16.85 0 .23.33.35.26.67-2.08 9.81 6.32 35.22 6.32 35.22z" fill="#eea886"/><path d="m1652.85 431.94c-.06.08-1.21 1.81-3.18 4.29-4.18 5.25-12.03 13.89-20.86 17.36.12-2.27-.02-4.78-.15-6.38-.9-.02-1.81-.13-2.7-.33 2.42-4.23 5.92-8.66 5.92-8.66l5.46-1.63z" fill="#a77860"/><path d="m1658.07 421.63c-2.35 5.12-4.59 8.83-5.22 10.3-.41.96-1.54 2.52-3.18 4.29-4.49 4.83-12.82 11.21-21.02 10.98-.9-.02-1.81-.13-2.7-.33-3.31-.72-7.22-2.26-9.37-6.47-16.98-33.24-4.69-60.43-4.69-60.43s46.43-13.13 53.69.85c5.1 9.81-1.98 28.78-7.51 40.81z" fill="#eea886"/><path d="m1611.89 379.98s-4.31-.24-5.38-8.41c-1.05-8.08 9.38-13.64 9.38-13.64s8.12-4.4 17.75-5.75c6.9-.96 23.81-2.04 27.77 2.49 0 0 9.64-2.24 12.26 13.76 4.17 25.38-14.2 50.03-14.2 50.03s.16-16.58-3.5-18.78-6.81 3.03-6.81 3.03l-7.48 1.34s10.6-20.5-3.03-21.4c-13.62-.9-18.95-1.24-26.76-2.67z" fill="#223247"/><path d="m1649.37 396.11c.71-7.31 13.92-10.09 13.04-2.44-.88 7.66-7.39 15.01-10.4 14.76-3-.26-3.18-6.75-2.64-12.32z" fill="#eea886"/><path d="m1653.63 547.15-21.63 111.35-71.47-13.88 18.83-111.9z" fill="#616161"/><path d="m1648.27 552.57-19.21 98.9-63.48-12.33 16.73-99.38z" fill="#e0cec7"/><path d="m1628.14 551.21 1.35-6.94-25.66-4.99-2.35 6.75z" fill="#616161"/><path d="m1639.63 598.38s5.46-.15 7.14-.39c1.67-.24.57 3.32-1.37 3.99-1.95.67-5.77-3.6-5.77-3.6z" fill="#c98462"/><path d="m1642.82 624.48s-2.39.58-3.55.32c0 0-2.09-.63-3.6-.98-.48-.11-.9-.2-1.18-.23-1.16-.12-3.74-.02-6.44-1.08s-11.88-5.76-11.88-5.76l2.62-8.53 1.98-6.76s15.5-4.12 18.14-3.43c.26.07.51.15.74.24 2.17.8 3.45 2.32 4.54 2.87.4.21 4.24 2.51 4.44 3.84.28 1.83-.27 3.22-1.22 4.07 0 0 .39 3.62-.95 5.67 0 0 .47 3.33-1.93 5.4 0 0 .1 3.43-1.71 4.36z" fill="#eea886"/><path d="m1624.03 599.28s-2.88 15.57-11.16 25.59c0 0-61.56-25.03-69.33-28.08s28.22-98.7 28.22-98.7l26.48 9.01-14.23 26.9s-7.04 15.07-21.69 39.86c.02.01 9.03 8.57 61.71 25.42z" fill="url(#h)"/><path d="m1660.78 515.46s-1.62 29.79 13.27 29.79c14.9 0 13.54-26.81 13.81-29.79z" fill="url(#i)"/><path d="m1663.43 515.46h22.24v-4.53z" fill="#fff"/><path d="m1199.77 623.93s-6.77 4.36-10.66 1.92c-3.31-2.07-9.09-2.36-10.87-2.45-2.38-.12-9.54-3.22-9.72-.22s11.56 5.67 13.91 6.72-8 6.11-9.16 8.52c-1.17 2.41 8.18 19.08 14.88 14.79s11.03-13.3 12.36-13.82 5-2.93 5-2.93z" fill="#eea886"/><path d="m1402.06 998.76s-15.15 22.15-20.43 26.85c0 0-10.57 5.49-10.9 9.87-.62 8.28-1.36 16.01 12.54 16.4s22.9-2.89 25.45-11.31 8.62-15.66 8.62-15.66v17.62h3.13s.78-17.04.98-20.17 2.25-15.18-4.36-20.51c-6.61-5.34-15.03-3.09-15.03-3.09z" fill="#162d40"/><path d="m1379.61 1026.75s7.52 2.12 16.46-.13 17.52-23.65 20.13-25.43l2.32-8.64h-17.43s-.6 6.33-3.42 11.8c-2.82 5.46-18.06 22.4-18.06 22.4z" fill="#eea886"/><path d="m1303.72 990.49s-2.27 5.37-6.56 10.96c-3.14 4.1-12.92 20.95-17.23 22.13-4.31 1.17-17.62 3.52-18.8 10.96s-1.76 12.73 11.36 13.32 21.74 1.37 28-7.83c6.27-9.2 16.25-15.86 16.25-15.86v24.01h5.09s2.35-24.99 3.72-26.75 4.9-20.95-7.25-30.94c-12.13-9.99-14.58 0-14.58 0z" fill="#162d40"/><path d="m1279.93 1023.58s11.75 2.94 16.25 0 19.81-28.82 24.89-30.37c0 0-4.91-9.97-17.35-2.73 0 .01-20.46 28.79-23.79 33.1z" fill="#eea886"/><path d="m1408.72 630.88s16.57 21.54 21.06 47.09-2.65 111.32-2.46 123.95c.2 12.63 11.7 52.91 9.35 76.71-2.35 23.79-15.21 122.11-15.21 122.11l-28.7-.51s5.75-107.15 4.28-117.14-6.14-52.47-6.73-56.58-32.7-112.85-32.7-131.27c.01-18.44 11.17-94.41 51.11-64.36z" fill="#393d63"/><path d="m1325.51 639.3s-27.22 103.88-30.45 118.27-9.69 33.19-9.4 35.83 3.43 46.99 3.43 46.99l7.73 150.97h28.69s9.2-96.04 10.67-115.43-10.57-49.34-7.64-57.57c2.94-8.22 47.29-103.09 47.29-103.09s33.58-106.12-50.32-75.97z" fill="#393d63"/><path d="m1333.93 483.83s-14.49.59-22.71 9.4-12.34 23.3-14.49 28-29.37 48.17-30.94 49.15-29.22 23.3-41.76 35.24c-12.53 11.94-36.96 25.26-36.96 25.26l9.2 12.92s74.21-39.55 83.61-54.04 47.97-53.85 47.97-53.85 30.75-36.02 6.08-52.08z" fill="#eea886"/><path d="m1333.93 483.83s-14.49.59-22.71 9.4-12.34 23.3-14.49 28-29.37 48.17-30.94 49.15-24.23 16.54-36.76 28.49c-12.53 11.94-35.39 25.99-35.39 25.99l13.36 17.03s63.59-35.29 73.97-49.1c11.09-14.75 46.9-56.88 46.9-56.88s30.73-36.02 6.06-52.08z" fill="#6c5aaa"/><path d="m1352.92 476.2s-14.1 6.66-18.99 7.64c-4.9.98-23.89 25.65-27.22 34.66s0 22.52 6.85 38.38.39 21.15 3.52 37.01 5.87 49.44 5.29 58.25c-.59 8.81 79.2 10.47 97.41-5.58 0 0-18.3-27.41-20.65-31.33s-.39-25.26 1.76-30.74 26.43-46.41 26.43-46.41 1.78-41.51-8.81-49.74c-9.2-7.15-34.29-9.7-38.79-11.26-4.5-1.57-17.6-2.26-26.8-.88z" fill="#eddad3"/><path d="m1348.42 507.62-8.57-10.03 7.44-26.41s2.5 14.71 1.13 36.44z" fill="#d6c5be"/><path d="m1174.59 637.05s-19.64 14.5-20.14 16.56.35 3.08 2.24 1.8 19.38-13.46 19.38-13.46-20.37 21.06-21.15 22.66c-.46.94 1.07 3 2.15 2.41s22.46-20.31 22.46-20.31-18.98 19.7-19.23 21.23c-.22 1.34 1.66 2.89 3.16 1.52 1.51-1.36 20.16-18.65 20.16-18.65s-12.91 15.21-12.36 16.63c.34.87 1.57 2.72 4.78-1.31s11.78-12.74 11.78-12.74z" fill="#eea886"/><path d="m1370.71 376.14c-8.38-2.95-39.16-10.18-46.41 29.17-7.24 39.36 14.49 67.36 34.46 59.92s32.31-34.66 33.48-55.41c1.18-20.76-10.95-29.96-21.53-33.68z" fill="#eea886"/><path d="m1324.3 405.31s-1.51-33.68 31.98-34.85c33.48-1.17 42.49 26.39 39.75 46.48s-16.6 30.69-16.6 30.69 1.2-16.26-5.29-20.48c-6.5-4.22-32.54-12.64-43.9-32.22 0 0-5.27 6.18-5.94 10.38z" fill="#252e3b"/><path d="m1366.05 401.74c4.41 13.41 17.49 21.16 29.21 17.3s17.65-17.85 13.24-31.27c-4.41-13.41-17.49-21.16-29.21-17.3s-17.65 17.86-13.24 31.27z" fill="#252e3b"/><path d="m1402.12 483.83s17.77-5.09 27.95 14.49 7.64 30.15 9.99 38.97c2.35 8.81 11.75 67.75 12.34 70.29.59 2.55 9.6 32.5 8.42 41.71-1.17 9.2-9.59 78.91-9.2 81.26s-16.25-2.25-16.25-2.25.69-71.18.1-77.05c-.59-5.88-1.18-36.71-5.58-44.65-4.41-7.93-15.27-56.39-17.62-61.39-2.37-4.99-25.13-55.01-10.15-61.38z" fill="#eea886"/><path d="m1346.19 459.93s2.81 25.86 2.22 34.28c0 0 14.65 14.68 31.31-17.14 0 0-7.01-13.11-1.73-30.98s-31.8 13.84-31.8 13.84z" fill="#eea886"/><path d="m1415.55 771.13v-23.98c0-3.86 3.14-7 7-7h38.02c3.86 0 7 3.14 7 7v23.98c0 3.86-3.14 7-7 7h-38.02c-3.86 0-7-3.14-7-7zm7-26.28c-1.27 0-2.3 1.03-2.3 2.3v23.98c0 1.27 1.03 2.3 2.3 2.3h38.02c1.27 0 2.3-1.03 2.3-2.3v-23.98c0-1.27-1.03-2.3-2.3-2.3z" fill="#0e1e2b"/><path d="m1455.07 752.81s1.57-2.55 1.71-4.01c0 0 .06-2.66.21-4.55.05-.6.11-1.12.18-1.45.3-1.39 1.38-4.35 1.17-7.9-.21-3.54-5.05-18.58-5.05-18.58l-8.87.31-8.35-.9s-10.08 19.25-10.27 22.57c-.02.33-.02.65 0 .95.12 2.83 1.39 4.88 1.62 6.36.09.54 1.32 5.87 2.79 6.6 2.03 1.02 3.85.9 5.19.12 0 0 4.06 1.82 6.95 1.03 0 0 3.69 1.8 7.01-.21 0 .01 3.95 1.41 5.71-.34z" fill="#eea886"/><path d="m1348.42 494.21v13.41l16.85-12.6z" fill="#eea886"/><path d="m1348.42 507.62 7-8.66 23.58-23.5 7.62 7.34z" fill="#d6c5be"/><path d="m1382.27 477.71s-19.79 30.03-20.73 43.25c-.95 13.22 7.35 112.08 14 143.87 6.65 31.78 54.67-3.58 54.67-3.58s-32.27-52.23-19.88-94.05 19.36-69.59 19.36-69.59-8.44-13.46-21.83-15.52c-13.41-2.08-25.59-4.38-25.59-4.38z" fill="#6c5aaa"/><path d="m1303.71 522.18s3.19 29.99 9.26 44.87c0 0 2.55 31.72 2.15 42.88-.39 11.16-3.04 53.36-3.04 53.36l13.75 8.05c2.77 1.62 6.2-.63 5.81-3.81-3.89-32.12-16.56-153.95 10.8-186.7l-10.98 3.24c.02 0-22.59 21.08-27.75 38.11z" fill="#6c5aaa"/><path d="m1370.77 420.04c1.22-3.09 5.29-3.96 7.64-2.19 2.35 1.76 3.72 7.05 0 13.9s-16.84 11.63-7.64-11.71z" fill="#eea886"/><path d="m1339.85 497.59-10.8 2.98 18.24-29.39z" fill="#fae6de"/><path d="m1355.42 498.96 9.85 12.92 20.23-33.58-6.5-2.84z" fill="#fae6de"/><path d="m1402.12 483.83s17.77-5.09 27.95 14.49 10.13 27.94 11.49 37.5c1.28 9.03 13.7 62.66 14.29 65.2.59 2.55 4.67 36.07 4.96 48.27.22 9.27-1.96 70.1-1.57 72.45s-28.12-4.11-28.12-4.11 3.15-56.1 2.57-61.97c-.59-5.87-1.84-35.16-4.71-43.76-3.37-10.11-16.68-61.05-19.03-66.04-2.35-5-22.81-55.66-7.83-62.03z" fill="#6c5aaa"/><path d="m1346.77 465.62.52 5.09s11.61 2.27 26.85-16.31c-.01 0-10.81 13.17-27.37 11.22z" fill="#a77860"/><path d="m1370.23 767.84h142.65v102.21h-142.65z" fill="#54281a" transform="matrix(-1 0 0 -1 2883.1211 1637.8901)"/><path d="m1370.23 767.84h142.65v59.24h-142.65z" fill="#873f2b" transform="matrix(-1 0 0 -1 2883.1211 1594.9272)"/><path d="m1305.65 562.33s-5.24-20.09 2.05-38.86c0 0-5.39 17.22 2.15 33.84z" fill="#393d63"/><path d="m1414.37 560.08s-9.42-32.73-10-34.5c0 0 1.54 29.41 5.27 44.08 0 0 2.13-5.92 4.73-9.58z" fill="#6c5aaa"/><path d="m818.34 1074.27h277.84c19.87 0 35.99-16.11 35.99-35.99v-740.01c0-19.88-16.11-35.99-35.99-35.99h-277.84c-19.87 0-35.99 16.11-35.99 35.99v740.01c.01 19.88 16.12 35.99 35.99 35.99z" fill="#587aa3"/><path d="m807.77 1080.51h334.44c21.78 0 39.44-17.66 39.44-39.44v-746.61c0-21.78-17.66-39.44-39.44-39.44h-334.44c-21.78 0-39.44 17.66-39.44 39.44v746.61c0 21.78 17.66 39.44 39.44 39.44z" fill="url(#j)"/><path d="m1000.77 539.02 15.13 23.85 13.96 22.01c-.03-.12-.96-3.45-2.54-13.1-.3-1.83-.62-3.89-.97-6.2-.1-.68-.25-1.36-.44-2.03-5.98-13.78-24.46-24.17-25.13-24.51 0-.01-.01-.02-.01-.02z" fill="#eddad3"/><path d="m1025.86 563.38s.81 1.67 1.47 8.39l-5.47-8.26s-9.77-14.01-13.12-17.65-7.95-6.83-7.95-6.83 19.23 9.24 25.07 24.35z" fill="#ffca55"/><path d="m1147.18 298.28v740.01c0 19.87-16.1 35.97-35.99 35.97h-277.84c-19.87 0-35.99-16.1-35.99-35.97v-740.01c0-19.88 16.12-35.99 35.99-35.99h277.84c19.89 0 35.99 16.11 35.99 35.99z" fill="#6bb0ff" opacity=".73"/><path d="m924.62 1000.94s5.79 16.01 15.49 22.79 19.72 16.48 17.08 23.26-35.05 3.19-48.6-16.5c-8.56-12.44-17.26-15.21-17.24-21.11.02-5.89 9.96-17.67 10.48-19.34.64-2.05 22.79 10.9 22.79 10.9z" fill="#353a3d"/><path d="m927.02 995.14s-2.14 5.77-2.4 5.8c-.25.03-25.02-6.6-22.79-10.89 1.77-3.41 5.17-7.07 5.17-7.07z" fill="#81807e"/><path d="m864.16 726.13s7.16-17 12.71-18.06.99 3.36.99 3.36-7.05 11.68-9.42 16.58c-.12.24-4.28-1.88-4.28-1.88z" fill="#434343"/><path d="m899.27 694.6s-1.48 8.23-1.78 16.57 1.02 11.5-1.45 15.46c-1.86 2.99-6.4 4.12-6.95 2.76-.56-1.37 3.46-14.14-1.78-15.93-5.25-1.79-3.97 16.17-6.68 13.93-2.71-2.25-12.36-13.05-9.35-19.14s9.42-8.99 12.48-18.59c2.77-8.71 6.73-11.36 6.73-11.36z" fill="#eea886"/><path d="m888.02 713.11s6.33 4.24-2.43 27.63l-7.41-4.11s4.75-12.96 4.91-20.88c0 0 2.03-4.46 4.93-2.64z" fill="#545554"/><path d="m906.05 753.97-55.19-39.15-26.6 75.63 48.09 58.24z" fill="#545554"/><path d="m1175.59 867.43v148.48c-15.2-46.12-48.4-145.84-56.4-162.16-6.96-14.28-70.12-96.68-74.76-90.8s-30.52 74.96-33.96 91.96c-3.4 17-80.84 143.2-80.84 143.2s-1.36-.28-3.44-.84c-5.4-1.6-15.72-5.32-20.96-12.24-.6-.8-1.16-1.6-1.6-2.48 0 0 56.88-123.48 62.24-146.84 1.88-8.16 4-48.04 11.48-89.64 3.36-18.68 7.84-37.68 13.8-54.32 2.36-6.52 9.24-9.24 18.44-9.52 1.56-.08 3.2-.04 4.88.04 2.8.16 5.76.48 8.84.92 6.96 1.04 14.52 2.84 22 4.96 6.32 1.84 12.64 3.88 18.52 5.96 6.84 2.44 13.16 4.92 18.4 7.04 1.72.68 3.32 1.36 4.8 1.96 1.64.68 3.08 1.32 4.32 1.84 3.28 1.44 5.2 2.32 5.2 2.32s9.96 17.72 22.32 40.24c17 30.96 38.56 70.88 45.16 86.24 4 9.28 8.04 21.32 11.56 33.68z" fill="#353a3d"/><path d="m1152.23 606.99 23.36 26.12v43.24c-16.72-15.88-36.4-36.16-43.72-42.6-1.28-1.12-2.2-1.84-2.64-2-1.04-.4-2.92-3-5.2-6.92-.64-1.08-1.36-2.32-2.08-3.6-1.08-1.96-2.2-4.08-3.36-6.32-.76-1.48-1.56-3-2.36-4.56s-1.56-3.16-2.36-4.72c-1.56-3.16-3.12-6.32-4.52-9.28-1.08-2.24-2.08-4.36-3-6.28-.6-1.32-1.2-2.52-1.72-3.64s-1-2.12-1.4-3.04c-1-2.16-1.64-3.56-1.8-3.88.08 1 .76 8.64-.2 18.52-.4 4.32-1.16 9.08-2.4 13.92-1.48 5.8-2.2 13.48-2.48 21.56v.24c0 .2-.04.36-.04.56v.24c-.4 14.72.6 30.6 1.04 39.04.64 13.28-3.8 19.16-3.8 19.16s-.6-.08-1.68-.24l-2.88-.4-3.28-.44-4.44-.64-17.24-2.4-6.28-.88-1.44-.2-10.92-1.56-22.04-3.08-8.8-1.24-4.76-.68-11.6-1.64-5.2-.76c-.04 0-.08 0-.08 0s-4.48-31.64-4.8-48.72c-.32-15.96-9-48.64-10.16-52.92-.04-.12-.08-.24-.08-.32 0-.04 0-.04 0-.04 0-.04 0-.04-.04-.04 0-.04 0-.08 0-.08s-25.16 26.44-30.04 37.96c-1.2 2.84-4.4 9.6-8.68 18.24-.08.2-.16.4-.24.56-11.6 23.48-30.64 60.16-38 68.76-.88 1.12-1.64 1.76-2.16 1.84-.24.04-.44.08-.72.08-4.6.04-12.32-6.36-16.12-9.8-1.4-1.24-2.24-2.08-2.24-2.08s.32-.76.96-2.12c5.36-12.28 32.52-74.04 39.36-88.56.64-1.36 1.12-2.32 1.36-2.76.12-.16.24-.44.4-.76 5.12-9.88 39.92-85.52 45.24-89.32.6-.44 1.56-.96 2.8-1.64.4-.16.88-.4 1.36-.68.04 0 .12-.04.2-.08.88-.4 1.8-.84 2.84-1.32.32-.16.68-.32 1.04-.48.72-.32 1.44-.64 2.2-1 4.2-1.84 9.16-3.92 13.96-5.88 1.36-.56 2.68-1.08 3.92-1.56 1.88-.76 3.72-1.44 5.4-2.08.24-.08.44-.16.64-.24 5.64-2.16 9.92-3.64 10.8-3.68h.72c.36 0 .84.04 1.4.08 6.96.4 27.72 2.32 34.4 2.96 1.36.12 2.12.2 2.12.2s3.2 1.48 8 3.64l.04.04.4.16c2.8 1.28 6.08 2.8 9.56 4.4 7.28 3.36 15.52 7.2 22.04 10.28 6.24 3 15.68 8.08 16.4 8.64z" fill="#decbc4"/><path d="m1093.57 692.75s2.32 2.77 2.99 14.51c0 0-95.31-11.12-105.39-15.5 0 0-.39-12.94 1.74-13.17 2.35-.24 100.66 14.16 100.66 14.16z" fill="#495055"/><path d="m1012.29 486.62c.3 14.96 29.26 23.14 29.26 23.14s12.12-15.19 9.22-16.64c-1.14-.57-1.6-2.84-1.74-5.38-.13-2.42.02-5.09.17-6.78.09-1.06.17-1.74.17-1.74s-4.14-4.37-9.4-9.57c-9.2-9.1-21.85-20.75-21.87-16.11 0 .25.03.54.11.88 2.21 10.42-5.92 32.2-5.92 32.2z" fill="#eea886"/><path d="m1014.69 680.89s-2.08 13.12-2.26 16.54l-4.41-.88s1.21-13.88 1.93-16.21z" fill="#5d676c"/><path d="m1085.61 691.22s1.67 11.92 1.71 16.43l-4.67-.61s-.96-14.89-1.49-16.45z" fill="#353a3d"/><path d="m1023.44 464.7c.06.09 1.29 1.93 3.38 4.56 4.45 5.59 12.8 14.78 22.2 18.47-.13-2.42.02-5.09.17-6.78.96-.02 1.92-.14 2.88-.35-2.58-4.5-6.3-9.22-6.3-9.22l-5.81-1.74z" fill="#a77860"/><path d="m1017.88 453.73c2.51 5.45 4.88 9.4 5.56 10.97.44 1.02 1.64 2.68 3.38 4.56 4.77 5.14 13.64 11.92 22.37 11.69.96-.02 1.92-.14 2.88-.35 3.52-.77 7.68-2.41 9.97-6.89 18.07-35.38 4.99-64.3 4.99-64.3s-49.41-13.97-57.14.9c-5.43 10.44 2.1 30.62 7.99 43.42z" fill="#eea886"/><path d="m1067.02 409.41s4.59-.25 5.72-8.95c1.12-8.59-1.15-10.98-1.15-10.98s-20.4-8.54-27.72-9.65-25.34-2.18-29.56 2.65c0 0-10.26-2.38-13.05 14.64-4.43 27.01 15.11 53.24 15.11 53.24s-.17-17.65 3.72-19.99 7.25 3.22 7.25 3.22l7.96 1.42s-12.09-26.11 2.41-27.08c14.52-.94 21.01 3 29.31 1.48z" fill="#e2d2ca"/><path d="m1027.13 426.57c-.76-7.77-14.82-10.74-13.88-2.59s7.87 15.98 11.06 15.7c3.21-.27 3.4-7.18 2.82-13.11z" fill="#eea886"/><path d="m947.81 614.42c-5.52 11.24-39.99 86.37-46.04 87.48-6.04 1.11-22.15-12.81-22.15-12.81s38.47-84.8 41.7-90.5 40.14-86.17 45.62-90.09c3.17-2.27 16.83-8.1 28.34-12.63 2.1-.83 4.14-1.62 6.03-2.34 2.44 2.72 41.69 47.07 38 86.39-1.11 11.81-2.59 31.08-5.86 51.36-3.38 21.08-8.85 44.91-12.38 62.89-6.39 32.53-20.47 63.52-20.47 63.52l-36.75-18.39c-5.79-2.9-8.5-9.65-6.32-15.74 8.27-23.15 24.78-69.92 24.79-90.23 0 0-1.31-45.87-4.47-56.8 0 0-23.71 25.01-30.04 37.89z" fill="#3c4145"/><path d="m1175.59 632.23v45.6c-16.36-15.96-36.36-37.36-43.72-44.08-1.28-1.12-2.2-1.84-2.64-2-1.04-.4-2.92-3-5.2-6.92-.68-1.08-1.36-2.32-2.08-3.6-1.08-1.96-2.2-4.08-3.36-6.32-.76-1.48-1.56-3-2.36-4.56s-1.56-3.16-2.36-4.72c-1.56-3.16-3.12-6.32-4.52-9.28-1.08-2.24-2.12-4.36-3-6.28-.6-1.32-1.2-2.52-1.72-3.64s-1-2.12-1.4-3.04c-1-2.16-1.64-3.56-1.8-3.88 1.44 6 .92 12.16-.2 18.52-1.96 11.16-5.84 22.92-4.88 35.48v.24c3.04 38.12 19.08 92.08 23.84 107.36.68 2.24.2 4.6-1.32 6.4-.16.28-.4.52-.64.76l-11.44 10.56s-9.92-30.56-15.04-52.12c-.12-.6-.28-1.2-.4-1.76-1.16-5.04-2-9.48-2.36-12.84v-.04c-.92-8.56-2.76-18.56-4.76-29.2-1.96-10.64-4-21.96-5.24-33.12-3.2-28.32-6.48-56.4-8.84-72.88-.76-5.36-1.52-10.32-2.24-14.88-5.08-31.96-8.96-44.84-8.96-44.84l.24-.2c2.8 1.28 6.08 2.8 9.56 4.4 7.28 3.36 15.52 7.2 22.04 10.28 6.24 3 15.68 8.08 16.4 8.64l45.04 86.72z" fill="#3c4145"/><path d="m1009.35 530.66 14.09 7.95-6.02 6.14 16.03 86.54c3.27-20.29 4.76-39.55 5.86-51.36 3.69-39.32-35.56-83.67-38-86.39-1.88.71-3.92 1.5-6.03 2.34z" fill="#51565c"/><path d="m1058.75 496.76s5.26 17.19 11.4 60.11c2.35 16.49 5.65 44.55 8.83 72.87l3.28-81.05-6.71-7.27 5.97-7.46-12.77-32.6c-3.49-1.61-6.77-3.12-9.55-4.39z" fill="#51565c"/><path d="m995.28 495.87c-11.51 4.54-28.64 10.43-31.81 12.71-5.48 3.93-38.92 84.32-42.15 90.02z" fill="#3c4145"/><path d="m872.35 848.69-8.19-1.3-46.3-57.99 27.78-76.04 5.22 1.46z" fill="#545554"/><path d="m1000.6 493.71 11.68-7.09s.33 6.41 29.26 23.14l-8.22 23.14z" fill="#f5e2d9"/><path d="m1049.24 489.84s-.46 6.91-7.7 19.91l16.04 20.9 1.17-33.9z" fill="#f5e2d9"/><path d="m1041.5 509.76s-3.11 12.43-1.99 15.91c0 0 6.83 2.49 11.75-.62 0 0-3.48-8.7-9.76-15.29z" fill="#464157"/><path d="m1057.57 689.03c1.74-8.77.08-35.05.01-36.17l-1.49.09c.02.27 1.71 27.2.01 35.78z" fill="#ad9f99"/><path d="m1045.4 684.99s14.02 1.67 18.66 2.83l-.61 15.72-18.37-1.96z" fill="#69737a"/><path d="m1048.47 523.93s13.81 38.84 15.55 83.1c1.74 44.25-2.94 55.69-2.94 55.69l-17.28 15.55-5.78-20.21s15.6-49.16 7.24-106.03c-1.51-10.3-3.76-29.83-3.76-29.83z" fill="#464157"/><path d="m1161.59 300.27v740c0 19.88-16.12 36-36 36h-306.24c-19.88 0-36-16.12-36-36v-740c0-19.88 16.12-36 36-36h306.24c19.88 0 36 16.12 36 36z" fill="#a3cdff" opacity=".98"/><path d="m1207.19 672.87s5.62 8.18 8.56 8.46 7.08 2.9 9.66 3.65 10.4.31 12.69 2.03c.93.7 4.9 7.28 6.96 8.5s6.55 3.18 5.4 4.93-5.68 1.09-5.68 1.09 1.81 1.23 1.27 3.06c-1.05 3.58-3.35 4.03-3.35 4.03s1 2.45.18 3.84c-1.79 3.06-4.03 3.44-4.03 3.44s0 2-1.65 3.77c-2.11 2.27-5.07 1.52-5.07 1.52s-2 3.43-4.19 3.1-3.59-1.73-5.2-2.44-13.44-11.31-18.48-22.02-13.16-16.97-13.16-16.97z" fill="#eea886"/><path d="m1244.05 700.22s-10.28-8.89-14.88-8.09-1.07 4.21-1.07 4.21-3.43-3.43-6.51-.97 1.26 6.24 1.26 6.24-3.31-1.9-5.43 1.61c-2.11 3.51 2.22 5.82 2.22 5.82s-6.2-.08-4.41 4.64c3.04 7.98 12.7 10.62 12.7 10.62s2.39.41 4.19-3.1c0 0 5.79 1.42 6.72-5.29 0 0 6.5-2.32 3.85-7.27.01-.01 6.78-2.88 1.36-8.42z" fill="#db9c7c"/><path d="m1212.51 1042.08s14 11.25 26.46 12.04 26.81 4.03 28.14 11.59c1.34 7.56-37.84 17.16-52.84 11.79-22.38-8.02-23.9-4.24-27.11-9.56s-.72-21.38-1.17-23.17c-.54-2.21 26.52-2.69 26.52-2.69z" fill="#353a3d"/><path d="m1210.14 1035.98s2.58 5.93 2.37 6.1-26.5 7.78-26.51 2.69c0-4.13.21-8.66.21-8.66z" fill="#81807e"/><path d="m1215.63 1035.75c.32 1.56-1.44 2.56-4.24 3.16-6.72 1.52-19.56.92-25.28.56-1.76-.12-2.84-.2-2.84-.2s-53.6-164.16-64.08-185.52c-6.96-14.28-70.12-96.68-74.76-90.8 0 0-11.16-25.56-16.28-64.48-.64-4.72-1.16-9.64-1.6-14.72 6.04 1.04 12.4 2.6 18.76 4.4 6.32 1.84 12.64 3.88 18.52 5.96 6.84 2.44 13.16 4.92 18.4 7.04 1.72.68 3.32 1.36 4.8 1.96 1.64.68 3.08 1.32 4.32 1.84 3.28 1.44 5.2 2.32 5.2 2.32s9.96 17.72 22.32 40.24c17 30.96 38.56 70.88 45.16 86.24 10.6 24.6 21.48 68.8 22.92 86.08 1.84 21.76 27.4 109.56 28.68 115.92z" fill="#353a3d"/><path d="m1217.43 679.91s-.48.56-1.28 1.52c-2.76 3.24-9.44 10.92-13.68 14.96-.16.12-.28.24-.4.36-.48.44-1.44.24-2.84-.48-12.12-6.28-55.6-52.2-67.36-62.52-.8-.68-1.48-1.24-1.96-1.6-.08-.08-.16-.12-.28-.16-.16-.12-.28-.2-.4-.24-1.04-.4-2.92-3-5.2-6.92-.64-1.08-1.36-2.32-2.08-3.6-.52-1-1.08-2-1.64-3.04-.56-1.08-1.12-2.16-1.72-3.28-.76-1.48-1.56-3-2.36-4.56-2.76-5.44-5.56-11.16-7.96-16.2-.56-1.24-1.16-2.44-1.68-3.6-.92-1.92-1.72-3.64-2.44-5.16-.32-.68-.6-1.32-.88-1.92-.2-.48-.4-.88-.6-1.28-.16-.4-.32-.76-.48-1.04-.36-.8-.6-1.36-.72-1.6 0-.04-.04-.04-.04-.04.08 1 .76 8.64-.2 18.52v.04c-.4 4.32-1.16 9.04-2.4 13.88-1.48 5.8-2.2 13.48-2.48 21.56v.24c0 .2-.04.36-.04.56v.24c-.4 14.72.6 30.6 1.04 39.04.64 13.28-3.8 19.16-3.8 19.16s-.6-.08-1.68-.24c-.72-.12-1.72-.24-2.88-.4l-3.28-.44-4.44-.64-17.24-2.4-6.28-.88-1.44-.2-10.92-1.56-18.88-2.64v-.28c-.32-3.84-.56-7.8-.72-11.84v-.04c-.24-5.92-.28-12.04-.12-18.32.44-16.08 1.96-30.24 3.68-43.68 2.56-19.28 5.56-37.04 6.6-56.8.44-8.56.52-17.44.04-27v-.04c-.32-5.76-.8-11.8-1.56-18.12-.08-.64-.16-1.28-.28-1.92-.56-4.48-1.24-9.12-2.08-13.92 6.72.6 13.32 1.2 16.56 1.52h.04c1.32.12 2.08.2 2.08.2s3.2 1.48 8 3.64l.04.04.4.16c2.8 1.28 6.08 2.8 9.56 4.4 7.28 3.36 15.52 7.2 22.04 10.28 6.24 3 15.68 8.08 16.4 8.64l45.04 86.72 63.64 71.16z" fill="#decbc4"/><path d="m1096.55 707.27s-1.76-.2-4.8-.56c-1.28-.16-2.8-.36-4.52-.56-1.4-.16-3-.36-4.68-.56-5.36-.68-11.92-1.48-19.08-2.4-5.88-.72-12.12-1.52-18.4-2.4-5.72-.76-11.44-1.52-16.92-2.32-.64-4.72-1.16-9.64-1.6-14.72 0-.12 0-.28-.04-.4v-.28c6.08.88 12.52 1.76 18.88 2.68 3.72.56 7.4 1.08 10.96 1.6.48.08.96.12 1.44.2 2.12.32 4.24.6 6.24.92 6.48.92 12.44 1.8 17.24 2.48 1.6.24 3.08.44 4.44.64 1.24.2 2.32.36 3.28.48v.04c1.16.16 2.16.28 2.88.4 1.08.16 1.68.24 1.68.24s2.32 2.76 3 14.52z" fill="#495055"/><path d="m1041.55 509.75h-.04l-.04-.04c-.52-.12-3.32-.96-7.04-2.48-.08-.64-.16-1.28-.28-1.92-.56-4.48-1.24-9.12-2.08-13.92-.64-3.72-1.36-7.52-2.2-11.44-.64-3.08-1.24-6.08-1.68-9v-.04c-.52-.56-.96-1.12-1.36-1.64.4.44.84.88 1.28 1.32-.28-1.6-.52-3.16-.72-4.68v-.04c-.44-3.04-.76-5.96-1.04-8.8 4.16 3.44 9.28 8.28 13.6 12.56 5.28 5.2 9.4 9.6 9.4 9.6s-.08.68-.16 1.72c-.12 1.68-.28 4.36-.16 6.8.04.72.08 1.44.2 2.08.24 1.6.72 2.88 1.52 3.28 2.92 1.48-9.2 16.64-9.2 16.64z" fill="#eea886"/><path d="m1085.61 691.22s1.67 11.92 1.71 16.43l-4.67-.61s-.96-14.89-1.49-16.45z" fill="#353a3d"/><path d="m1049.19 480.95c-.12 1.68-.28 4.36-.16 6.8-8.52-3.36-16.16-11.2-20.84-16.8v-.04c-.52-.56-.96-1.12-1.36-1.64.4.44.84.88 1.28 1.32-.28-1.6-.52-3.16-.72-4.68l12.56 3.72 5.84 1.76s3.72 4.72 6.28 9.2c-.96.24-1.92.32-2.88.36z" fill="#a77860"/><path d="m1062.03 473.71c-2.28 4.48-6.44 6.12-9.96 6.88-.96.24-1.92.32-2.88.36-8 .2-16.12-5.48-21.08-10.36-.28-1.6-.52-3.16-.72-4.68v-.04c-.44-3.04-.76-5.96-1.04-8.8-.6-6.56-.8-12.56-.6-18.12.04-2.4.16-4.72.36-6.92.16-2.36.4-4.64.76-6.8 1.2-8.68 3.28-15.84 5.68-21.68 16.08.68 34.48 5.88 34.48 5.88s13.08 28.92-5 64.28z" fill="#eea886"/><path d="m1072.75 400.47c-1.12 8.68-5.72 8.96-5.72 8.96-8.32 1.48-14.8-2.44-29.32-1.48-14.48.96-2.4 27.08-2.4 27.08l-7.96-1.4s0 0-.04-.04c-.08-.16-.52-.84-1.2-1.56.16-2.36.4-4.64.76-6.8 1.2-8.68 3.28-15.84 5.68-21.68 6.44-15.76 15.24-22.08 15.96-22.6h.04c8.96 2.64 23.04 8.52 23.04 8.52s2.28 2.4 1.16 11z" fill="#e2d2ca"/><path d="m1027.31 433.59c-.16 2.36-.64 4.36-1.56 5.36.04-2.4.16-4.72.36-6.92.16-2.36.4-4.64.76-6.8.16.44.24.88.28 1.36.24 2.36.32 4.84.16 7z" fill="#eea886"/><path d="m1039.31 579.91c-1.12 11.84-2.6 31.08-5.84 51.4-2.08 12.92-4.96 26.84-7.68 39.88-.24-5.92-.28-12.04-.12-18.32.44-16.08 1.96-30.24 3.68-43.68 2.56-19.28 5.56-37.04 6.6-56.8 2.76 9.04 4.2 18.44 3.36 27.52z" fill="#3c4145"/><path d="m1097.45 633.98c-1.53-19.76 7.89-38.06 3.97-54.55l.02.04c.84 1.83 23.05 50.54 27.78 52.27 4.83 1.78 64.99 69.21 70.03 64.5 5.38-5.03 17.69-19.36 17.69-19.36l-64.74-69.89-45.02-86.72c-.73-.58-10.17-5.65-16.41-8.63-6.5-3.1-14.73-6.92-22.04-10.29-3.49-1.61-6.77-3.12-9.55-4.39l-.23.18s5.05 16.81 11.18 59.73c2.35 16.49 5.65 44.55 8.83 72.87v.01c2.5 22.33 8.21 45.24 10.03 62.33 1.88 17.7 17.8 66.74 17.8 66.74l11.45-10.56c1.97-1.82 2.71-4.6 1.92-7.15-4.73-15.31-19.76-69.05-22.71-107.13z" fill="#3c4145"/><path d="m1039.31 579.91c-1.12 11.84-2.6 31.08-5.84 51.4l-4.12-22.12c2.56-19.28 5.56-37.04 6.6-56.8 2.76 9.04 4.2 18.44 3.36 27.52z" fill="#51565c"/><path d="m1058.75 496.76s5.26 17.19 11.4 60.11c2.35 16.49 5.65 44.55 8.83 72.87l3.28-81.05-6.71-7.27 5.97-7.46-12.77-32.6c-3.49-1.61-6.77-3.12-9.55-4.39z" fill="#51565c"/><path d="m1041.55 509.75v.04l-.12.24v.12l-5.44 15.2c-.32-5.76-.8-11.8-1.56-18.12-.08-.64-.16-1.28-.28-1.92 2.2 1.4 4.64 2.84 7.32 4.4l.04.04z" fill="#f5e2d9"/><path d="m1049.24 489.84s-.46 6.91-7.7 19.91l16.04 20.9 1.17-33.9z" fill="#f5e2d9"/><path d="m1041.5 509.76s-3.11 12.43-1.99 15.91c0 0 6.83 2.49 11.75-.62 0 0-3.48-8.7-9.76-15.29z" fill="#464157"/><path d="m1057.57 689.03c1.74-8.77.08-35.05.01-36.17l-1.49.09c.02.27 1.71 27.2.01 35.78z" fill="#ad9f99"/><path d="m1045.4 684.99s14.02 1.67 18.66 2.83l-.61 15.72-18.37-1.96z" fill="#69737a"/><path d="m1048.47 523.93s13.81 38.84 15.55 83.1c1.74 44.25-2.94 55.69-2.94 55.69l-17.28 15.55-5.78-20.21s15.6-49.16 7.24-106.03c-1.51-10.3-3.76-29.83-3.76-29.83z" fill="#464157"/></svg>