<svg enable-background="new 0 0 512.001 512.001" viewBox="0 0 512.001 512.001" xmlns="http://www.w3.org/2000/svg"><circle cx="256.004" cy="256.004" fill="#f7b239" r="246.855"/><path d="m126.306 385.694c-88.801-88.802-95.798-228.426-20.998-325.241-8.286 6.401-16.258 13.399-23.858 20.999-96.401 96.401-96.401 252.698 0 349.099s252.698 96.401 349.099 0c7.599-7.599 14.597-15.573 20.999-23.858-96.815 74.799-236.44 67.802-325.242-20.999z" fill="#e09b2d"/><path d="m256.001 374.077c-9.217 0-18.431-1.257-27.391-3.768-4.865-1.365-7.704-6.414-6.34-11.281 1.364-4.865 6.413-7.705 11.28-6.34 14.689 4.119 30.215 4.119 44.905 0 4.869-1.363 9.916 1.475 11.28 6.34s-1.475 9.916-6.34 11.281c-8.964 2.512-18.179 3.768-27.394 3.768z" fill="#e09b2d"/><path d="m256.001 0c-141.16 0-256.001 114.841-256.001 256.001s114.841 256.001 256.001 256.001 256-114.842 256-256.001-114.841-256.001-256-256.001zm0 493.701c-131.069 0-237.702-106.631-237.702-237.7s106.633-237.702 237.702-237.702 237.702 106.632 237.702 237.702-106.635 237.7-237.702 237.7z"/><path d="m354.301 169.827c-18.666 0-33.852 15.186-33.852 33.852s15.186 33.852 33.852 33.852 33.852-15.186 33.852-33.852-15.186-33.852-33.852-33.852z"/><path d="m187.375 219.622c1.713 2.868 4.749 4.459 7.863 4.458 1.597 0 3.215-.418 4.685-1.297 4.338-2.592 5.753-8.209 3.162-12.547-10.086-16.88-27.846-26.958-47.509-26.958-19.664 0-37.425 10.078-47.511 26.958-2.591 4.338-1.176 9.956 3.162 12.547 4.339 2.592 9.956 1.176 12.547-3.162 6.75-11.299 18.638-18.045 31.801-18.045 13.161.001 25.05 6.747 31.8 18.046z"/><path d="m342.565 276.267c-4.334-2.59-9.955-1.177-12.547 3.162-15.713 26.298-43.383 41.999-74.017 41.999s-58.305-15.701-74.017-41.999c-2.591-4.337-8.208-5.752-12.547-3.162-4.338 2.592-5.753 8.209-3.162 12.547 19.047 31.879 52.589 50.913 89.727 50.913 37.137 0 70.68-19.034 89.727-50.913 2.589-4.338 1.173-9.955-3.164-12.547z"/><circle cx="363.969" cy="200.216" fill="#fff" r="9.15"/></svg>